<svg width="484" height="179" viewBox="0 0 484 179" fill="none" xmlns="http://www.w3.org/2000/svg">
<path d="M12.448 13.08H16.192V14.456C16.192 20.152 11.712 24.984 3.936 26.136L2.272 22.712C9.088 21.816 12.448 17.944 12.448 14.456V13.08ZM13.248 13.08H16.96V14.456C16.96 17.912 20.352 21.816 27.136 22.712L25.504 26.136C17.728 24.984 13.248 20.152 13.248 14.456V13.08ZM12.48 31H16.704V41.848H12.48V31ZM1.312 28.312H28.096V31.768H1.312V28.312ZM34.1095 19.576H54.5575V22.968H34.1095V19.576ZM34.1095 12.696H38.3335V21.112H34.1095V12.696ZM30.7495 25.496H57.5655V28.888H30.7495V25.496ZM44.0615 30.776C50.4615 30.776 54.3335 32.76 54.3335 36.28C54.3335 39.768 50.4615 41.784 44.0615 41.784C37.6615 41.784 33.7575 39.768 33.7575 36.28C33.7575 32.76 37.6615 30.776 44.0615 30.776ZM44.0615 34.04C40.0935 34.04 38.0775 34.744 38.0775 36.28C38.0775 37.784 40.0935 38.52 44.0615 38.52C48.0295 38.52 50.0455 37.784 50.0455 36.28C50.0455 34.744 48.0295 34.04 44.0615 34.04ZM79.227 12.216H83.483V33.624H79.227V12.216ZM82.267 20.28H87.419V23.768H82.267V20.28ZM61.275 25.368H63.739C70.171 25.368 73.371 25.24 76.923 24.472L77.339 27.832C73.723 28.632 70.331 28.792 63.739 28.792H61.275V25.368ZM61.275 14.552H74.523V17.976H65.499V27.192H61.275V14.552ZM64.379 37.944H84.539V41.336H64.379V37.944ZM64.379 31.384H68.635V39.672H64.379V31.384ZM110.009 12.216H114.297V41.848H110.009V12.216ZM101.273 15.288H105.497C105.497 24.344 102.425 31.768 91.8965 36.856L89.6885 33.464C98.2005 29.368 101.273 23.992 101.273 16.056V15.288ZM91.2565 15.288H103.289V18.648H91.2565V15.288ZM121.782 14.712H140.566V18.136H121.782V14.712ZM119.062 34.84H145.846V38.296H119.062V34.84ZM128.534 24.664H132.79V36.536H128.534V24.664ZM139.03 14.712H143.286V17.56C143.286 21.272 143.286 25.432 142.102 31.768L137.846 31.288C139.03 25.4 139.03 21.112 139.03 17.56V14.712ZM148.5 26.232H175.316V29.592H148.5V26.232ZM151.444 32.088H172.116V41.912H167.892V35.48H151.444V32.088ZM151.732 20.504H172.372V23.864H151.732V20.504ZM151.732 13.208H172.116V16.568H155.988V22.2H151.732V13.208ZM193.937 19.032H199.569V22.488H193.937V19.032ZM198.449 12.216H202.705V29.336H198.449V12.216ZM182.961 30.552H202.705V41.528H182.961V30.552ZM198.545 33.88H187.153V38.168H198.545V33.88ZM184.753 14.968H188.209V16.824C188.209 22.424 185.585 27.544 179.889 29.4L177.745 26.04C182.641 24.44 184.753 20.568 184.753 16.824V14.968ZM185.649 14.968H189.073V16.824C189.073 20.28 191.089 23.928 195.761 25.496L193.681 28.856C188.177 27.032 185.649 22.104 185.649 16.824V14.968ZM178.897 13.72H194.833V17.08H178.897V13.72ZM215.905 39V35.192H221.025V20.216H216.705V17.304C219.105 16.856 220.705 16.248 222.241 15.32H225.729V35.192H230.177V39H215.905ZM237.372 27.32C235.676 27.32 234.46 26.008 234.46 24.248C234.46 22.52 235.676 21.208 237.372 21.208C239.036 21.208 240.316 22.52 240.316 24.248C240.316 26.008 239.036 27.32 237.372 27.32ZM237.372 39.448C235.676 39.448 234.46 38.136 234.46 36.376C234.46 34.616 235.676 33.336 237.372 33.336C239.036 33.336 240.316 34.616 240.316 36.376C240.316 38.136 239.036 39.448 237.372 39.448ZM245.186 39V35.192H250.306V20.216H245.986V17.304C248.386 16.856 249.986 16.248 251.522 15.32H255.01V35.192H259.458V39H245.186ZM285.871 19.864H292.783V23.288H285.871V19.864ZM290.543 12.248H294.799V33.848H290.543V12.248ZM275.247 37.944H295.471V41.336H275.247V37.944ZM275.247 32.024H279.503V39.96H275.247V32.024ZM276.847 16.12H280.303V17.976C280.303 23.544 277.679 28.696 271.983 30.584L269.839 27.192C274.735 25.592 276.847 21.72 276.847 17.976V16.12ZM277.743 16.12H281.167V17.976C281.167 21.432 283.183 25.112 287.855 26.68L285.775 30.008C280.271 28.184 277.743 23.256 277.743 17.976V16.12ZM270.991 14.232H286.927V17.592H270.991V14.232ZM299.436 26.84H326.252V30.232H299.436V26.84ZM311.052 28.984H315.34V35.224H311.052V28.984ZM302.732 13.464H322.86V24.472H302.732V13.464ZM318.668 16.792H306.892V21.144H318.668V16.792ZM302.54 37.944H323.308V41.336H302.54V37.944ZM302.54 32.728H306.764V39.064H302.54V32.728ZM330.122 15.16H342.89V18.52H330.122V15.16ZM333.93 23.64H338.122V33.688H333.93V23.64ZM341.194 15.16H345.386V17.56C345.386 20.44 345.386 24.024 344.586 28.952L340.426 28.568C341.194 23.832 341.194 20.408 341.194 17.56V15.16ZM347.914 12.216H352.17V41.848H347.914V12.216ZM350.922 24.12H356.138V27.64H350.922V24.12ZM329.002 35.864L328.618 32.44C333.834 32.44 340.746 32.344 346.57 31.608L346.794 34.712C340.81 35.736 334.154 35.864 329.002 35.864ZM365.671 27.032H369.959V33.272H365.671V27.032ZM367.847 13.944C372.519 13.944 376.007 16.984 376.007 21.24C376.007 25.496 372.519 28.536 367.847 28.536C363.207 28.536 359.655 25.496 359.655 21.24C359.655 16.984 363.207 13.944 367.847 13.944ZM367.847 17.592C365.575 17.592 363.847 18.904 363.847 21.24C363.847 23.544 365.575 24.92 367.847 24.92C370.119 24.92 371.847 23.544 371.847 21.24C371.847 18.904 370.119 17.592 367.847 17.592ZM378.791 12.184H383.047V41.912H378.791V12.184ZM358.951 35.96L358.439 32.536C363.655 32.536 370.919 32.472 377.159 31.544L377.479 34.616C371.047 35.896 364.071 35.96 358.951 35.96Z" fill="black"/>
<path d="M22.688 73.216H26.72V102.848H22.688V73.216ZM18.72 84.608H23.648V88.032H18.72V84.608ZM16.064 73.728H20V101.44H16.064V73.728ZM2.112 92.672H4.192C7.84 92.672 10.88 92.544 14.4 91.904L14.72 95.36C11.136 96.064 8 96.16 4.192 96.16H2.112V92.672ZM2.112 76.64H13.056V80.064H6.336V94.336H2.112V76.64ZM51.0695 73.216H55.3575V102.848H51.0695V73.216ZM38.0135 80.896H41.3735V82.432C41.3735 88.704 38.5895 95.008 33.1175 97.376L30.8455 94.112C35.7095 91.936 38.0135 86.912 38.0135 82.432V80.896ZM38.9415 80.896H42.2695V82.432C42.2695 86.688 44.6055 91.552 49.5015 93.632L47.2295 96.896C41.7575 94.624 38.9415 88.512 38.9415 82.432V80.896ZM31.8375 78.048H48.3175V81.408H31.8375V78.048ZM38.0135 73.888H42.2695V79.776H38.0135V73.888ZM60.187 87.136H87.003V90.528H60.187V87.136ZM71.483 82.688H75.707V88.448H71.483V82.688ZM63.419 81.344H83.963V84.704H63.419V81.344ZM63.419 74.496H83.803V77.824H67.643V83.488H63.419V74.496ZM73.499 92C79.899 92 83.771 93.952 83.771 97.44C83.771 100.928 79.899 102.88 73.499 102.88C67.099 102.88 63.195 100.928 63.195 97.44C63.195 93.952 67.099 92 73.499 92ZM73.499 95.2C69.531 95.2 67.515 95.936 67.515 97.44C67.515 98.976 69.531 99.648 73.499 99.648C77.467 99.648 79.483 98.976 79.483 97.44C79.483 95.936 77.467 95.2 73.499 95.2ZM101.433 84.128H106.297V87.552H101.433V84.128ZM111.001 73.216H115.065V102.848H111.001V73.216ZM104.953 73.664H108.953V101.504H104.953V73.664ZM96.2485 75.296C100.185 75.296 102.713 79.36 102.713 86.048C102.713 92.768 100.185 96.832 96.2485 96.832C92.3445 96.832 89.8485 92.768 89.8485 86.048C89.8485 79.36 92.3445 75.296 96.2485 75.296ZM96.2485 79.296C94.6485 79.296 93.7205 81.536 93.7205 86.048C93.7205 90.592 94.6485 92.8 96.2485 92.8C97.9125 92.8 98.8405 90.592 98.8405 86.048C98.8405 81.536 97.9125 79.296 96.2485 79.296ZM133.974 82.464H141.782V85.888H133.974V82.464ZM125.91 75.488H129.366V79.776C129.366 87.232 126.838 94.112 121.27 96.896L118.614 93.472C123.67 91.136 125.91 85.408 125.91 79.776V75.488ZM126.806 75.488H130.198V79.776C130.198 85.408 132.342 90.816 137.238 92.992L134.71 96.384C129.142 93.696 126.806 87.168 126.806 79.776V75.488ZM139.67 73.184H143.894V102.912H139.67V73.184ZM166.534 74.912H170.982C170.982 82.72 166.182 88.096 157.51 90.464L155.846 87.168C162.918 85.248 166.534 81.472 166.534 76.928V74.912ZM157.478 74.912H169.478V78.272H157.478V74.912ZM176.262 73.216H180.518V89.792H176.262V73.216ZM171.142 80.224H176.87V83.68H171.142V80.224ZM160.998 90.976H180.518V102.528H160.998V90.976ZM176.326 94.336H165.19V99.168H176.326V94.336ZM185.155 86.88H211.939V90.24H185.155V86.88ZM198.499 91.872C204.899 91.872 208.771 93.888 208.771 97.376C208.771 100.864 204.899 102.848 198.499 102.848C192.099 102.848 188.195 100.864 188.195 97.376C188.195 93.888 192.099 91.872 198.499 91.872ZM198.499 95.168C194.531 95.168 192.515 95.84 192.515 97.376C192.515 98.88 194.531 99.584 198.499 99.584C202.467 99.584 204.483 98.88 204.483 97.376C204.483 95.84 202.467 95.168 198.499 95.168ZM195.619 76.256H199.395V76.992C199.395 81.408 195.395 85.088 187.747 85.76L186.275 82.464C192.771 81.888 195.619 79.296 195.619 76.992V76.256ZM197.699 76.256H201.475V76.992C201.475 79.296 204.291 81.888 210.819 82.464L209.347 85.76C201.731 85.088 197.699 81.44 197.699 76.992V76.256ZM187.587 74.592H209.539V77.952H187.587V74.592ZM217.185 82.272H231.713V85.664H217.185V82.272ZM222.273 84.448H226.529V90.112H222.273V84.448ZM217.185 75.008H231.521V78.4H221.441V83.68H217.185V75.008ZM235.009 73.184H239.297V95.488H235.009V73.184ZM219.233 98.944H240.097V102.336H219.233V98.944ZM219.233 93.92H223.489V100.224H219.233V93.92ZM215.265 92.16L214.753 88.8C220.353 88.8 227.297 88.736 233.249 88.096L233.537 91.136C227.361 92.032 220.705 92.16 215.265 92.16ZM252.592 100V96.192H257.712V81.216H253.392V78.304C255.792 77.856 257.392 77.248 258.928 76.32H262.416V96.192H266.864V100H252.592ZM274.059 88.32C272.363 88.32 271.147 87.008 271.147 85.248C271.147 83.52 272.363 82.208 274.059 82.208C275.723 82.208 277.003 83.52 277.003 85.248C277.003 87.008 275.723 88.32 274.059 88.32ZM274.059 100.448C272.363 100.448 271.147 99.136 271.147 97.376C271.147 95.616 272.363 94.336 274.059 94.336C275.723 94.336 277.003 95.616 277.003 97.376C277.003 99.136 275.723 100.448 274.059 100.448ZM281.873 100V96.192H286.993V81.216H282.673V78.304C285.073 77.856 286.673 77.248 288.209 76.32H291.697V96.192H296.145V100H281.873ZM314.27 89.312H318.558V95.424H314.27V89.312ZM314.238 78.752H317.63V79.424C317.63 84.384 314.974 88.704 309.342 90.208L307.422 86.944C312.158 85.696 314.238 82.592 314.238 79.424V78.752ZM315.134 78.752H318.558V79.424C318.558 82.464 320.702 85.472 325.406 86.688L323.518 89.952C317.886 88.512 315.134 84.256 315.134 79.424V78.752ZM308.318 76.704H324.542V80.064H308.318V76.704ZM314.27 73.472H318.558V78.176H314.27V73.472ZM327.166 73.184H331.422V102.912H327.166V73.184ZM307.326 97.408L306.814 93.952C311.998 93.952 319.294 93.888 325.534 92.96L325.854 96.064C319.422 97.312 312.446 97.376 307.326 97.408ZM355.196 73.216H359.452V90.368H355.196V73.216ZM358.268 80.128H363.388V83.616H358.268V80.128ZM346.716 75.136H351.292C351.292 83.104 346.364 88.64 337.628 91.072L335.9 87.68C343.036 85.728 346.716 81.856 346.716 77.28V75.136ZM337.308 75.136H349.308V78.56H337.308V75.136ZM349.852 90.752C355.836 90.752 359.772 93.088 359.772 96.8C359.772 100.544 355.836 102.88 349.852 102.88C343.868 102.88 339.868 100.544 339.868 96.8C339.868 93.088 343.868 90.752 349.852 90.752ZM349.852 94.048C346.236 94.048 344.092 95.008 344.092 96.8C344.092 98.624 346.236 99.584 349.852 99.584C353.468 99.584 355.612 98.624 355.612 96.8C355.612 95.008 353.468 94.048 349.852 94.048ZM391.883 73.216H396.139V90.368H391.883V73.216ZM394.955 80.128H400.075V83.616H394.955V80.128ZM383.403 75.136H387.979C387.979 83.104 383.051 88.64 374.315 91.072L372.587 87.68C379.723 85.728 383.403 81.856 383.403 77.28V75.136ZM373.995 75.136H385.995V78.56H373.995V75.136ZM386.539 90.752C392.523 90.752 396.459 93.088 396.459 96.8C396.459 100.544 392.523 102.88 386.539 102.88C380.555 102.88 376.555 100.544 376.555 96.8C376.555 93.088 380.555 90.752 386.539 90.752ZM386.539 94.048C382.923 94.048 380.779 95.008 380.779 96.8C380.779 98.624 382.923 99.584 386.539 99.584C390.155 99.584 392.299 98.624 392.299 96.8C392.299 95.008 390.155 94.048 386.539 94.048ZM408.905 75.488H412.361V79.808C412.361 87.136 409.801 94.016 404.201 96.768L401.641 93.344C406.633 91.008 408.905 85.312 408.905 79.808V75.488ZM409.769 75.488H413.161V79.808C413.161 85.12 415.273 90.528 420.009 92.832L417.449 96.224C412.105 93.504 409.769 86.912 409.769 79.808V75.488ZM421.193 73.216H425.481V102.848H421.193V73.216ZM424.521 84.608H429.769V88.16H424.521V84.608ZM438.886 76.512H442.406V79.008C442.406 84.608 439.686 89.664 433.99 91.52L431.814 88.192C436.742 86.592 438.886 82.752 438.886 79.008V76.512ZM439.75 76.512H443.238V79.008C443.238 82.528 445.35 86.144 450.182 87.68L448.006 90.976C442.438 89.216 439.75 84.384 439.75 79.008V76.512ZM432.934 75.328H449.062V78.688H432.934V75.328ZM452.038 73.248H456.326V94.624H452.038V73.248ZM436.582 98.944H457.062V102.336H436.582V98.944ZM436.582 92.704H440.838V100.64H436.582V92.704ZM464.228 91.936L463.524 80.128L463.396 75.68H468.1L467.972 80.128L467.3 91.936H464.228ZM465.732 100.448C464.068 100.448 462.82 99.136 462.82 97.376C462.82 95.616 464.068 94.336 465.732 94.336C467.428 94.336 468.676 95.616 468.676 97.376C468.676 99.136 467.428 100.448 465.732 100.448ZM476.072 91.936L475.368 80.128L475.24 75.68H479.944L479.816 80.128L479.144 91.936H476.072ZM477.576 100.448C475.911 100.448 474.664 99.136 474.664 97.376C474.664 95.616 475.911 94.336 477.576 94.336C479.272 94.336 480.52 95.616 480.52 97.376C480.52 99.136 479.272 100.448 477.576 100.448Z" fill="#467CD7"/>
<path d="M0.9 136.44H17.42V138.14H0.9V136.44ZM8.14 133.84H10.24V137.18H8.14V133.84ZM2.7 139.9H15.32V145.76H13.22V141.58H2.7V139.9ZM9.7 132.62H15.96V134.3H9.7V132.62ZM9.7 128.1H15.86V129.78H11.78V133.22H9.7V128.1ZM2.44 128.1H8.64V129.78H4.52V133.22H2.44V128.1ZM2.44 132.64H3.48C5.4 132.64 7 132.56 8.84 132.18L9.04 133.84C7.12 134.24 5.48 134.3 3.48 134.3H2.44V132.64ZM31.4784 127.38H33.5784V137.06H31.4784V127.38ZM32.9984 131.4H36.1584V133.12H32.9984V131.4ZM26.3584 128.64H28.6784C28.6784 133.34 25.5984 136.26 20.1584 137.4L19.3184 135.72C24.1184 134.78 26.3584 132.52 26.3584 129.86V128.64ZM20.1184 128.64H27.6384V130.32H20.1184V128.64ZM21.8784 137.84H33.6584V139.4H23.9584V144.66H21.8784V137.84ZM21.8784 143.88H34.0584V145.44H21.8784V143.88ZM23.2784 140.84H33.4584V142.36H23.2784V140.84ZM37.6969 136.86H54.2169V138.54H37.6969V136.86ZM39.7769 143.6H52.3769V145.3H39.7769V143.6ZM39.7769 139.98H41.8769V144.12H39.7769V139.98ZM45.9569 127.96C49.8969 127.96 52.4769 129.36 52.4769 131.66C52.4769 133.96 49.8969 135.36 45.9569 135.36C42.0169 135.36 39.4569 133.96 39.4569 131.66C39.4569 129.36 42.0169 127.96 45.9569 127.96ZM45.9569 129.64C43.2769 129.64 41.6169 130.38 41.6169 131.66C41.6169 132.96 43.2769 133.68 45.9569 133.68C48.6569 133.68 50.3169 132.96 50.3169 131.66C50.3169 130.38 48.6569 129.64 45.9569 129.64ZM74.1475 127.38H76.1475V145.66H74.1475V127.38ZM71.3875 134.64H74.6875V136.34H71.3875V134.64ZM70.0275 127.74H71.9875V144.76H70.0275V127.74ZM61.4075 129.5H63.5075V140.06H61.4075V129.5ZM61.4075 139.24H62.6075C64.4475 139.24 66.5075 139.14 68.8475 138.68L69.0675 140.5C66.6275 140.96 64.5275 141.04 62.6075 141.04H61.4075V139.24ZM82.9059 133.54H84.9859V136.94H82.9059V133.54ZM89.4859 133.54H91.5659V136.94H89.4859V133.54ZM78.9859 136.26H95.5059V137.92H78.9859V136.26ZM87.2259 139.1C91.1459 139.1 93.5259 140.28 93.5259 142.36C93.5259 144.46 91.1459 145.64 87.2259 145.64C83.2859 145.64 80.9259 144.46 80.9259 142.36C80.9259 140.28 83.2859 139.1 87.2259 139.1ZM87.2259 140.7C84.5459 140.7 83.0459 141.28 83.0459 142.36C83.0459 143.46 84.5459 144.04 87.2259 144.04C89.9059 144.04 91.4059 143.46 91.4059 142.36C91.4059 141.28 89.9059 140.7 87.2259 140.7ZM87.2459 127.68C91.2459 127.68 93.7659 128.98 93.7659 131.14C93.7659 133.3 91.2459 134.56 87.2459 134.56C83.2459 134.56 80.7459 133.3 80.7459 131.14C80.7459 128.98 83.2459 127.68 87.2459 127.68ZM87.2459 129.3C84.5259 129.3 82.9059 129.94 82.9059 131.14C82.9059 132.32 84.5259 132.96 87.2459 132.96C89.9859 132.96 91.6059 132.32 91.6059 131.14C91.6059 129.94 89.9859 129.3 87.2459 129.3ZM105.644 127.66C109.744 127.66 112.164 128.78 112.164 130.82C112.164 132.84 109.744 133.96 105.644 133.96C101.544 133.96 99.1444 132.84 99.1444 130.82C99.1444 128.78 101.544 127.66 105.644 127.66ZM105.644 129.22C102.824 129.22 101.304 129.78 101.304 130.82C101.304 131.86 102.824 132.4 105.644 132.4C108.484 132.4 109.984 131.86 109.984 130.82C109.984 129.78 108.484 129.22 105.644 129.22ZM97.3844 135.02H113.904V136.68H97.3844V135.02ZM99.3444 138.02H111.844V142.38H101.444V144.34H99.3644V140.9H109.784V139.58H99.3444V138.02ZM99.3644 143.88H112.364V145.5H99.3644V143.88ZM129.635 130.4H134.235V132.1H129.635V130.4ZM133.335 127.38H135.435V136.74H133.335V127.38ZM123.535 137.6H135.435V142.22H125.635V144.78H123.575V140.68H133.355V139.24H123.535V137.6ZM123.575 143.78H136.035V145.44H123.575V143.78ZM124.675 127.96H126.375V129.5C126.375 132.9 124.535 135.74 121.295 136.84L120.215 135.18C123.095 134.26 124.675 132 124.675 129.5V127.96ZM125.055 127.96H126.755V129.5C126.755 131.78 128.335 133.94 131.075 134.82L129.995 136.44C126.875 135.38 125.055 132.68 125.055 129.5V127.96ZM147.453 130.2H152.453V131.88H147.453V130.2ZM147.453 133.84H152.513V135.52H147.453V133.84ZM151.733 127.38H153.833V138.14H151.733V127.38ZM139.473 128.74H147.953V136.98H139.473V128.74ZM145.893 130.4H141.533V135.32H145.893V130.4ZM147.733 138.66C151.553 138.66 153.893 139.94 153.893 142.14C153.893 144.36 151.553 145.64 147.733 145.64C143.913 145.64 141.573 144.36 141.573 142.14C141.573 139.94 143.913 138.66 147.733 138.66ZM147.733 140.28C145.153 140.28 143.653 140.94 143.653 142.14C143.653 143.36 145.153 144.02 147.733 144.02C150.333 144.02 151.813 143.36 151.813 142.14C151.813 140.94 150.333 140.28 147.733 140.28ZM169.172 127.38H171.252V145.66H169.172V127.38ZM170.772 134.72H174.092V136.46H170.772V134.72ZM156.992 130.2H167.712V131.88H156.992V130.2ZM162.412 133.2C165.012 133.2 166.932 134.96 166.932 137.46C166.932 139.98 165.012 141.74 162.412 141.74C159.792 141.74 157.872 139.98 157.872 137.46C157.872 134.96 159.792 133.2 162.412 133.2ZM162.412 134.92C160.932 134.92 159.872 135.92 159.872 137.46C159.872 139 160.932 140.02 162.412 140.02C163.872 140.02 164.932 139 164.932 137.46C164.932 135.92 163.872 134.92 162.412 134.92ZM161.332 127.64H163.432V130.9H161.332V127.64ZM177.63 132.62H190.15V134.3H177.63V132.62ZM175.47 136.5H192.03V138.2H175.47V136.5ZM177.63 128.04H179.71V133.46H177.63V128.04ZM177.49 143.54H190.25V145.24H177.49V143.54ZM177.49 139.86H179.57V144H177.49V139.86ZM207.469 127.38H209.469V145.66H207.469V127.38ZM200.169 134.22H204.609V135.92H200.169V134.22ZM203.749 127.76H205.709V144.78H203.749V127.76ZM194.489 139.68H195.709C198.429 139.68 200.149 139.6 202.169 139.18L202.349 140.9C200.289 141.34 198.509 141.42 195.709 141.42H194.489V139.68ZM194.489 129.54H201.409V131.22H196.549V140.38H194.489V129.54ZM216.779 141.66H233.339V143.38H216.779V141.66ZM223.919 137.4H225.999V142.18H223.919V137.4ZM223.859 128.5H225.679V129.88C225.679 133.78 222.339 136.96 218.179 137.78L217.299 136.04C220.939 135.42 223.859 132.68 223.859 129.88V128.5ZM224.239 128.5H226.079V129.88C226.079 132.72 228.999 135.42 232.639 136.04L231.759 137.78C227.579 136.96 224.239 133.8 224.239 129.88V128.5ZM239.038 136.74H241.118V142.04H239.038V136.74ZM245.738 136.74H247.838V142.04H245.738V136.74ZM235.178 141.7H251.738V143.42H235.178V141.7ZM243.418 128.42C247.318 128.42 250.138 130.3 250.138 133.22C250.138 136.12 247.318 138 243.418 138C239.518 138 236.698 136.12 236.698 133.22C236.698 130.3 239.518 128.42 243.418 128.42ZM243.418 130.06C240.658 130.06 238.738 131.28 238.738 133.22C238.738 135.14 240.658 136.36 243.418 136.36C246.178 136.36 248.098 135.14 248.098 133.22C248.098 131.28 246.178 130.06 243.418 130.06ZM254.916 135.04H264.356V136.74H254.916V135.04ZM258.536 136.4H260.636V140.46H258.536V136.4ZM254.916 129.06H264.256V130.74H257.016V135.6H254.916V129.06ZM266.516 127.36H268.616V145.68H266.516V127.36ZM253.916 141.88L253.656 140.16C257.196 140.16 261.596 140.12 265.416 139.68L265.576 141.22C261.596 141.84 257.356 141.9 253.916 141.88ZM274.115 132.62H286.635V134.3H274.115V132.62ZM271.955 136.5H288.515V138.2H271.955V136.5ZM274.115 128.04H276.195V133.46H274.115V128.04ZM273.975 143.54H286.735V145.24H273.975V143.54ZM273.975 139.86H276.055V144H273.975V139.86ZM299.505 128.88H301.225V131.88C301.225 136.3 299.245 140.36 295.965 141.96L294.705 140.22C297.625 138.9 299.505 135.38 299.505 131.88V128.88ZM299.905 128.88H301.605V131.88C301.605 135.24 303.465 138.6 306.345 139.88L305.105 141.56C301.885 140.04 299.905 136.14 299.905 131.88V128.88ZM307.805 127.36H309.905V145.68H307.805V127.36ZM325.404 127.38H327.524V140.62H325.404V127.38ZM326.904 132.72H330.104V134.46H326.904V132.72ZM320.384 128.78H322.604C322.604 133.6 319.424 137.06 314.084 138.68L313.204 137C317.744 135.66 320.384 133 320.384 129.76V128.78ZM313.964 128.78H321.484V130.48H313.964V128.78ZM315.944 143.6H328.244V145.3H315.944V143.6ZM315.944 139.28H318.044V144.32H315.944V139.28ZM339.902 127.66C344.002 127.66 346.422 128.78 346.422 130.82C346.422 132.84 344.002 133.96 339.902 133.96C335.802 133.96 333.402 132.84 333.402 130.82C333.402 128.78 335.802 127.66 339.902 127.66ZM339.902 129.22C337.082 129.22 335.562 129.78 335.562 130.82C335.562 131.86 337.082 132.4 339.902 132.4C342.742 132.4 344.242 131.86 344.242 130.82C344.242 129.78 342.742 129.22 339.902 129.22ZM331.642 135.02H348.162V136.68H331.642V135.02ZM333.602 138.02H346.102V142.38H335.702V144.34H333.622V140.9H344.042V139.58H333.602V138.02ZM333.622 143.88H346.622V145.5H333.622V143.88ZM361.753 136.02H363.833V138.72H361.753V136.02ZM354.533 134.84H371.053V136.5H354.533V134.84ZM356.493 138.02H368.993V142.44H358.593V144.34H356.513V140.96H366.933V139.58H356.493V138.02ZM356.513 143.9H369.513V145.5H356.513V143.9ZM361.573 128.58H363.393V129.1C363.393 131.82 360.333 133.76 356.013 134.12L355.353 132.54C359.073 132.26 361.573 130.78 361.573 129.1V128.58ZM362.213 128.58H364.033V129.1C364.033 130.78 366.513 132.26 370.253 132.54L369.593 134.12C365.273 133.76 362.213 131.82 362.213 129.1V128.58ZM356.053 127.94H369.573V129.6H356.053V127.94ZM381.151 131.3H386.431V133H381.151V131.3ZM381.151 137.04H386.431V138.74H381.151V137.04ZM377.871 128.72C380.571 128.72 382.491 131.22 382.491 135.16C382.491 139.1 380.571 141.62 377.871 141.62C375.171 141.62 373.251 139.1 373.251 135.16C373.251 131.22 375.171 128.72 377.871 128.72ZM377.871 130.62C376.311 130.62 375.231 132.32 375.231 135.16C375.231 138.02 376.311 139.74 377.871 139.74C379.451 139.74 380.511 138.02 380.511 135.16C380.511 132.32 379.451 130.62 377.871 130.62ZM386.031 127.36H388.111V145.68H386.031V127.36ZM13.9 156.38H16V174.66H13.9V156.38ZM8.54 158.32H10.6C10.6 163.74 8.44 168.34 2.16 171.4L1.06 169.72C6.32 167.18 8.54 163.56 8.54 158.68V158.32ZM1.96 158.32H9.48V160H1.96V158.32ZM26.1584 158.2H28.0184V158.7C28.0184 161.72 25.0984 164.02 20.9584 164.58L20.1784 162.9C23.7384 162.48 26.1584 160.66 26.1584 158.7V158.2ZM27.1184 158.2H28.9584V158.7C28.9584 160.66 31.3984 162.48 34.9584 162.9L34.1784 164.58C30.0384 164.02 27.1184 161.72 27.1184 158.7V158.2ZM20.8184 157.22H34.3384V158.9H20.8184V157.22ZM21.3784 172.6H33.9784V174.3H21.3784V172.6ZM21.3784 169.1H23.4784V173.24H21.3784V169.1ZM19.2984 166.1H35.8584V167.78H19.2984V166.1ZM26.4984 163.3H28.5784V166.78H26.4984V163.3ZM54.3691 156.38H56.4691V167.16H54.3691V156.38ZM55.8891 160.9H59.0491V162.64H55.8891V160.9ZM49.2491 157.66H51.4891C51.4891 162.44 48.3291 165.86 43.0091 167.38L42.1491 165.7C46.6691 164.4 49.2491 161.82 49.2491 158.66V157.66ZM42.9691 157.66H50.4691V159.36H42.9691V157.66ZM50.6491 167.38C54.3091 167.38 56.6691 168.78 56.6691 171.02C56.6691 173.26 54.3091 174.64 50.6491 174.64C47.0091 174.64 44.6091 173.26 44.6091 171.02C44.6091 168.78 47.0091 167.38 50.6491 167.38ZM50.6491 169.02C48.2091 169.02 46.6891 169.76 46.6891 171.02C46.6891 172.28 48.2091 173 50.6491 173C53.1091 173 54.6291 172.28 54.6291 171.02C54.6291 169.76 53.1091 169.02 50.6491 169.02ZM66.5075 157.66C69.3675 157.66 71.4475 159.46 71.4475 162.04C71.4475 164.64 69.3675 166.44 66.5075 166.44C63.6475 166.44 61.5275 164.64 61.5275 162.04C61.5275 159.46 63.6475 157.66 66.5075 157.66ZM66.5075 159.46C64.8275 159.46 63.5875 160.46 63.5875 162.04C63.5875 163.62 64.8275 164.64 66.5075 164.64C68.1675 164.64 69.4075 163.62 69.4075 162.04C69.4075 160.46 68.1675 159.46 66.5075 159.46ZM73.5475 156.36H75.6475V174.68H73.5475V156.36ZM60.9475 170.82L60.6875 169.1C63.9675 169.1 68.5075 169.06 72.4475 168.48L72.6075 170C68.5675 170.78 64.1675 170.82 60.9475 170.82ZM97.0781 156.38H99.0781V174.66H97.0781V156.38ZM94.2781 163.58H97.5781V165.28H94.2781V163.58ZM92.9581 156.74H94.8981V173.76H92.9581V156.74ZM84.0781 168.58H85.3181C87.7981 168.58 89.6381 168.5 91.7781 168.08L91.9581 169.8C89.7581 170.24 87.8781 170.32 85.3181 170.32H84.0781V168.58ZM84.0781 158.56H90.8581V160.26H86.1581V169.4H84.0781V158.56ZM114.837 156.36H116.937V174.68H114.837V156.36ZM102.857 157.88H104.937V162.54H109.557V157.88H111.637V170.34H102.857V157.88ZM104.937 164.18V168.64H109.557V164.18H104.937ZM124.807 158.16H135.567V159.84H124.807V158.16ZM130.187 160.62C132.807 160.62 134.607 161.94 134.607 163.96C134.607 165.96 132.807 167.26 130.187 167.26C127.567 167.26 125.747 165.96 125.747 163.96C125.747 161.94 127.567 160.62 130.187 160.62ZM130.187 162.22C128.747 162.22 127.767 162.86 127.767 163.96C127.767 165.02 128.747 165.68 130.187 165.68C131.627 165.68 132.607 165.02 132.607 163.96C132.607 162.86 131.627 162.22 130.187 162.22ZM136.947 156.38H139.047V167.82H136.947V156.38ZM138.467 161.28H141.627V163H138.467V161.28ZM127.027 168.72H139.047V174.66H136.947V170.4H127.027V168.72ZM129.147 156.28H131.227V159.12H129.147V156.28ZM145.186 167.34H147.266V169.2H155.486V167.34H157.566V174.44H145.186V167.34ZM147.266 170.78V172.78H155.486V170.78H147.266ZM143.166 164.56H159.686V166.22H143.166V164.56ZM150.366 156.58H152.166V157.28C152.166 160.46 148.986 162.9 144.806 163.48L144.046 161.84C147.706 161.38 150.366 159.38 150.366 157.28V156.58ZM150.706 156.58H152.506V157.28C152.506 159.36 155.186 161.38 158.806 161.84L158.046 163.48C153.886 162.9 150.706 160.42 150.706 157.28V156.58ZM166.224 157.88H167.944V160.88C167.944 165.3 165.964 169.36 162.684 170.96L161.424 169.22C164.344 167.9 166.224 164.38 166.224 160.88V157.88ZM166.624 157.88H168.324V160.88C168.324 164.24 170.184 167.6 173.064 168.88L171.824 170.56C168.604 169.04 166.624 165.14 166.624 160.88V157.88ZM174.524 156.36H176.624V174.68H174.524V156.36ZM192.123 156.38H194.243V169.62H192.123V156.38ZM193.623 161.72H196.823V163.46H193.623V161.72ZM187.103 157.78H189.323C189.323 162.6 186.143 166.06 180.803 167.68L179.923 166C184.463 164.66 187.103 162 187.103 158.76V157.78ZM180.683 157.78H188.203V159.48H180.683V157.78ZM182.663 172.6H194.963V174.3H182.663V172.6ZM182.663 168.28H184.763V173.32H182.663V168.28ZM206.621 156.66C210.721 156.66 213.141 157.78 213.141 159.82C213.141 161.84 210.721 162.96 206.621 162.96C202.521 162.96 200.121 161.84 200.121 159.82C200.121 157.78 202.521 156.66 206.621 156.66ZM206.621 158.22C203.801 158.22 202.281 158.78 202.281 159.82C202.281 160.86 203.801 161.4 206.621 161.4C209.461 161.4 210.961 160.86 210.961 159.82C210.961 158.78 209.461 158.22 206.621 158.22ZM198.361 164.02H214.881V165.68H198.361V164.02ZM200.321 167.02H212.821V171.38H202.421V173.34H200.341V169.9H210.761V168.58H200.321V167.02ZM200.341 172.88H213.341V174.5H200.341V172.88ZM233.432 156.38H235.532V169.6H233.432V156.38ZM234.912 161.6H238.112V163.34H234.912V161.6ZM222.032 164.78H223.492C227.352 164.78 229.392 164.68 231.732 164.18L231.952 165.86C229.552 166.38 227.432 166.48 223.492 166.48H222.032V164.78ZM222.032 157.9H230.152V159.6H224.112V165.68H222.032V157.9ZM223.972 172.6H236.272V174.3H223.972V172.6ZM223.972 168.24H226.072V173.42H223.972V168.24ZM246.87 166.68H248.95V169.48H246.87V166.68ZM239.65 165.48H256.17V167.16H239.65V165.48ZM241.49 169H254.15V174.62H252.07V170.68H241.49V169ZM246.87 156.34H248.95V158.94H246.87V156.34ZM246.75 159.16H248.59V159.48C248.59 162.4 245.57 164.24 241.15 164.64L240.51 163.06C244.43 162.76 246.75 161.28 246.75 159.48V159.16ZM247.23 159.16H249.07V159.48C249.07 161.28 251.39 162.76 255.31 163.06L254.67 164.64C250.23 164.24 247.23 162.4 247.23 159.48V159.16ZM241.29 158.12H254.53V159.76H241.29V158.12ZM270.228 156.38H272.328V167.04H270.228V156.38ZM271.468 160.92H274.908V162.66H271.468V160.92ZM260.668 167.8H262.728V169.48H270.248V167.8H272.328V174.44H260.668V167.8ZM262.728 171.08V172.78H270.248V171.08H262.728ZM258.088 158.12H268.848V159.8H258.088V158.12ZM263.468 160.48C266.088 160.48 267.888 161.76 267.888 163.7C267.888 165.64 266.088 166.92 263.468 166.92C260.828 166.92 259.028 165.64 259.028 163.7C259.028 161.76 260.828 160.48 263.468 160.48ZM263.468 162.04C262.028 162.04 261.048 162.68 261.048 163.7C261.048 164.74 262.028 165.38 263.468 165.38C264.908 165.38 265.888 164.74 265.888 163.7C265.888 162.68 264.908 162.04 263.468 162.04ZM262.428 156.22H264.508V159.04H262.428V156.22ZM289.467 156.38H291.547V174.66H289.467V156.38ZM277.527 158.14H279.607V169.48H277.527V158.14ZM277.527 168.24H279.087C281.807 168.24 284.727 168.04 287.787 167.42L288.027 169.18C284.867 169.84 281.927 170.04 279.087 170.04H277.527V168.24ZM306.925 156.36H309.025V174.68H306.925V156.36ZM308.545 163.38H311.865V165.12H308.545V163.38ZM295.605 168.46H297.085C300.325 168.46 302.725 168.34 305.425 167.84L305.645 169.6C302.845 170.1 300.405 170.2 297.085 170.2H295.605V168.46ZM295.605 158.1H304.105V159.8H297.685V169.26H295.605V158.1ZM315.324 173.28C314.444 173.28 313.784 172.6 313.784 171.66C313.784 170.7 314.444 170.04 315.324 170.04C316.184 170.04 316.864 170.7 316.864 171.66C316.864 172.6 316.184 173.28 315.324 173.28Z" fill="black"/>
<circle cx="72.5" cy="3.5" r="3.5" fill="black"/>
<circle cx="167.5" cy="64.5" r="3.5" fill="#467CD7"/>
<circle cx="102" cy="3.5" r="3.5" fill="black"/>
<circle cx="197" cy="64.5" r="3.5" fill="#467CD7"/>
<circle cx="131.5" cy="3.5" r="3.5" fill="black"/>
<circle cx="226.5" cy="64.5" r="3.5" fill="#467CD7"/>
<circle cx="161" cy="3.5" r="3.5" fill="black"/>
<circle cx="189.5" cy="3.5" r="3.5" fill="black"/>
</svg>
