<svg width="802" height="464" viewBox="0 0 802 464" fill="none" xmlns="http://www.w3.org/2000/svg">
<rect width="802" height="464" fill="#F3F3F3"/>
<path d="M87.896 147.904H92.684V172.816H87.896V147.904ZM91.316 158.056H97.112V161.98H91.316V158.056ZM66.44 151.36H86.06V155.104H66.44V151.36ZM76.268 156.292C81.056 156.292 84.44 158.92 84.44 162.736C84.44 166.552 81.056 169.144 76.268 169.144C71.444 169.144 68.06 166.552 68.06 162.736C68.06 158.92 71.444 156.292 76.268 156.292ZM76.268 159.928C74.144 159.928 72.668 160.936 72.668 162.736C72.668 164.536 74.144 165.508 76.268 165.508C78.392 165.508 79.868 164.536 79.868 162.736C79.868 160.936 78.392 159.928 76.268 159.928ZM73.856 147.832H78.644V153.196H73.856V147.832ZM71.192 176.812H93.872V180.628H71.192V176.812ZM71.192 170.944H75.98V178.468H71.192V170.944ZM120.869 147.832H125.693V181.168H120.869V147.832ZM124.433 160.576H130.301V164.5H124.433V160.576ZM112.121 151.288H116.801C116.801 161.296 112.985 169.864 101.897 175.444L99.2332 171.808C107.981 167.272 112.121 161.152 112.121 152.116V151.288ZM101.069 151.288H114.569V155.14H101.069V151.288ZM140.702 153.124H144.518V156.868C144.518 164.572 141.386 172.096 135.122 174.94L132.422 171.16C138.002 168.676 140.702 162.52 140.702 156.868V153.124ZM141.782 153.124H145.562V156.868C145.562 162.268 148.226 168.028 153.806 170.332L151.214 174.112C144.878 171.376 141.782 164.284 141.782 156.868V153.124ZM133.754 151.072H152.438V154.996H133.754V151.072ZM155.534 147.868H160.358V181.204H155.534V147.868ZM189.32 168.244C196.232 168.244 200.588 170.656 200.588 174.724C200.588 178.828 196.232 181.24 189.32 181.24C182.372 181.24 178.016 178.828 178.016 174.724C178.016 170.656 182.372 168.244 189.32 168.244ZM189.32 171.988C185.072 171.988 182.768 172.852 182.768 174.724C182.768 176.632 185.072 177.532 189.32 177.532C193.568 177.532 195.836 176.632 195.836 174.724C195.836 172.852 193.568 171.988 189.32 171.988ZM195.404 147.868H200.192V167.488H195.404V147.868ZM198.86 155.608H204.62V159.568H198.86V155.608ZM174.92 149.992H179.672V154.096H186.188V149.992H190.94V165.652H174.92V149.992ZM179.672 157.804V161.908H186.188V157.804H179.672ZM214.877 149.38H218.837V152.584C218.837 158.884 215.777 164.608 209.261 166.696L206.921 162.916C212.537 161.116 214.877 156.796 214.877 152.584V149.38ZM215.849 149.38H219.773V152.584C219.773 156.688 222.077 160.72 227.513 162.376L225.173 166.12C218.801 164.104 215.849 158.776 215.849 152.584V149.38ZM212.033 169.216H234.785V181.204H229.961V173.032H212.033V169.216ZM229.961 147.868H234.785V167.74H229.961V147.868ZM241.154 150.604H257.03V166.696H241.154V150.604ZM252.314 154.384H245.87V162.916H252.314V154.384ZM261.638 147.868H266.426V172.168H261.638V147.868ZM265.058 157.48H270.854V161.404H265.058V157.48ZM244.934 176.812H267.614V180.628H244.934V176.812ZM244.934 169.792H249.722V178.72H244.934V169.792ZM288.383 148.336C295.979 148.336 300.443 150.352 300.443 154.024C300.443 157.696 295.979 159.712 288.383 159.712C280.751 159.712 276.323 157.696 276.323 154.024C276.323 150.352 280.751 148.336 288.383 148.336ZM288.383 151.828C283.559 151.828 281.291 152.548 281.291 154.024C281.291 155.572 283.559 156.22 288.383 156.22C293.207 156.22 295.475 155.572 295.475 154.024C295.475 152.548 293.207 151.828 288.383 151.828ZM273.299 161.26H303.431V165.04H273.299V161.26ZM276.755 166.912H299.795V175.48H281.507V178.432H276.791V172.168H295.079V170.476H276.755V166.912ZM276.791 177.388H300.659V180.988H276.791V177.388ZM317.669 150.676H338.801V154.528H317.669V150.676ZM314.609 173.32H344.741V177.208H314.609V173.32ZM325.265 161.872H330.053V175.228H325.265V161.872ZM337.073 150.676H341.861V153.88C341.861 158.056 341.861 162.736 340.529 169.864L335.741 169.324C337.073 162.7 337.073 157.876 337.073 153.88V150.676ZM355.79 150.748H359.714V152.8C359.714 158.776 356.618 164.176 350.21 166.12L347.798 162.376C353.378 160.756 355.79 156.724 355.79 152.8V150.748ZM356.762 150.748H360.686V152.8C360.686 156.508 363.098 160.288 368.498 161.836L366.158 165.544C359.858 163.708 356.762 158.56 356.762 152.8V150.748ZM349.094 149.668H367.238V153.448H349.094V149.668ZM370.586 147.868H375.41V165.94H370.586V147.868ZM353.234 167.38H357.95V170.404H370.658V167.38H375.41V180.844H353.234V167.38ZM357.95 174.112V177.028H370.658V174.112H357.95ZM402.191 147.868H406.943V181.204H402.191V147.868ZM405.863 160.864H411.767V164.86H405.863V160.864ZM380.663 152.8H400.067V156.616H380.663V152.8ZM390.419 158.488C395.279 158.488 398.879 161.8 398.879 166.444C398.879 171.088 395.279 174.4 390.419 174.4C385.559 174.4 381.959 171.088 381.959 166.444C381.959 161.8 385.559 158.488 390.419 158.488ZM390.419 162.376C388.151 162.376 386.531 163.888 386.531 166.444C386.531 169 388.151 170.512 390.419 170.512C392.687 170.512 394.307 169 394.307 166.444C394.307 163.888 392.687 162.376 390.419 162.376ZM388.007 148.408H392.795V154.24H388.007V148.408ZM421.952 153.124H425.768V156.868C425.768 164.572 422.636 172.096 416.372 174.94L413.672 171.16C419.252 168.676 421.952 162.52 421.952 156.868V153.124ZM423.032 153.124H426.812V156.868C426.812 162.268 429.476 168.028 435.056 170.332L432.464 174.112C426.128 171.376 423.032 164.284 423.032 156.868V153.124ZM415.004 151.072H433.688V154.996H415.004V151.072ZM436.784 147.868H441.608V181.204H436.784V147.868ZM464.306 149.452C469.418 149.452 473.198 152.692 473.198 157.228C473.198 161.8 469.418 165.04 464.306 165.04C459.23 165.04 455.414 161.8 455.414 157.228C455.414 152.692 459.23 149.452 464.306 149.452ZM464.306 153.34C461.894 153.34 460.058 154.816 460.058 157.228C460.058 159.676 461.894 161.152 464.306 161.152C466.754 161.152 468.59 159.676 468.59 157.228C468.59 154.816 466.754 153.34 464.306 153.34ZM476.654 147.868H481.442V164.284H476.654V147.868ZM479.534 154.78H485.87V158.668H479.534V154.78ZM458.15 176.524H459.986C462.902 176.524 465.458 176.308 467.906 175.48L468.626 179.224C465.854 180.196 463.262 180.34 459.986 180.34H458.15V176.524ZM458.15 167.488H462.794V177.676H458.15V167.488ZM467.438 167.596H484.106V171.016H467.438V167.596ZM475.79 171.844C479.57 171.844 482.198 173.68 482.198 176.56C482.198 179.44 479.57 181.24 475.79 181.24C471.974 181.24 469.346 179.44 469.346 176.56C469.346 173.68 471.974 171.844 475.79 171.844ZM475.79 175.12C474.494 175.12 473.594 175.588 473.594 176.56C473.594 177.532 474.494 178 475.79 178C477.014 178 477.95 177.532 477.95 176.56C477.95 175.588 477.014 175.12 475.79 175.12ZM473.486 165.22H478.13V170.152H473.486V165.22ZM491.411 150.676H512.543V154.528H491.411V150.676ZM488.351 173.32H518.483V177.208H488.351V173.32ZM499.007 161.872H503.795V175.228H499.007V161.872ZM510.815 150.676H515.603V153.88C515.603 158.056 515.603 162.736 514.271 169.864L509.483 169.324C510.815 162.7 510.815 157.876 510.815 153.88V150.676ZM522.98 185.704L521.9 182.824C524.708 181.78 526.256 179.872 526.22 177.748L526.04 174.004L527.912 177.1C527.372 177.64 526.652 177.892 525.86 177.892C524.132 177.892 522.548 176.74 522.548 174.76C522.548 172.852 524.096 171.628 526.004 171.628C528.416 171.628 529.784 173.572 529.784 176.812C529.784 181.06 527.372 184.264 522.98 185.704Z" fill="#174EB8"/>
<path d="M259.752 215.832H264.576V249.276H259.752V215.832ZM263.496 228.18H269.4V232.104H263.496V228.18ZM239.736 237.288H242.544C248.16 237.288 252.588 237.108 257.484 236.244L257.952 240.204C252.912 241.104 248.34 241.248 242.544 241.248H239.736V237.288ZM239.736 218.928H255.288V222.78H244.488V239.196H239.736V218.928ZM296.325 219.972H302.085V223.86H296.325V219.972ZM296.325 227.208H302.085V231.096H296.325V227.208ZM280.845 217.668C285.993 217.668 289.917 221.052 289.917 225.768C289.917 230.448 285.993 233.832 280.845 233.832C275.697 233.832 271.773 230.448 271.773 225.768C271.773 221.052 275.697 217.668 280.845 217.668ZM280.845 221.664C278.325 221.664 276.453 223.212 276.453 225.768C276.453 228.36 278.325 229.836 280.845 229.836C283.365 229.836 285.237 228.36 285.237 225.768C285.237 223.212 283.365 221.664 280.845 221.664ZM293.013 215.868H297.801V235.308H293.013V215.868ZM286.929 236.028C293.805 236.028 298.197 238.512 298.197 242.616C298.197 246.756 293.805 249.204 286.929 249.204C280.017 249.204 275.625 246.756 275.625 242.616C275.625 238.512 280.017 236.028 286.929 236.028ZM286.929 239.808C282.681 239.808 280.377 240.708 280.377 242.616C280.377 244.56 282.681 245.46 286.929 245.46C291.177 245.46 293.445 244.56 293.445 242.616C293.445 240.708 291.177 239.808 286.929 239.808ZM326.13 215.904H330.918V240.816H326.13V215.904ZM329.55 226.056H335.346V229.98H329.55V226.056ZM304.674 219.36H324.294V223.104H304.674V219.36ZM314.502 224.292C319.29 224.292 322.674 226.92 322.674 230.736C322.674 234.552 319.29 237.144 314.502 237.144C309.678 237.144 306.294 234.552 306.294 230.736C306.294 226.92 309.678 224.292 314.502 224.292ZM314.502 227.928C312.378 227.928 310.902 228.936 310.902 230.736C310.902 232.536 312.378 233.508 314.502 233.508C316.626 233.508 318.102 232.536 318.102 230.736C318.102 228.936 316.626 227.928 314.502 227.928ZM312.09 215.832H316.878V221.196H312.09V215.832ZM309.426 244.812H332.106V248.628H309.426V244.812ZM309.426 238.944H314.214V246.468H309.426V238.944ZM348.576 216.624H373.416V220.188H348.576V216.624ZM348.828 224.292H373.164V227.856H348.828V224.292ZM352.824 218.028H357.612V226.74H352.824V218.028ZM364.38 218.028H369.168V226.74H364.38V218.028ZM345.948 229.584H376.08V233.328H345.948V229.584ZM358.584 231.852H363.372V236.496H358.584V231.852ZM349.404 235.452H372.444V243.732H354.156V246.828H349.44V240.528H367.728V238.872H349.404V235.452ZM349.44 245.496H373.308V248.988H349.44V245.496ZM401.925 215.832H406.749V249.276H401.925V215.832ZM388.785 218.172C393.825 218.172 397.533 222.78 397.533 230.052C397.533 237.396 393.825 242.004 388.785 242.004C383.745 242.004 380.037 237.396 380.037 230.052C380.037 222.78 383.745 218.172 388.785 218.172ZM388.785 222.528C386.301 222.528 384.609 225.156 384.609 230.052C384.609 235.02 386.301 237.684 388.785 237.684C391.269 237.684 392.925 235.02 392.925 230.052C392.925 225.156 391.269 222.528 388.785 222.528ZM422.91 218.064C428.166 218.064 432.09 221.484 432.09 226.272C432.09 231.096 428.166 234.516 422.91 234.516C417.69 234.516 413.694 231.096 413.694 226.272C413.694 221.484 417.69 218.064 422.91 218.064ZM422.91 222.168C420.354 222.168 418.41 223.68 418.41 226.272C418.41 228.9 420.354 230.412 422.91 230.412C425.466 230.412 427.41 228.9 427.41 226.272C427.41 223.68 425.466 222.168 422.91 222.168ZM435.222 215.832H440.01V249.276H435.222V215.832ZM412.902 242.508L412.326 238.656C418.194 238.656 426.366 238.584 433.386 237.54L433.746 240.996C426.51 242.436 418.662 242.508 412.902 242.508ZM471.492 223.32H477.828V227.172H471.492V223.32ZM476.568 215.868H481.356V234.084H476.568V215.868ZM459.216 235.452H463.968V238.476H476.604V235.452H481.356V248.844H459.216V235.452ZM463.968 242.184V245.028H476.604V242.184H463.968ZM461.16 218.424H465.048V220.548C465.048 226.812 462.096 232.608 455.688 234.732L453.276 230.916C458.784 229.116 461.16 224.76 461.16 220.548V218.424ZM462.168 218.424H466.02V220.548C466.02 224.436 468.288 228.576 473.544 230.34L471.204 234.048C465.012 231.996 462.168 226.488 462.168 220.548V218.424ZM454.572 217.38H472.5V221.196H454.572V217.38ZM490.281 217.704H511.341V221.52H490.281V217.704ZM486.609 230.592H516.777V234.444H486.609V230.592ZM508.533 217.704H513.249V220.584C513.249 223.752 513.249 227.28 512.205 232.068L507.489 231.636C508.533 226.992 508.533 223.68 508.533 220.584V217.704ZM490.389 244.776H514.185V248.628H490.389V244.776ZM490.389 237.288H495.141V245.172H490.389V237.288ZM535.062 236.244C541.974 236.244 546.33 238.656 546.33 242.724C546.33 246.828 541.974 249.24 535.062 249.24C528.114 249.24 523.758 246.828 523.758 242.724C523.758 238.656 528.114 236.244 535.062 236.244ZM535.062 239.988C530.814 239.988 528.51 240.852 528.51 242.724C528.51 244.632 530.814 245.532 535.062 245.532C539.31 245.532 541.578 244.632 541.578 242.724C541.578 240.852 539.31 239.988 535.062 239.988ZM541.146 215.868H545.934V235.488H541.146V215.868ZM544.602 223.608H550.362V227.568H544.602V223.608ZM520.662 217.992H525.414V222.096H531.93V217.992H536.682V233.652H520.662V217.992ZM525.414 225.804V229.908H531.93V225.804H525.414ZM560.619 217.38H564.579V220.584C564.579 226.884 561.519 232.608 555.003 234.696L552.663 230.916C558.279 229.116 560.619 224.796 560.619 220.584V217.38ZM561.591 217.38H565.515V220.584C565.515 224.688 567.819 228.72 573.255 230.376L570.915 234.12C564.543 232.104 561.591 226.776 561.591 220.584V217.38ZM557.775 237.216H580.527V249.204H575.703V241.032H557.775V237.216ZM575.703 215.868H580.527V235.74H575.703V215.868ZM601.008 216.336C608.604 216.336 613.068 218.352 613.068 222.024C613.068 225.696 608.604 227.712 601.008 227.712C593.376 227.712 588.948 225.696 588.948 222.024C588.948 218.352 593.376 216.336 601.008 216.336ZM601.008 219.828C596.184 219.828 593.916 220.548 593.916 222.024C593.916 223.572 596.184 224.22 601.008 224.22C605.832 224.22 608.1 223.572 608.1 222.024C608.1 220.548 605.832 219.828 601.008 219.828ZM585.924 229.26H616.056V233.04H585.924V229.26ZM589.38 234.912H612.42V243.48H594.132V246.432H589.416V240.168H607.704V238.476H589.38V234.912ZM589.416 245.388H613.284V248.988H589.416V245.388Z" fill="#174EB8"/>
<path d="M380.524 283.868H385.06V317.204H380.524V283.868ZM369.544 295.244H375.052V299.132H369.544V295.244ZM373.792 284.408H378.256V315.692H373.792V284.408ZM362.344 289.304H365.944V292.724C365.944 300.212 363.892 307.664 358.6 310.976L355.756 307.448C360.652 304.388 362.344 298.412 362.344 292.724V289.304ZM363.424 289.304H366.988V292.724C366.988 298.268 368.644 303.884 373.468 306.692L370.66 310.184C365.368 307.052 363.424 300.068 363.424 292.724V289.304ZM357.016 287.216H371.884V291.068H357.016V287.216ZM404.461 304.604C411.661 304.604 416.269 306.98 416.269 310.94C416.269 314.828 411.661 317.204 404.461 317.204C397.261 317.204 392.653 314.828 392.653 310.94C392.653 306.98 397.261 304.604 404.461 304.604ZM404.461 308.204C399.961 308.204 397.405 309.14 397.405 310.94C397.405 312.704 399.961 313.604 404.461 313.604C408.961 313.604 411.517 312.704 411.517 310.94C411.517 309.14 408.961 308.204 404.461 308.204ZM393.013 285.344H414.109V289.124H393.013V285.344ZM389.629 298.736H419.653V302.552H389.629V298.736ZM400.753 292.94H405.505V299.708H400.753V292.94ZM411.337 285.344H416.089V288.08C416.089 290.708 416.089 293.552 415.189 297.008L410.437 296.504C411.337 293.084 411.337 290.672 411.337 288.08V285.344ZM422.638 288.872H438.586V292.688H422.638V288.872ZM430.666 294.164C434.914 294.164 437.974 297.44 437.974 302.12C437.974 306.764 434.914 310.04 430.666 310.04C426.454 310.04 423.358 306.764 423.358 302.12C423.358 297.44 426.454 294.164 430.666 294.164ZM430.666 298.16C428.866 298.16 427.606 299.6 427.606 302.12C427.606 304.64 428.866 306.044 430.666 306.044C432.466 306.044 433.762 304.64 433.762 302.12C433.762 299.6 432.466 298.16 430.666 298.16ZM446.758 283.868H451.33V317.204H446.758V283.868ZM442.762 297.404H448.27V301.256H442.762V297.404ZM439.774 284.48H444.238V315.8H439.774V284.48ZM428.326 284.768H433.042V291.284H428.326V284.768ZM476.62 299.744H481.408V304.388H476.62V299.744ZM463.948 297.116H494.08V300.86H463.948V297.116ZM467.404 302.948H490.444V311.516H472.156V314.432H467.44V308.24H485.728V306.44H467.404V302.948ZM467.44 313.424H491.308V316.988H467.44V313.424ZM476.152 286.208H480.328V287.036C480.328 291.788 475.612 295.568 466.756 296.216L465.28 292.616C472.876 292.112 476.152 289.448 476.152 287.036V286.208ZM477.7 286.208H481.876V287.036C481.876 289.448 485.152 292.112 492.784 292.616L491.308 296.216C482.452 295.568 477.7 291.824 477.7 287.036V286.208ZM466.684 284.768H491.38V288.476H466.684V284.768ZM517.785 284.84H521.997V286.388C521.997 292.796 516.957 298.232 508.209 299.528L506.337 295.676C514.005 294.668 517.785 290.312 517.785 286.388V284.84ZM518.685 284.84H522.861V286.388C522.861 290.276 526.677 294.668 534.309 295.676L532.473 299.528C523.725 298.232 518.685 292.796 518.685 286.388V284.84ZM517.821 305H522.573V317.204H517.821V305ZM505.257 301.976H535.389V305.864H505.257V301.976ZM553.983 304.1H557.583V305.216C557.583 310.256 555.351 314.864 550.131 316.736L547.791 313.244C552.147 311.768 553.983 308.456 553.983 305.216V304.1ZM555.207 304.1H558.627V305.216C558.627 308.456 560.247 311.84 564.315 313.532L562.407 317.06C557.115 315.08 555.207 310.112 555.207 305.216V304.1ZM566.151 304.1H569.571V305.216C569.571 309.824 567.591 315.008 562.407 317.06L560.427 313.532C564.495 311.696 566.151 308.168 566.151 305.216V304.1ZM567.267 304.1H570.867V305.216C570.867 308.672 572.667 311.876 577.059 313.244L574.719 316.736C569.427 314.936 567.267 310.472 567.267 305.216V304.1ZM569.391 283.904H574.215V302.732H569.391V283.904ZM556.071 285.596C561.255 285.596 565.107 288.908 565.107 293.588C565.107 298.232 561.255 301.544 556.071 301.544C550.887 301.544 546.999 298.232 546.999 293.588C546.999 288.908 550.887 285.596 556.071 285.596ZM556.071 289.556C553.551 289.556 551.679 291.032 551.679 293.588C551.679 296.108 553.551 297.584 556.071 297.584C558.591 297.584 560.427 296.108 560.427 293.588C560.427 291.032 558.591 289.556 556.071 289.556ZM583.356 292.868H606.468V296.648H583.356V292.868ZM579.612 300.104H609.816V303.92H579.612V300.104ZM583.356 285.056H588.108V294.74H583.356V285.056ZM583.032 312.668H606.648V316.484H583.032V312.668ZM583.032 306.584H587.82V313.676H583.032V306.584ZM637.913 290.96H645.653V294.812H637.913V290.96ZM628.517 285.92H632.369V289.52C632.369 296.324 629.525 302.12 623.225 304.424L620.705 300.68C626.213 298.844 628.517 294.236 628.517 289.52V285.92ZM629.561 285.92H633.377V289.556C633.377 293.84 635.573 298.124 640.829 299.924L638.273 303.596C632.297 301.436 629.561 295.856 629.561 289.556V285.92ZM643.997 283.904H648.785V308.492H643.997V283.904ZM626.717 312.812H649.505V316.628H626.717V312.812ZM626.717 306.008H631.541V314.936H626.717V306.008ZM660.015 285.884H663.759V289.736C663.759 295.388 661.491 301.04 656.055 303.344L653.535 299.636C658.179 297.584 660.015 293.48 660.015 289.736V285.884ZM660.879 285.884H664.623V289.736C664.623 293.3 666.423 296.9 670.815 298.628L668.259 302.264C663.075 300.212 660.879 295.172 660.879 289.736V285.884ZM677.871 283.904H682.407V304.244H677.871V283.904ZM673.875 291.968H679.167V295.82H673.875V291.968ZM670.815 284.516H675.279V303.2H670.815V284.516ZM671.103 304.712C678.087 304.712 682.587 307.052 682.587 310.976C682.587 314.864 678.087 317.204 671.103 317.204C664.083 317.204 659.655 314.864 659.655 310.976C659.655 307.052 664.083 304.712 671.103 304.712ZM671.103 308.312C666.819 308.312 664.407 309.212 664.407 310.976C664.407 312.74 666.819 313.604 671.103 313.604C675.387 313.604 677.763 312.74 677.763 310.976C677.763 309.212 675.387 308.312 671.103 308.312ZM710.016 283.868H714.84V302.552H710.016V283.868ZM689.028 285.776H693.78V299.528H689.028V285.776ZM689.028 297.008H691.908C697.704 297.008 702.42 296.684 707.316 295.64L707.892 299.492C702.816 300.608 697.884 300.968 691.908 300.968H689.028V297.008ZM692.664 303.956H714.84V316.844H692.664V303.956ZM710.124 307.7H697.344V313.064H710.124V307.7ZM723.729 304.928L722.937 291.644L722.793 286.64H728.085L727.941 291.644L727.185 304.928H723.729ZM725.421 314.504C723.549 314.504 722.145 313.028 722.145 311.048C722.145 309.068 723.549 307.628 725.421 307.628C727.329 307.628 728.733 309.068 728.733 311.048C728.733 313.028 727.329 314.504 725.421 314.504Z" fill="#174EB8"/>
</svg>
