<svg width="802" height="464" viewBox="0 0 802 464" fill="none" xmlns="http://www.w3.org/2000/svg">
<rect width="802" height="464" fill="#F3F3F3"/>
<path d="M38.544 43.688H42.768V47.816H38.544V43.688ZM27.28 46.376H54.064V49.704H27.28V46.376ZM30.352 51.208H50.832L50.832 58.824L34.576 58.824V61.416H30.384V55.88H46.64V54.312H30.352V51.208ZM30.384 60.488L51.6 60.488V63.656L30.384 63.656V60.488ZM37.744 36.424H41.456V37.16C41.456 41.384 37.392 44.744 29.776 45.288L28.4 42.12C34.864 41.64 37.744 39.336 37.744 37.16V36.424ZM39.92 36.424H43.6V37.16C43.6 39.336 46.48 41.64 52.944 42.12L51.6 45.288C43.984 44.712 39.92 41.416 39.92 37.16V36.424ZM29.712 34.984H51.664V38.312H29.712L29.712 34.984ZM71.6935 40.744H79.1175V44.168H71.6935V40.744ZM64.9095 35.432C69.3575 35.432 72.7175 38.408 72.7175 42.504C72.7175 46.632 69.3575 49.576 64.9095 49.576C60.4295 49.576 57.0695 46.632 57.0695 42.504C57.0695 38.408 60.4295 35.432 64.9095 35.432ZM64.9095 38.984C62.7335 38.984 61.1335 40.296 61.1335 42.504C61.1335 44.712 62.7335 46.056 64.9095 46.056C67.0855 46.056 68.6535 44.712 68.6535 42.504C68.6535 40.296 67.0855 38.984 64.9095 38.984ZM77.2615 34.216H81.5175V50.152L77.2615 50.152V34.216ZM61.8375 51.432H66.0615V54.248H77.2935V51.432L81.5175 51.432V63.528H61.8375V51.432ZM66.0615 57.512V60.136H77.2935V57.512H66.0615ZM114.813 34.216H118.845V63.848H114.813V34.216ZM110.845 45.608H115.773V49.032H110.845V45.608ZM108.189 34.728H112.125V62.44H108.189V34.728ZM94.237 53.672H96.317C99.965 53.672 103.005 53.544 106.525 52.904L106.845 56.36C103.261 57.064 100.125 57.16 96.317 57.16H94.237V53.672ZM94.237 37.64H105.181V41.064H98.461V55.336H94.237V37.64ZM122.843 36.808H140.283V40.168H122.843V36.808ZM131.579 41.096C135.835 41.096 138.843 43.304 138.843 46.568C138.843 49.832 135.835 52.008 131.579 52.008C127.291 52.008 124.283 49.832 124.283 46.568C124.283 43.304 127.291 41.096 131.579 41.096ZM131.579 44.296C129.659 44.296 128.379 45.064 128.379 46.568C128.379 48.04 129.659 48.808 131.579 48.808C133.467 48.808 134.779 48.04 134.779 46.568C134.779 45.064 133.467 44.296 131.579 44.296ZM141.915 34.216L146.171 34.216V52.808H141.915V34.216ZM144.987 41.864L150.107 41.864V45.32L144.987 45.32V41.864ZM126.395 54.024H146.171V63.848H141.915V57.416L126.395 57.416V54.024ZM129.435 34.056H133.691V38.728H129.435V34.056Z" fill="black"/>
<path d="M639.9 250.8C637.5 250.8 635.148 249.888 633.42 248.232L635.46 245.784C636.708 246.96 638.412 247.728 639.972 247.728C641.82 247.728 642.78 246.936 642.78 245.712C642.78 244.392 641.7 243.96 640.116 243.288L637.74 242.28C635.964 241.56 634.14 240.096 634.14 237.528C634.14 234.624 636.708 232.392 640.284 232.392C642.348 232.392 644.412 233.208 645.852 234.672L644.076 236.904C642.924 235.968 641.748 235.44 640.284 235.44C638.724 235.44 637.74 236.136 637.74 237.288C637.74 238.56 639.012 239.04 640.524 239.64L642.852 240.6C644.988 241.488 646.404 242.88 646.404 245.424C646.404 248.328 643.98 250.8 639.9 250.8ZM649.573 250.464V232.704H653.125V240.408H653.173L659.077 232.704H662.989L657.541 239.688L663.925 250.464H660.061L655.453 242.496L653.125 245.472V250.464H649.573ZM668.252 250.464V243.984L662.9 232.704H666.668L668.444 237.048C668.972 238.368 669.452 239.616 669.98 240.984H670.076C670.628 239.616 671.156 238.368 671.684 237.048L673.436 232.704H677.132L671.78 243.984V250.464H668.252ZM699.444 230.376H702.468V252.6H699.444V230.376ZM696.468 238.92H700.164V241.488H696.468V238.92ZM694.476 230.76H697.428V251.544H694.476V230.76ZM684.012 244.968H685.572C688.308 244.968 690.588 244.872 693.228 244.392L693.468 246.984C690.78 247.512 688.428 247.584 685.572 247.584H684.012V244.968ZM684.012 232.944H692.22V235.512H687.18V246.216H684.012V232.944ZM705.466 232.32H718.546V234.84H705.466V232.32ZM712.018 235.536C715.21 235.536 717.466 237.192 717.466 239.64C717.466 242.088 715.21 243.72 712.018 243.72C708.802 243.72 706.546 242.088 706.546 239.64C706.546 237.192 708.802 235.536 712.018 235.536ZM712.018 237.936C710.578 237.936 709.618 238.512 709.618 239.64C709.618 240.744 710.578 241.32 712.018 241.32C713.434 241.32 714.418 240.744 714.418 239.64C714.418 238.512 713.434 237.936 712.018 237.936ZM719.77 230.376H722.962V244.32H719.77V230.376ZM722.074 236.112H725.914V238.704H722.074V236.112ZM708.13 245.232H722.962V252.6H719.77V247.776H708.13V245.232ZM710.41 230.256H713.602V233.76H710.41V230.256Z" fill="#333333"/>
<path d="M342.832 93.112H345.448V95.08C345.448 99.496 343.528 103.384 339.304 104.848L337.6 102.328C341.32 101.08 342.832 98.104 342.832 95.08V93.112ZM343.48 93.112H346.072V95.392C346.072 98.056 347.56 100.648 351.04 101.728L349.384 104.2C345.376 102.856 343.48 99.4 343.48 95.392V93.112ZM352.264 91.912H355.456V105.04H352.264V91.912ZM354.568 97.048H358.408V99.688H354.568V97.048ZM348.208 105.544C352.816 105.544 355.72 107.152 355.72 109.84C355.72 112.552 352.816 114.136 348.208 114.136C343.576 114.136 340.672 112.552 340.672 109.84C340.672 107.152 343.576 105.544 348.208 105.544ZM348.208 108.016C345.376 108.016 343.84 108.616 343.84 109.84C343.84 111.088 345.376 111.664 348.208 111.664C351.04 111.664 352.552 111.088 352.552 109.84C352.552 108.616 351.04 108.016 348.208 108.016ZM367.238 92.8C370.622 92.8 373.07 94.744 373.07 97.552C373.07 100.312 370.622 102.304 367.238 102.304C363.878 102.304 361.43 100.312 361.43 97.552C361.43 94.744 363.878 92.8 367.238 92.8ZM367.238 95.392C365.63 95.392 364.478 96.16 364.478 97.552C364.478 98.92 365.63 99.688 367.238 99.688C368.87 99.688 370.022 98.92 370.022 97.552C370.022 96.16 368.87 95.392 367.238 95.392ZM365.75 104.512H368.942V113.464H365.75V104.512ZM375.47 91.912H378.638V114.136H375.47V91.912ZM360.494 106.192L360.11 103.6C363.998 103.6 369.494 103.552 374.198 102.832L374.414 105.16C369.59 106.12 364.334 106.168 360.494 106.192ZM387.804 102.28H390.972V107.272H387.804V102.28ZM397.788 91.912H401.004V108.64H397.788V91.912ZM384.996 111.208H401.484V113.752H384.996V111.208ZM384.996 106.984H388.188V111.832H384.996V106.984ZM382.356 102.832L381.972 100.312C386.028 100.288 391.524 100.216 396.252 99.568L396.468 101.824C391.644 102.688 386.364 102.808 382.356 102.832ZM393.516 103.768H398.508V106.24H393.516V103.768ZM383.988 93.016H393.42V95.536H383.988V93.016ZM391.404 93.016H394.572V93.784C394.572 95.08 394.572 97.48 393.996 100.792L390.876 100.576C391.404 97.288 391.404 95.032 391.404 93.784V93.016ZM425.688 91.912H428.712V114.136H425.688V91.912ZM422.712 100.456H426.408V103.024H422.712V100.456ZM420.72 92.296H423.672V113.08H420.72V92.296ZM410.256 106.504H411.816C414.552 106.504 416.832 106.408 419.472 105.928L419.712 108.52C417.024 109.048 414.672 109.12 411.816 109.12H410.256V106.504ZM410.256 94.48H418.464V97.048H413.424V107.752H410.256V94.48ZM431.71 93.856H444.79V96.376H431.71V93.856ZM438.262 97.072C441.454 97.072 443.71 98.728 443.71 101.176C443.71 103.624 441.454 105.256 438.262 105.256C435.046 105.256 432.79 103.624 432.79 101.176C432.79 98.728 435.046 97.072 438.262 97.072ZM438.262 99.472C436.822 99.472 435.862 100.048 435.862 101.176C435.862 102.28 436.822 102.856 438.262 102.856C439.678 102.856 440.662 102.28 440.662 101.176C440.662 100.048 439.678 99.472 438.262 99.472ZM446.014 91.912H449.206V105.856H446.014V91.912ZM448.318 97.648H452.158V100.24H448.318V97.648ZM434.374 106.768H449.206V114.136H446.014V109.312H434.374V106.768ZM436.654 91.792H439.846V95.296H436.654V91.792Z" fill="#333333"/>
<path d="M75.408 313.115H78.6V317.027H75.408V313.115ZM66.96 312.059H87.048V314.579H66.96V312.059ZM76.968 316.163C81.768 316.163 84.672 317.603 84.672 320.171C84.672 322.739 81.768 324.179 76.968 324.179C72.144 324.179 69.24 322.739 69.24 320.171C69.24 317.603 72.144 316.163 76.968 316.163ZM76.968 318.563C73.992 318.563 72.48 319.067 72.48 320.171C72.48 321.251 73.992 321.779 76.968 321.779C79.944 321.779 81.456 321.251 81.456 320.171C81.456 319.067 79.944 318.563 76.968 318.563ZM74.808 304.043H77.64V304.595C77.64 307.931 74.64 310.667 68.904 311.195L67.8 308.699C72.672 308.291 74.808 306.323 74.808 304.595V304.043ZM76.368 304.043H79.2V304.595C79.2 306.347 81.312 308.291 86.208 308.699L85.104 311.195C79.392 310.667 76.368 307.955 76.368 304.595V304.043ZM68.784 302.867H85.248V305.387H68.784V302.867ZM96.2381 302.843C99.6221 302.843 102.07 304.787 102.07 307.595C102.07 310.355 99.6221 312.347 96.2381 312.347C92.8781 312.347 90.4301 310.355 90.4301 307.595C90.4301 304.787 92.8781 302.843 96.2381 302.843ZM96.2381 305.435C94.6301 305.435 93.4781 306.203 93.4781 307.595C93.4781 308.963 94.6301 309.731 96.2381 309.731C97.8701 309.731 99.0221 308.963 99.0221 307.595C99.0221 306.203 97.8701 305.435 96.2381 305.435ZM94.7501 314.555H97.9421V323.507H94.7501V314.555ZM104.47 301.955H107.638V324.179H104.47V301.955ZM89.4941 316.235L89.1101 313.643C92.9981 313.643 98.4941 313.595 103.198 312.875L103.414 315.203C98.5901 316.163 93.3341 316.211 89.4941 316.235ZM116.804 312.323H119.972V317.315H116.804V312.323ZM126.788 301.955H130.004V318.683H126.788V301.955ZM113.996 321.251H130.484V323.795H113.996V321.251ZM113.996 317.027H117.188V321.875H113.996V317.027ZM111.356 312.875L110.972 310.355C115.028 310.331 120.524 310.259 125.252 309.611L125.468 311.867C120.644 312.731 115.364 312.851 111.356 312.875ZM122.516 313.811H127.508V316.283H122.516V313.811ZM112.988 303.059H122.42V305.579H112.988V303.059ZM120.404 303.059H123.572V303.827C123.572 305.123 123.572 307.523 122.996 310.835L119.876 310.619C120.404 307.331 120.404 305.075 120.404 303.827V303.059ZM154.688 301.955H157.712V324.179H154.688V301.955ZM151.712 310.499H155.408V313.067H151.712V310.499ZM149.72 302.339H152.672V323.123H149.72V302.339ZM139.256 316.547H140.816C143.552 316.547 145.832 316.451 148.472 315.971L148.712 318.563C146.024 319.091 143.672 319.163 140.816 319.163H139.256V316.547ZM139.256 304.523H147.464V307.091H142.424V317.795H139.256V304.523ZM160.71 303.899H173.79V306.419H160.71V303.899ZM167.262 307.115C170.454 307.115 172.71 308.771 172.71 311.219C172.71 313.667 170.454 315.299 167.262 315.299C164.046 315.299 161.79 313.667 161.79 311.219C161.79 308.771 164.046 307.115 167.262 307.115ZM167.262 309.515C165.822 309.515 164.862 310.091 164.862 311.219C164.862 312.323 165.822 312.899 167.262 312.899C168.678 312.899 169.662 312.323 169.662 311.219C169.662 310.091 168.678 309.515 167.262 309.515ZM175.014 301.955H178.206V315.899H175.014V301.955ZM177.318 307.691H181.158V310.283H177.318V307.691ZM163.374 316.811H178.206V324.179H175.014V319.355H163.374V316.811ZM165.654 301.835H168.846V305.339H165.654V301.835Z" fill="#333333"/>
<path d="M650.463 402.001C651.546 402.001 652.619 401.765 653.616 401.308C654.613 400.851 655.514 400.181 656.264 399.34C657.014 398.499 657.599 397.504 657.982 396.414C658.366 395.324 658.54 394.162 658.495 392.997C657.052 355.691 648.134 319.16 632.349 285.902C616.564 252.643 594.286 223.442 567.038 200.295C566.187 199.573 565.21 199.042 564.164 198.737C563.118 198.431 562.025 198.355 560.952 198.515C559.878 198.675 558.845 199.066 557.916 199.666C556.987 200.266 556.18 201.062 555.544 202.005L494.12 293.139C492.931 294.905 492.405 297.088 492.649 299.252C492.893 301.416 493.888 303.401 495.436 304.809C507.64 315.917 517.667 329.523 524.935 344.837C532.203 360.15 536.565 376.864 537.77 394.008C537.922 396.181 538.833 398.213 540.32 399.695C541.806 401.177 543.759 402.001 545.786 402.001L650.463 402.001Z" fill="#467CD7"/>
<path d="M552.877 199.923C553.513 198.98 553.965 197.907 554.205 196.771C554.446 195.635 554.471 194.458 554.278 193.311C554.085 192.164 553.678 191.072 553.082 190.098C552.486 189.125 551.713 188.291 550.81 187.647C523.296 168.03 492.33 154.696 459.829 148.469C427.329 142.243 393.985 143.256 361.863 151.448C329.741 159.639 299.526 174.834 273.087 196.09C246.649 217.347 224.55 244.213 208.161 275.026C207.622 276.037 207.28 277.155 207.154 278.313C207.028 279.47 207.121 280.643 207.428 281.761C207.734 282.879 208.248 283.919 208.938 284.818C209.627 285.717 210.479 286.456 211.441 286.992L304.387 338.761C306.187 339.763 308.274 339.998 310.228 339.417C312.182 338.836 313.859 337.483 314.925 335.628C331.715 306.403 358.605 285.535 389.692 277.608C420.779 269.681 453.521 275.341 480.729 293.347C482.456 294.489 484.52 294.888 486.509 294.464C488.497 294.039 490.263 292.822 491.453 291.057L552.877 199.923Z" fill="#6D97DD"/>
<path d="M209.925 290.137C208.963 289.601 207.91 289.279 206.829 289.192C205.748 289.105 204.662 289.254 203.636 289.629C202.61 290.005 201.665 290.6 200.859 291.378C200.052 292.157 199.4 293.102 198.942 294.158C185.481 325.19 177.869 358.781 176.546 392.993C176.501 394.157 176.676 395.319 177.059 396.41C177.442 397.5 178.027 398.495 178.777 399.336C179.527 400.177 180.428 400.846 181.425 401.303C182.422 401.76 183.495 401.996 184.579 401.996L289.255 401.996C291.282 401.996 293.235 401.173 294.722 399.69C296.208 398.208 297.119 396.177 297.272 394.003C298.264 379.87 301.405 366.007 306.57 352.967C307.364 350.962 307.425 348.707 306.739 346.656C306.053 344.605 304.672 342.908 302.871 341.905L209.925 290.137Z" fill="#B4CBF3"/>
<path d="M223.254 369.879V367.499H226.454V358.139H223.754V356.319C225.254 356.039 226.254 355.659 227.214 355.079H229.394V367.499H232.174V369.879H223.254ZM238.95 370.159C236.61 370.159 235.05 369.239 233.93 368.139L235.31 366.279C236.13 367.099 237.19 367.779 238.55 367.779C240.11 367.779 241.17 366.799 241.17 365.039C241.17 363.319 240.17 362.359 238.69 362.359C237.81 362.359 237.33 362.579 236.47 363.139L235.11 362.259L235.53 355.079H243.45V357.539H238.07L237.79 360.679C238.37 360.419 238.89 360.279 239.57 360.279C242.05 360.279 244.13 361.739 244.13 364.979C244.13 368.259 241.67 370.159 238.95 370.159ZM249.467 364.199C247.347 364.199 245.847 362.439 245.847 359.479C245.847 356.519 247.347 354.819 249.467 354.819C251.587 354.819 253.087 356.519 253.087 359.479C253.087 362.439 251.587 364.199 249.467 364.199ZM249.467 362.539C250.327 362.539 250.987 361.639 250.987 359.479C250.987 357.299 250.327 356.479 249.467 356.479C248.587 356.479 247.927 357.299 247.927 359.479C247.927 361.639 248.587 362.539 249.467 362.539ZM249.947 370.159L257.987 354.819H259.747L251.687 370.159H249.947ZM260.227 370.159C258.127 370.159 256.627 368.419 256.627 365.439C256.627 362.479 258.127 360.759 260.227 360.759C262.327 360.759 263.827 362.479 263.827 365.439C263.827 368.419 262.327 370.159 260.227 370.159ZM260.227 368.499C261.087 368.499 261.767 367.619 261.767 365.439C261.767 363.259 261.087 362.439 260.227 362.439C259.367 362.439 258.687 363.259 258.687 365.439C258.687 367.619 259.367 368.499 260.227 368.499Z" fill="#333333"/>
<path d="M368.668 221.252C366.328 221.252 364.768 220.332 363.648 219.232L365.028 217.372C365.848 218.192 366.908 218.872 368.268 218.872C369.828 218.872 370.888 217.892 370.888 216.132C370.888 214.412 369.888 213.452 368.408 213.452C367.528 213.452 367.048 213.672 366.188 214.232L364.828 213.352L365.248 206.172H373.168V208.632H367.788L367.508 211.772C368.088 211.512 368.608 211.372 369.288 211.372C371.768 211.372 373.848 212.832 373.848 216.072C373.848 219.352 371.388 221.252 368.668 221.252ZM380.465 221.252C378.125 221.252 376.565 220.332 375.445 219.232L376.825 217.372C377.645 218.192 378.705 218.872 380.065 218.872C381.625 218.872 382.685 217.892 382.685 216.132C382.685 214.412 381.685 213.452 380.205 213.452C379.325 213.452 378.845 213.672 377.985 214.232L376.625 213.352L377.045 206.172H384.965V208.632H379.585L379.305 211.772C379.885 211.512 380.405 211.372 381.085 211.372C383.565 211.372 385.645 212.832 385.645 216.072C385.645 219.352 383.185 221.252 380.465 221.252ZM390.982 215.292C388.862 215.292 387.362 213.532 387.362 210.572C387.362 207.612 388.862 205.912 390.982 205.912C393.102 205.912 394.602 207.612 394.602 210.572C394.602 213.532 393.102 215.292 390.982 215.292ZM390.982 213.632C391.842 213.632 392.502 212.732 392.502 210.572C392.502 208.392 391.842 207.572 390.982 207.572C390.102 207.572 389.442 208.392 389.442 210.572C389.442 212.732 390.102 213.632 390.982 213.632ZM391.462 221.252L399.502 205.912H401.262L393.202 221.252H391.462ZM401.742 221.252C399.642 221.252 398.142 219.512 398.142 216.532C398.142 213.572 399.642 211.852 401.742 211.852C403.842 211.852 405.342 213.572 405.342 216.532C405.342 219.512 403.842 221.252 401.742 221.252ZM401.742 219.592C402.602 219.592 403.282 218.712 403.282 216.532C403.282 214.352 402.602 213.532 401.742 213.532C400.882 213.532 400.202 214.352 400.202 216.532C400.202 218.712 400.882 219.592 401.742 219.592Z" fill="#333333"/>
<path d="M566.23 327.759C563.89 327.759 562.31 326.899 561.27 325.699L562.67 323.839C563.55 324.699 564.61 325.379 565.95 325.379C567.47 325.379 568.49 324.619 568.49 323.299C568.49 321.839 567.63 320.939 564.41 320.939V318.819C567.13 318.819 568.01 317.899 568.01 316.579C568.01 315.419 567.29 314.719 566.03 314.719C564.97 314.719 564.11 315.219 563.23 316.039L561.73 314.219C563.01 313.119 564.43 312.419 566.15 312.419C569.01 312.419 570.95 313.819 570.95 316.359C570.95 317.939 570.07 319.119 568.49 319.719V319.819C570.17 320.299 571.45 321.519 571.45 323.479C571.45 326.199 569.07 327.759 566.23 327.759ZM578.467 327.759C575.447 327.759 573.447 325.139 573.447 320.019C573.447 314.919 575.447 312.419 578.467 312.419C581.467 312.419 583.467 314.919 583.467 320.019C583.467 325.139 581.467 327.759 578.467 327.759ZM578.467 325.459C579.747 325.459 580.687 324.179 580.687 320.019C580.687 315.879 579.747 314.679 578.467 314.679C577.187 314.679 576.227 315.879 576.227 320.019C576.227 324.179 577.187 325.459 578.467 325.459ZM588.604 321.799C586.484 321.799 584.984 320.039 584.984 317.079C584.984 314.119 586.484 312.419 588.604 312.419C590.724 312.419 592.224 314.119 592.224 317.079C592.224 320.039 590.724 321.799 588.604 321.799ZM588.604 320.139C589.464 320.139 590.124 319.239 590.124 317.079C590.124 314.899 589.464 314.079 588.604 314.079C587.724 314.079 587.064 314.899 587.064 317.079C587.064 319.239 587.724 320.139 588.604 320.139ZM589.084 327.759L597.124 312.419H598.884L590.824 327.759H589.084ZM599.364 327.759C597.264 327.759 595.764 326.019 595.764 323.039C595.764 320.079 597.264 318.359 599.364 318.359C601.464 318.359 602.964 320.079 602.964 323.039C602.964 326.019 601.464 327.759 599.364 327.759ZM599.364 326.099C600.224 326.099 600.904 325.219 600.904 323.039C600.904 320.859 600.224 320.039 599.364 320.039C598.504 320.039 597.824 320.859 597.824 323.039C597.824 325.219 598.504 326.099 599.364 326.099Z" fill="#333333"/>
</svg>
