<svg width="802" height="464" viewBox="0 0 802 464" fill="none" xmlns="http://www.w3.org/2000/svg">
<rect width="802" height="464" fill="#F3F3F3"/>
<path d="M65.896 147.904H70.684V172.816H65.896V147.904ZM69.316 158.056H75.112V161.98H69.316V158.056ZM44.44 151.36H64.06V155.104H44.44V151.36ZM54.268 156.292C59.056 156.292 62.44 158.92 62.44 162.736C62.44 166.552 59.056 169.144 54.268 169.144C49.444 169.144 46.06 166.552 46.06 162.736C46.06 158.92 49.444 156.292 54.268 156.292ZM54.268 159.928C52.144 159.928 50.668 160.936 50.668 162.736C50.668 164.536 52.144 165.508 54.268 165.508C56.392 165.508 57.868 164.536 57.868 162.736C57.868 160.936 56.392 159.928 54.268 159.928ZM51.856 147.832H56.644V153.196H51.856V147.832ZM49.192 176.812H71.872V180.628H49.192V176.812ZM49.192 170.944H53.98V178.468H49.192V170.944ZM98.8692 147.832H103.693V181.168H98.8692V147.832ZM102.433 160.576H108.301V164.5H102.433V160.576ZM90.1212 151.288H94.8012C94.8012 161.296 90.9852 169.864 79.8972 175.444L77.2332 171.808C85.9812 167.272 90.1212 161.152 90.1212 152.116V151.288ZM79.0692 151.288H92.5692V155.14H79.0692V151.288ZM118.702 153.124H122.518V156.868C122.518 164.572 119.386 172.096 113.122 174.94L110.422 171.16C116.002 168.676 118.702 162.52 118.702 156.868V153.124ZM119.782 153.124H123.562V156.868C123.562 162.268 126.226 168.028 131.806 170.332L129.214 174.112C122.878 171.376 119.782 164.284 119.782 156.868V153.124ZM111.754 151.072H130.438V154.996H111.754V151.072ZM133.534 147.868H138.358V181.204H133.534V147.868ZM154.52 150.064C159.776 150.064 163.7 153.484 163.7 158.272C163.7 163.096 159.776 166.516 154.52 166.516C149.3 166.516 145.304 163.096 145.304 158.272C145.304 153.484 149.3 150.064 154.52 150.064ZM154.52 154.168C151.964 154.168 150.02 155.68 150.02 158.272C150.02 160.9 151.964 162.412 154.52 162.412C157.076 162.412 159.02 160.9 159.02 158.272C159.02 155.68 157.076 154.168 154.52 154.168ZM166.832 147.832H171.62V181.276H166.832V147.832ZM144.512 174.508L143.936 170.656C149.804 170.656 157.976 170.584 164.996 169.54L165.356 172.996C158.12 174.436 150.272 174.508 144.512 174.508ZM188.017 150.676H209.113V154.528H188.017V150.676ZM185.101 173.32H215.233V177.208H185.101V173.32ZM191.401 162.808H196.153V174.544H191.401V162.808ZM207.709 150.676H212.533V153.952C212.533 157.984 212.533 162.592 211.345 169.36L206.593 168.892C207.709 162.556 207.709 157.876 207.709 153.952V150.676ZM199.645 162.808H204.361V174.544H199.645V162.808ZM242.518 147.868H247.054V181.204H242.518V147.868ZM238.522 160.648H244.066V164.536H238.522V160.648ZM235.354 148.372H239.818V179.692H235.354V148.372ZM224.122 153.052H227.758V156.004C227.758 164.248 225.958 171.52 220.414 174.868L217.534 171.196C222.538 168.316 224.122 162.412 224.122 156.004V153.052ZM225.094 153.052H228.766V156.004C228.766 161.872 230.458 167.416 235.426 170.008L232.69 173.644C227.074 170.62 225.094 163.744 225.094 156.004V153.052ZM218.614 151.252H233.77V155.104H218.614V151.252ZM252.271 150.604H268.147V166.696H252.271V150.604ZM263.431 154.384H256.987V162.916H263.431V154.384ZM272.755 147.868H277.543V172.168H272.755V147.868ZM276.175 157.48H281.971V161.404H276.175V157.48ZM256.051 176.812H278.731V180.628H256.051V176.812ZM256.051 169.792H260.839V178.72H256.051V169.792ZM299.501 148.336C307.097 148.336 311.561 150.352 311.561 154.024C311.561 157.696 307.097 159.712 299.501 159.712C291.869 159.712 287.441 157.696 287.441 154.024C287.441 150.352 291.869 148.336 299.501 148.336ZM299.501 151.828C294.677 151.828 292.409 152.548 292.409 154.024C292.409 155.572 294.677 156.22 299.501 156.22C304.325 156.22 306.593 155.572 306.593 154.024C306.593 152.548 304.325 151.828 299.501 151.828ZM284.417 161.26H314.549V165.04H284.417V161.26ZM287.873 166.912H310.913V175.48H292.625V178.432H287.909V172.168H306.197V170.476H287.873V166.912ZM287.909 177.388H311.777V180.988H287.909V177.388ZM347.002 147.832H351.826V181.168H347.002V147.832ZM350.566 160.576H356.434V164.5H350.566V160.576ZM338.254 151.288H342.934C342.934 161.296 339.118 169.864 328.03 175.444L325.366 171.808C334.114 167.272 338.254 161.152 338.254 152.116V151.288ZM327.202 151.288H340.702V155.14H327.202V151.288ZM366.835 153.124H370.651V156.868C370.651 164.572 367.519 172.096 361.255 174.94L358.555 171.16C364.135 168.676 366.835 162.52 366.835 156.868V153.124ZM367.915 153.124H371.695V156.868C371.695 162.268 374.359 168.028 379.939 170.332L377.347 174.112C371.011 171.376 367.915 164.284 367.915 156.868V153.124ZM359.887 151.072H378.571V154.996H359.887V151.072ZM381.667 147.868H386.491V181.204H381.667V147.868ZM395.02 150.676H416.152V154.528H395.02V150.676ZM391.96 173.32H422.092V177.208H391.96V173.32ZM402.616 161.872H407.404V175.228H402.616V161.872ZM414.424 150.676H419.212V153.88C419.212 158.056 419.212 162.736 417.88 169.864L413.092 169.324C414.424 162.7 414.424 157.876 414.424 153.88V150.676Z" fill="#467CD7"/>
<path d="M198.468 221.124H202.284V224.868C202.284 232.572 199.152 240.096 192.888 242.94L190.188 239.16C195.768 236.676 198.468 230.52 198.468 224.868V221.124ZM199.548 221.124H203.328V224.868C203.328 230.268 205.992 236.028 211.572 238.332L208.98 242.112C202.644 239.376 199.548 232.284 199.548 224.868V221.124ZM191.52 219.072H210.204V222.996H191.52V219.072ZM213.3 215.868H218.124V249.204H213.3V215.868ZM227.085 230.736H250.521V234.552H227.085V230.736ZM223.593 241.536H253.761V245.46H223.593V241.536ZM236.229 232.464H241.017V242.796H236.229V232.464ZM227.085 218.136H250.269V221.988H231.873V232.392H227.085V218.136ZM278.058 215.868H282.81V249.204H278.058V215.868ZM281.73 228.864H287.634V232.86H281.73V228.864ZM256.53 220.8H275.934V224.616H256.53V220.8ZM266.286 226.488C271.146 226.488 274.746 229.8 274.746 234.444C274.746 239.088 271.146 242.4 266.286 242.4C261.426 242.4 257.826 239.088 257.826 234.444C257.826 229.8 261.426 226.488 266.286 226.488ZM266.286 230.376C264.018 230.376 262.398 231.888 262.398 234.444C262.398 237 264.018 238.512 266.286 238.512C268.554 238.512 270.174 237 270.174 234.444C270.174 231.888 268.554 230.376 266.286 230.376ZM263.874 216.408H268.662V222.24H263.874V216.408ZM297.82 221.124H301.636V224.868C301.636 232.572 298.504 240.096 292.24 242.94L289.54 239.16C295.12 236.676 297.82 230.52 297.82 224.868V221.124ZM298.9 221.124H302.68V224.868C302.68 230.268 305.344 236.028 310.924 238.332L308.332 242.112C301.996 239.376 298.9 232.284 298.9 224.868V221.124ZM290.872 219.072H309.556V222.996H290.872V219.072ZM312.652 215.868H317.476V249.204H312.652V215.868ZM340.173 217.452C345.285 217.452 349.065 220.692 349.065 225.228C349.065 229.8 345.285 233.04 340.173 233.04C335.097 233.04 331.281 229.8 331.281 225.228C331.281 220.692 335.097 217.452 340.173 217.452ZM340.173 221.34C337.761 221.34 335.925 222.816 335.925 225.228C335.925 227.676 337.761 229.152 340.173 229.152C342.621 229.152 344.457 227.676 344.457 225.228C344.457 222.816 342.621 221.34 340.173 221.34ZM352.521 215.868H357.309V232.284H352.521V215.868ZM355.401 222.78H361.737V226.668H355.401V222.78ZM334.017 244.524H335.853C338.769 244.524 341.325 244.308 343.773 243.48L344.493 247.224C341.721 248.196 339.129 248.34 335.853 248.34H334.017V244.524ZM334.017 235.488H338.661V245.676H334.017V235.488ZM343.305 235.596H359.973V239.016H343.305V235.596ZM351.657 239.844C355.437 239.844 358.065 241.68 358.065 244.56C358.065 247.44 355.437 249.24 351.657 249.24C347.841 249.24 345.213 247.44 345.213 244.56C345.213 241.68 347.841 239.844 351.657 239.844ZM351.657 243.12C350.361 243.12 349.461 243.588 349.461 244.56C349.461 245.532 350.361 246 351.657 246C352.881 246 353.817 245.532 353.817 244.56C353.817 243.588 352.881 243.12 351.657 243.12ZM349.353 233.22H353.997V238.152H349.353V233.22ZM367.278 218.676H388.41V222.528H367.278V218.676ZM364.218 241.32H394.35V245.208H364.218V241.32ZM374.874 229.872H379.662V243.228H374.874V229.872ZM386.682 218.676H391.47V221.88C391.47 226.056 391.47 230.736 390.138 237.864L385.35 237.324C386.682 230.7 386.682 225.876 386.682 221.88V218.676ZM398.847 253.704L397.767 250.824C400.575 249.78 402.123 247.872 402.087 245.748L401.907 242.004L403.779 245.1C403.239 245.64 402.519 245.892 401.727 245.892C399.999 245.892 398.415 244.74 398.415 242.76C398.415 240.852 399.963 239.628 401.871 239.628C404.283 239.628 405.651 241.572 405.651 244.812C405.651 249.06 403.239 252.264 398.847 253.704ZM438.475 215.832H443.299V249.276H438.475V215.832ZM442.219 228.18H448.123V232.104H442.219V228.18ZM418.459 237.288H421.267C426.883 237.288 431.311 237.108 436.207 236.244L436.675 240.204C431.635 241.104 427.063 241.248 421.267 241.248H418.459V237.288ZM418.459 218.928H434.011V222.78H423.211V239.196H418.459V218.928ZM475.048 219.972H480.808V223.86H475.048V219.972ZM475.048 227.208H480.808V231.096H475.048V227.208ZM459.568 217.668C464.716 217.668 468.64 221.052 468.64 225.768C468.64 230.448 464.716 233.832 459.568 233.832C454.42 233.832 450.496 230.448 450.496 225.768C450.496 221.052 454.42 217.668 459.568 217.668ZM459.568 221.664C457.048 221.664 455.176 223.212 455.176 225.768C455.176 228.36 457.048 229.836 459.568 229.836C462.088 229.836 463.96 228.36 463.96 225.768C463.96 223.212 462.088 221.664 459.568 221.664ZM471.736 215.868H476.524V235.308H471.736V215.868ZM465.652 236.028C472.528 236.028 476.92 238.512 476.92 242.616C476.92 246.756 472.528 249.204 465.652 249.204C458.74 249.204 454.348 246.756 454.348 242.616C454.348 238.512 458.74 236.028 465.652 236.028ZM465.652 239.808C461.404 239.808 459.1 240.708 459.1 242.616C459.1 244.56 461.404 245.46 465.652 245.46C469.9 245.46 472.168 244.56 472.168 242.616C472.168 240.708 469.9 239.808 465.652 239.808ZM504.853 215.904H509.641V240.816H504.853V215.904ZM508.273 226.056H514.069V229.98H508.273V226.056ZM483.397 219.36H503.017V223.104H483.397V219.36ZM493.225 224.292C498.013 224.292 501.397 226.92 501.397 230.736C501.397 234.552 498.013 237.144 493.225 237.144C488.401 237.144 485.017 234.552 485.017 230.736C485.017 226.92 488.401 224.292 493.225 224.292ZM493.225 227.928C491.101 227.928 489.625 228.936 489.625 230.736C489.625 232.536 491.101 233.508 493.225 233.508C495.349 233.508 496.825 232.536 496.825 230.736C496.825 228.936 495.349 227.928 493.225 227.928ZM490.813 215.832H495.601V221.196H490.813V215.832ZM488.149 244.812H510.829V248.628H488.149V244.812ZM488.149 238.944H492.937V246.468H488.149V238.944ZM537.234 216.84H541.446V218.388C541.446 224.796 536.406 230.232 527.658 231.528L525.786 227.676C533.454 226.668 537.234 222.312 537.234 218.388V216.84ZM538.134 216.84H542.31V218.388C542.31 222.276 546.126 226.668 553.758 227.676L551.922 231.528C543.174 230.232 538.134 224.796 538.134 218.388V216.84ZM537.27 237H542.022V249.204H537.27V237ZM524.706 233.976H554.838V237.864H524.706V233.976ZM580.9 215.868H585.688V235.992H580.9V215.868ZM576.724 225.624H582.844V229.512H576.724V225.624ZM563.476 237.396H585.688V248.844H563.476V237.396ZM581.008 241.176H568.192V245.064H581.008V241.176ZM557.896 218.748H577.372V222.528H557.896V218.748ZM567.652 223.608C572.296 223.608 575.608 226.092 575.608 229.62C575.608 233.184 572.296 235.596 567.652 235.596C563.008 235.596 559.66 233.184 559.66 229.62C559.66 226.092 563.008 223.608 567.652 223.608ZM567.652 227.172C565.6 227.172 564.232 228 564.232 229.62C564.232 231.24 565.6 232.104 567.652 232.104C569.668 232.104 571.036 231.24 571.036 229.62C571.036 228 569.668 227.172 567.652 227.172ZM565.24 215.58H570.028V221.448H565.24V215.58ZM598.393 221.124H602.173V224.868C602.173 232.392 599.005 240.06 592.885 242.94L590.185 239.16C595.693 236.568 598.393 230.34 598.393 224.868V221.124ZM599.401 221.124H603.181V224.868C603.181 229.908 605.773 235.812 611.245 238.332L608.617 242.112C602.497 239.268 599.401 231.96 599.401 224.868V221.124ZM591.481 219.072H609.769V222.996H591.481V219.072ZM612.217 215.868H617.041V249.204H612.217V215.868ZM615.961 228.576H621.865V232.536H615.961V228.576ZM631.69 235.308H636.37V243.156H631.69V235.308ZM642.238 235.272H646.918V243.156H642.238V235.272ZM624.058 241.644H654.226V245.532H624.058V241.644ZM627.442 218.028H650.842V229.08H632.266V234.732H627.514V225.336H646.09V221.808H627.442V218.028ZM627.514 232.716H651.598V236.568H627.514V232.716ZM667.867 218.064C673.123 218.064 677.047 221.484 677.047 226.272C677.047 231.096 673.123 234.516 667.867 234.516C662.647 234.516 658.651 231.096 658.651 226.272C658.651 221.484 662.647 218.064 667.867 218.064ZM667.867 222.168C665.311 222.168 663.367 223.68 663.367 226.272C663.367 228.9 665.311 230.412 667.867 230.412C670.423 230.412 672.367 228.9 672.367 226.272C672.367 223.68 670.423 222.168 667.867 222.168ZM680.179 215.832H684.967V249.276H680.179V215.832ZM657.859 242.508L657.283 238.656C663.151 238.656 671.323 238.584 678.343 237.54L678.703 240.996C671.467 242.436 663.619 242.508 657.859 242.508Z" fill="#467CD7"/>
<path d="M330.18 285.884C334.572 285.884 337.812 289.232 337.812 294.056C337.812 298.844 334.572 302.156 330.18 302.156C325.752 302.156 322.548 298.844 322.548 294.056C322.548 289.232 325.752 285.884 330.18 285.884ZM330.18 289.916C328.236 289.916 326.868 291.428 326.868 294.056C326.868 296.648 328.236 298.196 330.18 298.196C332.088 298.196 333.492 296.648 333.492 294.056C333.492 291.428 332.088 289.916 330.18 289.916ZM346.308 283.904H350.844V303.776H346.308V283.904ZM342.312 291.932H347.604V295.82H342.312V291.932ZM339.324 284.48H343.788V303.632H339.324V284.48ZM327.948 305.252H350.844V317.204H346.092V309.068H327.948V305.252ZM378.525 283.868H383.349V317.204H378.525V283.868ZM368.697 287.324H373.449C373.449 297.512 369.993 305.864 358.149 311.588L355.665 307.772C365.241 303.164 368.697 297.116 368.697 288.188V287.324ZM357.429 287.324H370.965V291.104H357.429V287.324ZM401.058 285.776H405.234V288.188C405.234 295.424 400.086 301.832 391.446 303.524L389.394 299.564C396.918 298.268 401.058 292.976 401.058 288.188V285.776ZM402.03 285.776H406.17V288.188C406.17 293.084 410.274 298.268 417.834 299.564L415.782 303.524C407.142 301.832 402.03 295.532 402.03 288.188V285.776ZM388.71 309.248H418.878V313.136H388.71V309.248ZM421.792 298.808H451.996V302.3H421.792V298.808ZM425.176 303.956H448.396V311.876H430V314.72H425.248V308.852H443.68V307.196H425.176V303.956ZM425.248 313.712H449.332V316.952H425.248V313.712ZM425.5 284.444H448.324V292.292H430.288V295.028H425.536V289.304H443.608V287.648H425.5V284.444ZM425.536 294.02H448.936V297.26H425.536V294.02ZM487.149 283.868H491.685V317.204H487.149V283.868ZM476.169 295.244H481.677V299.132H476.169V295.244ZM480.417 284.408H484.881V315.692H480.417V284.408ZM468.969 289.304H472.569V292.724C472.569 300.212 470.517 307.664 465.225 310.976L462.381 307.448C467.277 304.388 468.969 298.412 468.969 292.724V289.304ZM470.049 289.304H473.613V292.724C473.613 298.268 475.269 303.884 480.093 306.692L477.285 310.184C471.993 307.052 470.049 300.068 470.049 292.724V289.304ZM463.641 287.216H478.509V291.068H463.641V287.216ZM511.086 304.604C518.286 304.604 522.894 306.98 522.894 310.94C522.894 314.828 518.286 317.204 511.086 317.204C503.886 317.204 499.278 314.828 499.278 310.94C499.278 306.98 503.886 304.604 511.086 304.604ZM511.086 308.204C506.586 308.204 504.03 309.14 504.03 310.94C504.03 312.704 506.586 313.604 511.086 313.604C515.586 313.604 518.142 312.704 518.142 310.94C518.142 309.14 515.586 308.204 511.086 308.204ZM499.638 285.344H520.734V289.124H499.638V285.344ZM496.254 298.736H526.278V302.552H496.254V298.736ZM507.378 292.94H512.13V299.708H507.378V292.94ZM517.962 285.344H522.714V288.08C522.714 290.708 522.714 293.552 521.814 297.008L517.062 296.504C517.962 293.084 517.962 290.672 517.962 288.08V285.344ZM529.263 288.872H545.211V292.688H529.263V288.872ZM537.291 294.164C541.539 294.164 544.599 297.44 544.599 302.12C544.599 306.764 541.539 310.04 537.291 310.04C533.079 310.04 529.983 306.764 529.983 302.12C529.983 297.44 533.079 294.164 537.291 294.164ZM537.291 298.16C535.491 298.16 534.231 299.6 534.231 302.12C534.231 304.64 535.491 306.044 537.291 306.044C539.091 306.044 540.387 304.64 540.387 302.12C540.387 299.6 539.091 298.16 537.291 298.16ZM553.383 283.868H557.955V317.204H553.383V283.868ZM549.387 297.404H554.895V301.256H549.387V297.404ZM546.399 284.48H550.863V315.8H546.399V284.48ZM534.951 284.768H539.667V291.284H534.951V284.768ZM582.921 287.576H587.061V288.548C587.061 294.416 582.273 299.204 573.813 300.356L572.049 296.612C579.393 295.712 582.921 291.968 582.921 288.548V287.576ZM584.289 287.576H588.429V288.548C588.429 291.968 591.957 295.712 599.301 296.612L597.573 300.356C589.077 299.204 584.289 294.416 584.289 288.548V287.576ZM583.173 305H587.925V317.24H583.173V305ZM570.609 302.264H600.741V306.08H570.609V302.264ZM573.273 285.56H598.005V289.34H573.273V285.56ZM607.434 292.868H630.546V296.648H607.434V292.868ZM603.69 300.104H633.894V303.92H603.69V300.104ZM607.434 285.056H612.186V294.74H607.434V285.056ZM607.11 312.668H630.726V316.484H607.11V312.668ZM607.11 306.584H611.898V313.676H607.11V306.584ZM661.991 290.96H669.731V294.812H661.991V290.96ZM652.595 285.92H656.447V289.52C656.447 296.324 653.603 302.12 647.303 304.424L644.783 300.68C650.291 298.844 652.595 294.236 652.595 289.52V285.92ZM653.639 285.92H657.455V289.556C657.455 293.84 659.651 298.124 664.907 299.924L662.351 303.596C656.375 301.436 653.639 295.856 653.639 289.556V285.92ZM668.075 283.904H672.863V308.492H668.075V283.904ZM650.795 312.812H673.583V316.628H650.795V312.812ZM650.795 306.008H655.619V314.936H650.795V306.008ZM684.093 285.884H687.837V289.736C687.837 295.388 685.569 301.04 680.133 303.344L677.613 299.636C682.257 297.584 684.093 293.48 684.093 289.736V285.884ZM684.957 285.884H688.701V289.736C688.701 293.3 690.501 296.9 694.893 298.628L692.337 302.264C687.153 300.212 684.957 295.172 684.957 289.736V285.884ZM701.949 283.904H706.485V304.244H701.949V283.904ZM697.953 291.968H703.245V295.82H697.953V291.968ZM694.893 284.516H699.357V303.2H694.893V284.516ZM695.181 304.712C702.165 304.712 706.665 307.052 706.665 310.976C706.665 314.864 702.165 317.204 695.181 317.204C688.161 317.204 683.733 314.864 683.733 310.976C683.733 307.052 688.161 304.712 695.181 304.712ZM695.181 308.312C690.897 308.312 688.485 309.212 688.485 310.976C688.485 312.74 690.897 313.604 695.181 313.604C699.465 313.604 701.841 312.74 701.841 310.976C701.841 309.212 699.465 308.312 695.181 308.312ZM734.094 283.868H738.918V302.552H734.094V283.868ZM713.106 285.776H717.858V299.528H713.106V285.776ZM713.106 297.008H715.986C721.782 297.008 726.498 296.684 731.394 295.64L731.97 299.492C726.894 300.608 721.962 300.968 715.986 300.968H713.106V297.008ZM716.742 303.956H738.918V316.844H716.742V303.956ZM734.202 307.7H721.422V313.064H734.202V307.7ZM747.807 304.928L747.015 291.644L746.871 286.64H752.163L752.019 291.644L751.263 304.928H747.807ZM749.499 314.504C747.627 314.504 746.223 313.028 746.223 311.048C746.223 309.068 747.627 307.628 749.499 307.628C751.407 307.628 752.811 309.068 752.811 311.048C752.811 313.028 751.407 314.504 749.499 314.504Z" fill="#467CD7"/>
</svg>
