<svg width="802" height="464" viewBox="0 0 802 464" fill="none" xmlns="http://www.w3.org/2000/svg">
<rect width="802" height="464" fill="#F3F3F3"/>
<path d="M40.688 38.344H49.392V41.736H40.688V38.344ZM40.688 45.544H49.392V48.936H40.688V45.544ZM47.824 34.248H52.08V55.912H47.824V34.248ZM32.528 59.944H52.752V63.336H32.528V59.944ZM32.528 53.768H36.784V61.704H32.528V53.768ZM35.472 35.976C39.856 35.976 43.28 39.176 43.28 43.656C43.28 48.072 39.856 51.304 35.472 51.304C31.056 51.304 27.632 48.072 27.632 43.656C27.632 39.176 31.056 35.976 35.472 35.976ZM35.472 39.72C33.296 39.72 31.696 41.192 31.696 43.656C31.696 46.12 33.296 47.592 35.472 47.592C37.616 47.592 39.248 46.12 39.248 43.656C39.248 41.192 37.616 39.72 35.472 39.72ZM57.8375 47.912H60.1095C65.6135 47.912 68.4935 47.816 71.8535 47.24L72.2695 50.6C68.8135 51.24 65.7735 51.336 60.1095 51.336H57.8375V47.912ZM57.8055 35.752H70.8295V44.968H62.0615V50.44H57.8375V41.832H66.6055V39.144H57.8055V35.752ZM77.2615 34.248H81.5175V52.232H77.2615V34.248ZM72.5255 38.152H78.0615V41.544H72.5255V38.152ZM72.5255 44.296H78.0615V47.688H72.5255V44.296ZM71.5015 52.744C77.8055 52.744 81.6455 54.792 81.6455 58.344C81.6455 61.896 77.8055 63.944 71.5015 63.944C65.1975 63.944 61.3575 61.896 61.3575 58.344C61.3575 54.792 65.1975 52.744 71.5015 52.744ZM71.5015 55.944C67.6295 55.944 65.6135 56.712 65.6135 58.344C65.6135 59.976 67.6295 60.744 71.5015 60.744C75.4055 60.744 77.4215 59.976 77.4215 58.344C77.4215 56.712 75.4055 55.944 71.5015 55.944Z" fill="black"/>
<path d="M118.161 348.336C115.353 348.336 113.457 347.304 112.209 345.864L113.889 343.632C114.945 344.664 116.217 345.48 117.825 345.48C119.649 345.48 120.873 344.568 120.873 342.984C120.873 341.232 119.841 340.152 115.977 340.152V337.608C119.241 337.608 120.297 336.504 120.297 334.92C120.297 333.528 119.433 332.688 117.921 332.688C116.649 332.688 115.617 333.288 114.561 334.272L112.761 332.088C114.297 330.768 116.001 329.928 118.065 329.928C121.497 329.928 123.825 331.608 123.825 334.656C123.825 336.552 122.769 337.968 120.873 338.688V338.808C122.889 339.384 124.425 340.848 124.425 343.2C124.425 346.464 121.569 348.336 118.161 348.336ZM132.846 348.336C129.222 348.336 126.822 345.192 126.822 339.048C126.822 332.928 129.222 329.928 132.846 329.928C136.446 329.928 138.846 332.928 138.846 339.048C138.846 345.192 136.446 348.336 132.846 348.336ZM132.846 345.576C134.382 345.576 135.51 344.04 135.51 339.048C135.51 334.08 134.382 332.64 132.846 332.64C131.31 332.64 130.158 334.08 130.158 339.048C130.158 344.04 131.31 345.576 132.846 345.576ZM156.938 327.912H159.962V350.136H156.938V327.912ZM153.962 336.456H157.658V339.024H153.962V336.456ZM151.97 328.296H154.922V349.08H151.97V328.296ZM141.506 342.504H143.066C145.802 342.504 148.082 342.408 150.722 341.928L150.962 344.52C148.274 345.048 145.922 345.12 143.066 345.12H141.506V342.504ZM141.506 330.48H149.714V333.048H144.674V343.752H141.506V330.48Z" fill="#333333"/>
<path d="M429.673 110V99.08C429.673 98.048 429.769 96.44 429.817 95.384H429.721C429.265 96.344 428.785 97.328 428.281 98.288L425.545 102.704H435.073V105.416H422.113V102.992L428.713 92.24H432.961V110H429.673ZM442.846 110.336C439.222 110.336 436.822 107.192 436.822 101.048C436.822 94.928 439.222 91.928 442.846 91.928C446.446 91.928 448.846 94.928 448.846 101.048C448.846 107.192 446.446 110.336 442.846 110.336ZM442.846 107.576C444.382 107.576 445.51 106.04 445.51 101.048C445.51 96.08 444.382 94.64 442.846 94.64C441.31 94.64 440.158 96.08 440.158 101.048C440.158 106.04 441.31 107.576 442.846 107.576ZM466.938 89.912H469.962V112.136H466.938V89.912ZM463.962 98.456H467.658V101.024H463.962V98.456ZM461.97 90.296H464.922V111.08H461.97V90.296ZM451.506 104.504H453.066C455.802 104.504 458.082 104.408 460.722 103.928L460.962 106.52C458.274 107.048 455.922 107.12 453.066 107.12H451.506V104.504ZM451.506 92.48H459.714V95.048H454.674V105.752H451.506V92.48Z" fill="#333333"/>
<path d="M682.233 351.336C679.425 351.336 677.553 350.232 676.209 348.912L677.865 346.68C678.849 347.664 680.121 348.48 681.753 348.48C683.625 348.48 684.897 347.304 684.897 345.192C684.897 343.128 683.697 341.976 681.921 341.976C680.865 341.976 680.289 342.24 679.257 342.912L677.625 341.856L678.129 333.24H687.633V336.192H681.177L680.841 339.96C681.537 339.648 682.161 339.48 682.977 339.48C685.953 339.48 688.449 341.232 688.449 345.12C688.449 349.056 685.497 351.336 682.233 351.336ZM696.846 351.336C693.222 351.336 690.822 348.192 690.822 342.048C690.822 335.928 693.222 332.928 696.846 332.928C700.446 332.928 702.846 335.928 702.846 342.048C702.846 348.192 700.446 351.336 696.846 351.336ZM696.846 348.576C698.382 348.576 699.51 347.04 699.51 342.048C699.51 337.08 698.382 335.64 696.846 335.64C695.31 335.64 694.158 337.08 694.158 342.048C694.158 347.04 695.31 348.576 696.846 348.576ZM720.938 330.912H723.962V353.136H720.938V330.912ZM717.962 339.456H721.658V342.024H717.962V339.456ZM715.97 331.296H718.922V352.08H715.97V331.296ZM705.506 345.504H707.066C709.802 345.504 712.082 345.408 714.722 344.928L714.962 347.52C712.274 348.048 709.922 348.12 707.066 348.12H705.506V345.504ZM705.506 333.48H713.714V336.048H708.674V346.752H705.506V333.48Z" fill="#333333"/>
<path d="M651.506 385.999C652.59 385.999 653.664 385.767 654.662 385.316C655.659 384.864 656.561 384.204 657.311 383.374C658.062 382.544 658.647 381.561 659.031 380.485C659.414 379.41 659.589 378.263 659.544 377.113C658.742 356.666 655.631 336.394 650.276 316.733C649.975 315.628 649.467 314.599 648.781 313.707C648.096 312.816 647.247 312.081 646.287 311.546C645.327 311.011 644.274 310.688 643.193 310.596C642.112 310.504 641.024 310.644 639.996 311.009L540.655 346.237C538.731 346.92 537.121 348.348 536.148 350.236C535.175 352.123 534.91 354.331 535.407 356.417C537.101 363.534 538.215 370.791 538.736 378.11C538.889 380.256 539.801 382.261 541.288 383.724C542.776 385.186 544.73 385.999 546.758 385.999L651.506 385.999Z" fill="#6C6AD8"/>
<path d="M638.946 307.691C639.975 307.326 640.923 306.745 641.734 305.981C642.545 305.218 643.203 304.289 643.667 303.249C644.13 302.209 644.391 301.081 644.433 299.931C644.475 298.782 644.298 297.635 643.912 296.561C626.489 248.103 595.596 206.401 555.325 176.979C515.054 147.556 467.304 131.802 418.401 131.802C369.498 131.802 321.749 147.556 281.478 176.979C241.207 206.401 210.314 248.103 192.891 296.561C192.505 297.635 192.327 298.782 192.369 299.931C192.411 301.081 192.672 302.209 193.136 303.249C193.6 304.288 194.257 305.218 195.069 305.981C195.88 306.745 196.828 307.326 197.857 307.691L297.197 342.92C299.121 343.602 301.217 343.488 303.066 342.601C304.914 341.714 306.378 340.119 307.164 338.136C316.374 314.913 331.842 295.089 351.63 281.149C371.418 267.21 394.645 259.774 418.401 259.774C442.158 259.774 465.385 267.21 485.173 281.149C504.961 295.089 520.429 314.913 529.638 338.136C530.425 340.119 531.889 341.714 533.737 342.601C535.585 343.489 537.682 343.602 539.606 342.92L638.946 307.691Z" fill="#9B99F6"/>
<path d="M196.818 311.009C195.79 310.644 194.702 310.504 193.621 310.596C192.54 310.688 191.488 311.011 190.527 311.546C189.567 312.081 188.719 312.816 188.033 313.707C187.348 314.599 186.839 315.628 186.538 316.733C181.184 336.394 178.072 356.666 177.27 377.113C177.225 378.263 177.4 379.41 177.783 380.485C178.167 381.561 178.752 382.544 179.503 383.374C180.254 384.204 181.155 384.864 182.153 385.316C183.15 385.767 184.224 385.999 185.308 385.999L290.056 385.999C292.085 385.999 294.038 385.186 295.526 383.724C297.014 382.261 297.925 380.256 298.078 378.11C298.599 370.791 299.713 363.534 301.408 356.417C301.904 354.331 301.639 352.123 300.666 350.236C299.693 348.348 298.083 346.92 296.159 346.237L196.818 311.009Z" fill="#C4C3F3"/>
<path d="M220.768 368V365.62H223.968V356.26H221.268V354.44C222.768 354.16 223.768 353.78 224.728 353.2H226.908V365.62H229.688V368H220.768ZM236.845 368.28C233.825 368.28 231.825 365.66 231.825 360.54C231.825 355.44 233.825 352.94 236.845 352.94C239.845 352.94 241.845 355.44 241.845 360.54C241.845 365.66 239.845 368.28 236.845 368.28ZM236.845 365.98C238.125 365.98 239.065 364.7 239.065 360.54C239.065 356.4 238.125 355.2 236.845 355.2C235.565 355.2 234.605 356.4 234.605 360.54C234.605 364.7 235.565 365.98 236.845 365.98ZM246.982 362.32C244.862 362.32 243.362 360.56 243.362 357.6C243.362 354.64 244.862 352.94 246.982 352.94C249.102 352.94 250.602 354.64 250.602 357.6C250.602 360.56 249.102 362.32 246.982 362.32ZM246.982 360.66C247.842 360.66 248.502 359.76 248.502 357.6C248.502 355.42 247.842 354.6 246.982 354.6C246.102 354.6 245.442 355.42 245.442 357.6C245.442 359.76 246.102 360.66 246.982 360.66ZM247.462 368.28L255.502 352.94H257.262L249.202 368.28H247.462ZM257.742 368.28C255.642 368.28 254.142 366.54 254.142 363.56C254.142 360.6 255.642 358.88 257.742 358.88C259.842 358.88 261.342 360.6 261.342 363.56C261.342 366.54 259.842 368.28 257.742 368.28ZM257.742 366.62C258.602 366.62 259.282 365.74 259.282 363.56C259.282 361.38 258.602 360.56 257.742 360.56C256.882 360.56 256.202 361.38 256.202 363.56C256.202 365.74 256.882 366.62 257.742 366.62Z" fill="#333333"/>
<path d="M413.744 213.638C410.904 213.638 408.804 212.018 408.804 209.698C408.804 207.798 409.964 206.538 411.324 205.818V205.738C410.204 204.918 409.364 203.778 409.364 202.218C409.364 199.838 411.264 198.318 413.844 198.318C416.464 198.318 418.144 199.878 418.144 202.238C418.144 203.718 417.204 204.938 416.244 205.638V205.738C417.604 206.478 418.724 207.658 418.724 209.698C418.724 211.938 416.724 213.638 413.744 213.638ZM414.684 204.918C415.404 204.158 415.744 203.318 415.744 202.438C415.744 201.218 415.004 200.378 413.784 200.378C412.764 200.378 411.964 201.038 411.964 202.218C411.964 203.598 413.124 204.298 414.684 204.918ZM413.804 211.558C415.084 211.558 415.984 210.858 415.984 209.578C415.984 208.038 414.604 207.418 412.704 206.618C411.884 207.258 411.324 208.258 411.324 209.358C411.324 210.698 412.424 211.558 413.804 211.558ZM425.561 213.638C422.541 213.638 420.541 211.018 420.541 205.898C420.541 200.798 422.541 198.298 425.561 198.298C428.561 198.298 430.561 200.798 430.561 205.898C430.561 211.018 428.561 213.638 425.561 213.638ZM425.561 211.338C426.841 211.338 427.781 210.058 427.781 205.898C427.781 201.758 426.841 200.558 425.561 200.558C424.281 200.558 423.321 201.758 423.321 205.898C423.321 210.058 424.281 211.338 425.561 211.338ZM435.697 207.678C433.577 207.678 432.077 205.918 432.077 202.958C432.077 199.998 433.577 198.298 435.697 198.298C437.817 198.298 439.317 199.998 439.317 202.958C439.317 205.918 437.817 207.678 435.697 207.678ZM435.697 206.018C436.557 206.018 437.217 205.118 437.217 202.958C437.217 200.778 436.557 199.958 435.697 199.958C434.817 199.958 434.157 200.778 434.157 202.958C434.157 205.118 434.817 206.018 435.697 206.018ZM436.177 213.638L444.217 198.298H445.977L437.917 213.638H436.177ZM446.457 213.638C444.357 213.638 442.857 211.898 442.857 208.918C442.857 205.958 444.357 204.238 446.457 204.238C448.557 204.238 450.057 205.958 450.057 208.918C450.057 211.898 448.557 213.638 446.457 213.638ZM446.457 211.978C447.317 211.978 447.997 211.098 447.997 208.918C447.997 206.738 447.317 205.918 446.457 205.918C445.597 205.918 444.917 206.738 444.917 208.918C444.917 211.098 445.597 211.978 446.457 211.978Z" fill="#333333"/>
<path d="M580.768 368V365.62H583.968V356.26H581.268V354.44C582.768 354.16 583.768 353.78 584.728 353.2H586.908V365.62H589.688V368H580.768ZM596.845 368.28C593.825 368.28 591.825 365.66 591.825 360.54C591.825 355.44 593.825 352.94 596.845 352.94C599.845 352.94 601.845 355.44 601.845 360.54C601.845 365.66 599.845 368.28 596.845 368.28ZM596.845 365.98C598.125 365.98 599.065 364.7 599.065 360.54C599.065 356.4 598.125 355.2 596.845 355.2C595.565 355.2 594.605 356.4 594.605 360.54C594.605 364.7 595.565 365.98 596.845 365.98ZM606.982 362.32C604.862 362.32 603.362 360.56 603.362 357.6C603.362 354.64 604.862 352.94 606.982 352.94C609.102 352.94 610.602 354.64 610.602 357.6C610.602 360.56 609.102 362.32 606.982 362.32ZM606.982 360.66C607.842 360.66 608.502 359.76 608.502 357.6C608.502 355.42 607.842 354.6 606.982 354.6C606.102 354.6 605.442 355.42 605.442 357.6C605.442 359.76 606.102 360.66 606.982 360.66ZM607.462 368.28L615.502 352.94H617.262L609.202 368.28H607.462ZM617.742 368.28C615.642 368.28 614.142 366.54 614.142 363.56C614.142 360.6 615.642 358.88 617.742 358.88C619.842 358.88 621.342 360.6 621.342 363.56C621.342 366.54 619.842 368.28 617.742 368.28ZM617.742 366.62C618.602 366.62 619.282 365.74 619.282 363.56C619.282 361.38 618.602 360.56 617.742 360.56C616.882 360.56 616.202 361.38 616.202 363.56C616.202 365.74 616.882 366.62 617.742 366.62Z" fill="#333333"/>
</svg>
