<svg width="802" height="464" viewBox="0 0 802 464" fill="none" xmlns="http://www.w3.org/2000/svg">
<rect width="802" height="464" fill="#F3F3F3"/>
<path d="M92.276 212V185.36H108.62V189.788H97.604V195.944H106.928V200.444H97.604V207.536H109.016V212H92.276ZM114.424 212V185.36H123.208C128.68 185.36 132.856 186.98 132.856 191.948C132.856 194.396 131.524 196.88 129.256 197.708V197.852C132.1 198.536 134.224 200.588 134.224 204.152C134.224 209.516 129.76 212 123.928 212H114.424ZM119.752 196.196H122.848C126.232 196.196 127.672 194.864 127.672 192.704C127.672 190.364 126.124 189.464 122.92 189.464H119.752V196.196ZM119.752 207.896H123.46C127.06 207.896 129.04 206.6 129.04 203.864C129.04 201.272 127.132 200.156 123.46 200.156H119.752V207.896ZM146.005 212.504C142.405 212.504 138.877 211.136 136.285 208.652L139.345 204.98C141.217 206.744 143.773 207.896 146.113 207.896C148.885 207.896 150.325 206.708 150.325 204.872C150.325 202.892 148.705 202.244 146.329 201.236L142.765 199.724C140.101 198.644 137.365 196.448 137.365 192.596C137.365 188.24 141.217 184.892 146.581 184.892C149.677 184.892 152.773 186.116 154.933 188.312L152.269 191.66C150.541 190.256 148.777 189.464 146.581 189.464C144.241 189.464 142.765 190.508 142.765 192.236C142.765 194.144 144.673 194.864 146.941 195.764L150.433 197.204C153.637 198.536 155.761 200.624 155.761 204.44C155.761 208.796 152.125 212.504 146.005 212.504ZM169.787 184.676H190.883V188.528H169.787V184.676ZM166.871 207.32H197.003V211.208H166.871V207.32ZM173.171 196.808H177.923V208.544H173.171V196.808ZM189.479 184.676H194.303V187.952C194.303 191.984 194.303 196.592 193.115 203.36L188.363 202.892C189.479 196.556 189.479 191.876 189.479 187.952V184.676ZM181.415 196.808H186.131V208.544H181.415V196.808ZM224.288 181.868H228.824V215.204H224.288V181.868ZM220.292 194.648H225.836V198.536H220.292V194.648ZM217.124 182.372H221.588V213.692H217.124V182.372ZM205.892 187.052H209.528V190.004C209.528 198.248 207.728 205.52 202.184 208.868L199.304 205.196C204.308 202.316 205.892 196.412 205.892 190.004V187.052ZM206.864 187.052H210.536V190.004C210.536 195.872 212.228 201.416 217.196 204.008L214.46 207.644C208.844 204.62 206.864 197.744 206.864 190.004V187.052ZM200.384 185.252H215.54V189.104H200.384V185.252ZM243.797 184.064C249.053 184.064 252.977 187.484 252.977 192.272C252.977 197.096 249.053 200.516 243.797 200.516C238.577 200.516 234.581 197.096 234.581 192.272C234.581 187.484 238.577 184.064 243.797 184.064ZM243.797 188.168C241.241 188.168 239.297 189.68 239.297 192.272C239.297 194.9 241.241 196.412 243.797 196.412C246.353 196.412 248.297 194.9 248.297 192.272C248.297 189.68 246.353 188.168 243.797 188.168ZM256.109 181.832H260.897V215.276H256.109V181.832ZM233.789 208.508L233.213 204.656C239.081 204.656 247.253 204.584 254.273 203.54L254.633 206.996C247.397 208.436 239.549 208.508 233.789 208.508ZM281.146 202.928H286.042V215.204H281.146V202.928ZM292.666 202.928H297.562V215.204H292.666V202.928ZM274.342 200.408H304.546V204.26H274.342V200.408ZM289.354 182.984C296.482 182.984 301.414 185.9 301.414 190.472C301.414 194.972 296.482 197.888 289.354 197.888C282.262 197.888 277.33 194.972 277.33 190.472C277.33 185.9 282.262 182.984 289.354 182.984ZM289.354 186.8C284.998 186.8 282.226 188.096 282.226 190.472C282.226 192.812 284.998 194.108 289.354 194.108C293.746 194.108 296.482 192.812 296.482 190.472C296.482 188.096 293.746 186.8 289.354 186.8ZM326.288 189.176H332.408V192.992H326.288V189.176ZM326.216 195.836H332.3V199.652H326.216V195.836ZM307.568 184.856H325.856V188.636H307.568V184.856ZM316.928 189.788C321.5 189.788 324.74 192.308 324.74 196.016C324.74 199.724 321.5 202.244 316.928 202.244C312.356 202.244 309.116 199.724 309.116 196.016C309.116 192.308 312.356 189.788 316.928 189.788ZM316.928 193.352C314.912 193.352 313.58 194.252 313.58 196.016C313.58 197.78 314.912 198.68 316.928 198.68C318.908 198.68 320.312 197.78 320.312 196.016C320.312 194.252 318.908 193.352 316.928 193.352ZM314.552 181.58H319.34V187.484H314.552V181.58ZM330.572 181.868H335.36V203.108H330.572V181.868ZM324.092 203.504C331.112 203.504 335.504 205.7 335.504 209.372C335.504 213.044 331.112 215.204 324.092 215.204C317.036 215.204 312.68 213.044 312.68 209.372C312.68 205.7 317.036 203.504 324.092 203.504ZM324.092 207.176C319.988 207.176 317.72 207.824 317.72 209.372C317.72 210.884 319.988 211.604 324.092 211.604C328.196 211.604 330.428 210.884 330.428 209.372C330.428 207.824 328.196 207.176 324.092 207.176ZM355.661 182.336C363.257 182.336 367.721 184.352 367.721 188.024C367.721 191.696 363.257 193.712 355.661 193.712C348.029 193.712 343.601 191.696 343.601 188.024C343.601 184.352 348.029 182.336 355.661 182.336ZM355.661 185.828C350.837 185.828 348.569 186.548 348.569 188.024C348.569 189.572 350.837 190.22 355.661 190.22C360.485 190.22 362.753 189.572 362.753 188.024C362.753 186.548 360.485 185.828 355.661 185.828ZM340.577 195.26H370.709V199.04H340.577V195.26ZM344.033 200.912H367.073V209.48H348.785V212.432H344.069V206.168H362.357V204.476H344.033V200.912ZM344.069 211.388H367.937V214.988H344.069V211.388ZM403.162 181.832H407.986V215.276H403.162V181.832ZM406.906 194.18H412.81V198.104H406.906V194.18ZM383.146 203.288H385.954C391.57 203.288 395.998 203.108 400.894 202.244L401.362 206.204C396.322 207.104 391.75 207.248 385.954 207.248H383.146V203.288ZM383.146 184.928H398.698V188.78H387.898V205.196H383.146V184.928ZM439.735 185.972H445.495V189.86H439.735V185.972ZM439.735 193.208H445.495V197.096H439.735V193.208ZM424.255 183.668C429.403 183.668 433.327 187.052 433.327 191.768C433.327 196.448 429.403 199.832 424.255 199.832C419.107 199.832 415.183 196.448 415.183 191.768C415.183 187.052 419.107 183.668 424.255 183.668ZM424.255 187.664C421.735 187.664 419.863 189.212 419.863 191.768C419.863 194.36 421.735 195.836 424.255 195.836C426.775 195.836 428.647 194.36 428.647 191.768C428.647 189.212 426.775 187.664 424.255 187.664ZM436.423 181.868H441.211V201.308H436.423V181.868ZM430.339 202.028C437.215 202.028 441.607 204.512 441.607 208.616C441.607 212.756 437.215 215.204 430.339 215.204C423.427 215.204 419.035 212.756 419.035 208.616C419.035 204.512 423.427 202.028 430.339 202.028ZM430.339 205.808C426.091 205.808 423.787 206.708 423.787 208.616C423.787 210.56 426.091 211.46 430.339 211.46C434.587 211.46 436.855 210.56 436.855 208.616C436.855 206.708 434.587 205.808 430.339 205.808ZM469.541 181.904H474.329V206.816H469.541V181.904ZM472.961 192.056H478.757V195.98H472.961V192.056ZM448.085 185.36H467.705V189.104H448.085V185.36ZM457.913 190.292C462.701 190.292 466.085 192.92 466.085 196.736C466.085 200.552 462.701 203.144 457.913 203.144C453.089 203.144 449.705 200.552 449.705 196.736C449.705 192.92 453.089 190.292 457.913 190.292ZM457.913 193.928C455.789 193.928 454.313 194.936 454.313 196.736C454.313 198.536 455.789 199.508 457.913 199.508C460.037 199.508 461.513 198.536 461.513 196.736C461.513 194.936 460.037 193.928 457.913 193.928ZM455.501 181.832H460.289V187.196H455.501V181.832ZM452.837 210.812H475.517V214.628H452.837V210.812ZM452.837 204.944H457.625V212.468H452.837V204.944ZM513.442 181.868H518.014V215.204H513.442V181.868ZM509.446 194.648H514.954V198.536H509.446V194.648ZM506.422 182.444H510.886V213.62H506.422V182.444ZM489.61 185.612H504.838V189.428H489.61V185.612ZM489.538 207.644L489.034 203.756C493.174 203.756 500.122 203.648 505.09 202.964L505.414 206.42C500.302 207.536 493.606 207.644 489.538 207.644ZM491.698 188.06H495.982V204.764H491.698V188.06ZM498.466 188.06H502.75V204.764H498.466V188.06ZM540.043 190.904H546.199V194.684H540.043V190.904ZM545.587 181.868H550.375V206.492H545.587V181.868ZM528.343 210.812H551.131V214.628H528.343V210.812ZM528.343 204.404H533.167V213.476H528.343V204.404ZM524.023 198.212H526.615C532.627 198.212 536.155 198.104 540.295 197.42L540.691 201.164C536.515 201.956 532.771 202.064 526.615 202.064H524.023V198.212ZM524.023 184.388H539.179V188.204H528.775V198.608H524.023V184.388ZM527.335 191.264H538.135V194.972H527.335V191.264ZM570.676 183.524C577.696 183.524 583.132 187.376 583.132 193.172C583.132 199.004 577.696 202.82 570.676 202.82C563.656 202.82 558.22 199.004 558.22 193.172C558.22 187.376 563.656 183.524 570.676 183.524ZM570.676 187.412C566.14 187.412 562.9 189.572 562.9 193.172C562.9 196.736 566.14 198.896 570.676 198.896C575.212 198.896 578.452 196.736 578.452 193.172C578.452 189.572 575.212 187.412 570.676 187.412ZM555.628 207.284H585.796V211.208H555.628V207.284ZM588.746 207.644H618.914V211.532H588.746V207.644ZM601.382 201.344H606.17V209.228H601.382V201.344ZM592.13 184.028H615.53V195.116H596.954V200.732H592.202V191.372H610.778V187.808H592.13V184.028ZM592.202 198.824H616.286V202.676H592.202V198.824Z" fill="#467CD7"/>
<path d="M426.524 249.868H431.06V283.204H426.524V249.868ZM415.544 261.244H421.052V265.132H415.544V261.244ZM419.792 250.408H424.256V281.692H419.792V250.408ZM408.344 255.304H411.944V258.724C411.944 266.212 409.892 273.664 404.6 276.976L401.756 273.448C406.652 270.388 408.344 264.412 408.344 258.724V255.304ZM409.424 255.304H412.988V258.724C412.988 264.268 414.644 269.884 419.468 272.692L416.66 276.184C411.368 273.052 409.424 266.068 409.424 258.724V255.304ZM403.016 253.216H417.884V257.068H403.016V253.216ZM450.461 270.604C457.661 270.604 462.269 272.98 462.269 276.94C462.269 280.828 457.661 283.204 450.461 283.204C443.261 283.204 438.653 280.828 438.653 276.94C438.653 272.98 443.261 270.604 450.461 270.604ZM450.461 274.204C445.961 274.204 443.405 275.14 443.405 276.94C443.405 278.704 445.961 279.604 450.461 279.604C454.961 279.604 457.517 278.704 457.517 276.94C457.517 275.14 454.961 274.204 450.461 274.204ZM439.013 251.344H460.109V255.124H439.013V251.344ZM435.629 264.736H465.653V268.552H435.629V264.736ZM446.753 258.94H451.505V265.708H446.753V258.94ZM457.337 251.344H462.089V254.08C462.089 256.708 462.089 259.552 461.189 263.008L456.437 262.504C457.337 259.084 457.337 256.672 457.337 254.08V251.344ZM468.638 254.872H484.586V258.688H468.638V254.872ZM476.666 260.164C480.914 260.164 483.974 263.44 483.974 268.12C483.974 272.764 480.914 276.04 476.666 276.04C472.454 276.04 469.358 272.764 469.358 268.12C469.358 263.44 472.454 260.164 476.666 260.164ZM476.666 264.16C474.866 264.16 473.606 265.6 473.606 268.12C473.606 270.64 474.866 272.044 476.666 272.044C478.466 272.044 479.762 270.64 479.762 268.12C479.762 265.6 478.466 264.16 476.666 264.16ZM492.758 249.868H497.33V283.204H492.758V249.868ZM488.762 263.404H494.27V267.256H488.762V263.404ZM485.774 250.48H490.238V281.8H485.774V250.48ZM474.326 250.768H479.042V257.284H474.326V250.768ZM522.296 253.576H526.436V254.548C526.436 260.416 521.648 265.204 513.188 266.356L511.424 262.612C518.768 261.712 522.296 257.968 522.296 254.548V253.576ZM523.664 253.576H527.804V254.548C527.804 257.968 531.332 261.712 538.676 262.612L536.948 266.356C528.452 265.204 523.664 260.416 523.664 254.548V253.576ZM522.548 271H527.3V283.24H522.548V271ZM509.984 268.264H540.116V272.08H509.984V268.264ZM512.648 251.56H537.38V255.34H512.648V251.56ZM546.809 258.868H569.921V262.648H546.809V258.868ZM543.065 266.104H573.269V269.92H543.065V266.104ZM546.809 251.056H551.561V260.74H546.809V251.056ZM546.485 278.668H570.101V282.484H546.485V278.668ZM546.485 272.584H551.273V279.676H546.485V272.584ZM601.366 256.96H609.106V260.812H601.366V256.96ZM591.97 251.92H595.822V255.52C595.822 262.324 592.978 268.12 586.678 270.424L584.158 266.68C589.666 264.844 591.97 260.236 591.97 255.52V251.92ZM593.014 251.92H596.83V255.556C596.83 259.84 599.026 264.124 604.282 265.924L601.726 269.596C595.75 267.436 593.014 261.856 593.014 255.556V251.92ZM607.45 249.904H612.238V274.492H607.45V249.904ZM590.17 278.812H612.958V282.628H590.17V278.812ZM590.17 272.008H594.994V280.936H590.17V272.008ZM623.468 251.884H627.212V255.736C627.212 261.388 624.944 267.04 619.508 269.344L616.988 265.636C621.632 263.584 623.468 259.48 623.468 255.736V251.884ZM624.332 251.884H628.076V255.736C628.076 259.3 629.876 262.9 634.268 264.628L631.712 268.264C626.528 266.212 624.332 261.172 624.332 255.736V251.884ZM641.324 249.904H645.86V270.244H641.324V249.904ZM637.328 257.968H642.62V261.82H637.328V257.968ZM634.268 250.516H638.732V269.2H634.268V250.516ZM634.556 270.712C641.54 270.712 646.04 273.052 646.04 276.976C646.04 280.864 641.54 283.204 634.556 283.204C627.536 283.204 623.108 280.864 623.108 276.976C623.108 273.052 627.536 270.712 634.556 270.712ZM634.556 274.312C630.272 274.312 627.86 275.212 627.86 276.976C627.86 278.74 630.272 279.604 634.556 279.604C638.84 279.604 641.216 278.74 641.216 276.976C641.216 275.212 638.84 274.312 634.556 274.312ZM673.469 249.868H678.293V268.552H673.469V249.868ZM652.481 251.776H657.233V265.528H652.481V251.776ZM652.481 263.008H655.361C661.157 263.008 665.873 262.684 670.769 261.64L671.345 265.492C666.269 266.608 661.337 266.968 655.361 266.968H652.481V263.008ZM656.117 269.956H678.293V282.844H656.117V269.956ZM673.577 273.7H660.797V279.064H673.577V273.7ZM687.182 270.928L686.39 257.644L686.246 252.64H691.538L691.394 257.644L690.638 270.928H687.182ZM688.874 280.504C687.002 280.504 685.598 279.028 685.598 277.048C685.598 275.068 687.002 273.628 688.874 273.628C690.782 273.628 692.186 275.068 692.186 277.048C692.186 279.028 690.782 280.504 688.874 280.504Z" fill="#467CD7"/>
</svg>
