<svg width="802" height="464" viewBox="0 0 802 464" fill="none" xmlns="http://www.w3.org/2000/svg">
<rect width="802" height="464" fill="#F3F3F3"/>
<path d="M196.004 171.84H200.216V173.388C200.216 179.796 195.176 185.232 186.428 186.528L184.556 182.676C192.224 181.668 196.004 177.312 196.004 173.388V171.84ZM196.904 171.84H201.08V173.388C201.08 177.276 204.896 181.668 212.528 182.676L210.692 186.528C201.944 185.232 196.904 179.796 196.904 173.388V171.84ZM196.04 192H200.792V204.204H196.04V192ZM183.476 188.976H213.608V192.864H183.476V188.976ZM220.373 179.148H243.377V182.964H220.373V179.148ZM220.373 171.408H225.125V180.876H220.373V171.408ZM216.593 185.808H246.761V189.624H216.593V185.808ZM231.569 191.748C238.769 191.748 243.125 193.98 243.125 197.94C243.125 201.864 238.769 204.132 231.569 204.132C224.369 204.132 219.977 201.864 219.977 197.94C219.977 193.98 224.369 191.748 231.569 191.748ZM231.569 195.42C227.105 195.42 224.837 196.212 224.837 197.94C224.837 199.632 227.105 200.46 231.569 200.46C236.033 200.46 238.301 199.632 238.301 197.94C238.301 196.212 236.033 195.42 231.569 195.42ZM249.674 187.32H279.842V191.136H249.674V187.32ZM262.742 189.732H267.566V196.752H262.742V189.732ZM253.382 172.272H276.026V184.656H253.382V172.272ZM271.31 176.016H258.062V180.912H271.31V176.016ZM253.166 199.812H276.53V203.628H253.166V199.812ZM253.166 193.944H257.918V201.072H253.166V193.944ZM306.876 170.868H311.412V204.204H306.876V170.868ZM295.896 182.244H301.404V186.132H295.896V182.244ZM300.144 171.408H304.608V202.692H300.144V171.408ZM288.696 176.304H292.296V179.724C292.296 187.212 290.244 194.664 284.952 197.976L282.108 194.448C287.004 191.388 288.696 185.412 288.696 179.724V176.304ZM289.776 176.304H293.34V179.724C293.34 185.268 294.996 190.884 299.82 193.692L297.012 197.184C291.72 194.052 289.776 187.068 289.776 179.724V176.304ZM283.368 174.216H298.236V178.068H283.368V174.216ZM326.637 173.064C331.893 173.064 335.817 176.484 335.817 181.272C335.817 186.096 331.893 189.516 326.637 189.516C321.417 189.516 317.421 186.096 317.421 181.272C317.421 176.484 321.417 173.064 326.637 173.064ZM326.637 177.168C324.081 177.168 322.137 178.68 322.137 181.272C322.137 183.9 324.081 185.412 326.637 185.412C329.193 185.412 331.137 183.9 331.137 181.272C331.137 178.68 329.193 177.168 326.637 177.168ZM338.949 170.832H343.737V204.276H338.949V170.832ZM316.629 197.508L316.053 193.656C321.921 193.656 330.093 193.584 337.113 192.54L337.473 195.996C330.237 197.436 322.389 197.508 316.629 197.508ZM369.854 187.824H374.642V192.648H369.854V187.824ZM357.254 185.016H387.278V188.508H357.254V185.016ZM369.854 170.832H374.606V174.864H369.854V170.832ZM369.566 175.08H373.778V175.728C373.778 180.516 368.918 183.684 359.702 184.188L358.37 180.624C366.506 180.3 369.566 178.032 369.566 175.728V175.08ZM370.682 175.08H374.894V175.728C374.894 178.032 377.954 180.3 386.054 180.624L384.722 184.188C375.542 183.684 370.682 180.516 370.682 175.728V175.08ZM360.062 173.46H384.434V176.952H360.062V173.46ZM360.638 190.524H383.678V198.768H365.39V201.936H360.674V195.564H378.962V193.98H360.638V190.524ZM360.674 200.496H384.542V203.988H360.674V200.496ZM414.383 170.868H418.919V204.204H414.383V170.868ZM403.403 182.244H408.911V186.132H403.403V182.244ZM407.651 171.408H412.115V202.692H407.651V171.408ZM396.203 176.304H399.803V179.724C399.803 187.212 397.751 194.664 392.459 197.976L389.615 194.448C394.511 191.388 396.203 185.412 396.203 179.724V176.304ZM397.283 176.304H400.847V179.724C400.847 185.268 402.503 190.884 407.327 193.692L404.519 197.184C399.227 194.052 397.283 187.068 397.283 179.724V176.304ZM390.875 174.216H405.743V178.068H390.875V174.216ZM434.145 173.064C439.401 173.064 443.325 176.484 443.325 181.272C443.325 186.096 439.401 189.516 434.145 189.516C428.925 189.516 424.929 186.096 424.929 181.272C424.929 176.484 428.925 173.064 434.145 173.064ZM434.145 177.168C431.589 177.168 429.645 178.68 429.645 181.272C429.645 183.9 431.589 185.412 434.145 185.412C436.701 185.412 438.645 183.9 438.645 181.272C438.645 178.68 436.701 177.168 434.145 177.168ZM446.457 170.832H451.245V204.276H446.457V170.832ZM424.137 197.508L423.561 193.656C429.429 193.656 437.601 193.584 444.621 192.54L444.981 195.996C437.745 197.436 429.897 197.508 424.137 197.508ZM460.062 185.736H483.498V189.552H460.062V185.736ZM456.57 196.536H486.738V200.46H456.57V196.536ZM469.206 187.464H473.994V197.796H469.206V187.464ZM460.062 173.136H483.246V176.988H464.85V187.392H460.062V173.136ZM489.651 185.808H519.855V189.3H489.651V185.808ZM493.035 190.956H516.255V198.876H497.859V201.72H493.107V195.852H511.539V194.196H493.035V190.956ZM493.107 200.712H517.191V203.952H493.107V200.712ZM493.359 171.444H516.183V179.292H498.147V182.028H493.395V176.304H511.467V174.648H493.359V171.444ZM493.395 181.02H516.795V184.26H493.395V181.02Z" fill="#467CD7"/>
<path d="M333.064 238.868H337.6V272.204H333.064V238.868ZM326.44 239.408H330.94V270.656H326.44V239.408ZM321.22 259.316H327.916V263.024H321.22V259.316ZM314.488 256.328H318.988V269.648H314.488V256.328ZM308.26 257.624L307.792 253.844C312.436 253.844 319.708 253.736 325.144 252.98L325.468 256.292C319.888 257.408 312.868 257.624 308.26 257.624ZM309.196 242.108H314.308V245.888H309.196V242.108ZM312.076 242.108H316.288V244.304C316.288 246.896 316.288 250.388 314.992 254.924L310.852 254.132C312.076 249.74 312.076 246.788 312.076 244.304V242.108ZM317.296 242.108H322.336V245.888H317.296V242.108ZM319.816 242.108H324.028V244.376C324.028 247.004 324.028 250.46 322.804 254.888L318.664 254.096C319.816 249.812 319.816 246.896 319.816 244.376V242.108ZM341.557 251.612H371.689V255.392H341.557V251.612ZM354.085 253.376H358.873V258.524H354.085V253.376ZM357.577 246.356H369.061V250.028H357.577V246.356ZM357.577 239.876H368.917V243.584H362.365V247.76H357.577V239.876ZM344.365 239.876H355.813V243.584H349.153V247.76H344.365V239.876ZM344.365 246.356H346.417C350.233 246.356 352.933 246.248 356.101 245.6L356.533 249.308C353.221 249.92 350.341 250.028 346.417 250.028H344.365V246.356ZM344.185 258.056H355.273V266.48H348.793V269.612H344.257V263.24H350.737V261.512H344.185V258.056ZM344.257 268.352H346.309C351.673 268.352 353.797 268.352 356.389 267.848L356.857 271.304C354.085 271.844 351.889 271.844 346.309 271.844H344.257V268.352ZM356.281 259.604H370.609V262.952H356.281V259.604ZM363.409 263.564C366.901 263.564 369.349 265.184 369.349 267.92C369.349 270.548 366.901 272.204 363.409 272.204C359.953 272.204 357.505 270.548 357.505 267.92C357.505 265.184 359.953 263.564 363.409 263.564ZM363.409 266.66C362.329 266.66 361.537 267.056 361.537 267.92C361.537 268.748 362.329 269.144 363.409 269.144C364.489 269.144 365.281 268.748 365.281 267.92C365.281 267.056 364.489 266.66 363.409 266.66ZM361.105 257.12H365.713V261.944H361.105V257.12ZM377.77 241.676H398.902V245.528H377.77V241.676ZM374.71 264.32H404.842V268.208H374.71V264.32ZM385.366 252.872H390.154V266.228H385.366V252.872ZM397.174 241.676H401.962V244.88C401.962 249.056 401.962 253.736 400.63 260.864L395.842 260.324C397.174 253.7 397.174 248.876 397.174 244.88V241.676ZM423.436 259.1H427.036V260.216C427.036 265.256 424.804 269.864 419.584 271.736L417.244 268.244C421.6 266.768 423.436 263.456 423.436 260.216V259.1ZM424.66 259.1H428.08V260.216C428.08 263.456 429.7 266.84 433.768 268.532L431.86 272.06C426.568 270.08 424.66 265.112 424.66 260.216V259.1ZM435.604 259.1H439.024V260.216C439.024 264.824 437.044 270.008 431.86 272.06L429.88 268.532C433.948 266.696 435.604 263.168 435.604 260.216V259.1ZM436.72 259.1H440.32V260.216C440.32 263.672 442.12 266.876 446.512 268.244L444.172 271.736C438.88 269.936 436.72 265.472 436.72 260.216V259.1ZM438.844 238.904H443.668V257.732H438.844V238.904ZM425.524 240.596C430.708 240.596 434.56 243.908 434.56 248.588C434.56 253.232 430.708 256.544 425.524 256.544C420.34 256.544 416.452 253.232 416.452 248.588C416.452 243.908 420.34 240.596 425.524 240.596ZM425.524 244.556C423.004 244.556 421.132 246.032 421.132 248.588C421.132 251.108 423.004 252.584 425.524 252.584C428.044 252.584 429.88 251.108 429.88 248.588C429.88 246.032 428.044 244.556 425.524 244.556ZM452.809 247.868H475.921V251.648H452.809V247.868ZM449.065 255.104H479.269V258.92H449.065V255.104ZM452.809 240.056H457.561V249.74H452.809V240.056ZM452.485 267.668H476.101V271.484H452.485V267.668ZM452.485 261.584H457.273V268.676H452.485V261.584ZM507.366 245.96H515.106V249.812H507.366V245.96ZM497.97 240.92H501.822V244.52C501.822 251.324 498.978 257.12 492.678 259.424L490.158 255.68C495.666 253.844 497.97 249.236 497.97 244.52V240.92ZM499.014 240.92H502.83V244.556C502.83 248.84 505.026 253.124 510.282 254.924L507.726 258.596C501.75 256.436 499.014 250.856 499.014 244.556V240.92ZM513.45 238.904H518.238V263.492H513.45V238.904ZM496.17 267.812H518.958V271.628H496.17V267.812ZM496.17 261.008H500.994V269.936H496.17V261.008ZM529.468 240.884H533.212V244.736C533.212 250.388 530.944 256.04 525.508 258.344L522.988 254.636C527.632 252.584 529.468 248.48 529.468 244.736V240.884ZM530.332 240.884H534.076V244.736C534.076 248.3 535.876 251.9 540.268 253.628L537.712 257.264C532.528 255.212 530.332 250.172 530.332 244.736V240.884ZM547.324 238.904H551.86V259.244H547.324V238.904ZM543.328 246.968H548.62V250.82H543.328V246.968ZM540.268 239.516H544.732V258.2H540.268V239.516ZM540.556 259.712C547.54 259.712 552.04 262.052 552.04 265.976C552.04 269.864 547.54 272.204 540.556 272.204C533.536 272.204 529.108 269.864 529.108 265.976C529.108 262.052 533.536 259.712 540.556 259.712ZM540.556 263.312C536.272 263.312 533.86 264.212 533.86 265.976C533.86 267.74 536.272 268.604 540.556 268.604C544.84 268.604 547.216 267.74 547.216 265.976C547.216 264.212 544.84 263.312 540.556 263.312ZM579.469 238.868H584.293V257.552H579.469V238.868ZM558.481 240.776H563.233V254.528H558.481V240.776ZM558.481 252.008H561.361C567.157 252.008 571.873 251.684 576.769 250.64L577.345 254.492C572.269 255.608 567.337 255.968 561.361 255.968H558.481V252.008ZM562.117 258.956H584.293V271.844H562.117V258.956ZM579.577 262.7H566.797V268.064H579.577V262.7ZM593.182 259.928L592.39 246.644L592.246 241.64H597.538L597.394 246.644L596.638 259.928H593.182ZM594.874 269.504C593.002 269.504 591.598 268.028 591.598 266.048C591.598 264.068 593.002 262.628 594.874 262.628C596.782 262.628 598.186 264.068 598.186 266.048C598.186 268.028 596.782 269.504 594.874 269.504Z" fill="#467CD7"/>
</svg>
