<svg width="802" height="464" viewBox="0 0 802 464" fill="none" xmlns="http://www.w3.org/2000/svg">
<rect width="802" height="464" fill="#F3F3F3"/>
<path d="M41.552 38.888H48.496V42.28H41.552V38.888ZM41.328 45.032H48.272V48.424H41.328V45.032ZM47.824 34.216H52.08V51.272H47.824V34.216ZM38.16 36.232H42.704C42.704 44.296 38.16 49.48 29.168 51.944L27.504 48.584C35.024 46.632 38.16 42.92 38.16 38.28V36.232ZM29.136 36.232H41.136V39.624H29.136L29.136 36.232ZM42.256 51.656C48.272 51.656 52.272 53.96 52.272 57.672C52.272 61.384 48.272 63.72 42.256 63.72C36.24 63.72 32.24 61.384 32.24 57.672C32.24 53.96 36.24 51.656 42.256 51.656ZM42.256 54.92C38.64 54.92 36.464 55.848 36.464 57.672C36.464 59.496 38.64 60.392 42.256 60.392C45.904 60.392 48.08 59.496 48.08 57.672C48.08 55.848 45.904 54.92 42.256 54.92ZM57.8375 48.328L60.1095 48.328C65.6135 48.328 68.4935 48.232 71.8535 47.624L72.2695 50.984C68.8135 51.624 65.7735 51.72 60.1095 51.72L57.8375 51.72V48.328ZM57.8055 35.912H70.8295V45.256H62.0615L62.0615 50.568L57.8375 50.568V42.088L66.6055 42.088V39.272H57.8055V35.912ZM77.2615 34.248H81.5175V52.488L77.2615 52.488V34.248ZM72.5255 38.312H78.0295V41.704H72.5255V38.312ZM72.5255 44.616H78.0295V48.008H72.5255V44.616ZM61.2295 53.832L81.5175 53.832V63.88H77.2615V57.224H61.2295V53.832Z" fill="black"/>
<path d="M657.96 310V307.144H661.8V295.912H658.56V293.728C660.36 293.392 661.56 292.936 662.712 292.24H665.328V307.144H668.664V310H657.96ZM676.796 310.336C673.988 310.336 672.116 309.232 670.772 307.912L672.428 305.68C673.412 306.664 674.684 307.48 676.316 307.48C678.188 307.48 679.46 306.304 679.46 304.192C679.46 302.128 678.26 300.976 676.484 300.976C675.428 300.976 674.852 301.24 673.82 301.912L672.188 300.856L672.692 292.24H682.196V295.192H675.74L675.404 298.96C676.1 298.648 676.724 298.48 677.54 298.48C680.516 298.48 683.012 300.232 683.012 304.12C683.012 308.056 680.06 310.336 676.796 310.336ZM700.696 289.912H703.888V306.256H700.696V289.912ZM695.32 292.384H701.776V294.88H695.32V292.384ZM689.2 309.208H704.392V311.752H689.2V309.208ZM689.2 304.792H692.416V310.504H689.2V304.792ZM686.512 291.328H689.68V301.768H686.512V291.328ZM686.512 300.808H688.288C691.504 300.808 694.36 300.664 697.528 300.112L697.816 302.68C694.552 303.28 691.624 303.4 688.288 303.4H686.512V300.808ZM695.32 296.512H701.776V299.032H695.32V296.512ZM728.044 289.888H731.26V312.184H728.044V289.888ZM719.284 291.448C722.644 291.448 725.116 294.52 725.116 299.368C725.116 304.264 722.644 307.336 719.284 307.336C715.924 307.336 713.452 304.264 713.452 299.368C713.452 294.52 715.924 291.448 719.284 291.448ZM719.284 294.352C717.628 294.352 716.5 296.104 716.5 299.368C716.5 302.68 717.628 304.456 719.284 304.456C720.94 304.456 722.044 302.68 722.044 299.368C722.044 296.104 720.94 294.352 719.284 294.352ZM739.754 291.112H742.37V293.08C742.37 297.496 740.45 301.384 736.226 302.848L734.522 300.328C738.242 299.08 739.754 296.104 739.754 293.08V291.112ZM740.402 291.112H742.994V293.392C742.994 296.056 744.482 298.648 747.962 299.728L746.306 302.2C742.298 300.856 740.402 297.4 740.402 293.392V291.112ZM749.186 289.912H752.378V303.04H749.186V289.912ZM751.49 295.048H755.33V297.688H751.49V295.048ZM745.13 303.544C749.738 303.544 752.642 305.152 752.642 307.84C752.642 310.552 749.738 312.136 745.13 312.136C740.498 312.136 737.594 310.552 737.594 307.84C737.594 305.152 740.498 303.544 745.13 303.544ZM745.13 306.016C742.298 306.016 740.762 306.616 740.762 307.84C740.762 309.088 742.298 309.664 745.13 309.664C747.962 309.664 749.474 309.088 749.474 307.84C749.474 306.616 747.962 306.016 745.13 306.016Z" fill="#333333"/>
<path d="M412.124 122V119.144H415.964V107.912H412.724V105.728C414.524 105.392 415.724 104.936 416.876 104.24H419.492V119.144H422.828V122H412.124ZM431.416 122.336C427.792 122.336 425.392 119.192 425.392 113.048C425.392 106.928 427.792 103.928 431.416 103.928C435.016 103.928 437.416 106.928 437.416 113.048C437.416 119.192 435.016 122.336 431.416 122.336ZM431.416 119.576C432.952 119.576 434.08 118.04 434.08 113.048C434.08 108.08 432.952 106.64 431.416 106.64C429.88 106.64 428.728 108.08 428.728 113.048C428.728 118.04 429.88 119.576 431.416 119.576ZM439.644 116.408V113.888H446.22V116.408H439.644ZM449.319 122V119.144H453.159V107.912H449.919V105.728C451.719 105.392 452.919 104.936 454.071 104.24H456.687V119.144H460.023V122H449.319ZM468.155 122.336C465.347 122.336 463.475 121.232 462.131 119.912L463.787 117.68C464.771 118.664 466.043 119.48 467.675 119.48C469.547 119.48 470.819 118.304 470.819 116.192C470.819 114.128 469.619 112.976 467.843 112.976C466.787 112.976 466.211 113.24 465.179 113.912L463.547 112.856L464.051 104.24H473.555V107.192H467.099L466.763 110.96C467.459 110.648 468.083 110.48 468.899 110.48C471.875 110.48 474.371 112.232 474.371 116.12C474.371 120.056 471.419 122.336 468.155 122.336ZM492.055 101.912H495.247V118.256H492.055V101.912ZM486.679 104.384H493.135V106.88H486.679V104.384ZM480.559 121.208H495.751V123.752H480.559V121.208ZM480.559 116.792H483.775V122.504H480.559V116.792ZM477.871 103.328H481.039V113.768H477.871V103.328ZM477.871 112.808H479.647C482.863 112.808 485.719 112.664 488.887 112.112L489.175 114.68C485.911 115.28 482.983 115.4 479.647 115.4H477.871V112.808ZM486.679 108.512H493.135V111.032H486.679V108.512Z" fill="#333333"/>
<path d="M105.359 311.229C102.551 311.229 100.679 310.125 99.3347 308.805L100.991 306.573C101.975 307.557 103.247 308.373 104.879 308.373C106.751 308.373 108.023 307.197 108.023 305.085C108.023 303.021 106.823 301.869 105.047 301.869C103.991 301.869 103.415 302.133 102.383 302.805L100.751 301.749L101.255 293.133H110.759V296.085H104.303L103.967 299.853C104.663 299.541 105.287 299.373 106.103 299.373C109.079 299.373 111.575 301.125 111.575 305.013C111.575 308.949 108.623 311.229 105.359 311.229ZM114.043 305.301V302.781H120.619V305.301H114.043ZM123.718 310.893V308.037H127.558V296.805H124.318V294.621C126.118 294.285 127.318 293.829 128.47 293.133H131.086V308.037H134.422V310.893H123.718ZM143.01 311.229C139.386 311.229 136.986 308.085 136.986 301.941C136.986 295.821 139.386 292.821 143.01 292.821C146.61 292.821 149.01 295.821 149.01 301.941C149.01 308.085 146.61 311.229 143.01 311.229ZM143.01 308.469C144.546 308.469 145.674 306.933 145.674 301.941C145.674 296.973 144.546 295.533 143.01 295.533C141.474 295.533 140.322 296.973 140.322 301.941C140.322 306.933 141.474 308.469 143.01 308.469ZM166.454 290.805H169.646V307.149H166.454V290.805ZM161.078 293.277H167.534V295.773H161.078V293.277ZM154.958 310.101H170.15V312.645H154.958V310.101ZM154.958 305.685H158.174V311.397H154.958V305.685ZM152.27 292.221H155.438V302.661H152.27V292.221ZM152.27 301.701H154.046C157.262 301.701 160.118 301.557 163.286 301.005L163.574 303.573C160.31 304.173 157.382 304.293 154.046 304.293H152.27V301.701ZM161.078 297.405H167.534V299.925H161.078V297.405Z" fill="#333333"/>
<path d="M650.939 401.999C652.033 401.999 653.116 401.765 654.122 401.313C655.128 400.86 656.037 400.198 656.794 399.365C657.552 398.533 658.141 397.547 658.528 396.468C658.915 395.389 659.091 394.238 659.046 393.085C657.18 345.753 642.934 299.888 617.884 260.567C617.274 259.609 616.487 258.792 615.569 258.163C614.652 257.535 613.624 257.108 612.546 256.91C611.469 256.711 610.364 256.745 609.299 257.008C608.234 257.271 607.231 257.759 606.349 258.441L521.19 324.374C519.541 325.651 518.41 327.538 518.024 329.658C517.638 331.777 518.025 333.972 519.108 335.803C529.518 353.402 535.73 373.4 537.211 394.085C537.365 396.237 538.284 398.248 539.785 399.716C541.285 401.183 543.255 401.999 545.301 401.999L650.939 401.999Z" fill="#55B733"/>
<path d="M604.379 255.617C605.261 254.934 606.003 254.07 606.56 253.077C607.117 252.085 607.478 250.983 607.621 249.839C607.765 248.696 607.687 247.533 607.394 246.422C607.1 245.31 606.597 244.273 605.913 243.372C567.932 193.297 513.558 160.029 453.49 150.113C393.423 140.197 332.012 154.352 281.342 189.792C280.43 190.43 279.65 191.255 279.049 192.219C278.447 193.183 278.037 194.265 277.842 195.4C277.647 196.535 277.672 197.7 277.915 198.825C278.158 199.95 278.614 201.012 279.256 201.946L341.244 292.17C342.444 293.917 344.227 295.122 346.234 295.542C348.24 295.962 350.324 295.567 352.066 294.436C376.747 278.413 406.04 272.207 434.673 276.934C463.306 281.66 489.399 297.01 508.259 320.22C509.591 321.859 511.46 322.906 513.493 323.153C515.525 323.399 517.571 322.827 519.221 321.55L604.379 255.617Z" fill="#8FDF73"/>
<path d="M276.562 204.003C275.92 203.069 275.106 202.281 274.168 201.687C273.23 201.093 272.188 200.706 271.105 200.548C270.021 200.389 268.919 200.464 267.863 200.767C266.808 201.07 265.821 201.594 264.963 202.31C237.464 225.226 214.981 254.135 199.051 287.061C183.122 319.987 174.121 356.153 172.665 393.087C172.62 394.24 172.796 395.39 173.183 396.469C173.569 397.548 174.159 398.534 174.916 399.367C175.674 400.199 176.583 400.862 177.589 401.314C178.595 401.767 179.678 402 180.771 402L286.409 402C288.455 402 290.426 401.185 291.926 399.717C293.426 398.25 294.346 396.239 294.5 394.087C295.715 377.115 300.118 360.568 307.452 345.407C314.787 330.247 324.906 316.777 337.222 305.78C338.784 304.385 339.789 302.42 340.035 300.278C340.281 298.135 339.751 295.974 338.55 294.227L276.562 204.003Z" fill="#BAECA8"/>
<path d="M231.611 342.551C229.271 342.551 227.691 341.691 226.651 340.491L228.051 338.631C228.931 339.491 229.991 340.171 231.331 340.171C232.851 340.171 233.871 339.411 233.871 338.091C233.871 336.631 233.011 335.731 229.791 335.731V333.611C232.511 333.611 233.391 332.691 233.391 331.371C233.391 330.211 232.671 329.511 231.411 329.511C230.351 329.511 229.491 330.011 228.611 330.831L227.111 329.011C228.391 327.911 229.811 327.211 231.531 327.211C234.391 327.211 236.331 328.611 236.331 331.151C236.331 332.731 235.451 333.911 233.871 334.511V334.611C235.551 335.091 236.831 336.311 236.831 338.271C236.831 340.991 234.451 342.551 231.611 342.551ZM243.848 342.551C240.828 342.551 238.828 339.931 238.828 334.811C238.828 329.711 240.828 327.211 243.848 327.211C246.848 327.211 248.848 329.711 248.848 334.811C248.848 339.931 246.848 342.551 243.848 342.551ZM243.848 340.251C245.128 340.251 246.068 338.971 246.068 334.811C246.068 330.671 245.128 329.471 243.848 329.471C242.568 329.471 241.608 330.671 241.608 334.811C241.608 338.971 242.568 340.251 243.848 340.251ZM253.985 336.591C251.865 336.591 250.365 334.831 250.365 331.871C250.365 328.911 251.865 327.211 253.985 327.211C256.105 327.211 257.605 328.911 257.605 331.871C257.605 334.831 256.105 336.591 253.985 336.591ZM253.985 334.931C254.845 334.931 255.505 334.031 255.505 331.871C255.505 329.691 254.845 328.871 253.985 328.871C253.105 328.871 252.445 329.691 252.445 331.871C252.445 334.031 253.105 334.931 253.985 334.931ZM254.465 342.551L262.505 327.211H264.265L256.205 342.551H254.465ZM264.745 342.551C262.645 342.551 261.145 340.811 261.145 337.831C261.145 334.871 262.645 333.151 264.745 333.151C266.845 333.151 268.345 334.871 268.345 337.831C268.345 340.811 266.845 342.551 264.745 342.551ZM264.745 340.891C265.605 340.891 266.285 340.011 266.285 337.831C266.285 335.651 265.605 334.831 264.745 334.831C263.885 334.831 263.205 335.651 263.205 337.831C263.205 340.011 263.885 340.891 264.745 340.891Z" fill="#333333"/>
<path d="M438.6 223.487C436.26 223.487 434.7 222.567 433.58 221.467L434.96 219.607C435.78 220.427 436.84 221.107 438.2 221.107C439.76 221.107 440.82 220.127 440.82 218.367C440.82 216.647 439.82 215.687 438.34 215.687C437.46 215.687 436.98 215.907 436.12 216.467L434.76 215.587L435.18 208.407H443.1V210.867H437.72L437.44 214.007C438.02 213.747 438.54 213.607 439.22 213.607C441.7 213.607 443.78 215.067 443.78 218.307C443.78 221.587 441.32 223.487 438.6 223.487ZM450.776 223.487C447.756 223.487 445.756 220.867 445.756 215.747C445.756 210.647 447.756 208.147 450.776 208.147C453.776 208.147 455.776 210.647 455.776 215.747C455.776 220.867 453.776 223.487 450.776 223.487ZM450.776 221.187C452.056 221.187 452.996 219.907 452.996 215.747C452.996 211.607 452.056 210.407 450.776 210.407C449.496 210.407 448.536 211.607 448.536 215.747C448.536 219.907 449.496 221.187 450.776 221.187ZM460.913 217.527C458.793 217.527 457.293 215.767 457.293 212.807C457.293 209.847 458.793 208.147 460.913 208.147C463.033 208.147 464.533 209.847 464.533 212.807C464.533 215.767 463.033 217.527 460.913 217.527ZM460.913 215.867C461.773 215.867 462.433 214.967 462.433 212.807C462.433 210.627 461.773 209.807 460.913 209.807C460.033 209.807 459.373 210.627 459.373 212.807C459.373 214.967 460.033 215.867 460.913 215.867ZM461.393 223.487L469.433 208.147H471.193L463.133 223.487H461.393ZM471.673 223.487C469.573 223.487 468.073 221.747 468.073 218.767C468.073 215.807 469.573 214.087 471.673 214.087C473.773 214.087 475.273 215.807 475.273 218.767C475.273 221.747 473.773 223.487 471.673 223.487ZM471.673 221.827C472.533 221.827 473.213 220.947 473.213 218.767C473.213 216.587 472.533 215.767 471.673 215.767C470.813 215.767 470.133 216.587 470.133 218.767C470.133 220.947 470.813 221.827 471.673 221.827Z" fill="#333333"/>
<path d="M579.851 352.066V350.386C583.891 346.766 586.251 343.986 586.251 341.706C586.251 340.226 585.471 339.306 584.051 339.306C582.951 339.306 582.091 340.006 581.331 340.846L579.711 339.246C581.071 337.786 582.411 337.006 584.431 337.006C587.211 337.006 589.091 338.786 589.091 341.546C589.091 344.246 586.851 347.126 584.151 349.766C584.891 349.686 585.871 349.586 586.571 349.586H589.771V352.066H579.851ZM596.708 352.346C593.688 352.346 591.688 349.726 591.688 344.606C591.688 339.506 593.688 337.006 596.708 337.006C599.708 337.006 601.708 339.506 601.708 344.606C601.708 349.726 599.708 352.346 596.708 352.346ZM596.708 350.046C597.988 350.046 598.928 348.766 598.928 344.606C598.928 340.466 597.988 339.266 596.708 339.266C595.428 339.266 594.468 340.466 594.468 344.606C594.468 348.766 595.428 350.046 596.708 350.046ZM606.845 346.386C604.725 346.386 603.225 344.626 603.225 341.666C603.225 338.706 604.725 337.006 606.845 337.006C608.965 337.006 610.465 338.706 610.465 341.666C610.465 344.626 608.965 346.386 606.845 346.386ZM606.845 344.726C607.705 344.726 608.365 343.826 608.365 341.666C608.365 339.486 607.705 338.666 606.845 338.666C605.965 338.666 605.305 339.486 605.305 341.666C605.305 343.826 605.965 344.726 606.845 344.726ZM607.325 352.346L615.365 337.006H617.125L609.065 352.346H607.325ZM617.605 352.346C615.505 352.346 614.005 350.606 614.005 347.626C614.005 344.666 615.505 342.946 617.605 342.946C619.705 342.946 621.205 344.666 621.205 347.626C621.205 350.606 619.705 352.346 617.605 352.346ZM617.605 350.686C618.465 350.686 619.145 349.806 619.145 347.626C619.145 345.446 618.465 344.626 617.605 344.626C616.745 344.626 616.065 345.446 616.065 347.626C616.065 349.806 616.745 350.686 617.605 350.686Z" fill="#333333"/>
</svg>
