<svg width="546" height="275" viewBox="0 0 546 275" fill="none" xmlns="http://www.w3.org/2000/svg">
<rect width="546" height="275" fill="#F3F3F3"/>
<path d="M37.664 31.416L42.872 31.416V33.96H37.664V31.416ZM37.496 36.024H42.704V38.568H37.496V36.024ZM42.368 27.912H45.56V40.704H42.368V27.912ZM35.12 29.424H38.528C38.528 35.472 35.12 39.36 28.376 41.208L27.128 38.688C32.768 37.224 35.12 34.44 35.12 30.96V29.424ZM28.352 29.424H37.352V31.968H28.352V29.424ZM38.192 40.992C42.704 40.992 45.704 42.72 45.704 45.504C45.704 48.288 42.704 50.04 38.192 50.04C33.68 50.04 30.68 48.288 30.68 45.504C30.68 42.72 33.68 40.992 38.192 40.992ZM38.192 43.44C35.48 43.44 33.848 44.136 33.848 45.504C33.848 46.872 35.48 47.544 38.192 47.544C40.928 47.544 42.56 46.872 42.56 45.504C42.56 44.136 40.928 43.44 38.192 43.44ZM49.8781 38.496H51.5821C55.7101 38.496 57.8701 38.424 60.3901 37.968L60.7021 40.488C58.1101 40.968 55.8301 41.04 51.5821 41.04H49.8781V38.496ZM49.8541 29.184L59.6221 29.184V36.192L53.0461 36.192V40.176H49.8781V33.816L56.4541 33.816V31.704L49.8541 31.704V29.184ZM64.4461 27.936H67.6381V41.616H64.4461V27.936ZM60.8941 30.984H65.0221V33.528H60.8941V30.984ZM60.8941 35.712H65.0221V38.256H60.8941V35.712ZM52.4221 42.624L67.6381 42.624V50.16H64.4461V45.168L52.4221 45.168V42.624Z" fill="black"/>
<path d="M463.372 184V182.001H466.06V174.138H463.792V172.61C465.052 172.374 465.892 172.055 466.698 171.568H468.529V182.001H470.865V184H463.372ZM476.557 184.235C474.592 184.235 473.281 183.462 472.34 182.538L473.5 180.976C474.188 181.665 475.079 182.236 476.221 182.236C477.532 182.236 478.422 181.413 478.422 179.934C478.422 178.49 477.582 177.683 476.339 177.683C475.6 177.683 475.196 177.868 474.474 178.338L473.332 177.599L473.684 171.568H480.337V173.634H475.818L475.583 176.272C476.07 176.054 476.507 175.936 477.078 175.936C479.161 175.936 480.908 177.162 480.908 179.884C480.908 182.639 478.842 184.235 476.557 184.235ZM493.287 169.938H495.522V181.379H493.287V169.938ZM489.524 171.669H494.043V173.416H489.524V171.669ZM485.24 183.446H495.874V185.226H485.24V183.446ZM485.24 180.354H487.491V184.353H485.24V180.354ZM483.358 170.93H485.576V178.238H483.358V170.93ZM483.358 177.566H484.602C486.853 177.566 488.852 177.465 491.07 177.078L491.271 178.876C488.986 179.296 486.937 179.38 484.602 179.38H483.358V177.566ZM489.524 174.558H494.043V176.322H489.524V174.558ZM512.431 169.922H514.682V185.529H512.431V169.922ZM506.299 171.014C508.651 171.014 510.381 173.164 510.381 176.558C510.381 179.985 508.651 182.135 506.299 182.135C503.947 182.135 502.216 179.985 502.216 176.558C502.216 173.164 503.947 171.014 506.299 171.014ZM506.299 173.046C505.139 173.046 504.35 174.273 504.35 176.558C504.35 178.876 505.139 180.119 506.299 180.119C507.458 180.119 508.231 178.876 508.231 176.558C508.231 174.273 507.458 173.046 506.299 173.046ZM520.628 170.778H522.459V172.156C522.459 175.247 521.115 177.969 518.158 178.994L516.965 177.23C519.569 176.356 520.628 174.273 520.628 172.156V170.778ZM521.081 170.778H522.896V172.374C522.896 174.239 523.937 176.054 526.373 176.81L525.214 178.54C522.409 177.599 521.081 175.18 521.081 172.374V170.778ZM527.23 169.938H529.465V179.128H527.23V169.938ZM528.843 173.534H531.531V175.382H528.843V173.534ZM524.391 179.481C527.617 179.481 529.649 180.606 529.649 182.488C529.649 184.386 527.617 185.495 524.391 185.495C521.149 185.495 519.116 184.386 519.116 182.488C519.116 180.606 521.149 179.481 524.391 179.481ZM524.391 181.211C522.409 181.211 521.333 181.631 521.333 182.488C521.333 183.362 522.409 183.765 524.391 183.765C526.373 183.765 527.432 183.362 527.432 182.488C527.432 181.631 526.373 181.211 524.391 181.211Z" fill="#333333"/>
<path d="M253.051 56V54.0008H255.739V46.1384H253.471V44.6096C254.731 44.3744 255.571 44.0552 256.377 43.568H258.208V54.0008H260.543V56H253.051ZM266.555 56.2352C264.018 56.2352 262.338 54.0344 262.338 49.7336C262.338 45.4496 264.018 43.3496 266.555 43.3496C269.075 43.3496 270.755 45.4496 270.755 49.7336C270.755 54.0344 269.075 56.2352 266.555 56.2352ZM266.555 54.3032C267.63 54.3032 268.42 53.228 268.42 49.7336C268.42 46.256 267.63 45.248 266.555 45.248C265.48 45.248 264.674 46.256 264.674 49.7336C264.674 53.228 265.48 54.3032 266.555 54.3032ZM272.315 52.0856V50.3216H276.918V52.0856H272.315ZM279.087 56V54.0008H281.775V46.1384H279.507V44.6096C280.767 44.3744 281.607 44.0552 282.414 43.568H284.245V54.0008H286.58V56H279.087ZM292.273 56.2352C290.307 56.2352 288.997 55.4624 288.056 54.5384L289.215 52.976C289.904 53.6648 290.794 54.236 291.937 54.236C293.247 54.236 294.138 53.4128 294.138 51.9344C294.138 50.4896 293.298 49.6832 292.054 49.6832C291.315 49.6832 290.912 49.868 290.19 50.3384L289.047 49.5992L289.4 43.568H296.053V45.6344H291.534L291.298 48.272C291.786 48.0536 292.222 47.936 292.794 47.936C294.877 47.936 296.624 49.1624 296.624 51.884C296.624 54.6392 294.558 56.2352 292.273 56.2352ZM309.003 41.9384H311.237V53.3792H309.003V41.9384ZM305.24 43.6688H309.759V45.416H305.24V43.6688ZM300.956 55.4456H311.59V57.2264H300.956V55.4456ZM300.956 52.3544H303.207V56.3528H300.956V52.3544ZM299.074 42.9296H301.292V50.2376H299.074V42.9296ZM299.074 49.5656H300.317C302.569 49.5656 304.568 49.4648 306.785 49.0784L306.987 50.876C304.702 51.296 302.653 51.38 300.317 51.38H299.074V49.5656ZM305.24 46.5584H309.759V48.3224H305.24V46.5584Z" fill="#333333"/>
<path d="M48.236 191.235C46.2704 191.235 44.96 190.462 44.0192 189.538L45.1784 187.976C45.8672 188.665 46.7576 189.236 47.9 189.236C49.2104 189.236 50.1008 188.413 50.1008 186.934C50.1008 185.49 49.2608 184.683 48.0176 184.683C47.2784 184.683 46.8752 184.868 46.1528 185.338L45.0104 184.599L45.3632 178.568H52.016V180.634H47.4968L47.2616 183.272C47.7488 183.054 48.1856 182.936 48.7568 182.936C50.84 182.936 52.5872 184.162 52.5872 186.884C52.5872 189.639 50.5208 191.235 48.236 191.235ZM54.315 187.086V185.322H58.9182V187.086H54.315ZM61.0874 191V189.001H63.7754V181.138H61.5074V179.61C62.7674 179.374 63.6074 179.055 64.4138 178.568H66.245V189.001H68.5802V191H61.0874ZM74.5919 191.235C72.0551 191.235 70.3751 189.034 70.3751 184.734C70.3751 180.45 72.0551 178.35 74.5919 178.35C77.1119 178.35 78.7919 180.45 78.7919 184.734C78.7919 189.034 77.1119 191.235 74.5919 191.235ZM74.5919 189.303C75.6671 189.303 76.4567 188.228 76.4567 184.734C76.4567 181.256 75.6671 180.248 74.5919 180.248C73.5167 180.248 72.7103 181.256 72.7103 184.734C72.7103 188.228 73.5167 189.303 74.5919 189.303ZM91.0029 176.938H93.2373V188.379H91.0029V176.938ZM87.2397 178.669H91.7589V180.416H87.2397V178.669ZM82.9557 190.446H93.5901V192.226H82.9557V190.446ZM82.9557 187.354H85.2069V191.353H82.9557V187.354ZM81.0741 177.93H83.2917V185.238H81.0741V177.93ZM81.0741 184.566H82.3173C84.5685 184.566 86.5677 184.465 88.7853 184.078L88.9869 185.876C86.7021 186.296 84.6525 186.38 82.3173 186.38H81.0741V184.566ZM87.2397 181.558H91.7589V183.322H87.2397V181.558Z" fill="#333333"/>
<path d="M455.917 257.126C456.742 257.126 457.558 256.959 458.316 256.635C459.075 256.312 459.76 255.838 460.331 255.243C460.902 254.648 461.346 253.944 461.638 253.173C461.929 252.402 462.062 251.579 462.028 250.755C460.621 216.927 449.882 184.148 430.999 156.045C430.539 155.361 429.945 154.777 429.254 154.327C428.562 153.878 427.787 153.574 426.975 153.432C426.163 153.29 425.33 153.313 424.527 153.502C423.724 153.69 422.968 154.038 422.303 154.526L358.107 201.648C356.864 202.561 356.011 203.909 355.72 205.424C355.429 206.939 355.721 208.507 356.538 209.816C364.385 222.394 369.068 236.687 370.184 251.47C370.301 253.008 370.994 254.445 372.125 255.494C373.255 256.543 374.741 257.126 376.283 257.126L455.917 257.126Z" fill="#55B733"/>
<path d="M420.819 152.507C421.484 152.019 422.043 151.401 422.463 150.692C422.883 149.982 423.156 149.195 423.264 148.378C423.372 147.56 423.313 146.729 423.092 145.935C422.871 145.141 422.491 144.399 421.976 143.756C393.344 107.967 352.355 84.1905 307.074 77.1037C261.793 70.0169 215.499 80.1334 177.302 105.462C176.615 105.918 176.027 106.508 175.573 107.197C175.12 107.886 174.81 108.659 174.664 109.47C174.517 110.282 174.535 111.114 174.719 111.918C174.902 112.722 175.246 113.481 175.729 114.149L222.458 178.631C223.363 179.88 224.707 180.741 226.22 181.041C227.733 181.341 229.303 181.059 230.616 180.251C249.222 168.799 271.304 164.364 292.888 167.742C314.473 171.12 334.143 182.09 348.361 198.678C349.365 199.849 350.774 200.598 352.306 200.774C353.838 200.95 355.38 200.541 356.624 199.629L420.819 152.507Z" fill="#8FDF73"/>
<path d="M173.697 115.619C173.213 114.951 172.6 114.388 171.893 113.964C171.186 113.54 170.4 113.263 169.583 113.15C168.767 113.037 167.935 113.09 167.14 113.306C166.344 113.523 165.6 113.898 164.953 114.409C144.224 130.787 127.275 151.448 115.267 174.98C103.259 198.512 96.4736 224.36 95.3759 250.756C95.3417 251.58 95.4743 252.402 95.766 253.174C96.0576 253.945 96.5023 254.649 97.0731 255.244C97.6439 255.839 98.3291 256.313 99.0876 256.636C99.8461 256.96 100.662 257.126 101.487 257.126L181.121 257.126C182.663 257.126 184.148 256.544 185.279 255.495C186.41 254.446 187.103 253.009 187.219 251.471C188.135 239.341 191.454 227.515 196.984 216.68C202.513 205.845 210.141 196.218 219.425 188.358C220.603 187.362 221.36 185.957 221.545 184.426C221.731 182.895 221.331 181.35 220.426 180.101L173.697 115.619Z" fill="#BAECA8"/>
<path d="M137.75 217.227C135.857 217.227 134.579 216.531 133.738 215.56L134.87 214.055C135.582 214.751 136.44 215.301 137.524 215.301C138.753 215.301 139.579 214.686 139.579 213.618C139.579 212.437 138.883 211.709 136.278 211.709V209.994C138.478 209.994 139.19 209.25 139.19 208.182C139.19 207.243 138.608 206.677 137.588 206.677C136.731 206.677 136.035 207.082 135.323 207.745L134.11 206.273C135.145 205.383 136.294 204.816 137.686 204.816C139.999 204.816 141.569 205.949 141.569 208.004C141.569 209.282 140.857 210.237 139.579 210.722V210.803C140.938 211.191 141.973 212.178 141.973 213.764C141.973 215.964 140.048 217.227 137.75 217.227ZM147.65 217.227C145.207 217.227 143.589 215.107 143.589 210.965C143.589 206.839 145.207 204.816 147.65 204.816C150.077 204.816 151.695 206.839 151.695 210.965C151.695 215.107 150.077 217.227 147.65 217.227ZM147.65 215.366C148.685 215.366 149.446 214.33 149.446 210.965C149.446 207.616 148.685 206.645 147.65 206.645C146.614 206.645 145.838 207.616 145.838 210.965C145.838 214.33 146.614 215.366 147.65 215.366ZM155.851 212.405C154.136 212.405 152.922 210.981 152.922 208.586C152.922 206.192 154.136 204.816 155.851 204.816C157.566 204.816 158.779 206.192 158.779 208.586C158.779 210.981 157.566 212.405 155.851 212.405ZM155.851 211.062C156.546 211.062 157.08 210.334 157.08 208.586C157.08 206.823 156.546 206.159 155.851 206.159C155.139 206.159 154.605 206.823 154.605 208.586C154.605 210.334 155.139 211.062 155.851 211.062ZM156.239 217.227L162.743 204.816H164.167L157.647 217.227H156.239ZM164.555 217.227C162.857 217.227 161.643 215.819 161.643 213.408C161.643 211.013 162.857 209.622 164.555 209.622C166.254 209.622 167.468 211.013 167.468 213.408C167.468 215.819 166.254 217.227 164.555 217.227ZM164.555 215.884C165.251 215.884 165.801 215.172 165.801 213.408C165.801 211.644 165.251 210.981 164.555 210.981C163.86 210.981 163.31 211.644 163.31 213.408C163.31 215.172 163.86 215.884 164.555 215.884Z" fill="#333333"/>
<path d="M303.799 132.227C301.906 132.227 300.644 131.482 299.738 130.592L300.854 129.088C301.517 129.751 302.375 130.301 303.475 130.301C304.737 130.301 305.595 129.508 305.595 128.084C305.595 126.693 304.786 125.916 303.588 125.916C302.877 125.916 302.488 126.094 301.792 126.547L300.692 125.835L301.032 120.027H307.439V122.017H303.087L302.86 124.557C303.33 124.347 303.75 124.234 304.3 124.234C306.307 124.234 307.989 125.415 307.989 128.036C307.989 130.689 305.999 132.227 303.799 132.227ZM313.65 132.227C311.207 132.227 309.589 130.107 309.589 125.965C309.589 121.839 311.207 119.816 313.65 119.816C316.077 119.816 317.695 121.839 317.695 125.965C317.695 130.107 316.077 132.227 313.65 132.227ZM313.65 130.366C314.685 130.366 315.446 129.33 315.446 125.965C315.446 122.616 314.685 121.645 313.65 121.645C312.614 121.645 311.838 122.616 311.838 125.965C311.838 129.33 312.614 130.366 313.65 130.366ZM321.851 127.405C320.136 127.405 318.922 125.981 318.922 123.586C318.922 121.192 320.136 119.816 321.851 119.816C323.566 119.816 324.779 121.192 324.779 123.586C324.779 125.981 323.566 127.405 321.851 127.405ZM321.851 126.062C322.546 126.062 323.08 125.334 323.08 123.586C323.08 121.823 322.546 121.159 321.851 121.159C321.139 121.159 320.605 121.823 320.605 123.586C320.605 125.334 321.139 126.062 321.851 126.062ZM322.239 132.227L328.743 119.816H330.167L323.647 132.227H322.239ZM330.555 132.227C328.857 132.227 327.643 130.819 327.643 128.408C327.643 126.013 328.857 124.622 330.555 124.622C332.254 124.622 333.468 126.013 333.468 128.408C333.468 130.819 332.254 132.227 330.555 132.227ZM330.555 130.884C331.251 130.884 331.801 130.172 331.801 128.408C331.801 126.644 331.251 125.981 330.555 125.981C329.86 125.981 329.31 126.644 329.31 128.408C329.31 130.172 329.86 130.884 330.555 130.884Z" fill="#333333"/>
<path d="M400.013 224V222.641C403.281 219.712 405.19 217.463 405.19 215.619C405.19 214.421 404.559 213.677 403.41 213.677C402.521 213.677 401.825 214.243 401.21 214.923L399.899 213.629C401 212.447 402.084 211.816 403.718 211.816C405.967 211.816 407.488 213.256 407.488 215.489C407.488 217.674 405.676 220.004 403.491 222.139C404.09 222.075 404.883 221.994 405.449 221.994H408.038V224H400.013ZM413.65 224.227C411.207 224.227 409.589 222.107 409.589 217.965C409.589 213.839 411.207 211.816 413.65 211.816C416.077 211.816 417.695 213.839 417.695 217.965C417.695 222.107 416.077 224.227 413.65 224.227ZM413.65 222.366C414.685 222.366 415.446 221.33 415.446 217.965C415.446 214.616 414.685 213.645 413.65 213.645C412.614 213.645 411.838 214.616 411.838 217.965C411.838 221.33 412.614 222.366 413.65 222.366ZM421.851 219.405C420.136 219.405 418.922 217.981 418.922 215.586C418.922 213.192 420.136 211.816 421.851 211.816C423.566 211.816 424.779 213.192 424.779 215.586C424.779 217.981 423.566 219.405 421.851 219.405ZM421.851 218.062C422.546 218.062 423.08 217.334 423.08 215.586C423.08 213.823 422.546 213.159 421.851 213.159C421.139 213.159 420.605 213.823 420.605 215.586C420.605 217.334 421.139 218.062 421.851 218.062ZM422.239 224.227L428.743 211.816H430.167L423.647 224.227H422.239ZM430.555 224.227C428.857 224.227 427.643 222.819 427.643 220.408C427.643 218.013 428.857 216.622 430.555 216.622C432.254 216.622 433.468 218.013 433.468 220.408C433.468 222.819 432.254 224.227 430.555 224.227ZM430.555 222.884C431.251 222.884 431.801 222.172 431.801 220.408C431.801 218.644 431.251 217.981 430.555 217.981C429.86 217.981 429.31 218.644 429.31 220.408C429.31 222.172 429.86 222.884 430.555 222.884Z" fill="#333333"/>
</svg>
