<svg width="546" height="275" viewBox="0 0 546 275" fill="none" xmlns="http://www.w3.org/2000/svg">
<rect width="546" height="275" fill="#F3F3F3"/>
<path d="M35.408 35.016H38.576V38.112H35.408V35.016ZM26.96 37.032H47.048V39.528H26.96V37.032ZM29.264 40.656H44.624V46.368H32.432V48.312H29.288V44.16H41.48V42.984H29.264V40.656ZM29.288 47.616H45.2V49.992H29.288V47.616ZM34.808 29.568H37.592V30.12C37.592 33.288 34.544 35.808 28.832 36.216L27.8 33.84C32.648 33.48 34.808 31.752 34.808 30.12V29.568ZM36.44 29.568H39.2V30.12C39.2 31.752 41.36 33.48 46.208 33.84L45.2 36.216C39.488 35.784 36.44 33.312 36.44 30.12V29.568ZM28.784 28.488L45.248 28.488V30.984L28.784 30.984V28.488ZM60.2701 32.808H65.8381V35.376H60.2701V32.808ZM55.1821 28.824C58.5181 28.824 61.0381 31.056 61.0381 34.128C61.0381 37.224 58.5181 39.432 55.1821 39.432C51.8221 39.432 49.3021 37.224 49.3021 34.128C49.3021 31.056 51.8221 28.824 55.1821 28.824ZM55.1821 31.488C53.5501 31.488 52.3501 32.472 52.3501 34.128C52.3501 35.784 53.5501 36.792 55.1821 36.792C56.8141 36.792 57.9901 35.784 57.9901 34.128C57.9901 32.472 56.8141 31.488 55.1821 31.488ZM64.4461 27.912H67.6381V39.864H64.4461V27.912ZM52.8781 40.824H56.0461V42.936L64.4701 42.936V40.824H67.6381V49.896L52.8781 49.896V40.824ZM56.0461 45.384V47.352L64.4701 47.352V45.384L56.0461 45.384ZM92.6098 27.912H95.6338V50.136H92.6098V27.912ZM89.6338 36.456H93.3298V39.024H89.6338V36.456ZM87.6418 28.296H90.5938V49.08H87.6418V28.296ZM77.1777 42.504H78.7378C81.4738 42.504 83.7538 42.408 86.3938 41.928L86.6338 44.52C83.9458 45.048 81.5938 45.12 78.7378 45.12H77.1777V42.504ZM77.1777 30.48H85.3858V33.048H80.3458V43.752H77.1777V30.48ZM98.6319 29.856H111.712V32.376H98.6319V29.856ZM105.184 33.072C108.376 33.072 110.632 34.728 110.632 37.176C110.632 39.624 108.376 41.256 105.184 41.256C101.968 41.256 99.7119 39.624 99.7119 37.176C99.7119 34.728 101.968 33.072 105.184 33.072ZM105.184 35.472C103.744 35.472 102.784 36.048 102.784 37.176C102.784 38.28 103.744 38.856 105.184 38.856C106.6 38.856 107.584 38.28 107.584 37.176C107.584 36.048 106.6 35.472 105.184 35.472ZM112.936 27.912H116.128V41.856H112.936V27.912ZM115.24 33.648H119.08V36.24H115.24V33.648ZM101.296 42.768H116.128V50.136H112.936V45.312H101.296V42.768ZM103.576 27.792H106.768V31.296H103.576V27.792Z" fill="black"/>
<path d="M455.047 149.226C453.429 149.226 451.844 148.612 450.679 147.496L452.054 145.846C452.895 146.638 454.044 147.156 455.095 147.156C456.341 147.156 456.988 146.622 456.988 145.797C456.988 144.908 456.26 144.616 455.192 144.164L453.591 143.484C452.394 142.999 451.165 142.012 451.165 140.281C451.165 138.324 452.895 136.82 455.306 136.82C456.697 136.82 458.088 137.37 459.058 138.357L457.861 139.861C457.085 139.23 456.292 138.874 455.306 138.874C454.254 138.874 453.591 139.343 453.591 140.12C453.591 140.977 454.448 141.301 455.467 141.705L457.036 142.352C458.476 142.95 459.43 143.889 459.43 145.603C459.43 147.56 457.797 149.226 455.047 149.226ZM461.566 149V137.03H463.96V142.222H463.992L467.971 137.03H470.608L466.936 141.737L471.239 149H468.634L465.529 143.63L463.96 145.636V149H461.566ZM474.155 149V144.633L470.548 137.03H473.088L474.285 139.958C474.641 140.848 474.964 141.689 475.32 142.611H475.385C475.757 141.689 476.113 140.848 476.469 139.958L477.649 137.03H480.14L476.533 144.633V149H474.155ZM495.178 135.461H497.216V150.44H495.178V135.461ZM493.172 141.22H495.663V142.95H493.172V141.22ZM491.829 135.72H493.819V149.728H491.829V135.72ZM484.777 145.296H485.828C487.672 145.296 489.209 145.231 490.988 144.908L491.15 146.655C489.338 147.01 487.753 147.059 485.828 147.059H484.777V145.296ZM484.777 137.192H490.309V138.923H486.912V146.137H484.777V137.192ZM499.236 136.771H508.052V138.47H499.236V136.771ZM503.652 138.939C505.804 138.939 507.324 140.055 507.324 141.705C507.324 143.355 505.804 144.455 503.652 144.455C501.485 144.455 499.964 143.355 499.964 141.705C499.964 140.055 501.485 138.939 503.652 138.939ZM503.652 140.556C502.682 140.556 502.035 140.945 502.035 141.705C502.035 142.449 502.682 142.837 503.652 142.837C504.607 142.837 505.27 142.449 505.27 141.705C505.27 140.945 504.607 140.556 503.652 140.556ZM508.877 135.461H511.028V144.859H508.877V135.461ZM510.43 139.327H513.018V141.074H510.43V139.327ZM501.032 145.474H511.028V150.44H508.877V147.188H501.032V145.474ZM502.569 135.38H504.72V137.742H502.569V135.38Z" fill="#333333"/>
<path d="M245.931 38.2699H247.694V39.5963C247.694 42.5726 246.4 45.193 243.553 46.1797L242.404 44.4813C244.912 43.6402 245.931 41.6344 245.931 39.5963V38.2699ZM246.367 38.2699H248.114V39.8066C248.114 41.6021 249.117 43.349 251.463 44.0769L250.347 45.743C247.645 44.8372 246.367 42.5079 246.367 39.8066V38.2699ZM252.288 37.4612H254.439V46.3091H252.288V37.4612ZM253.84 40.9227H256.428V42.702H253.84V40.9227ZM249.554 46.6488C252.66 46.6488 254.617 47.7326 254.617 49.5442C254.617 51.372 252.66 52.4396 249.554 52.4396C246.432 52.4396 244.475 51.372 244.475 49.5442C244.475 47.7326 246.432 46.6488 249.554 46.6488ZM249.554 48.3149C247.645 48.3149 246.61 48.7193 246.61 49.5442C246.61 50.3853 247.645 50.7735 249.554 50.7735C251.463 50.7735 252.482 50.3853 252.482 49.5442C252.482 48.7193 251.463 48.3149 249.554 48.3149ZM262.38 38.0597C264.66 38.0597 266.31 39.3699 266.31 41.2624C266.31 43.1226 264.66 44.4651 262.38 44.4651C260.115 44.4651 258.465 43.1226 258.465 41.2624C258.465 39.3699 260.115 38.0597 262.38 38.0597ZM262.38 39.8066C261.296 39.8066 260.52 40.3242 260.52 41.2624C260.52 42.1844 261.296 42.702 262.38 42.702C263.48 42.702 264.256 42.1844 264.256 41.2624C264.256 40.3242 263.48 39.8066 262.38 39.8066ZM261.377 45.9533H263.528V51.9867H261.377V45.9533ZM267.928 37.4612H270.063V52.4396H267.928V37.4612ZM257.834 47.0855L257.576 45.3386C260.196 45.3386 263.9 45.3063 267.071 44.821L267.216 46.39C263.965 47.037 260.423 47.0694 257.834 47.0855ZM276.241 44.449H278.376V47.8134H276.241V44.449ZM282.97 37.4612H285.137V48.7354H282.97V37.4612ZM274.348 50.4662H285.461V52.1808H274.348V50.4662ZM274.348 47.6193H276.5V50.8868H274.348V47.6193ZM272.569 44.821L272.31 43.1226C275.044 43.1064 278.748 43.0579 281.935 42.6211L282.08 44.1416C278.829 44.7239 275.27 44.8048 272.569 44.821ZM280.091 45.4518H283.455V47.1179H280.091V45.4518ZM273.669 38.2052H280.026V39.9037H273.669V38.2052ZM278.667 38.2052H280.802V38.7229C280.802 39.5963 280.802 41.2139 280.414 43.4461L278.311 43.3005C278.667 41.0845 278.667 39.564 278.667 38.7229V38.2052ZM301.773 37.4612H303.812V52.4396H301.773V37.4612ZM299.768 43.2196H302.259V44.9504H299.768V43.2196ZM298.425 37.72H300.415V51.7279H298.425V37.72ZM291.373 47.2958H292.424C294.268 47.2958 295.805 47.2311 297.584 46.9076L297.746 48.6546C295.934 49.0104 294.349 49.0589 292.424 49.0589H291.373V47.2958ZM291.373 39.1919H296.905V40.9227H293.508V48.137H291.373V39.1919ZM305.832 38.7714H314.648V40.4698H305.832V38.7714ZM310.248 40.9389C312.399 40.9389 313.92 42.055 313.92 43.7049C313.92 45.3548 312.399 46.4547 310.248 46.4547C308.081 46.4547 306.56 45.3548 306.56 43.7049C306.56 42.055 308.081 40.9389 310.248 40.9389ZM310.248 42.5564C309.278 42.5564 308.631 42.9446 308.631 43.7049C308.631 44.449 309.278 44.8372 310.248 44.8372C311.202 44.8372 311.866 44.449 311.866 43.7049C311.866 42.9446 311.202 42.5564 310.248 42.5564ZM315.473 37.4612H317.624V46.8591H315.473V37.4612ZM317.026 41.3271H319.614V43.074H317.026V41.3271ZM307.628 47.4738H317.624V52.4396H315.473V49.1884H307.628V47.4738ZM309.164 37.3803H311.316V39.7419H309.164V37.3803Z" fill="#333333"/>
<path d="M25.3408 193.983H27.4921V196.619H25.3408V193.983ZM19.647 193.271H33.1858V194.969H19.647V193.271ZM26.3922 196.037C29.6272 196.037 31.5845 197.008 31.5845 198.738C31.5845 200.469 29.6272 201.44 26.3922 201.44C23.1409 201.44 21.1837 200.469 21.1837 198.738C21.1837 197.008 23.1409 196.037 26.3922 196.037ZM26.3922 197.655C24.3864 197.655 23.3674 197.994 23.3674 198.738C23.3674 199.466 24.3864 199.822 26.3922 199.822C28.3979 199.822 29.417 199.466 29.417 198.738C29.417 197.994 28.3979 197.655 26.3922 197.655ZM24.9364 187.868H26.8451V188.24C26.8451 190.489 24.8232 192.333 20.9572 192.689L20.2132 191.006C23.4968 190.731 24.9364 189.405 24.9364 188.24V187.868ZM25.9878 187.868H27.8965V188.24C27.8965 189.421 29.3199 190.731 32.6197 191.006L31.8756 192.689C28.0259 192.333 25.9878 190.505 25.9878 188.24V187.868ZM20.8763 187.076H31.9727V188.774H20.8763V187.076ZM39.3798 187.06C41.6605 187.06 43.3104 188.37 43.3104 190.262C43.3104 192.123 41.6605 193.465 39.3798 193.465C37.1152 193.465 35.4653 192.123 35.4653 190.262C35.4653 188.37 37.1152 187.06 39.3798 187.06ZM39.3798 188.807C38.296 188.807 37.5196 189.324 37.5196 190.262C37.5196 191.184 38.296 191.702 39.3798 191.702C40.4797 191.702 41.2561 191.184 41.2561 190.262C41.2561 189.324 40.4797 188.807 39.3798 188.807ZM38.3769 194.953H40.5282V200.987H38.3769V194.953ZM44.9279 186.461H47.0631V201.44H44.9279V186.461ZM34.8345 196.086L34.5757 194.339C37.1961 194.339 40.9003 194.306 44.0706 193.821L44.2162 195.39C40.965 196.037 37.4225 196.069 34.8345 196.086ZM53.2408 193.449H55.376V196.813H53.2408V193.449ZM59.9698 186.461H62.1373V197.735H59.9698V186.461ZM51.3483 199.466H62.4608V201.181H51.3483V199.466ZM51.3483 196.619H53.4996V199.887H51.3483V196.619ZM49.569 193.821L49.3102 192.123C52.0439 192.106 55.748 192.058 58.9346 191.621L59.0802 193.142C55.8289 193.724 52.2703 193.805 49.569 193.821ZM57.0906 194.452H60.4551V196.118H57.0906V194.452ZM50.6689 187.205H57.0259V188.904H50.6689V187.205ZM55.6671 187.205H57.8023V187.723C57.8023 188.596 57.8023 190.214 57.4141 192.446L55.3113 192.301C55.6671 190.084 55.6671 188.564 55.6671 187.723V187.205ZM78.7735 186.461H80.8116V201.44H78.7735V186.461ZM76.7677 192.22H79.2587V193.95H76.7677V192.22ZM75.4252 186.72H77.4147V200.728H75.4252V186.72ZM68.3727 196.296H69.4241C71.2681 196.296 72.8047 196.231 74.584 195.908L74.7458 197.655C72.9341 198.01 71.349 198.059 69.4241 198.059H68.3727V196.296ZM68.3727 188.192H73.9047V189.923H70.5078V197.137H68.3727V188.192ZM82.8322 187.771H91.6478V189.47H82.8322V187.771ZM87.2481 189.939C89.3995 189.939 90.9199 191.055 90.9199 192.705C90.9199 194.355 89.3995 195.455 87.2481 195.455C85.0806 195.455 83.5601 194.355 83.5601 192.705C83.5601 191.055 85.0806 189.939 87.2481 189.939ZM87.2481 191.556C86.2776 191.556 85.6306 191.945 85.6306 192.705C85.6306 193.449 86.2776 193.837 87.2481 193.837C88.2025 193.837 88.8657 193.449 88.8657 192.705C88.8657 191.945 88.2025 191.556 87.2481 191.556ZM92.4728 186.461H94.6241V195.859H92.4728V186.461ZM94.0256 190.327H96.6137V192.074H94.0256V190.327ZM84.6277 196.474H94.6241V201.44H92.4728V198.188H84.6277V196.474ZM86.1644 186.38H88.3157V188.742H86.1644V186.38Z" fill="#333333"/>
<path d="M463.636 257C464.46 257 465.277 256.833 466.035 256.51C466.793 256.186 467.479 255.713 468.05 255.118C468.62 254.523 469.065 253.818 469.357 253.047C469.648 252.276 469.781 251.453 469.747 250.63C468.649 224.234 461.864 198.386 449.856 174.854C437.848 151.322 420.899 130.661 400.17 114.283C399.523 113.772 398.779 113.397 397.983 113.18C397.188 112.964 396.356 112.911 395.54 113.024C394.723 113.137 393.937 113.414 393.23 113.838C392.523 114.262 391.91 114.825 391.426 115.493L344.697 179.975C343.792 181.224 343.392 182.769 343.578 184.3C343.763 185.831 344.521 187.235 345.698 188.232C354.982 196.091 362.611 205.718 368.14 216.553C373.669 227.388 376.988 239.215 377.904 251.344C378.02 252.882 378.713 254.319 379.844 255.368C380.975 256.417 382.46 257 384.002 257L463.636 257Z" fill="#467CD7"/>
<path d="M389.397 114.02C389.881 113.353 390.225 112.594 390.408 111.79C390.591 110.986 390.61 110.153 390.463 109.342C390.316 108.531 390.006 107.757 389.553 107.069C389.1 106.38 388.512 105.79 387.825 105.334C366.893 91.4546 343.336 82.0199 318.61 77.6142C293.885 73.2085 268.518 73.9258 244.081 79.7216C219.645 85.5174 196.658 96.2683 176.544 111.308C156.431 126.349 139.62 145.358 127.151 167.159C126.742 167.875 126.481 168.666 126.385 169.485C126.29 170.304 126.36 171.134 126.594 171.925C126.827 172.716 127.217 173.451 127.742 174.087C128.267 174.723 128.915 175.247 129.647 175.626L200.356 212.255C201.726 212.964 203.313 213.13 204.799 212.719C206.286 212.308 207.562 211.351 208.373 210.038C221.146 189.36 241.603 174.595 265.253 168.986C288.902 163.377 313.811 167.382 334.51 180.122C335.824 180.93 337.394 181.213 338.907 180.912C340.42 180.612 341.763 179.751 342.668 178.502L389.397 114.02Z" fill="#6D97DD"/>
<path d="M128.494 177.85C127.761 177.471 126.96 177.244 126.138 177.182C125.316 177.12 124.489 177.226 123.709 177.492C122.928 177.757 122.21 178.178 121.596 178.729C120.982 179.28 120.486 179.949 120.138 180.696C109.897 202.653 104.107 226.42 103.1 250.626C103.066 251.45 103.198 252.273 103.49 253.044C103.782 253.815 104.226 254.519 104.797 255.114C105.368 255.71 106.053 256.183 106.812 256.506C107.57 256.83 108.386 256.997 109.211 256.997L188.844 256.997C190.387 256.997 191.872 256.414 193.003 255.365C194.134 254.316 194.827 252.879 194.943 251.341C195.698 241.341 198.088 231.533 202.017 222.306C202.621 220.887 202.667 219.292 202.145 217.841C201.623 216.389 200.573 215.189 199.203 214.479L128.494 177.85Z" fill="#B4CBF3"/>
<path d="M136.653 237V235.075H139.241V227.505H137.057V226.033C138.271 225.807 139.079 225.499 139.856 225.03H141.619V235.075H143.867V237H136.653ZM149.348 237.226C147.456 237.226 146.194 236.482 145.288 235.593L146.404 234.088C147.068 234.752 147.925 235.302 149.025 235.302C150.286 235.302 151.144 234.509 151.144 233.086C151.144 231.694 150.335 230.918 149.138 230.918C148.426 230.918 148.038 231.096 147.343 231.549L146.243 230.837L146.582 225.03H152.988V227.02H148.637L148.41 229.559C148.879 229.349 149.3 229.236 149.85 229.236C151.855 229.236 153.538 230.417 153.538 233.037C153.538 235.69 151.548 237.226 149.348 237.226ZM157.854 232.406C156.139 232.406 154.926 230.983 154.926 228.589C154.926 226.195 156.139 224.82 157.854 224.82C159.569 224.82 160.782 226.195 160.782 228.589C160.782 230.983 159.569 232.406 157.854 232.406ZM157.854 231.064C158.55 231.064 159.083 230.336 159.083 228.589C159.083 226.826 158.55 226.162 157.854 226.162C157.142 226.162 156.609 226.826 156.609 228.589C156.609 230.336 157.142 231.064 157.854 231.064ZM158.242 237.226L164.745 224.82H166.168L159.65 237.226H158.242ZM166.556 237.226C164.858 237.226 163.645 235.819 163.645 233.409C163.645 231.015 164.858 229.624 166.556 229.624C168.255 229.624 169.468 231.015 169.468 233.409C169.468 235.819 168.255 237.226 166.556 237.226ZM166.556 235.884C167.252 235.884 167.802 235.172 167.802 233.409C167.802 231.646 167.252 230.983 166.556 230.983C165.861 230.983 165.311 231.646 165.311 233.409C165.311 235.172 165.861 235.884 166.556 235.884Z" fill="#333333"/>
<path d="M247.455 132.226C245.562 132.226 244.3 131.482 243.395 130.593L244.511 129.088C245.174 129.752 246.031 130.302 247.131 130.302C248.393 130.302 249.25 129.509 249.25 128.086C249.25 126.694 248.441 125.918 247.244 125.918C246.533 125.918 246.144 126.096 245.449 126.549L244.349 125.837L244.689 120.03H251.094V122.02H246.743L246.516 124.559C246.986 124.349 247.406 124.236 247.956 124.236C249.962 124.236 251.644 125.417 251.644 128.037C251.644 130.69 249.654 132.226 247.455 132.226ZM256.996 132.226C255.103 132.226 253.841 131.482 252.936 130.593L254.052 129.088C254.715 129.752 255.572 130.302 256.672 130.302C257.934 130.302 258.791 129.509 258.791 128.086C258.791 126.694 257.982 125.918 256.785 125.918C256.074 125.918 255.685 126.096 254.99 126.549L253.89 125.837L254.23 120.03H260.635V122.02H256.284L256.057 124.559C256.526 124.349 256.947 124.236 257.497 124.236C259.503 124.236 261.185 125.417 261.185 128.037C261.185 130.69 259.195 132.226 256.996 132.226ZM265.501 127.406C263.787 127.406 262.574 125.983 262.574 123.589C262.574 121.195 263.787 119.82 265.501 119.82C267.216 119.82 268.429 121.195 268.429 123.589C268.429 125.983 267.216 127.406 265.501 127.406ZM265.501 126.064C266.197 126.064 266.731 125.336 266.731 123.589C266.731 121.826 266.197 121.162 265.501 121.162C264.79 121.162 264.256 121.826 264.256 123.589C264.256 125.336 264.79 126.064 265.501 126.064ZM265.89 132.226L272.392 119.82H273.815L267.297 132.226H265.89ZM274.204 132.226C272.505 132.226 271.292 130.819 271.292 128.409C271.292 126.015 272.505 124.624 274.204 124.624C275.902 124.624 277.115 126.015 277.115 128.409C277.115 130.819 275.902 132.226 274.204 132.226ZM274.204 130.884C274.899 130.884 275.449 130.172 275.449 128.409C275.449 126.646 274.899 125.983 274.204 125.983C273.508 125.983 272.958 126.646 272.958 128.409C272.958 130.172 273.508 130.884 274.204 130.884Z" fill="#333333"/>
<path d="M397.759 207.226C395.866 207.226 394.588 206.531 393.747 205.56L394.88 204.056C395.591 204.752 396.449 205.302 397.532 205.302C398.762 205.302 399.587 204.687 399.587 203.619C399.587 202.439 398.891 201.711 396.287 201.711V199.996C398.487 199.996 399.198 199.252 399.198 198.184C399.198 197.246 398.616 196.68 397.597 196.68C396.74 196.68 396.044 197.084 395.332 197.748L394.119 196.276C395.155 195.386 396.303 194.82 397.694 194.82C400.007 194.82 401.576 195.952 401.576 198.006C401.576 199.284 400.864 200.239 399.587 200.724V200.805C400.945 201.193 401.981 202.18 401.981 203.765C401.981 205.965 400.056 207.226 397.759 207.226ZM407.656 207.226C405.213 207.226 403.596 205.107 403.596 200.967C403.596 196.842 405.213 194.82 407.656 194.82C410.082 194.82 411.699 196.842 411.699 200.967C411.699 205.107 410.082 207.226 407.656 207.226ZM407.656 205.366C408.691 205.366 409.451 204.331 409.451 200.967C409.451 197.618 408.691 196.648 407.656 196.648C406.62 196.648 405.844 197.618 405.844 200.967C405.844 204.331 406.62 205.366 407.656 205.366ZM415.854 202.406C414.139 202.406 412.926 200.983 412.926 198.589C412.926 196.195 414.139 194.82 415.854 194.82C417.569 194.82 418.782 196.195 418.782 198.589C418.782 200.983 417.569 202.406 415.854 202.406ZM415.854 201.064C416.55 201.064 417.083 200.336 417.083 198.589C417.083 196.826 416.55 196.162 415.854 196.162C415.142 196.162 414.609 196.826 414.609 198.589C414.609 200.336 415.142 201.064 415.854 201.064ZM416.242 207.226L422.745 194.82H424.168L417.65 207.226H416.242ZM424.556 207.226C422.858 207.226 421.645 205.819 421.645 203.409C421.645 201.015 422.858 199.624 424.556 199.624C426.255 199.624 427.468 201.015 427.468 203.409C427.468 205.819 426.255 207.226 424.556 207.226ZM424.556 205.884C425.252 205.884 425.802 205.172 425.802 203.409C425.802 201.646 425.252 200.983 424.556 200.983C423.861 200.983 423.311 201.646 423.311 203.409C423.311 205.172 423.861 205.884 424.556 205.884Z" fill="#333333"/>
</svg>
