<svg width="546" height="275" viewBox="0 0 546 275" fill="none" xmlns="http://www.w3.org/2000/svg">
<rect width="546" height="275" fill="#F3F3F3"/>
<path d="M43.184 118V100.24H54.08V103.192H46.736V107.296H52.952V110.296H46.736V115.024H54.344V118H43.184ZM57.9496 118V100.24H63.8056C67.4536 100.24 70.2376 101.32 70.2376 104.632C70.2376 106.264 69.3496 107.92 67.8376 108.472V108.568C69.7336 109.024 71.1496 110.392 71.1496 112.768C71.1496 116.344 68.1736 118 64.2856 118H57.9496ZM61.5016 107.464H63.5656C65.8216 107.464 66.7816 106.576 66.7816 105.136C66.7816 103.576 65.7496 102.976 63.6136 102.976H61.5016V107.464ZM61.5016 115.264H63.9736C66.3736 115.264 67.6936 114.4 67.6936 112.576C67.6936 110.848 66.4216 110.104 63.9736 110.104H61.5016V115.264ZM79.0036 118.336C76.6036 118.336 74.2516 117.424 72.5236 115.768L74.5636 113.32C75.8116 114.496 77.5156 115.264 79.0756 115.264C80.9236 115.264 81.8836 114.472 81.8836 113.248C81.8836 111.928 80.8036 111.496 79.2196 110.824L76.8436 109.816C75.0676 109.096 73.2436 107.632 73.2436 105.064C73.2436 102.16 75.8116 99.928 79.3876 99.928C81.4516 99.928 83.5156 100.744 84.9556 102.208L83.1796 104.44C82.0276 103.504 80.8516 102.976 79.3876 102.976C77.8276 102.976 76.8436 103.672 76.8436 104.824C76.8436 106.096 78.1156 106.576 79.6276 107.176L81.9556 108.136C84.0916 109.024 85.5076 110.416 85.5076 112.96C85.5076 115.864 83.0836 118.336 79.0036 118.336ZM94.8577 99.784H108.922V102.352H94.8577V99.784ZM92.9137 114.88H113.002V117.472H92.9137V114.88ZM97.1137 107.872H100.282V115.696H97.1137V107.872ZM107.986 99.784H111.202V101.968C111.202 104.656 111.202 107.728 110.41 112.24L107.242 111.928C107.986 107.704 107.986 104.584 107.986 101.968V99.784ZM102.61 107.872H105.754V115.696H102.61V107.872ZM131.192 97.912H134.216V120.136H131.192V97.912ZM128.528 106.432H132.224V109.024H128.528V106.432ZM126.416 98.248H129.392V119.128H126.416V98.248ZM118.928 101.368H121.352V103.336C121.352 108.832 120.152 113.68 116.456 115.912L114.536 113.464C117.872 111.544 118.928 107.608 118.928 103.336V101.368ZM119.576 101.368H122.024V103.336C122.024 107.248 123.152 110.944 126.464 112.672L124.64 115.096C120.896 113.08 119.576 108.496 119.576 103.336V101.368ZM115.256 100.168H125.36V102.736H115.256V100.168ZM144.198 99.376C147.702 99.376 150.318 101.656 150.318 104.848C150.318 108.064 147.702 110.344 144.198 110.344C140.718 110.344 138.054 108.064 138.054 104.848C138.054 101.656 140.718 99.376 144.198 99.376ZM144.198 102.112C142.494 102.112 141.198 103.12 141.198 104.848C141.198 106.6 142.494 107.608 144.198 107.608C145.902 107.608 147.198 106.6 147.198 104.848C147.198 103.12 145.902 102.112 144.198 102.112ZM152.406 97.888H155.598V120.184H152.406V97.888ZM137.526 115.672L137.142 113.104C141.054 113.104 146.502 113.056 151.182 112.36L151.422 114.664C146.598 115.624 141.366 115.672 137.526 115.672ZM169.098 111.952H172.362V120.136H169.098V111.952ZM176.778 111.952H180.042V120.136H176.778V111.952ZM164.562 110.272H184.698V112.84H164.562V110.272ZM174.57 98.656C179.322 98.656 182.61 100.6 182.61 103.648C182.61 106.648 179.322 108.592 174.57 108.592C169.842 108.592 166.554 106.648 166.554 103.648C166.554 100.6 169.842 98.656 174.57 98.656ZM174.57 101.2C171.666 101.2 169.818 102.064 169.818 103.648C169.818 105.208 171.666 106.072 174.57 106.072C177.498 106.072 179.322 105.208 179.322 103.648C179.322 102.064 177.498 101.2 174.57 101.2ZM199.192 102.784H203.272V105.328H199.192V102.784ZM199.144 107.224H203.2V109.768H199.144V107.224ZM186.712 99.904H198.904V102.424H186.712V99.904ZM192.952 103.192C196 103.192 198.16 104.872 198.16 107.344C198.16 109.816 196 111.496 192.952 111.496C189.904 111.496 187.744 109.816 187.744 107.344C187.744 104.872 189.904 103.192 192.952 103.192ZM192.952 105.568C191.608 105.568 190.72 106.168 190.72 107.344C190.72 108.52 191.608 109.12 192.952 109.12C194.272 109.12 195.208 108.52 195.208 107.344C195.208 106.168 194.272 105.568 192.952 105.568ZM191.368 97.72H194.56V101.656H191.368V97.72ZM202.048 97.912H205.24V112.072H202.048V97.912ZM197.728 112.336C202.408 112.336 205.336 113.8 205.336 116.248C205.336 118.696 202.408 120.136 197.728 120.136C193.024 120.136 190.12 118.696 190.12 116.248C190.12 113.8 193.024 112.336 197.728 112.336ZM197.728 114.784C194.992 114.784 193.48 115.216 193.48 116.248C193.48 117.256 194.992 117.736 197.728 117.736C200.464 117.736 201.952 117.256 201.952 116.248C201.952 115.216 200.464 114.784 197.728 114.784ZM218.774 98.224C223.838 98.224 226.814 99.568 226.814 102.016C226.814 104.464 223.838 105.808 218.774 105.808C213.686 105.808 210.734 104.464 210.734 102.016C210.734 99.568 213.686 98.224 218.774 98.224ZM218.774 100.552C215.558 100.552 214.046 101.032 214.046 102.016C214.046 103.048 215.558 103.48 218.774 103.48C221.99 103.48 223.502 103.048 223.502 102.016C223.502 101.032 221.99 100.552 218.774 100.552ZM208.718 106.84H228.806V109.36H208.718V106.84ZM211.022 110.608H226.382V116.32H214.19V118.288H211.046V114.112H223.238V112.984H211.022V110.608ZM211.046 117.592H226.958V119.992H211.046V117.592ZM250.441 97.888H253.657V120.184H250.441V97.888ZM252.937 106.12H256.873V108.736H252.937V106.12ZM237.097 112.192H238.969C242.713 112.192 245.665 112.072 248.929 111.496L249.241 114.136C245.881 114.736 242.833 114.832 238.969 114.832H237.097V112.192ZM237.097 99.952H247.465V102.52H240.265V113.464H237.097V99.952ZM274.824 100.648H278.664V103.24H274.824V100.648ZM274.824 105.472H278.664V108.064H274.824V105.472ZM264.504 99.112C267.936 99.112 270.552 101.368 270.552 104.512C270.552 107.632 267.936 109.888 264.504 109.888C261.072 109.888 258.456 107.632 258.456 104.512C258.456 101.368 261.072 99.112 264.504 99.112ZM264.504 101.776C262.824 101.776 261.576 102.808 261.576 104.512C261.576 106.24 262.824 107.224 264.504 107.224C266.184 107.224 267.432 106.24 267.432 104.512C267.432 102.808 266.184 101.776 264.504 101.776ZM272.616 97.912H275.808V110.872H272.616V97.912ZM268.56 111.352C273.144 111.352 276.072 113.008 276.072 115.744C276.072 118.504 273.144 120.136 268.56 120.136C263.952 120.136 261.024 118.504 261.024 115.744C261.024 113.008 263.952 111.352 268.56 111.352ZM268.56 113.872C265.728 113.872 264.192 114.472 264.192 115.744C264.192 117.04 265.728 117.64 268.56 117.64C271.392 117.64 272.904 117.04 272.904 115.744C272.904 114.472 271.392 113.872 268.56 113.872ZM294.694 97.936H297.886V114.544H294.694V97.936ZM296.974 104.704H300.838V107.32H296.974V104.704ZM280.39 100.24H293.47V102.736H280.39V100.24ZM286.942 103.528C290.134 103.528 292.39 105.28 292.39 107.824C292.39 110.368 290.134 112.096 286.942 112.096C283.726 112.096 281.47 110.368 281.47 107.824C281.47 105.28 283.726 103.528 286.942 103.528ZM286.942 105.952C285.526 105.952 284.542 106.624 284.542 107.824C284.542 109.024 285.526 109.672 286.942 109.672C288.358 109.672 289.342 109.024 289.342 107.824C289.342 106.624 288.358 105.952 286.942 105.952ZM285.334 97.888H288.526V101.464H285.334V97.888ZM283.558 117.208H298.678V119.752H283.558V117.208ZM283.558 113.296H286.75V118.312H283.558V113.296ZM323.961 97.912H327.009V120.136H323.961V97.912ZM321.297 106.432H324.969V109.024H321.297V106.432ZM319.281 98.296H322.257V119.08H319.281V98.296ZM308.073 100.408H318.225V102.952H308.073V100.408ZM308.025 115.096L307.689 112.504C310.449 112.504 315.081 112.432 318.393 111.976L318.609 114.28C315.201 115.024 310.737 115.096 308.025 115.096ZM309.465 102.04H312.321V113.176H309.465V102.04ZM313.977 102.04H316.833V113.176H313.977V102.04ZM341.695 103.936H345.799V106.456H341.695V103.936ZM345.391 97.912H348.583V114.328H345.391V97.912ZM333.895 117.208H349.087V119.752H333.895V117.208ZM333.895 112.936H337.111V118.984H333.895V112.936ZM331.015 108.808H332.743C336.751 108.808 339.103 108.736 341.863 108.28L342.127 110.776C339.343 111.304 336.847 111.376 332.743 111.376H331.015V108.808ZM331.015 99.592H341.119V102.136H334.183V109.072H331.015V99.592ZM333.223 104.176H340.423V106.648H333.223V104.176ZM362.118 99.016C366.798 99.016 370.422 101.584 370.422 105.448C370.422 109.336 366.798 111.88 362.118 111.88C357.438 111.88 353.814 109.336 353.814 105.448C353.814 101.584 357.438 99.016 362.118 99.016ZM362.118 101.608C359.094 101.608 356.934 103.048 356.934 105.448C356.934 107.824 359.094 109.264 362.118 109.264C365.142 109.264 367.302 107.824 367.302 105.448C367.302 103.048 365.142 101.608 362.118 101.608ZM352.086 114.856H372.198V117.472H352.086V114.856ZM374.164 115.096H394.276V117.688H374.164V115.096ZM382.588 110.896H385.78V116.152H382.588V110.896ZM376.42 99.352H392.02V106.744H379.636V110.488H376.468V104.248H388.852V101.872H376.42V99.352ZM376.468 109.216H392.524V111.784H376.468V109.216Z" fill="#467CD7"/>
<path d="M317.016 152.912H320.04V175.136H317.016V152.912ZM309.696 160.496H313.368V163.088H309.696V160.496ZM312.528 153.272H315.504V174.128H312.528V153.272ZM304.896 156.536H307.296V158.816C307.296 163.808 305.928 168.776 302.4 170.984L300.504 168.632C303.768 166.592 304.896 162.608 304.896 158.816V156.536ZM305.616 156.536H307.992V158.816C307.992 162.512 309.096 166.256 312.312 168.128L310.44 170.456C306.912 168.368 305.616 163.712 305.616 158.816V156.536ZM301.344 155.144H311.256V157.712H301.344V155.144ZM332.974 166.736C337.774 166.736 340.846 168.32 340.846 170.96C340.846 173.552 337.774 175.136 332.974 175.136C328.174 175.136 325.102 173.552 325.102 170.96C325.102 168.32 328.174 166.736 332.974 166.736ZM332.974 169.136C329.974 169.136 328.27 169.76 328.27 170.96C328.27 172.136 329.974 172.736 332.974 172.736C335.974 172.736 337.678 172.136 337.678 170.96C337.678 169.76 335.974 169.136 332.974 169.136ZM325.342 153.896H339.406V156.416H325.342V153.896ZM323.086 162.824H343.102V165.368H323.086V162.824ZM330.502 158.96H333.67V163.472H330.502V158.96ZM337.558 153.896H340.726V155.72C340.726 157.472 340.726 159.368 340.126 161.672L336.958 161.336C337.558 159.056 337.558 157.448 337.558 155.72V153.896ZM345.092 156.248H355.724V158.792H345.092V156.248ZM350.444 159.776C353.276 159.776 355.316 161.96 355.316 165.08C355.316 168.176 353.276 170.36 350.444 170.36C347.636 170.36 345.572 168.176 345.572 165.08C345.572 161.96 347.636 159.776 350.444 159.776ZM350.444 162.44C349.244 162.44 348.404 163.4 348.404 165.08C348.404 166.76 349.244 167.696 350.444 167.696C351.644 167.696 352.508 166.76 352.508 165.08C352.508 163.4 351.644 162.44 350.444 162.44ZM361.172 152.912H364.22V175.136H361.172V152.912ZM358.508 161.936H362.18V164.504H358.508V161.936ZM356.516 153.32H359.492V174.2H356.516V153.32ZM348.884 153.512H352.028V157.856H348.884V153.512ZM380.864 155.384H383.624V156.032C383.624 159.944 380.432 163.136 374.792 163.904L373.616 161.408C378.512 160.808 380.864 158.312 380.864 156.032V155.384ZM381.776 155.384H384.536V156.032C384.536 158.312 386.888 160.808 391.784 161.408L390.632 163.904C384.968 163.136 381.776 159.944 381.776 156.032V155.384ZM381.032 167H384.2V175.16H381.032V167ZM372.656 165.176H392.744V167.72H372.656V165.176ZM374.432 154.04H390.92V156.56H374.432V154.04ZM397.206 158.912H412.614V161.432H397.206V158.912ZM394.71 163.736H414.846V166.28H394.71V163.736ZM397.206 153.704H400.374V160.16H397.206V153.704ZM396.99 172.112H412.734V174.656H396.99V172.112ZM396.99 168.056H400.182V172.784H396.99V168.056ZM433.578 157.64H438.738V160.208H433.578V157.64ZM427.314 154.28H429.882V156.68C429.882 161.216 427.986 165.08 423.786 166.616L422.106 164.12C425.778 162.896 427.314 159.824 427.314 156.68V154.28ZM428.01 154.28H430.554V156.704C430.554 159.56 432.018 162.416 435.522 163.616L433.818 166.064C429.834 164.624 428.01 160.904 428.01 156.704V154.28ZM437.634 152.936H440.826V169.328H437.634V152.936ZM426.114 172.208H441.306V174.752H426.114V172.208ZM426.114 167.672H429.33V173.624H426.114V167.672ZM448.312 154.256H450.808V156.824C450.808 160.592 449.296 164.36 445.672 165.896L443.992 163.424C447.088 162.056 448.312 159.32 448.312 156.824V154.256ZM448.888 154.256H451.384V156.824C451.384 159.2 452.584 161.6 455.512 162.752L453.808 165.176C450.352 163.808 448.888 160.448 448.888 156.824V154.256ZM460.216 152.936H463.24V166.496H460.216V152.936ZM457.552 158.312H461.08V160.88H457.552V158.312ZM455.512 153.344H458.488V165.8H455.512V153.344ZM455.704 166.808C460.36 166.808 463.36 168.368 463.36 170.984C463.36 173.576 460.36 175.136 455.704 175.136C451.024 175.136 448.072 173.576 448.072 170.984C448.072 168.368 451.024 166.808 455.704 166.808ZM455.704 169.208C452.848 169.208 451.24 169.808 451.24 170.984C451.24 172.16 452.848 172.736 455.704 172.736C458.56 172.736 460.144 172.16 460.144 170.984C460.144 169.808 458.56 169.208 455.704 169.208ZM481.646 152.912H484.862V165.368H481.646V152.912ZM467.654 154.184H470.822V163.352H467.654V154.184ZM467.654 161.672H469.574C473.438 161.672 476.582 161.456 479.846 160.76L480.23 163.328C476.846 164.072 473.558 164.312 469.574 164.312H467.654V161.672ZM470.078 166.304H484.862V174.896H470.078V166.304ZM481.718 168.8H473.198V172.376H481.718V168.8ZM490.788 166.952L490.26 158.096L490.164 154.76H493.692L493.596 158.096L493.092 166.952H490.788ZM491.916 173.336C490.668 173.336 489.732 172.352 489.732 171.032C489.732 169.712 490.668 168.752 491.916 168.752C493.188 168.752 494.124 169.712 494.124 171.032C494.124 172.352 493.188 173.336 491.916 173.336Z" fill="#467CD7"/>
</svg>
