<svg width="546" height="275" viewBox="0 0 546 275" fill="none" xmlns="http://www.w3.org/2000/svg">
<rect width="546" height="275" fill="#F3F3F3"/>
<path d="M37.016 31.008H43.544V33.552H37.016V31.008ZM37.016 36.408H43.544V38.952H37.016V36.408ZM42.368 27.936H45.56V44.184H42.368V27.936ZM30.896 47.208H46.064V49.752H30.896V47.208ZM30.896 42.576H34.088V48.528H30.896V42.576ZM33.104 29.232C36.392 29.232 38.96 31.632 38.96 34.992C38.96 38.304 36.392 40.728 33.104 40.728C29.792 40.728 27.224 38.304 27.224 34.992C27.224 31.632 29.792 29.232 33.104 29.232ZM33.104 32.04C31.472 32.04 30.272 33.144 30.272 34.992C30.272 36.84 31.472 37.944 33.104 37.944C34.712 37.944 35.936 36.84 35.936 34.992C35.936 33.144 34.712 32.04 33.104 32.04ZM49.8781 38.184H51.5821C55.7101 38.184 57.8701 38.112 60.3901 37.68L60.7021 40.2C58.1101 40.68 55.8301 40.752 51.5821 40.752H49.8781V38.184ZM49.8541 29.064H59.6221V35.976H53.0461V40.08H49.8781V33.624H56.4541V31.608H49.8541V29.064ZM64.4461 27.936H67.6381V41.424H64.4461V27.936ZM60.8941 30.864H65.0461V33.408H60.8941V30.864ZM60.8941 35.472H65.0461V38.016H60.8941V35.472ZM60.1261 41.808C64.8541 41.808 67.7341 43.344 67.7341 46.008C67.7341 48.672 64.8541 50.208 60.1261 50.208C55.3981 50.208 52.5181 48.672 52.5181 46.008C52.5181 43.344 55.3981 41.808 60.1261 41.808ZM60.1261 44.208C57.2221 44.208 55.7101 44.784 55.7101 46.008C55.7101 47.232 57.2221 47.808 60.1261 47.808C63.0541 47.808 64.5661 47.232 64.5661 46.008C64.5661 44.784 63.0541 44.208 60.1261 44.208Z" fill="black"/>
<path d="M53.313 219.235C51.3474 219.235 50.0202 218.513 49.1466 217.505L50.3226 215.942C51.0618 216.665 51.9522 217.236 53.0778 217.236C54.3546 217.236 55.2114 216.598 55.2114 215.489C55.2114 214.262 54.489 213.506 51.7842 213.506V211.726C54.069 211.726 54.8082 210.953 54.8082 209.844C54.8082 208.87 54.2034 208.282 53.145 208.282C52.2546 208.282 51.5322 208.702 50.793 209.39L49.533 207.862C50.6082 206.938 51.801 206.35 53.2458 206.35C55.6482 206.35 57.2778 207.526 57.2778 209.659C57.2778 210.986 56.5386 211.978 55.2114 212.482V212.566C56.6226 212.969 57.6978 213.994 57.6978 215.64C57.6978 217.925 55.6986 219.235 53.313 219.235ZM63.5919 219.235C61.0551 219.235 59.3751 217.034 59.3751 212.734C59.3751 208.45 61.0551 206.35 63.5919 206.35C66.1119 206.35 67.7919 208.45 67.7919 212.734C67.7919 217.034 66.1119 219.235 63.5919 219.235ZM63.5919 217.303C64.6671 217.303 65.4567 216.228 65.4567 212.734C65.4567 209.256 64.6671 208.248 63.5919 208.248C62.5167 208.248 61.7103 209.256 61.7103 212.734C61.7103 216.228 62.5167 217.303 63.5919 217.303ZM80.4565 204.938H82.5733V220.495H80.4565V204.938ZM78.3733 210.919H80.9605V212.717H78.3733V210.919ZM76.9789 205.207H79.0453V219.756H76.9789V205.207ZM69.6541 215.153H70.7461C72.6613 215.153 74.2573 215.086 76.1053 214.75L76.2733 216.564C74.3917 216.934 72.7453 216.984 70.7461 216.984H69.6541V215.153ZM69.6541 206.736H75.3997V208.534H71.8717V216.026H69.6541V206.736Z" fill="#333333"/>
<path d="M276.371 57V49.356C276.371 48.6336 276.439 47.508 276.472 46.7688H276.405C276.086 47.4408 275.75 48.1296 275.397 48.8016L273.482 51.8928H280.151V53.7912H271.079V52.0944L275.699 44.568H278.673V57H276.371ZM285.592 57.2352C283.055 57.2352 281.375 55.0344 281.375 50.7336C281.375 46.4496 283.055 44.3496 285.592 44.3496C288.112 44.3496 289.792 46.4496 289.792 50.7336C289.792 55.0344 288.112 57.2352 285.592 57.2352ZM285.592 55.3032C286.667 55.3032 287.457 54.228 287.457 50.7336C287.457 47.256 286.667 46.248 285.592 46.248C284.517 46.248 283.71 47.256 283.71 50.7336C283.71 54.228 284.517 55.3032 285.592 55.3032ZM302.457 42.9384H304.573V58.4952H302.457V42.9384ZM300.373 48.9192H302.961V50.7168H300.373V48.9192ZM298.979 43.2072H301.045V57.756H298.979V43.2072ZM291.654 53.1528H292.746C294.661 53.1528 296.257 53.0856 298.105 52.7496L298.273 54.564C296.392 54.9336 294.745 54.984 292.746 54.984H291.654V53.1528ZM291.654 44.736H297.4V46.5336H293.872V54.0264H291.654V44.736Z" fill="#333333"/>
<path d="M477.91 211.891C475.945 211.891 474.634 211.118 473.693 210.194L474.853 208.632C475.541 209.321 476.432 209.892 477.574 209.892C478.885 209.892 479.775 209.069 479.775 207.59C479.775 206.145 478.935 205.339 477.692 205.339C476.953 205.339 476.549 205.524 475.827 205.994L474.685 205.255L475.037 199.224H481.69V201.29H477.171L476.936 203.928C477.423 203.709 477.86 203.592 478.431 203.592C480.514 203.592 482.261 204.818 482.261 207.54C482.261 210.295 480.195 211.891 477.91 211.891ZM488.139 211.891C485.602 211.891 483.922 209.69 483.922 205.389C483.922 201.105 485.602 199.005 488.139 199.005C490.659 199.005 492.339 201.105 492.339 205.389C492.339 209.69 490.659 211.891 488.139 211.891ZM488.139 209.959C489.214 209.959 490.004 208.884 490.004 205.389C490.004 201.912 489.214 200.904 488.139 200.904C487.064 200.904 486.257 201.912 486.257 205.389C486.257 208.884 487.064 209.959 488.139 209.959ZM505.003 197.594H507.12V213.151H505.003V197.594ZM502.92 203.575H505.507V205.373H502.92V203.575ZM501.526 197.863H503.592V212.412H501.526V197.863ZM494.201 207.809H495.293C497.208 207.809 498.804 207.741 500.652 207.405L500.82 209.22C498.939 209.589 497.292 209.64 495.293 209.64H494.201V207.809ZM494.201 199.392H499.947V201.189H496.419V208.682H494.201V199.392Z" fill="#333333"/>
<path d="M458.728 255.324C459.553 255.324 460.37 255.157 461.129 254.834C461.888 254.51 462.573 254.036 463.144 253.441C463.715 252.846 464.16 252.141 464.452 251.369C464.744 250.598 464.877 249.775 464.842 248.951C464.232 234.284 461.866 219.745 457.793 205.642C457.564 204.849 457.177 204.111 456.656 203.472C456.134 202.833 455.489 202.306 454.759 201.922C454.028 201.539 453.228 201.307 452.405 201.24C451.583 201.174 450.756 201.275 449.973 201.537L374.411 226.805C372.948 227.294 371.723 228.318 370.983 229.672C370.243 231.026 370.041 232.61 370.419 234.106C371.708 239.21 372.555 244.416 372.952 249.666C373.068 251.204 373.761 252.642 374.893 253.692C376.024 254.741 377.51 255.324 379.053 255.324L458.728 255.324Z" fill="#6C6AD8"/>
<path d="M449.177 199.157C449.959 198.895 450.681 198.478 451.298 197.931C451.915 197.383 452.415 196.716 452.768 195.971C453.12 195.225 453.319 194.415 453.351 193.591C453.383 192.767 453.248 191.944 452.954 191.173C439.702 156.417 416.203 126.506 385.572 105.402C354.94 84.2991 318.62 72.999 281.422 72.999C244.225 72.999 207.905 84.299 177.273 105.402C146.641 126.506 123.143 156.417 109.891 191.173C109.597 191.944 109.462 192.767 109.494 193.591C109.526 194.415 109.724 195.225 110.077 195.971C110.43 196.716 110.93 197.383 111.547 197.931C112.164 198.478 112.885 198.895 113.668 199.157L189.23 224.425C190.693 224.914 192.288 224.833 193.694 224.196C195.099 223.56 196.213 222.416 196.811 220.994C203.816 204.337 215.582 190.118 230.633 180.12C245.685 170.121 263.353 164.788 281.422 164.788C299.492 164.788 317.16 170.121 332.212 180.12C347.263 190.118 359.029 204.337 366.033 220.994C366.632 222.416 367.745 223.56 369.151 224.196C370.557 224.833 372.151 224.914 373.615 224.425L449.177 199.157Z" fill="#9B99F6"/>
<path d="M112.875 201.537C112.092 201.275 111.265 201.174 110.443 201.24C109.62 201.307 108.82 201.539 108.089 201.922C107.359 202.306 106.714 202.833 106.192 203.472C105.671 204.111 105.284 204.849 105.055 205.642C100.982 219.744 98.6155 234.284 98.0056 248.951C97.9713 249.775 98.1041 250.598 98.3959 251.369C98.6877 252.141 99.1326 252.846 99.7037 253.441C100.275 254.036 100.96 254.51 101.719 254.834C102.478 255.157 103.295 255.324 104.12 255.324L183.795 255.324C185.338 255.324 186.824 254.741 187.955 253.692C189.087 252.642 189.78 251.204 189.896 249.666C190.293 244.416 191.14 239.21 192.429 234.106C192.807 232.61 192.605 231.026 191.865 229.672C191.125 228.318 189.9 227.294 188.437 226.805L112.875 201.537Z" fill="#C4C3F3"/>
<path d="M128.644 240.999V239.074H131.232V231.501H129.048V230.029C130.262 229.802 131.071 229.495 131.847 229.026H133.611V239.074H135.86V240.999H128.644ZM141.65 241.226C139.207 241.226 137.589 239.106 137.589 234.964C137.589 230.838 139.207 228.815 141.65 228.815C144.077 228.815 145.695 230.838 145.695 234.964C145.695 239.106 144.077 241.226 141.65 241.226ZM141.65 239.365C142.685 239.365 143.446 238.329 143.446 234.964C143.446 231.615 142.685 230.644 141.65 230.644C140.614 230.644 139.838 231.615 139.838 234.964C139.838 238.329 140.614 239.365 141.65 239.365ZM149.851 236.404C148.136 236.404 146.922 234.98 146.922 232.585C146.922 230.191 148.136 228.815 149.851 228.815C151.566 228.815 152.779 230.191 152.779 232.585C152.779 234.98 151.566 236.404 149.851 236.404ZM149.851 235.061C150.546 235.061 151.08 234.333 151.08 232.585C151.08 230.822 150.546 230.158 149.851 230.158C149.139 230.158 148.605 230.822 148.605 232.585C148.605 234.333 149.139 235.061 149.851 235.061ZM150.239 241.226L156.743 228.815H158.167L151.647 241.226H150.239ZM158.555 241.226C156.857 241.226 155.643 239.818 155.643 237.407C155.643 235.012 156.857 233.621 158.555 233.621C160.254 233.621 161.468 235.012 161.468 237.407C161.468 239.818 160.254 241.226 158.555 241.226ZM158.555 239.883C159.251 239.883 159.801 239.171 159.801 237.407C159.801 235.643 159.251 234.98 158.555 234.98C157.86 234.98 157.31 235.643 157.31 237.407C157.31 239.171 157.86 239.883 158.555 239.883Z" fill="#333333"/>
<path d="M276.09 134.226C273.792 134.226 272.094 132.915 272.094 131.038C272.094 129.501 273.032 128.482 274.132 127.899V127.834C273.226 127.171 272.547 126.249 272.547 124.987C272.547 123.061 274.084 121.832 276.171 121.832C278.29 121.832 279.65 123.094 279.65 125.003C279.65 126.2 278.889 127.187 278.113 127.754V127.834C279.213 128.433 280.119 129.388 280.119 131.038C280.119 132.85 278.501 134.226 276.09 134.226ZM276.85 127.171C277.433 126.556 277.708 125.877 277.708 125.165C277.708 124.178 277.109 123.498 276.122 123.498C275.297 123.498 274.65 124.032 274.65 124.987C274.65 126.103 275.588 126.669 276.85 127.171ZM276.139 132.543C277.174 132.543 277.902 131.977 277.902 130.941C277.902 129.695 276.786 129.194 275.249 128.546C274.585 129.064 274.132 129.873 274.132 130.763C274.132 131.847 275.022 132.543 276.139 132.543ZM285.65 134.226C283.207 134.226 281.589 132.106 281.589 127.964C281.589 123.838 283.207 121.815 285.65 121.815C288.077 121.815 289.695 123.838 289.695 127.964C289.695 132.106 288.077 134.226 285.65 134.226ZM285.65 132.365C286.685 132.365 287.446 131.329 287.446 127.964C287.446 124.615 286.685 123.644 285.65 123.644C284.614 123.644 283.838 124.615 283.838 127.964C283.838 131.329 284.614 132.365 285.65 132.365ZM293.851 129.404C292.136 129.404 290.922 127.98 290.922 125.585C290.922 123.191 292.136 121.815 293.851 121.815C295.566 121.815 296.779 123.191 296.779 125.585C296.779 127.98 295.566 129.404 293.851 129.404ZM293.851 128.061C294.546 128.061 295.08 127.333 295.08 125.585C295.08 123.822 294.546 123.158 293.851 123.158C293.139 123.158 292.605 123.822 292.605 125.585C292.605 127.333 293.139 128.061 293.851 128.061ZM294.239 134.226L300.743 121.815H302.167L295.647 134.226H294.239ZM302.555 134.226C300.857 134.226 299.643 132.818 299.643 130.407C299.643 128.012 300.857 126.621 302.555 126.621C304.254 126.621 305.468 128.012 305.468 130.407C305.468 132.818 304.254 134.226 302.555 134.226ZM302.555 132.883C303.251 132.883 303.801 132.171 303.801 130.407C303.801 128.643 303.251 127.98 302.555 127.98C301.86 127.98 301.31 128.643 301.31 130.407C301.31 132.171 301.86 132.883 302.555 132.883Z" fill="#333333"/>
<path d="M408.644 242.999V241.074H411.232V233.501H409.048V232.029C410.262 231.802 411.071 231.495 411.847 231.026H413.611V241.074H415.86V242.999H408.644ZM421.65 243.226C419.207 243.226 417.589 241.106 417.589 236.964C417.589 232.838 419.207 230.815 421.65 230.815C424.077 230.815 425.695 232.838 425.695 236.964C425.695 241.106 424.077 243.226 421.65 243.226ZM421.65 241.365C422.685 241.365 423.446 240.329 423.446 236.964C423.446 233.615 422.685 232.644 421.65 232.644C420.614 232.644 419.838 233.615 419.838 236.964C419.838 240.329 420.614 241.365 421.65 241.365ZM429.851 238.404C428.136 238.404 426.922 236.98 426.922 234.585C426.922 232.191 428.136 230.815 429.851 230.815C431.566 230.815 432.779 232.191 432.779 234.585C432.779 236.98 431.566 238.404 429.851 238.404ZM429.851 237.061C430.546 237.061 431.08 236.333 431.08 234.585C431.08 232.822 430.546 232.158 429.851 232.158C429.139 232.158 428.605 232.822 428.605 234.585C428.605 236.333 429.139 237.061 429.851 237.061ZM430.239 243.226L436.743 230.815H438.167L431.647 243.226H430.239ZM438.555 243.226C436.857 243.226 435.643 241.818 435.643 239.407C435.643 237.012 436.857 235.621 438.555 235.621C440.254 235.621 441.468 237.012 441.468 239.407C441.468 241.818 440.254 243.226 438.555 243.226ZM438.555 241.883C439.251 241.883 439.801 241.171 439.801 239.407C439.801 237.643 439.251 236.98 438.555 236.98C437.86 236.98 437.31 237.643 437.31 239.407C437.31 241.171 437.86 241.883 438.555 241.883Z" fill="#333333"/>
</svg>
