<svg width="546" height="275" viewBox="0 0 546 275" fill="none" xmlns="http://www.w3.org/2000/svg">
<rect width="546" height="275" fill="#F3F3F3"/>
<path d="M82.264 70.936H85.456V87.544H82.264V70.936ZM84.544 77.704H88.408V80.32H84.544V77.704ZM67.96 73.24H81.04V75.736H67.96V73.24ZM74.512 76.528C77.704 76.528 79.96 78.28 79.96 80.824C79.96 83.368 77.704 85.096 74.512 85.096C71.296 85.096 69.04 83.368 69.04 80.824C69.04 78.28 71.296 76.528 74.512 76.528ZM74.512 78.952C73.096 78.952 72.112 79.624 72.112 80.824C72.112 82.024 73.096 82.672 74.512 82.672C75.928 82.672 76.912 82.024 76.912 80.824C76.912 79.624 75.928 78.952 74.512 78.952ZM72.904 70.888H76.096V74.464H72.904V70.888ZM71.128 90.208H86.248V92.752H71.128V90.208ZM71.128 86.296H74.32V91.312H71.128V86.296ZM104.246 70.888H107.462V93.112H104.246V70.888ZM106.622 79.384H110.534V82H106.622V79.384ZM98.4141 73.192H101.534C101.534 79.864 98.9901 85.576 91.5981 89.296L89.8221 86.872C95.6541 83.848 98.4141 79.768 98.4141 73.744V73.192ZM91.0461 73.192H100.046V75.76H91.0461V73.192ZM117.468 74.416H120.012V76.912C120.012 82.048 117.924 87.064 113.748 88.96L111.948 86.44C115.668 84.784 117.468 80.68 117.468 76.912V74.416ZM118.188 74.416H120.708V76.912C120.708 80.512 122.484 84.352 126.204 85.888L124.476 88.408C120.252 86.584 118.188 81.856 118.188 76.912V74.416ZM112.836 73.048H125.292V75.664H112.836V73.048ZM127.356 70.912H130.572V93.136H127.356V70.912ZM149.88 84.496C154.488 84.496 157.392 86.104 157.392 88.816C157.392 91.552 154.488 93.16 149.88 93.16C145.248 93.16 142.344 91.552 142.344 88.816C142.344 86.104 145.248 84.496 149.88 84.496ZM149.88 86.992C147.048 86.992 145.512 87.568 145.512 88.816C145.512 90.088 147.048 90.688 149.88 90.688C152.712 90.688 154.224 90.088 154.224 88.816C154.224 87.568 152.712 86.992 149.88 86.992ZM153.936 70.912H157.128V83.992H153.936V70.912ZM156.24 76.072H160.08V78.712H156.24V76.072ZM140.28 72.328H143.448V75.064H147.792V72.328H150.96V82.768H140.28V72.328ZM143.448 77.536V80.272H147.792V77.536H143.448ZM166.918 71.92H169.558V74.056C169.558 78.256 167.518 82.072 163.174 83.464L161.614 80.944C165.358 79.744 166.918 76.864 166.918 74.056V71.92ZM167.566 71.92H170.182V74.056C170.182 76.792 171.718 79.48 175.342 80.584L173.782 83.08C169.534 81.736 167.566 78.184 167.566 74.056V71.92ZM165.022 85.144H180.19V93.136H176.974V87.688H165.022V85.144ZM176.974 70.912H180.19V84.16H176.974V70.912ZM184.436 72.736H195.02V83.464H184.436V72.736ZM191.876 75.256H187.58V80.944H191.876V75.256ZM198.092 70.912H201.284V87.112H198.092V70.912ZM200.372 77.32H204.236V79.936H200.372V77.32ZM186.956 90.208H202.076V92.752H186.956V90.208ZM186.956 85.528H190.148V91.48H186.956V85.528ZM215.922 71.224C220.986 71.224 223.962 72.568 223.962 75.016C223.962 77.464 220.986 78.808 215.922 78.808C210.834 78.808 207.882 77.464 207.882 75.016C207.882 72.568 210.834 71.224 215.922 71.224ZM215.922 73.552C212.706 73.552 211.194 74.032 211.194 75.016C211.194 76.048 212.706 76.48 215.922 76.48C219.138 76.48 220.65 76.048 220.65 75.016C220.65 74.032 219.138 73.552 215.922 73.552ZM205.866 79.84H225.954V82.36H205.866V79.84ZM208.17 83.608H223.53V89.32H211.338V91.288H208.194V87.112H220.386V85.984H208.17V83.608ZM208.194 90.592H224.106V92.992H208.194V90.592ZM235.446 72.784H249.534V75.352H235.446V72.784ZM233.406 87.88H253.494V90.472H233.406V87.88ZM240.51 80.248H243.702V89.152H240.51V80.248ZM248.382 72.784H251.574V74.92C251.574 77.704 251.574 80.824 250.686 85.576L247.494 85.216C248.382 80.8 248.382 77.584 248.382 74.92V72.784ZM260.86 72.832H263.476V74.2C263.476 78.184 261.412 81.784 257.14 83.08L255.532 80.584C259.252 79.504 260.86 76.816 260.86 74.2V72.832ZM261.508 72.832H264.124V74.2C264.124 76.672 265.732 79.192 269.332 80.224L267.772 82.696C263.572 81.472 261.508 78.04 261.508 74.2V72.832ZM256.396 72.112H268.492V74.632H256.396V72.112ZM270.724 70.912H273.94V82.96H270.724V70.912ZM259.156 83.92H262.3V85.936H270.772V83.92H273.94V92.896H259.156V83.92ZM262.3 88.408V90.352H270.772V88.408H262.3ZM291.794 70.912H294.962V93.136H291.794V70.912ZM294.242 79.576H298.178V82.24H294.242V79.576ZM277.442 74.2H290.378V76.744H277.442V74.2ZM283.946 77.992C287.186 77.992 289.586 80.2 289.586 83.296C289.586 86.392 287.186 88.6 283.946 88.6C280.706 88.6 278.306 86.392 278.306 83.296C278.306 80.2 280.706 77.992 283.946 77.992ZM283.946 80.584C282.434 80.584 281.354 81.592 281.354 83.296C281.354 85 282.434 86.008 283.946 86.008C285.458 86.008 286.538 85 286.538 83.296C286.538 81.592 285.458 80.584 283.946 80.584ZM282.338 71.272H285.53V75.16H282.338V71.272ZM304.968 74.416H307.512V76.912C307.512 82.048 305.424 87.064 301.248 88.96L299.448 86.44C303.168 84.784 304.968 80.68 304.968 76.912V74.416ZM305.688 74.416H308.208V76.912C308.208 80.512 309.984 84.352 313.704 85.888L311.976 88.408C307.752 86.584 305.688 81.856 305.688 76.912V74.416ZM300.336 73.048H312.792V75.664H300.336V73.048ZM314.856 70.912H318.072V93.136H314.856V70.912ZM333.204 71.968C336.612 71.968 339.132 74.128 339.132 77.152C339.132 80.2 336.612 82.36 333.204 82.36C329.82 82.36 327.276 80.2 327.276 77.152C327.276 74.128 329.82 71.968 333.204 71.968ZM333.204 74.56C331.596 74.56 330.372 75.544 330.372 77.152C330.372 78.784 331.596 79.768 333.204 79.768C334.836 79.768 336.06 78.784 336.06 77.152C336.06 75.544 334.836 74.56 333.204 74.56ZM341.436 70.912H344.628V81.856H341.436V70.912ZM343.356 75.52H347.58V78.112H343.356V75.52ZM329.1 90.016H330.324C332.268 90.016 333.972 89.872 335.604 89.32L336.084 91.816C334.236 92.464 332.508 92.56 330.324 92.56H329.1V90.016ZM329.1 83.992H332.196V90.784H329.1V83.992ZM335.292 84.064H346.404V86.344H335.292V84.064ZM340.86 86.896C343.38 86.896 345.132 88.12 345.132 90.04C345.132 91.96 343.38 93.16 340.86 93.16C338.316 93.16 336.564 91.96 336.564 90.04C336.564 88.12 338.316 86.896 340.86 86.896ZM340.86 89.08C339.996 89.08 339.396 89.392 339.396 90.04C339.396 90.688 339.996 91 340.86 91C341.676 91 342.3 90.688 342.3 90.04C342.3 89.392 341.676 89.08 340.86 89.08ZM339.324 82.48H342.42V85.768H339.324V82.48ZM351.274 72.784H365.362V75.352H351.274V72.784ZM349.234 87.88H369.322V90.472H349.234V87.88ZM356.338 80.248H359.53V89.152H356.338V80.248ZM364.21 72.784H367.402V74.92C367.402 77.704 367.402 80.824 366.514 85.576L363.322 85.216C364.21 80.8 364.21 77.584 364.21 74.92V72.784ZM372.32 96.136L371.6 94.216C373.472 93.52 374.504 92.248 374.48 90.832L374.36 88.336L375.608 90.4C375.248 90.76 374.768 90.928 374.24 90.928C373.088 90.928 372.032 90.16 372.032 88.84C372.032 87.568 373.064 86.752 374.336 86.752C375.944 86.752 376.856 88.048 376.856 90.208C376.856 93.04 375.248 95.176 372.32 96.136Z" fill="#467CD7"/>
<path d="M176.168 125.888H179.384V148.184H176.168V125.888ZM178.664 134.12H182.6V136.736H178.664V134.12ZM162.824 140.192H164.696C168.44 140.192 171.392 140.072 174.656 139.496L174.968 142.136C171.608 142.736 168.56 142.832 164.696 142.832H162.824V140.192ZM162.824 127.952H173.192V130.52H165.992V141.464H162.824V127.952ZM200.55 128.648H204.39V131.24H200.55V128.648ZM200.55 133.472H204.39V136.064H200.55V133.472ZM190.23 127.112C193.662 127.112 196.278 129.368 196.278 132.512C196.278 135.632 193.662 137.888 190.23 137.888C186.798 137.888 184.182 135.632 184.182 132.512C184.182 129.368 186.798 127.112 190.23 127.112ZM190.23 129.776C188.55 129.776 187.302 130.808 187.302 132.512C187.302 134.24 188.55 135.224 190.23 135.224C191.91 135.224 193.158 134.24 193.158 132.512C193.158 130.808 191.91 129.776 190.23 129.776ZM198.342 125.912H201.534V138.872H198.342V125.912ZM194.286 139.352C198.87 139.352 201.798 141.008 201.798 143.744C201.798 146.504 198.87 148.136 194.286 148.136C189.678 148.136 186.75 146.504 186.75 143.744C186.75 141.008 189.678 139.352 194.286 139.352ZM194.286 141.872C191.454 141.872 189.918 142.472 189.918 143.744C189.918 145.04 191.454 145.64 194.286 145.64C197.118 145.64 198.63 145.04 198.63 143.744C198.63 142.472 197.118 141.872 194.286 141.872ZM220.42 125.936H223.612V142.544H220.42V125.936ZM222.7 132.704H226.564V135.32H222.7V132.704ZM206.116 128.24H219.196V130.736H206.116V128.24ZM212.668 131.528C215.86 131.528 218.116 133.28 218.116 135.824C218.116 138.368 215.86 140.096 212.668 140.096C209.452 140.096 207.196 138.368 207.196 135.824C207.196 133.28 209.452 131.528 212.668 131.528ZM212.668 133.952C211.252 133.952 210.268 134.624 210.268 135.824C210.268 137.024 211.252 137.672 212.668 137.672C214.084 137.672 215.068 137.024 215.068 135.824C215.068 134.624 214.084 133.952 212.668 133.952ZM211.06 125.888H214.252V129.464H211.06V125.888ZM209.284 145.208H224.404V147.752H209.284V145.208ZM209.284 141.296H212.476V146.312H209.284V141.296ZM235.384 126.416H251.944V128.792H235.384V126.416ZM235.552 131.528H251.776V133.904H235.552V131.528ZM238.216 127.352H241.408V133.16H238.216V127.352ZM245.92 127.352H249.112V133.16H245.92V127.352ZM233.632 135.056H253.72V137.552H233.632V135.056ZM242.056 136.568H245.248V139.664H242.056V136.568ZM235.936 138.968H251.296V144.488H239.104V146.552H235.96V142.352H248.152V141.248H235.936V138.968ZM235.96 145.664H251.872V147.992H235.96V145.664ZM270.95 125.888H274.166V148.184H270.95V125.888ZM262.19 127.448C265.55 127.448 268.022 130.52 268.022 135.368C268.022 140.264 265.55 143.336 262.19 143.336C258.83 143.336 256.358 140.264 256.358 135.368C256.358 130.52 258.83 127.448 262.19 127.448ZM262.19 130.352C260.534 130.352 259.406 132.104 259.406 135.368C259.406 138.68 260.534 140.456 262.19 140.456C263.846 140.456 264.95 138.68 264.95 135.368C264.95 132.104 263.846 130.352 262.19 130.352ZM284.94 127.376C288.444 127.376 291.06 129.656 291.06 132.848C291.06 136.064 288.444 138.344 284.94 138.344C281.46 138.344 278.796 136.064 278.796 132.848C278.796 129.656 281.46 127.376 284.94 127.376ZM284.94 130.112C283.236 130.112 281.94 131.12 281.94 132.848C281.94 134.6 283.236 135.608 284.94 135.608C286.644 135.608 287.94 134.6 287.94 132.848C287.94 131.12 286.644 130.112 284.94 130.112ZM293.148 125.888H296.34V148.184H293.148V125.888ZM278.268 143.672L277.884 141.104C281.796 141.104 287.244 141.056 291.924 140.36L292.164 142.664C287.34 143.624 282.108 143.672 278.268 143.672ZM317.328 130.88H321.552V133.448H317.328V130.88ZM320.712 125.912H323.904V138.056H320.712V125.912ZM309.144 138.968H312.312V140.984H320.736V138.968H323.904V147.896H309.144V138.968ZM312.312 143.456V145.352H320.736V143.456H312.312ZM310.44 127.616H313.032V129.032C313.032 133.208 311.064 137.072 306.792 138.488L305.184 135.944C308.856 134.744 310.44 131.84 310.44 129.032V127.616ZM311.112 127.616H313.68V129.032C313.68 131.624 315.192 134.384 318.696 135.56L317.136 138.032C313.008 136.664 311.112 132.992 311.112 129.032V127.616ZM306.048 126.92H318V129.464H306.048V126.92ZM329.854 127.136H343.894V129.68H329.854V127.136ZM327.406 135.728H347.518V138.296H327.406V135.728ZM342.022 127.136H345.166V129.056C345.166 131.168 345.166 133.52 344.47 136.712L341.326 136.424C342.022 133.328 342.022 131.12 342.022 129.056V127.136ZM329.926 145.184H345.79V147.752H329.926V145.184ZM329.926 140.192H333.094V145.448H329.926V140.192ZM359.708 139.496C364.316 139.496 367.22 141.104 367.22 143.816C367.22 146.552 364.316 148.16 359.708 148.16C355.076 148.16 352.172 146.552 352.172 143.816C352.172 141.104 355.076 139.496 359.708 139.496ZM359.708 141.992C356.876 141.992 355.34 142.568 355.34 143.816C355.34 145.088 356.876 145.688 359.708 145.688C362.54 145.688 364.052 145.088 364.052 143.816C364.052 142.568 362.54 141.992 359.708 141.992ZM363.764 125.912H366.956V138.992H363.764V125.912ZM366.068 131.072H369.908V133.712H366.068V131.072ZM350.108 127.328H353.276V130.064H357.62V127.328H360.788V137.768H350.108V127.328ZM353.276 132.536V135.272H357.62V132.536H353.276ZM376.746 126.92H379.386V129.056C379.386 133.256 377.346 137.072 373.002 138.464L371.442 135.944C375.186 134.744 376.746 131.864 376.746 129.056V126.92ZM377.394 126.92H380.01V129.056C380.01 131.792 381.546 134.48 385.17 135.584L383.61 138.08C379.362 136.736 377.394 133.184 377.394 129.056V126.92ZM374.85 140.144H390.018V148.136H386.802V142.688H374.85V140.144ZM386.802 125.912H390.018V139.16H386.802V125.912ZM403.672 126.224C408.736 126.224 411.712 127.568 411.712 130.016C411.712 132.464 408.736 133.808 403.672 133.808C398.584 133.808 395.632 132.464 395.632 130.016C395.632 127.568 398.584 126.224 403.672 126.224ZM403.672 128.552C400.456 128.552 398.944 129.032 398.944 130.016C398.944 131.048 400.456 131.48 403.672 131.48C406.888 131.48 408.4 131.048 408.4 130.016C408.4 129.032 406.888 128.552 403.672 128.552ZM393.616 134.84H413.704V137.36H393.616V134.84ZM395.92 138.608H411.28V144.32H399.088V146.288H395.944V142.112H408.136V140.984H395.92V138.608ZM395.944 145.592H411.856V147.992H395.944V145.592Z" fill="#467CD7"/>
<path d="M242.016 180.912H245.04V203.136H242.016V180.912ZM234.696 188.496H238.368V191.088H234.696V188.496ZM237.528 181.272H240.504V202.128H237.528V181.272ZM229.896 184.536H232.296V186.816C232.296 191.808 230.928 196.776 227.4 198.984L225.504 196.632C228.768 194.592 229.896 190.608 229.896 186.816V184.536ZM230.616 184.536H232.992V186.816C232.992 190.512 234.096 194.256 237.312 196.128L235.44 198.456C231.912 196.368 230.616 191.712 230.616 186.816V184.536ZM226.344 183.144H236.256V185.712H226.344V183.144ZM257.974 194.736C262.774 194.736 265.846 196.32 265.846 198.96C265.846 201.552 262.774 203.136 257.974 203.136C253.174 203.136 250.102 201.552 250.102 198.96C250.102 196.32 253.174 194.736 257.974 194.736ZM257.974 197.136C254.974 197.136 253.27 197.76 253.27 198.96C253.27 200.136 254.974 200.736 257.974 200.736C260.974 200.736 262.678 200.136 262.678 198.96C262.678 197.76 260.974 197.136 257.974 197.136ZM250.342 181.896H264.406V184.416H250.342V181.896ZM248.086 190.824H268.102V193.368H248.086V190.824ZM255.502 186.96H258.67V191.472H255.502V186.96ZM262.558 181.896H265.726V183.72C265.726 185.472 265.726 187.368 265.126 189.672L261.958 189.336C262.558 187.056 262.558 185.448 262.558 183.72V181.896ZM270.092 184.248H280.724V186.792H270.092V184.248ZM275.444 187.776C278.276 187.776 280.316 189.96 280.316 193.08C280.316 196.176 278.276 198.36 275.444 198.36C272.636 198.36 270.572 196.176 270.572 193.08C270.572 189.96 272.636 187.776 275.444 187.776ZM275.444 190.44C274.244 190.44 273.404 191.4 273.404 193.08C273.404 194.76 274.244 195.696 275.444 195.696C276.644 195.696 277.508 194.76 277.508 193.08C277.508 191.4 276.644 190.44 275.444 190.44ZM286.172 180.912H289.22V203.136H286.172V180.912ZM283.508 189.936H287.18V192.504H283.508V189.936ZM281.516 181.32H284.492V202.2H281.516V181.32ZM273.884 181.512H277.028V185.856H273.884V181.512ZM306.08 191.496H309.272V194.592H306.08V191.496ZM297.632 189.744H317.72V192.24H297.632V189.744ZM299.936 193.632H315.296V199.344H303.104V201.288H299.96V197.16H312.152V195.96H299.936V193.632ZM299.96 200.616H315.872V202.992H299.96V200.616ZM305.768 182.472H308.552V183.024C308.552 186.192 305.408 188.712 299.504 189.144L298.52 186.744C303.584 186.408 305.768 184.632 305.768 183.024V182.472ZM306.8 182.472H309.584V183.024C309.584 184.632 311.768 186.408 316.856 186.744L315.872 189.144C309.968 188.712 306.8 186.216 306.8 183.024V182.472ZM299.456 181.512H315.92V183.984H299.456V181.512ZM333.524 181.56H336.332V182.592C336.332 186.864 332.972 190.488 327.14 191.352L325.892 188.784C331.004 188.112 333.524 185.208 333.524 182.592V181.56ZM334.124 181.56H336.908V182.592C336.908 185.184 339.452 188.112 344.54 188.784L343.316 191.352C337.484 190.488 334.124 186.864 334.124 182.592V181.56ZM333.548 195H336.716V203.136H333.548V195ZM325.172 192.984H345.26V195.576H325.172V192.984ZM357.655 194.4H360.055V195.144C360.055 198.504 358.567 201.576 355.087 202.824L353.527 200.496C356.431 199.512 357.655 197.304 357.655 195.144V194.4ZM358.471 194.4H360.751V195.144C360.751 197.304 361.831 199.56 364.543 200.688L363.271 203.04C359.743 201.72 358.471 198.408 358.471 195.144V194.4ZM365.767 194.4H368.047V195.144C368.047 198.216 366.727 201.672 363.271 203.04L361.951 200.688C364.663 199.464 365.767 197.112 365.767 195.144V194.4ZM366.511 194.4H368.911V195.144C368.911 197.448 370.111 199.584 373.039 200.496L371.479 202.824C367.951 201.624 366.511 198.648 366.511 195.144V194.4ZM367.927 180.936H371.143V193.488H367.927V180.936ZM359.047 182.064C362.503 182.064 365.071 184.272 365.071 187.392C365.071 190.488 362.503 192.696 359.047 192.696C355.591 192.696 352.999 190.488 352.999 187.392C352.999 184.272 355.591 182.064 359.047 182.064ZM359.047 184.704C357.367 184.704 356.119 185.688 356.119 187.392C356.119 189.072 357.367 190.056 359.047 190.056C360.727 190.056 361.951 189.072 361.951 187.392C361.951 185.688 360.727 184.704 359.047 184.704ZM377.237 186.912H392.645V189.432H377.237V186.912ZM374.741 191.736H394.877V194.28H374.741V191.736ZM377.237 181.704H380.405V188.16H377.237V181.704ZM377.021 200.112H392.765V202.656H377.021V200.112ZM377.021 196.056H380.213V200.784H377.021V196.056ZM413.609 185.64H418.769V188.208H413.609V185.64ZM407.345 182.28H409.913V184.68C409.913 189.216 408.017 193.08 403.817 194.616L402.137 192.12C405.809 190.896 407.345 187.824 407.345 184.68V182.28ZM408.041 182.28H410.585V184.704C410.585 187.56 412.049 190.416 415.553 191.616L413.849 194.064C409.865 192.624 408.041 188.904 408.041 184.704V182.28ZM417.665 180.936H420.857V197.328H417.665V180.936ZM406.145 200.208H421.337V202.752H406.145V200.208ZM406.145 195.672H409.361V201.624H406.145V195.672ZM428.343 182.256H430.839V184.824C430.839 188.592 429.327 192.36 425.703 193.896L424.023 191.424C427.119 190.056 428.343 187.32 428.343 184.824V182.256ZM428.919 182.256H431.415V184.824C431.415 187.2 432.615 189.6 435.543 190.752L433.839 193.176C430.383 191.808 428.919 188.448 428.919 184.824V182.256ZM440.247 180.936H443.271V194.496H440.247V180.936ZM437.583 186.312H441.111V188.88H437.583V186.312ZM435.543 181.344H438.519V193.8H435.543V181.344ZM435.735 194.808C440.391 194.808 443.391 196.368 443.391 198.984C443.391 201.576 440.391 203.136 435.735 203.136C431.055 203.136 428.103 201.576 428.103 198.984C428.103 196.368 431.055 194.808 435.735 194.808ZM435.735 197.208C432.879 197.208 431.271 197.808 431.271 198.984C431.271 200.16 432.879 200.736 435.735 200.736C438.591 200.736 440.175 200.16 440.175 198.984C440.175 197.808 438.591 197.208 435.735 197.208ZM461.677 180.912H464.893V193.368H461.677V180.912ZM447.685 182.184H450.853V191.352H447.685V182.184ZM447.685 189.672H449.605C453.469 189.672 456.613 189.456 459.877 188.76L460.261 191.328C456.877 192.072 453.589 192.312 449.605 192.312H447.685V189.672ZM450.109 194.304H464.893V202.896H450.109V194.304ZM461.749 196.8H453.229V200.376H461.749V196.8ZM470.819 194.952L470.291 186.096L470.195 182.76H473.723L473.627 186.096L473.123 194.952H470.819ZM471.947 201.336C470.699 201.336 469.763 200.352 469.763 199.032C469.763 197.712 470.699 196.752 471.947 196.752C473.219 196.752 474.155 197.712 474.155 199.032C474.155 200.352 473.219 201.336 471.947 201.336Z" fill="#467CD7"/>
</svg>
