<svg width="546" height="275" viewBox="0 0 546 275" fill="none" xmlns="http://www.w3.org/2000/svg">
<rect width="546" height="275" fill="#F3F3F3"/>
<path d="M52.264 70.936H55.456V87.544H52.264V70.936ZM54.544 77.704H58.408V80.32H54.544V77.704ZM37.96 73.24H51.04V75.736H37.96V73.24ZM44.512 76.528C47.704 76.528 49.96 78.28 49.96 80.824C49.96 83.368 47.704 85.096 44.512 85.096C41.296 85.096 39.04 83.368 39.04 80.824C39.04 78.28 41.296 76.528 44.512 76.528ZM44.512 78.952C43.096 78.952 42.112 79.624 42.112 80.824C42.112 82.024 43.096 82.672 44.512 82.672C45.928 82.672 46.912 82.024 46.912 80.824C46.912 79.624 45.928 78.952 44.512 78.952ZM42.904 70.888H46.096V74.464H42.904V70.888ZM41.128 90.208H56.248V92.752H41.128V90.208ZM41.128 86.296H44.32V91.312H41.128V86.296ZM74.2461 70.888H77.4621V93.112H74.2461V70.888ZM76.6221 79.384H80.5341V82H76.6221V79.384ZM68.4141 73.192H71.5341C71.5341 79.864 68.9901 85.576 61.5981 89.296L59.8221 86.872C65.6541 83.848 68.4141 79.768 68.4141 73.744V73.192ZM61.0461 73.192H70.0461V75.76H61.0461V73.192ZM87.4683 74.416H90.0123V76.912C90.0123 82.048 87.9243 87.064 83.7483 88.96L81.9482 86.44C85.6683 84.784 87.4683 80.68 87.4683 76.912V74.416ZM88.1883 74.416H90.7083V76.912C90.7083 80.512 92.4843 84.352 96.2043 85.888L94.4763 88.408C90.2523 86.584 88.1883 81.856 88.1883 76.912V74.416ZM82.8363 73.048H95.2923V75.664H82.8363V73.048ZM97.3563 70.912H100.572V93.136H97.3563V70.912ZM111.346 72.376C114.85 72.376 117.466 74.656 117.466 77.848C117.466 81.064 114.85 83.344 111.346 83.344C107.866 83.344 105.202 81.064 105.202 77.848C105.202 74.656 107.866 72.376 111.346 72.376ZM111.346 75.112C109.642 75.112 108.346 76.12 108.346 77.848C108.346 79.6 109.642 80.608 111.346 80.608C113.05 80.608 114.346 79.6 114.346 77.848C114.346 76.12 113.05 75.112 111.346 75.112ZM119.554 70.888H122.746V93.184H119.554V70.888ZM104.674 88.672L104.29 86.104C108.202 86.104 113.65 86.056 118.33 85.36L118.57 87.664C113.746 88.624 108.514 88.672 104.674 88.672ZM133.678 72.784H147.742V75.352H133.678V72.784ZM131.734 87.88H151.822V90.472H131.734V87.88ZM135.934 80.872H139.102V88.696H135.934V80.872ZM146.806 72.784H150.022V74.968C150.022 77.656 150.022 80.728 149.23 85.24L146.062 84.928C146.806 80.704 146.806 77.584 146.806 74.968V72.784ZM141.43 80.872H144.574V88.696H141.43V80.872ZM170.012 70.912H173.036V93.136H170.012V70.912ZM167.348 79.432H171.044V82.024H167.348V79.432ZM165.236 71.248H168.212V92.128H165.236V71.248ZM157.748 74.368H160.172V76.336C160.172 81.832 158.972 86.68 155.276 88.912L153.356 86.464C156.692 84.544 157.748 80.608 157.748 76.336V74.368ZM158.396 74.368H160.844V76.336C160.844 80.248 161.972 83.944 165.284 85.672L163.46 88.096C159.716 86.08 158.396 81.496 158.396 76.336V74.368ZM154.076 73.168H164.18V75.736H154.076V73.168ZM176.514 72.736H187.098V83.464H176.514V72.736ZM183.954 75.256H179.658V80.944H183.954V75.256ZM190.17 70.912H193.362V87.112H190.17V70.912ZM192.45 77.32H196.314V79.936H192.45V77.32ZM179.034 90.208H194.154V92.752H179.034V90.208ZM179.034 85.528H182.226V91.48H179.034V85.528ZM208 71.224C213.064 71.224 216.04 72.568 216.04 75.016C216.04 77.464 213.064 78.808 208 78.808C202.912 78.808 199.96 77.464 199.96 75.016C199.96 72.568 202.912 71.224 208 71.224ZM208 73.552C204.784 73.552 203.272 74.032 203.272 75.016C203.272 76.048 204.784 76.48 208 76.48C211.216 76.48 212.728 76.048 212.728 75.016C212.728 74.032 211.216 73.552 208 73.552ZM197.944 79.84H218.032V82.36H197.944V79.84ZM200.248 83.608H215.608V89.32H203.416V91.288H200.272V87.112H212.464V85.984H200.248V83.608ZM200.272 90.592H216.184V92.992H200.272V90.592ZM239.668 70.888H242.884V93.112H239.668V70.888ZM242.044 79.384H245.956V82H242.044V79.384ZM233.836 73.192H236.956C236.956 79.864 234.412 85.576 227.02 89.296L225.244 86.872C231.076 83.848 233.836 79.768 233.836 73.744V73.192ZM226.468 73.192H235.468V75.76H226.468V73.192ZM252.89 74.416H255.434V76.912C255.434 82.048 253.346 87.064 249.17 88.96L247.37 86.44C251.09 84.784 252.89 80.68 252.89 76.912V74.416ZM253.61 74.416H256.13V76.912C256.13 80.512 257.906 84.352 261.626 85.888L259.898 88.408C255.674 86.584 253.61 81.856 253.61 76.912V74.416ZM248.258 73.048H260.714V75.664H248.258V73.048ZM262.778 70.912H265.994V93.136H262.778V70.912ZM271.68 72.784H285.768V75.352H271.68V72.784ZM269.64 87.88H289.728V90.472H269.64V87.88ZM276.744 80.248H279.936V89.152H276.744V80.248ZM284.616 72.784H287.808V74.92C287.808 77.704 287.808 80.824 286.92 85.576L283.728 85.216C284.616 80.8 284.616 77.584 284.616 74.92V72.784Z" fill="#467CD7"/>
<path d="M98.312 129.416H100.856V131.912C100.856 137.048 98.768 142.064 94.592 143.96L92.792 141.44C96.512 139.784 98.312 135.68 98.312 131.912V129.416ZM99.032 129.416H101.552V131.912C101.552 135.512 103.328 139.352 107.048 140.888L105.32 143.408C101.096 141.584 99.032 136.856 99.032 131.912V129.416ZM93.68 128.048H106.136V130.664H93.68V128.048ZM108.2 125.912H111.416V148.136H108.2V125.912ZM117.39 135.824H133.014V138.368H117.39V135.824ZM115.062 143.024H135.174V145.64H115.062V143.024ZM123.486 136.976H126.678V143.864H123.486V136.976ZM117.39 127.424H132.846V129.992H120.582V136.928H117.39V127.424ZM151.372 125.912H154.54V148.136H151.372V125.912ZM153.82 134.576H157.756V137.24H153.82V134.576ZM137.02 129.2H149.956V131.744H137.02V129.2ZM143.524 132.992C146.764 132.992 149.164 135.2 149.164 138.296C149.164 141.392 146.764 143.6 143.524 143.6C140.284 143.6 137.884 141.392 137.884 138.296C137.884 135.2 140.284 132.992 143.524 132.992ZM143.524 135.584C142.012 135.584 140.932 136.592 140.932 138.296C140.932 140 142.012 141.008 143.524 141.008C145.036 141.008 146.116 140 146.116 138.296C146.116 136.592 145.036 135.584 143.524 135.584ZM141.916 126.272H145.108V130.16H141.916V126.272ZM164.546 129.416H167.09V131.912C167.09 137.048 165.002 142.064 160.826 143.96L159.026 141.44C162.746 139.784 164.546 135.68 164.546 131.912V129.416ZM165.266 129.416H167.786V131.912C167.786 135.512 169.562 139.352 173.282 140.888L171.554 143.408C167.33 141.584 165.266 136.856 165.266 131.912V129.416ZM159.914 128.048H172.37V130.664H159.914V128.048ZM174.434 125.912H177.65V148.136H174.434V125.912ZM192.782 126.968C196.19 126.968 198.71 129.128 198.71 132.152C198.71 135.2 196.19 137.36 192.782 137.36C189.398 137.36 186.854 135.2 186.854 132.152C186.854 129.128 189.398 126.968 192.782 126.968ZM192.782 129.56C191.174 129.56 189.95 130.544 189.95 132.152C189.95 133.784 191.174 134.768 192.782 134.768C194.414 134.768 195.638 133.784 195.638 132.152C195.638 130.544 194.414 129.56 192.782 129.56ZM201.014 125.912H204.206V136.856H201.014V125.912ZM202.934 130.52H207.158V133.112H202.934V130.52ZM188.678 145.016H189.902C191.846 145.016 193.55 144.872 195.182 144.32L195.662 146.816C193.814 147.464 192.086 147.56 189.902 147.56H188.678V145.016ZM188.678 138.992H191.774V145.784H188.678V138.992ZM194.87 139.064H205.982V141.344H194.87V139.064ZM200.438 141.896C202.958 141.896 204.71 143.12 204.71 145.04C204.71 146.96 202.958 148.16 200.438 148.16C197.894 148.16 196.142 146.96 196.142 145.04C196.142 143.12 197.894 141.896 200.438 141.896ZM200.438 144.08C199.574 144.08 198.974 144.392 198.974 145.04C198.974 145.688 199.574 146 200.438 146C201.254 146 201.878 145.688 201.878 145.04C201.878 144.392 201.254 144.08 200.438 144.08ZM198.902 137.48H201.998V140.768H198.902V137.48ZM210.852 127.784H224.94V130.352H210.852V127.784ZM208.812 142.88H228.9V145.472H208.812V142.88ZM215.916 135.248H219.108V144.152H215.916V135.248ZM223.788 127.784H226.98V129.92C226.98 132.704 226.98 135.824 226.092 140.576L222.9 140.216C223.788 135.8 223.788 132.584 223.788 129.92V127.784ZM231.898 151.136L231.178 149.216C233.05 148.52 234.082 147.248 234.058 145.832L233.938 143.336L235.186 145.4C234.826 145.76 234.346 145.928 233.818 145.928C232.666 145.928 231.61 145.16 231.61 143.84C231.61 142.568 232.642 141.752 233.914 141.752C235.522 141.752 236.434 143.048 236.434 145.208C236.434 148.04 234.826 150.176 231.898 151.136ZM258.316 125.888H261.532V148.184H258.316V125.888ZM260.812 134.12H264.748V136.736H260.812V134.12ZM244.972 140.192H246.844C250.588 140.192 253.54 140.072 256.804 139.496L257.116 142.136C253.756 142.736 250.708 142.832 246.844 142.832H244.972V140.192ZM244.972 127.952H255.34V130.52H248.14V141.464H244.972V127.952ZM282.699 128.648H286.539V131.24H282.699V128.648ZM282.699 133.472H286.539V136.064H282.699V133.472ZM272.379 127.112C275.811 127.112 278.427 129.368 278.427 132.512C278.427 135.632 275.811 137.888 272.379 137.888C268.947 137.888 266.331 135.632 266.331 132.512C266.331 129.368 268.947 127.112 272.379 127.112ZM272.379 129.776C270.699 129.776 269.451 130.808 269.451 132.512C269.451 134.24 270.699 135.224 272.379 135.224C274.059 135.224 275.307 134.24 275.307 132.512C275.307 130.808 274.059 129.776 272.379 129.776ZM280.491 125.912H283.683V138.872H280.491V125.912ZM276.435 139.352C281.019 139.352 283.947 141.008 283.947 143.744C283.947 146.504 281.019 148.136 276.435 148.136C271.827 148.136 268.899 146.504 268.899 143.744C268.899 141.008 271.827 139.352 276.435 139.352ZM276.435 141.872C273.603 141.872 272.067 142.472 272.067 143.744C272.067 145.04 273.603 145.64 276.435 145.64C279.267 145.64 280.779 145.04 280.779 143.744C280.779 142.472 279.267 141.872 276.435 141.872ZM302.569 125.936H305.761V142.544H302.569V125.936ZM304.849 132.704H308.713V135.32H304.849V132.704ZM288.265 128.24H301.345V130.736H288.265V128.24ZM294.817 131.528C298.009 131.528 300.265 133.28 300.265 135.824C300.265 138.368 298.009 140.096 294.817 140.096C291.601 140.096 289.345 138.368 289.345 135.824C289.345 133.28 291.601 131.528 294.817 131.528ZM294.817 133.952C293.401 133.952 292.417 134.624 292.417 135.824C292.417 137.024 293.401 137.672 294.817 137.672C296.233 137.672 297.217 137.024 297.217 135.824C297.217 134.624 296.233 133.952 294.817 133.952ZM293.209 125.888H296.401V129.464H293.209V125.888ZM291.433 145.208H306.553V147.752H291.433V145.208ZM291.433 141.296H294.625V146.312H291.433V141.296ZM324.156 126.56H326.964V127.592C326.964 131.864 323.604 135.488 317.772 136.352L316.524 133.784C321.636 133.112 324.156 130.208 324.156 127.592V126.56ZM324.756 126.56H327.54V127.592C327.54 130.184 330.084 133.112 335.172 133.784L333.948 136.352C328.116 135.488 324.756 131.864 324.756 127.592V126.56ZM324.18 140H327.348V148.136H324.18V140ZM315.804 137.984H335.892V140.576H315.804V137.984ZM353.266 125.912H356.458V139.328H353.266V125.912ZM350.482 132.416H354.562V135.008H350.482V132.416ZM341.65 140.264H356.458V147.896H341.65V140.264ZM353.338 142.784H344.794V145.376H353.338V142.784ZM337.93 127.832H350.914V130.352H337.93V127.832ZM344.434 131.072C347.53 131.072 349.738 132.728 349.738 135.08C349.738 137.456 347.53 139.064 344.434 139.064C341.338 139.064 339.106 137.456 339.106 135.08C339.106 132.728 341.338 131.072 344.434 131.072ZM344.434 133.448C343.066 133.448 342.154 134 342.154 135.08C342.154 136.16 343.066 136.736 344.434 136.736C345.778 136.736 346.69 136.16 346.69 135.08C346.69 134 345.778 133.448 344.434 133.448ZM342.826 125.72H346.018V129.632H342.826V125.72ZM364.929 129.416H367.449V131.912C367.449 136.928 365.337 142.04 361.257 143.96L359.457 141.44C363.129 139.712 364.929 135.56 364.929 131.912V129.416ZM365.601 129.416H368.121V131.912C368.121 135.272 369.849 139.208 373.497 140.888L371.745 143.408C367.665 141.512 365.601 136.64 365.601 131.912V129.416ZM360.321 128.048H372.513V130.664H360.321V128.048ZM374.145 125.912H377.361V148.136H374.145V125.912ZM376.641 134.384H380.577V137.024H376.641V134.384ZM387.127 138.872H390.247V144.104H387.127V138.872ZM394.159 138.848H397.279V144.104H394.159V138.848ZM382.039 143.096H402.151V145.688H382.039V143.096ZM384.295 127.352H399.895V134.72H387.511V138.488H384.343V132.224H396.727V129.872H384.295V127.352ZM384.343 137.144H400.399V139.712H384.343V137.144ZM411.245 127.376C414.749 127.376 417.365 129.656 417.365 132.848C417.365 136.064 414.749 138.344 411.245 138.344C407.765 138.344 405.101 136.064 405.101 132.848C405.101 129.656 407.765 127.376 411.245 127.376ZM411.245 130.112C409.541 130.112 408.245 131.12 408.245 132.848C408.245 134.6 409.541 135.608 411.245 135.608C412.949 135.608 414.245 134.6 414.245 132.848C414.245 131.12 412.949 130.112 411.245 130.112ZM419.453 125.888H422.645V148.184H419.453V125.888ZM404.573 143.672L404.189 141.104C408.101 141.104 413.549 141.056 418.229 140.36L418.469 142.664C413.645 143.624 408.413 143.672 404.573 143.672Z" fill="#467CD7"/>
<path d="M210.12 182.256C213.048 182.256 215.208 184.488 215.208 187.704C215.208 190.896 213.048 193.104 210.12 193.104C207.168 193.104 205.032 190.896 205.032 187.704C205.032 184.488 207.168 182.256 210.12 182.256ZM210.12 184.944C208.824 184.944 207.912 185.952 207.912 187.704C207.912 189.432 208.824 190.464 210.12 190.464C211.392 190.464 212.328 189.432 212.328 187.704C212.328 185.952 211.392 184.944 210.12 184.944ZM220.872 180.936H223.896V194.184H220.872V180.936ZM218.208 186.288H221.736V188.88H218.208V186.288ZM216.216 181.32H219.192V194.088H216.216V181.32ZM208.632 195.168H223.896V203.136H220.728V197.712H208.632V195.168ZM242.35 180.912H245.566V203.136H242.35V180.912ZM235.798 183.216H238.966C238.966 190.008 236.662 195.576 228.766 199.392L227.11 196.848C233.494 193.776 235.798 189.744 235.798 183.792V183.216ZM228.286 183.216H237.31V185.736H228.286V183.216ZM257.372 182.184H260.156V183.792C260.156 188.616 256.724 192.888 250.964 194.016L249.596 191.376C254.612 190.512 257.372 186.984 257.372 183.792V182.184ZM258.02 182.184H260.78V183.792C260.78 187.056 263.516 190.512 268.556 191.376L267.188 194.016C261.428 192.888 258.02 188.688 258.02 183.792V182.184ZM249.14 197.832H269.252V200.424H249.14V197.832ZM271.194 190.872H291.33V193.2H271.194V190.872ZM273.45 194.304H288.93V199.584H276.666V201.48H273.498V197.568H285.786V196.464H273.45V194.304ZM273.498 200.808H289.554V202.968H273.498V200.808ZM273.666 181.296H288.882V186.528H276.858V188.352H273.69V184.536H285.738V183.432H273.666V181.296ZM273.69 187.68H289.29V189.84H273.69V187.68ZM314.766 180.912H317.79V203.136H314.766V180.912ZM307.446 188.496H311.118V191.088H307.446V188.496ZM310.278 181.272H313.254V202.128H310.278V181.272ZM302.646 184.536H305.046V186.816C305.046 191.808 303.678 196.776 300.15 198.984L298.254 196.632C301.518 194.592 302.646 190.608 302.646 186.816V184.536ZM303.366 184.536H305.742V186.816C305.742 190.512 306.846 194.256 310.062 196.128L308.19 198.456C304.662 196.368 303.366 191.712 303.366 186.816V184.536ZM299.094 183.144H309.006V185.712H299.094V183.144ZM330.724 194.736C335.524 194.736 338.596 196.32 338.596 198.96C338.596 201.552 335.524 203.136 330.724 203.136C325.924 203.136 322.852 201.552 322.852 198.96C322.852 196.32 325.924 194.736 330.724 194.736ZM330.724 197.136C327.724 197.136 326.02 197.76 326.02 198.96C326.02 200.136 327.724 200.736 330.724 200.736C333.724 200.736 335.428 200.136 335.428 198.96C335.428 197.76 333.724 197.136 330.724 197.136ZM323.092 181.896H337.156V184.416H323.092V181.896ZM320.836 190.824H340.852V193.368H320.836V190.824ZM328.252 186.96H331.42V191.472H328.252V186.96ZM335.308 181.896H338.476V183.72C338.476 185.472 338.476 187.368 337.876 189.672L334.708 189.336C335.308 187.056 335.308 185.448 335.308 183.72V181.896ZM342.842 184.248H353.474V186.792H342.842V184.248ZM348.194 187.776C351.026 187.776 353.066 189.96 353.066 193.08C353.066 196.176 351.026 198.36 348.194 198.36C345.386 198.36 343.322 196.176 343.322 193.08C343.322 189.96 345.386 187.776 348.194 187.776ZM348.194 190.44C346.994 190.44 346.154 191.4 346.154 193.08C346.154 194.76 346.994 195.696 348.194 195.696C349.394 195.696 350.258 194.76 350.258 193.08C350.258 191.4 349.394 190.44 348.194 190.44ZM358.922 180.912H361.97V203.136H358.922V180.912ZM356.258 189.936H359.93V192.504H356.258V189.936ZM354.266 181.32H357.242V202.2H354.266V181.32ZM346.634 181.512H349.778V185.856H346.634V181.512ZM378.614 183.384H381.374V184.032C381.374 187.944 378.182 191.136 372.542 191.904L371.366 189.408C376.262 188.808 378.614 186.312 378.614 184.032V183.384ZM379.526 183.384H382.286V184.032C382.286 186.312 384.638 188.808 389.534 189.408L388.382 191.904C382.718 191.136 379.526 187.944 379.526 184.032V183.384ZM378.782 195H381.95V203.16H378.782V195ZM370.406 193.176H390.494V195.72H370.406V193.176ZM372.182 182.04H388.67V184.56H372.182V182.04ZM394.956 186.912H410.364V189.432H394.956V186.912ZM392.46 191.736H412.596V194.28H392.46V191.736ZM394.956 181.704H398.124V188.16H394.956V181.704ZM394.74 200.112H410.484V202.656H394.74V200.112ZM394.74 196.056H397.932V200.784H394.74V196.056ZM431.328 185.64H436.488V188.208H431.328V185.64ZM425.064 182.28H427.632V184.68C427.632 189.216 425.736 193.08 421.536 194.616L419.856 192.12C423.528 190.896 425.064 187.824 425.064 184.68V182.28ZM425.76 182.28H428.304V184.704C428.304 187.56 429.768 190.416 433.272 191.616L431.568 194.064C427.584 192.624 425.76 188.904 425.76 184.704V182.28ZM435.384 180.936H438.576V197.328H435.384V180.936ZM423.864 200.208H439.056V202.752H423.864V200.208ZM423.864 195.672H427.08V201.624H423.864V195.672ZM446.062 182.256H448.558V184.824C448.558 188.592 447.046 192.36 443.422 193.896L441.742 191.424C444.838 190.056 446.062 187.32 446.062 184.824V182.256ZM446.638 182.256H449.134V184.824C449.134 187.2 450.334 189.6 453.262 190.752L451.558 193.176C448.102 191.808 446.638 188.448 446.638 184.824V182.256ZM457.966 180.936H460.99V194.496H457.966V180.936ZM455.302 186.312H458.83V188.88H455.302V186.312ZM453.262 181.344H456.238V193.8H453.262V181.344ZM453.454 194.808C458.11 194.808 461.11 196.368 461.11 198.984C461.11 201.576 458.11 203.136 453.454 203.136C448.774 203.136 445.822 201.576 445.822 198.984C445.822 196.368 448.774 194.808 453.454 194.808ZM453.454 197.208C450.598 197.208 448.99 197.808 448.99 198.984C448.99 200.16 450.598 200.736 453.454 200.736C456.31 200.736 457.894 200.16 457.894 198.984C457.894 197.808 456.31 197.208 453.454 197.208ZM479.396 180.912H482.612V193.368H479.396V180.912ZM465.404 182.184H468.572V191.352H465.404V182.184ZM465.404 189.672H467.324C471.188 189.672 474.332 189.456 477.596 188.76L477.98 191.328C474.596 192.072 471.308 192.312 467.324 192.312H465.404V189.672ZM467.828 194.304H482.612V202.896H467.828V194.304ZM479.468 196.8H470.948V200.376H479.468V196.8ZM488.538 194.952L488.01 186.096L487.914 182.76H491.442L491.346 186.096L490.842 194.952H488.538ZM489.666 201.336C488.418 201.336 487.482 200.352 487.482 199.032C487.482 197.712 488.418 196.752 489.666 196.752C490.938 196.752 491.874 197.712 491.874 199.032C491.874 200.352 490.938 201.336 489.666 201.336Z" fill="#467CD7"/>
</svg>
