<svg width="546" height="275" viewBox="0 0 546 275" fill="none" xmlns="http://www.w3.org/2000/svg">
<rect width="546" height="275" fill="#F3F3F3"/>
<path d="M142.336 98.56H145.144V99.592C145.144 103.864 141.784 107.488 135.952 108.352L134.704 105.784C139.816 105.112 142.336 102.208 142.336 99.592V98.56ZM142.936 98.56H145.72V99.592C145.72 102.184 148.264 105.112 153.352 105.784L152.128 108.352C146.296 107.488 142.936 103.864 142.936 99.592V98.56ZM142.36 112H145.528V120.136H142.36V112ZM133.984 109.984H154.072V112.576H133.984V109.984ZM158.582 103.432H173.918V105.976H158.582V103.432ZM158.582 98.272H161.75V104.584H158.582V98.272ZM156.062 107.872H176.174V110.416H156.062V107.872ZM166.046 111.832C170.846 111.832 173.75 113.32 173.75 115.96C173.75 118.576 170.846 120.088 166.046 120.088C161.246 120.088 158.318 118.576 158.318 115.96C158.318 113.32 161.246 111.832 166.046 111.832ZM166.046 114.28C163.07 114.28 161.558 114.808 161.558 115.96C161.558 117.088 163.07 117.64 166.046 117.64C169.022 117.64 170.534 117.088 170.534 115.96C170.534 114.808 169.022 114.28 166.046 114.28ZM178.116 108.88H198.228V111.424H178.116V108.88ZM186.828 110.488H190.044V115.168H186.828V110.488ZM180.588 98.848H195.684V107.104H180.588V98.848ZM192.54 101.344H183.708V104.608H192.54V101.344ZM180.444 117.208H196.02V119.752H180.444V117.208ZM180.444 113.296H183.612V118.048H180.444V113.296ZM216.25 97.912H219.274V120.136H216.25V97.912ZM208.93 105.496H212.602V108.088H208.93V105.496ZM211.762 98.272H214.738V119.128H211.762V98.272ZM204.13 101.536H206.53V103.816C206.53 108.808 205.162 113.776 201.634 115.984L199.738 113.632C203.002 111.592 204.13 107.608 204.13 103.816V101.536ZM204.85 101.536H207.226V103.816C207.226 107.512 208.33 111.256 211.546 113.128L209.674 115.456C206.146 113.368 204.85 108.712 204.85 103.816V101.536ZM200.578 100.144H210.49V102.712H200.578V100.144ZM229.425 99.376C232.929 99.376 235.545 101.656 235.545 104.848C235.545 108.064 232.929 110.344 229.425 110.344C225.945 110.344 223.281 108.064 223.281 104.848C223.281 101.656 225.945 99.376 229.425 99.376ZM229.425 102.112C227.721 102.112 226.425 103.12 226.425 104.848C226.425 106.6 227.721 107.608 229.425 107.608C231.129 107.608 232.425 106.6 232.425 104.848C232.425 103.12 231.129 102.112 229.425 102.112ZM237.633 97.888H240.825V120.184H237.633V97.888ZM222.753 115.672L222.369 113.104C226.281 113.104 231.729 113.056 236.409 112.36L236.649 114.664C231.825 115.624 226.593 115.672 222.753 115.672ZM258.236 109.216H261.428V112.432H258.236V109.216ZM249.836 107.344H269.852V109.672H249.836V107.344ZM258.236 97.888H261.404V100.576H258.236V97.888ZM258.044 100.72H260.852V101.152C260.852 104.344 257.612 106.456 251.468 106.792L250.58 104.416C256.004 104.2 258.044 102.688 258.044 101.152V100.72ZM258.788 100.72H261.596V101.152C261.596 102.688 263.636 104.2 269.036 104.416L268.148 106.792C262.028 106.456 258.788 104.344 258.788 101.152V100.72ZM251.708 99.64H267.956V101.968H251.708V99.64ZM252.092 111.016H267.452V116.512H255.26V118.624H252.116V114.376H264.308V113.32H252.092V111.016ZM252.116 117.664H268.028V119.992H252.116V117.664ZM287.922 97.912H290.946V120.136H287.922V97.912ZM280.602 105.496H284.274V108.088H280.602V105.496ZM283.434 98.272H286.41V119.128H283.434V98.272ZM275.802 101.536H278.202V103.816C278.202 108.808 276.834 113.776 273.306 115.984L271.41 113.632C274.674 111.592 275.802 107.608 275.802 103.816V101.536ZM276.522 101.536H278.898V103.816C278.898 107.512 280.002 111.256 283.218 113.128L281.346 115.456C277.818 113.368 276.522 108.712 276.522 103.816V101.536ZM272.25 100.144H282.162V102.712H272.25V100.144ZM301.096 99.376C304.6 99.376 307.216 101.656 307.216 104.848C307.216 108.064 304.6 110.344 301.096 110.344C297.616 110.344 294.952 108.064 294.952 104.848C294.952 101.656 297.616 99.376 301.096 99.376ZM301.096 102.112C299.392 102.112 298.096 103.12 298.096 104.848C298.096 106.6 299.392 107.608 301.096 107.608C302.8 107.608 304.096 106.6 304.096 104.848C304.096 103.12 302.8 102.112 301.096 102.112ZM309.304 97.888H312.496V120.184H309.304V97.888ZM294.424 115.672L294.04 113.104C297.952 113.104 303.4 113.056 308.08 112.36L308.32 114.664C303.496 115.624 298.264 115.672 294.424 115.672ZM318.375 107.824H333.999V110.368H318.375V107.824ZM316.047 115.024H336.159V117.64H316.047V115.024ZM324.471 108.976H327.663V115.864H324.471V108.976ZM318.375 99.424H333.831V101.992H321.567V108.928H318.375V99.424ZM338.101 107.872H358.237V110.2H338.101V107.872ZM340.357 111.304H355.837V116.584H343.573V118.48H340.405V114.568H352.693V113.464H340.357V111.304ZM340.405 117.808H356.461V119.968H340.405V117.808ZM340.573 98.296H355.789V103.528H343.765V105.352H340.597V101.536H352.645V100.432H340.573V98.296ZM340.597 104.68H356.197V106.84H340.597V104.68Z" fill="#467CD7"/>
<path d="M244.376 152.912H247.4V175.136H244.376V152.912ZM239.96 153.272H242.96V174.104H239.96V153.272ZM236.48 166.544H240.944V169.016H236.48V166.544ZM231.992 164.552H234.992V173.432H231.992V164.552ZM227.84 165.416L227.528 162.896C230.624 162.896 235.472 162.824 239.096 162.32L239.312 164.528C235.592 165.272 230.912 165.416 227.84 165.416ZM228.464 155.072H231.872V157.592H228.464V155.072ZM230.384 155.072H233.192V156.536C233.192 158.264 233.192 160.592 232.328 163.616L229.568 163.088C230.384 160.16 230.384 158.192 230.384 156.536V155.072ZM233.864 155.072H237.224V157.592H233.864V155.072ZM235.544 155.072H238.352V156.584C238.352 158.336 238.352 160.64 237.536 163.592L234.776 163.064C235.544 160.208 235.544 158.264 235.544 156.584V155.072ZM250.038 161.408H270.126V163.928H250.038V161.408ZM258.39 162.584H261.582V166.016H258.39V162.584ZM260.718 157.904H268.374V160.352H260.718V157.904ZM260.718 153.584H268.278V156.056H263.91V158.84H260.718V153.584ZM251.91 153.584H259.542V156.056H255.102V158.84H251.91V153.584ZM251.91 157.904H253.278C255.822 157.904 257.622 157.832 259.734 157.4L260.022 159.872C257.814 160.28 255.894 160.352 253.278 160.352H251.91V157.904ZM251.79 165.704H259.182V171.32H254.862V173.408H251.838V169.16H256.158V168.008H251.79V165.704ZM251.838 172.568H253.206C256.782 172.568 258.198 172.568 259.926 172.232L260.238 174.536C258.39 174.896 256.926 174.896 253.206 174.896H251.838V172.568ZM259.854 166.736H269.406V168.968H259.854V166.736ZM264.606 169.376C266.934 169.376 268.566 170.456 268.566 172.28C268.566 174.032 266.934 175.136 264.606 175.136C262.302 175.136 260.67 174.032 260.67 172.28C260.67 170.456 262.302 169.376 264.606 169.376ZM264.606 171.44C263.886 171.44 263.358 171.704 263.358 172.28C263.358 172.832 263.886 173.096 264.606 173.096C265.326 173.096 265.854 172.832 265.854 172.28C265.854 171.704 265.326 171.44 264.606 171.44ZM263.07 165.08H266.142V168.296H263.07V165.08ZM274.18 154.784H288.268V157.352H274.18V154.784ZM272.14 169.88H292.228V172.472H272.14V169.88ZM279.244 162.248H282.436V171.152H279.244V162.248ZM287.116 154.784H290.308V156.92C290.308 159.704 290.308 162.824 289.42 167.576L286.228 167.216C287.116 162.8 287.116 159.584 287.116 156.92V154.784ZM304.624 166.4H307.024V167.144C307.024 170.504 305.536 173.576 302.056 174.824L300.496 172.496C303.4 171.512 304.624 169.304 304.624 167.144V166.4ZM305.44 166.4H307.72V167.144C307.72 169.304 308.8 171.56 311.512 172.688L310.24 175.04C306.712 173.72 305.44 170.408 305.44 167.144V166.4ZM312.736 166.4H315.016V167.144C315.016 170.216 313.696 173.672 310.24 175.04L308.92 172.688C311.632 171.464 312.736 169.112 312.736 167.144V166.4ZM313.48 166.4H315.88V167.144C315.88 169.448 317.08 171.584 320.008 172.496L318.448 174.824C314.92 173.624 313.48 170.648 313.48 167.144V166.4ZM314.896 152.936H318.112V165.488H314.896V152.936ZM306.016 154.064C309.472 154.064 312.04 156.272 312.04 159.392C312.04 162.488 309.472 164.696 306.016 164.696C302.56 164.696 299.968 162.488 299.968 159.392C299.968 156.272 302.56 154.064 306.016 154.064ZM306.016 156.704C304.336 156.704 303.088 157.688 303.088 159.392C303.088 161.072 304.336 162.056 306.016 162.056C307.696 162.056 308.92 161.072 308.92 159.392C308.92 157.688 307.696 156.704 306.016 156.704ZM324.206 158.912H339.614V161.432H324.206V158.912ZM321.71 163.736H341.846V166.28H321.71V163.736ZM324.206 153.704H327.374V160.16H324.206V153.704ZM323.99 172.112H339.734V174.656H323.99V172.112ZM323.99 168.056H327.182V172.784H323.99V168.056ZM360.578 157.64H365.738V160.208H360.578V157.64ZM354.314 154.28H356.882V156.68C356.882 161.216 354.986 165.08 350.786 166.616L349.106 164.12C352.778 162.896 354.314 159.824 354.314 156.68V154.28ZM355.01 154.28H357.554V156.704C357.554 159.56 359.018 162.416 362.522 163.616L360.818 166.064C356.834 164.624 355.01 160.904 355.01 156.704V154.28ZM364.634 152.936H367.826V169.328H364.634V152.936ZM353.114 172.208H368.306V174.752H353.114V172.208ZM353.114 167.672H356.33V173.624H353.114V167.672ZM375.312 154.256H377.808V156.824C377.808 160.592 376.296 164.36 372.672 165.896L370.992 163.424C374.088 162.056 375.312 159.32 375.312 156.824V154.256ZM375.888 154.256H378.384V156.824C378.384 159.2 379.584 161.6 382.512 162.752L380.808 165.176C377.352 163.808 375.888 160.448 375.888 156.824V154.256ZM387.216 152.936H390.24V166.496H387.216V152.936ZM384.552 158.312H388.08V160.88H384.552V158.312ZM382.512 153.344H385.488V165.8H382.512V153.344ZM382.704 166.808C387.36 166.808 390.36 168.368 390.36 170.984C390.36 173.576 387.36 175.136 382.704 175.136C378.024 175.136 375.072 173.576 375.072 170.984C375.072 168.368 378.024 166.808 382.704 166.808ZM382.704 169.208C379.848 169.208 378.24 169.808 378.24 170.984C378.24 172.16 379.848 172.736 382.704 172.736C385.56 172.736 387.144 172.16 387.144 170.984C387.144 169.808 385.56 169.208 382.704 169.208ZM408.646 152.912H411.862V165.368H408.646V152.912ZM394.654 154.184H397.822V163.352H394.654V154.184ZM394.654 161.672H396.574C400.438 161.672 403.582 161.456 406.846 160.76L407.23 163.328C403.846 164.072 400.558 164.312 396.574 164.312H394.654V161.672ZM397.078 166.304H411.862V174.896H397.078V166.304ZM408.718 168.8H400.198V172.376H408.718V168.8ZM417.788 166.952L417.26 158.096L417.164 154.76H420.692L420.596 158.096L420.092 166.952H417.788ZM418.916 173.336C417.668 173.336 416.732 172.352 416.732 171.032C416.732 169.712 417.668 168.752 418.916 168.752C420.188 168.752 421.124 169.712 421.124 171.032C421.124 172.352 420.188 173.336 418.916 173.336Z" fill="#467CD7"/>
</svg>
