<svg width="23" height="22" viewBox="0 0 23 22" fill="none" xmlns="http://www.w3.org/2000/svg">
<ellipse cx="11.5" cy="11" rx="11.5" ry="11" fill="#E7791C"/>
<path d="M11.272 17.224C9.432 17.224 8.232 16.488 7.432 15.592L8.344 14.408C9.032 15.112 9.896 15.704 11.128 15.704C12.44 15.704 13.352 14.968 13.352 13.752C13.352 12.44 12.52 11.608 9.88 11.608V10.232C12.184 10.232 12.952 9.368 12.952 8.184C12.952 7.144 12.28 6.488 11.144 6.488C10.248 6.488 9.48 6.92 8.808 7.592L7.832 6.424C8.776 5.592 9.864 5.016 11.224 5.016C13.336 5.016 14.824 6.104 14.824 8.04C14.824 9.4 14.04 10.344 12.792 10.808V10.888C14.152 11.24 15.224 12.248 15.224 13.848C15.224 15.976 13.448 17.224 11.272 17.224Z" fill="white"/>
</svg>
