<svg width="23" height="23" viewBox="0 0 23 23" fill="none" xmlns="http://www.w3.org/2000/svg">
<path fill-rule="evenodd" clip-rule="evenodd" d="M6.84544 1.49311C6.51081 1.3274 6.11962 1.31997 5.77894 1.47284C3.94099 2.29762 2.47109 3.7675 1.64629 5.60485C1.58485 5.74172 1.54855 5.88852 1.53913 6.03824C1.2803 10.1501 2.80084 14.1744 5.71452 17.0882C8.62724 20.0015 12.6522 21.522 16.7634 21.2638C16.9341 21.253 17.0951 21.2084 17.2398 21.1366C19.0562 20.3085 20.5111 18.8473 21.3291 17.023C21.4818 16.6825 21.4743 16.2915 21.3087 15.957C20.3141 13.9478 18.5182 12.4514 16.3624 11.8358C15.8686 11.6948 15.3388 11.8701 15.0267 12.2778C14.5817 12.859 14.0765 13.3877 13.5182 13.8548C11.0864 13.6546 9.14774 11.716 8.94755 9.28362C9.41515 8.72454 9.94366 8.2186 10.5232 7.77612C10.9318 7.46412 11.1077 6.93373 10.9665 6.43936C10.3509 4.28345 8.85384 2.4877 6.84544 1.49311Z" fill="#163B7B"/>
</svg>
