<svg width="90" height="82" viewBox="0 0 90 82" fill="none" xmlns="http://www.w3.org/2000/svg">
<g clip-path="url(#clip0_10_3402)">
<path d="M55.8021 72.6754C56.7195 72.73 57.2823 72.5271 58.0364 72.0822C59.2285 71.378 60.4136 71.2617 61.6763 70.7454C63.076 70.1723 64.4688 69.5032 66.0042 69.2485C67.1831 69.0529 68.6002 68.3894 69.727 68.3136C70.7535 68.2441 70.7393 66.7422 69.6997 66.8124C68.4802 66.8942 67.5417 67.4606 66.3596 67.6936C65.2629 67.9105 64.2802 68.0896 63.2024 68.4636C61.9714 68.8916 60.8572 69.474 59.5768 69.7593C58.4574 70.0088 56.8298 71.2373 55.7749 71.1742C54.7298 71.1121 54.7558 72.6129 55.8021 72.6754Z" fill="#467CD7"/>
<path d="M68.8275 68.1088C69.8795 68.3414 70.3657 68.1714 71.3497 67.8242C73.2268 67.1604 75.0912 66.4956 77.01 65.9248C78.4932 65.4844 79.9887 64.9954 81.5065 64.6514C82.7606 64.3675 84.1214 64.4376 85.1804 63.7381C86.0027 63.1959 85.185 61.8618 84.3547 62.4104C83.5272 62.9566 82.0356 62.9579 81.0619 63.1891C79.7017 63.5119 78.3592 63.9376 77.0238 64.3287C75.8021 64.6823 74.5897 65.0598 73.3873 65.4608C72.2911 65.8302 70.3325 66.9175 69.2331 66.6747C68.2108 66.448 67.7981 67.8807 68.8275 68.1088Z" fill="#467CD7"/>
<path d="M85.6632 63.0241C85.5797 61.9047 84.5392 61.7906 83.5079 61.4629C80.2839 60.4386 77.0351 59.483 73.7933 58.5144C67.3084 56.577 60.8061 54.699 54.2891 52.8708C53.4091 52.6236 52.8718 53.7684 53.6825 54.2203C55.4759 55.2197 56.1424 56.3049 57.3261 57.8687C57.9971 58.755 58.9627 59.3777 59.6606 60.2604C61.0709 62.0415 62.5008 63.8095 63.9503 65.5643C65.6044 67.5695 67.5076 69.2751 69.0399 71.423C69.6631 72.2959 70.3138 73.187 71.1024 73.9455C72.0819 74.8873 73.7675 75.5757 74.3906 76.7663C74.7658 77.483 75.899 77.1463 75.9021 76.4398C75.9071 75.3633 75.7648 75.1863 75.4589 74.1305C75.0502 72.7241 75.0016 71.4355 74.9223 69.9909C74.7803 67.38 74.7103 64.8558 74.9167 62.2622C75.1353 59.5196 74.4557 57.333 74.1987 54.6408C73.9812 52.3623 74.4047 50.268 73.6238 48.0237C73.4465 47.5134 72.684 47.2133 72.2653 47.6402C71.1519 48.7753 70.6784 50.1637 69.8021 51.4482C68.6916 53.076 67.0922 54.3565 65.8858 55.9176C63.3796 59.1609 61.4311 62.8931 59.0871 66.2597C58.0763 67.7125 56.072 69.6114 55.6009 71.268C55.4365 71.8454 55.3004 72.3156 55.7294 72.8703C56.7247 74.1579 58.1585 73.2328 58.4429 72.1101C58.5051 71.8656 58.4432 71.565 58.2277 71.3803C57.4076 70.6755 57.3002 70.6421 56.2115 70.8042C55.1888 70.9566 55.6354 72.4188 56.656 72.2665C57.561 72.1318 59.0576 69.1362 59.5457 68.4352L61.4473 65.7039C62.8097 63.7469 64.1654 61.7993 65.3686 59.7491C66.6443 57.5745 68.1605 55.8283 69.839 53.9309C71.2513 52.3337 71.9446 50.2511 73.4195 48.7472L72.061 48.3636C72.8913 50.7507 72.3096 53.1021 72.6847 55.5179C73.0781 58.0517 73.4666 60.1839 73.2405 62.7367C73.0439 64.9732 73.1477 67.1805 73.2703 69.4315C73.335 70.6175 73.3157 71.8336 73.4655 73.0163C73.5845 73.9544 74.2805 75.7509 74.2774 76.3924L75.7895 76.0661C75.3569 75.2402 74.8402 74.8732 74.0765 74.3008C72.438 73.0725 71.3585 71.999 70.1852 70.3625C69.4607 69.3527 68.8044 68.2989 67.9847 67.347C66.9897 66.1908 65.6919 65.3369 64.8152 64.0964C63.4422 62.1539 61.7961 60.356 60.1963 58.5626C58.2455 56.3759 57.2336 54.4833 54.4909 52.955L53.8841 54.3051C61.4202 56.4155 68.9349 58.6012 76.427 60.8618C76.9843 61.0297 84.0407 63.0027 84.0385 62.9767C84.11 63.9385 85.7353 63.9935 85.6632 63.0241Z" fill="#467CD7"/>
</g>
<g clip-path="url(#clip1_10_3402)">
<path d="M25.1522 58.8648C26.5066 58.164 27.1368 57.3971 27.8342 56.1226C28.9362 54.1068 30.5272 52.935 31.8893 51.1271C33.3985 49.122 34.8164 46.9858 36.7893 45.3194C38.3042 44.0399 39.7614 41.8911 41.3036 40.8266C42.7082 39.8562 41.4132 37.727 39.9905 38.7093C38.3212 39.8612 37.4638 41.4652 35.9763 42.8009C34.5968 44.041 33.3477 45.1304 32.1284 46.5785C30.7366 48.2336 29.6423 50.0097 28.0589 51.5032C26.6746 52.8091 25.3968 55.9421 23.8391 56.7476C22.2964 57.546 23.6074 59.6638 25.1522 58.8648Z" fill="#467CD7"/>
<path d="M39.8473 41.2979C41.5445 40.7366 42.0935 40.0816 43.2017 38.7514C45.3146 36.2118 47.4086 33.6814 49.6599 31.2389C51.4007 29.352 53.1179 27.3854 54.9899 25.6068C56.5371 24.1374 58.5367 23.0824 59.4528 21.1861C60.165 19.7151 57.8667 18.5071 57.1487 19.9939C56.4325 21.4751 54.3068 22.7431 53.1149 23.8992C51.4494 25.514 49.8967 27.2603 48.3247 28.9514C46.883 30.4926 45.4747 32.0599 44.1008 33.6521C42.8514 35.1093 40.9818 38.3221 39.2082 38.9089C37.5582 39.4535 38.1859 41.8465 39.8473 41.2979Z" fill="#467CD7"/>
<path d="M59.5354 19.7585C58.4663 18.2333 56.8858 18.9538 55.1374 19.3619C49.6713 20.6381 44.228 22.0331 38.7839 23.4038C27.8935 26.1457 17.0287 28.9873 6.18509 31.9123C4.72056 32.3067 4.92631 34.395 6.4657 34.3512C9.87101 34.2539 11.7424 35.2354 14.7573 36.4604C16.4664 37.1545 18.3716 37.2226 20.1159 37.8889C23.6384 39.2312 27.1779 40.5383 30.7339 41.81C34.7943 43.2648 38.9555 44.0813 42.9634 45.8431C44.5928 46.5586 46.2769 47.2769 48.0452 47.6889C50.241 48.2004 53.2285 47.7512 55.1276 48.9198C56.2708 49.6232 57.6007 48.1813 57.0055 47.1713C56.0989 45.6323 55.7457 45.5006 54.4134 44.2549C52.637 42.5967 51.474 40.8007 50.1348 38.8082C47.7162 35.2063 45.4739 31.6667 43.5667 27.7936C41.5505 23.6978 38.7255 21.1572 36.074 17.5368C33.83 14.4728 32.6561 11.1273 29.6378 8.5903C28.9519 8.01319 27.61 8.23245 27.3753 9.19655C26.7514 11.7601 27.2547 14.1414 27.0956 16.7166C26.894 19.9802 25.7005 23.1633 25.3054 26.4131C24.4851 33.1646 24.8748 40.1397 24.3904 46.9292C24.1824 49.8585 22.9364 54.2672 23.6709 57.0291C23.9266 57.9918 24.1315 58.7777 25.2141 59.2045C27.726 60.1955 28.9851 57.6594 28.4376 55.8173C28.3189 55.416 27.9755 55.04 27.5114 54.9595C25.7439 54.6507 25.5623 54.6942 24.1478 55.8495C22.8189 56.9347 24.6968 58.6405 26.0228 57.5571C27.1987 56.5968 26.7899 51.0554 26.8907 49.6418L27.2838 44.1334C27.5652 40.1869 27.8449 36.2593 27.8202 32.315C27.7933 28.1316 28.4729 24.355 29.2555 20.2251C29.9134 16.7491 29.1342 13.1913 29.9607 9.79518L27.6981 10.4014C30.908 13.1001 32.0745 16.9463 34.6598 20.0724C37.3714 23.3511 39.7352 26.0614 41.5796 29.8929C43.1976 33.2485 45.2191 36.3076 47.3046 39.413C48.4034 41.049 49.4082 42.7992 50.6257 44.3584C51.5916 45.5947 54.1088 47.5655 54.6489 48.4827L56.5278 46.734C55.2099 45.9237 54.1617 45.839 52.587 45.6711C49.2084 45.3106 46.7581 44.6963 43.6962 43.3589C41.8061 42.5341 39.9758 41.5887 37.9992 40.9273C35.5992 40.1234 33.0241 40.0074 30.7211 38.9829C27.1148 37.3787 23.2418 36.2126 19.4386 35.0135C14.8012 33.5515 11.7519 31.712 6.54428 31.8611L6.82515 34.301C19.3611 30.9134 31.9306 27.6512 44.5314 24.5151C45.4685 24.2814 57.2039 21.1052 57.1788 21.0699C58.0971 22.3805 60.461 21.0794 59.5354 19.7585Z" fill="#467CD7"/>
</g>
<defs>
<clipPath id="clip0_10_3402">
<rect width="34" height="31" fill="white" transform="translate(56.4229 42) rotate(15.7663)"/>
</clipPath>
<clipPath id="clip1_10_3402">
<rect width="56.4161" height="51.4382" fill="white" transform="translate(0 14.6016) rotate(-15)"/>
</clipPath>
</defs>
</svg>
