<svg width="87" height="87" viewBox="0 0 87 87" fill="none" xmlns="http://www.w3.org/2000/svg">
<path fill-rule="evenodd" clip-rule="evenodd" d="M36.25 7.25C30.2439 7.25 25.375 12.1189 25.375 18.125V18.1275C21.4642 18.1445 19.3196 18.2795 17.7221 19.3468C16.9305 19.8758 16.2508 20.5555 15.7218 21.3471C14.5 23.1757 14.5 25.7213 14.5 30.8125V65.25C14.5 72.0854 14.5 75.5031 16.6235 77.6265C18.747 79.75 22.1646 79.75 29 79.75H58C64.8354 79.75 68.253 79.75 70.3765 77.6265C72.5 75.5031 72.5 72.0854 72.5 65.25V30.8125C72.5 25.7213 72.5 23.1757 71.2782 21.3471C70.7492 20.5555 70.0695 19.8758 69.2779 19.3468C67.6804 18.2795 65.5358 18.1445 61.625 18.1275V18.125C61.625 12.1189 56.7561 7.25 50.75 7.25H36.25ZM36.25 18.125C36.25 16.123 37.873 14.5 39.875 14.5H47.125C49.127 14.5 50.75 16.123 50.75 18.125C50.75 20.127 49.127 21.75 47.125 21.75H39.875C37.873 21.75 36.25 20.127 36.25 18.125ZM32.625 39.875C30.623 39.875 29 41.498 29 43.5C29 45.502 30.623 47.125 32.625 47.125H54.375C56.377 47.125 58 45.502 58 43.5C58 41.498 56.377 39.875 54.375 39.875H32.625ZM32.625 54.375C30.623 54.375 29 55.998 29 58C29 60.002 30.623 61.625 32.625 61.625H47.125C49.127 61.625 50.75 60.002 50.75 58C50.75 55.998 49.127 54.375 47.125 54.375H32.625Z" fill="#173FB8"/>
</svg>
