<svg width="524" height="529" viewBox="0 0 524 529" fill="none" xmlns="http://www.w3.org/2000/svg">
<circle cx="17.0003" cy="17" r="11.3333" fill="#467CD7" fill-opacity="0.57"/>
<path d="M12.0417 15.5833L15.5846 19.1262C15.9751 19.5168 16.6082 19.5168 16.9988 19.1262L27.625 8.5" stroke="#222222" stroke-width="2" stroke-linecap="round"/>
<circle cx="17.0003" cy="72" r="11.3333" fill="#467CD7" fill-opacity="0.57"/>
<path d="M12.0417 70.5833L15.5846 74.1262C15.9751 74.5168 16.6082 74.5168 16.9988 74.1262L27.625 63.5" stroke="#222222" stroke-width="2" stroke-linecap="round"/>
<circle cx="17.0003" cy="127" r="11.3333" fill="#467CD7" fill-opacity="0.57"/>
<path d="M12.0417 125.583L15.5846 129.126C15.9751 129.517 16.6082 129.517 16.9988 129.126L27.625 118.5" stroke="#222222" stroke-width="2" stroke-linecap="round"/>
<circle cx="17.0003" cy="182" r="11.3333" fill="#467CD7" fill-opacity="0.57"/>
<path d="M12.0417 180.583L15.5846 184.126C15.9751 184.517 16.6082 184.517 16.9988 184.126L27.625 173.5" stroke="#222222" stroke-width="2" stroke-linecap="round"/>
<circle cx="17.0003" cy="237" r="11.3333" fill="#467CD7" fill-opacity="0.57"/>
<path d="M12.0417 235.583L15.5846 239.126C15.9751 239.517 16.6082 239.517 16.9988 239.126L27.625 228.5" stroke="#222222" stroke-width="2" stroke-linecap="round"/>
<circle cx="17.0003" cy="292" r="11.3333" fill="#467CD7" fill-opacity="0.57"/>
<path d="M12.0417 290.583L15.5846 294.126C15.9751 294.517 16.6082 294.517 16.9988 294.126L27.625 283.5" stroke="#222222" stroke-width="2" stroke-linecap="round"/>
<circle cx="17.0003" cy="347" r="11.3333" fill="#467CD7" fill-opacity="0.57"/>
<path d="M12.0417 345.583L15.5846 349.126C15.9751 349.517 16.6082 349.517 16.9988 349.126L27.625 338.5" stroke="#222222" stroke-width="2" stroke-linecap="round"/>
<circle cx="17.0003" cy="402" r="11.3333" fill="#467CD7" fill-opacity="0.57"/>
<path d="M12.0417 400.583L15.5846 404.126C15.9751 404.517 16.6082 404.517 16.9988 404.126L27.625 393.5" stroke="#222222" stroke-width="2" stroke-linecap="round"/>
<circle cx="17.0003" cy="457" r="11.3333" fill="#467CD7" fill-opacity="0.57"/>
<path d="M12.0417 455.583L15.5846 459.126C15.9751 459.517 16.6082 459.517 16.9988 459.126L27.625 448.5" stroke="#222222" stroke-width="2" stroke-linecap="round"/>
<circle cx="17.0003" cy="512" r="11.3333" fill="#467CD7" fill-opacity="0.57"/>
<path d="M12.0417 510.583L15.5846 514.126C15.9751 514.517 16.6082 514.517 16.9988 514.126L27.625 503.5" stroke="#222222" stroke-width="2" stroke-linecap="round"/>
<path d="M49.56 12.12H51.24V14.68C51.24 18.7 49.18 22.68 46.04 24.18L44.84 22.52C47.66 21.22 49.56 17.8 49.56 14.68V12.12ZM50 12.12H51.66V14.68C51.66 17.7 53.54 20.86 56.4 22.06L55.24 23.72C52.06 22.3 50 18.6 50 14.68V12.12ZM45.5 11.2H55.72V12.94H45.5V11.2ZM57.86 9.38H59.96V27.66H57.86V9.38ZM65.3784 10.28H77.0584V11.96H65.3784V10.28ZM63.3184 16.94H79.8784V18.62H63.3184V16.94ZM75.7584 10.28H77.8184V11.68C77.8184 13.24 77.8184 14.98 77.2384 17.44L75.1584 17.38C75.7584 14.94 75.7584 13.22 75.7584 11.68V10.28ZM65.2984 20.86H77.8184V27.44H65.2984V20.86ZM75.7584 22.5H67.3584V25.76H75.7584V22.5ZM93.0491 11.2H94.9091V11.7C94.9091 14.7 91.9891 17 87.8491 17.54L87.0691 15.88C90.6291 15.44 93.0491 13.62 93.0491 11.7V11.2ZM94.0091 11.2H95.8491V11.7C95.8491 13.64 98.2891 15.44 101.849 15.88L101.069 17.54C96.9291 17 94.0091 14.7 94.0091 11.7V11.2ZM87.7091 10.24H101.229V11.9H87.7091V10.24ZM86.1891 18.64H102.749V20.34H86.1891V18.64ZM93.5891 19.7H95.6691V23.76H93.5891V19.7ZM88.2091 25.6H100.909V27.3H88.2091V25.6ZM88.2091 22.08H90.2891V26.22H88.2091V22.08ZM117.548 9.36H119.648V27.68H117.548V9.36ZM105.568 10.88H107.648V15.54H112.268V10.88H114.348V23.34H105.568V10.88ZM107.648 17.18V21.64H112.268V17.18H107.648ZM122.966 12.34H131.886V14.02H122.966V12.34ZM127.446 15.06C129.746 15.06 131.406 16.82 131.406 19.32C131.406 21.82 129.746 23.56 127.446 23.56C125.166 23.56 123.486 21.82 123.486 19.32C123.486 16.82 125.166 15.06 127.446 15.06ZM127.446 16.82C126.226 16.82 125.346 17.82 125.346 19.32C125.346 20.84 126.226 21.8 127.446 21.8C128.666 21.8 129.546 20.84 129.546 19.32C129.546 17.82 128.666 16.82 127.446 16.82ZM136.566 9.38H138.566V27.66H136.566V9.38ZM133.966 16.96H137.226V18.66H133.966V16.96ZM132.686 9.76H134.646V26.82H132.686V9.76ZM126.426 9.9H128.486V13.38H126.426V9.9ZM143.424 17.74H156.104V19.44H143.424V17.74ZM141.404 23.74H157.964V25.48H141.404V23.74ZM148.604 18.5H150.684V24.36H148.604V18.5ZM143.424 10.74H155.944V12.44H145.504V18.48H143.424V10.74ZM160.443 30.02L159.943 28.72C161.323 28.14 162.123 27.12 162.123 25.92L161.963 24.08L162.923 25.58C162.643 25.88 162.283 26 161.903 26C161.083 26 160.343 25.46 160.343 24.52C160.343 23.6 161.083 23.04 161.963 23.04C163.083 23.04 163.743 23.96 163.743 25.5C163.743 27.62 162.523 29.24 160.443 30.02ZM172.472 14.18H184.912V15.88H172.472V14.18ZM172.472 9.86H174.572V15.12H172.472V9.86ZM170.252 17.48H186.772V19.18H170.252V17.48ZM177.412 21.48H179.192V21.8C179.192 24.92 176.292 27.02 172.192 27.58L171.432 25.98C175.032 25.54 177.412 23.86 177.412 21.8V21.48ZM177.812 21.48H179.592V21.8C179.592 23.86 181.972 25.54 185.592 25.98L184.812 27.58C180.732 27.02 177.812 24.92 177.812 21.8V21.48ZM172.152 20.82H184.852V22.48H172.152V20.82ZM193.29 12.12H194.97V14.68C194.97 18.7 192.91 22.68 189.77 24.18L188.57 22.52C191.39 21.22 193.29 17.8 193.29 14.68V12.12ZM193.73 12.12H195.39V14.68C195.39 17.7 197.27 20.86 200.13 22.06L198.97 23.72C195.79 22.3 193.73 18.6 193.73 14.68V12.12ZM189.23 11.2H199.45V12.94H189.23V11.2ZM201.59 9.38H203.69V27.66H201.59V9.38ZM216.561 10.34C219.321 10.34 221.341 12.1 221.341 14.58C221.341 17.08 219.321 18.84 216.561 18.84C213.801 18.84 211.781 17.08 211.781 14.58C211.781 12.1 213.801 10.34 216.561 10.34ZM216.561 12.06C215.001 12.06 213.801 13.08 213.801 14.58C213.801 16.1 215.001 17.12 216.561 17.12C218.141 17.12 219.321 16.1 219.321 14.58C219.321 13.08 218.141 12.06 216.561 12.06ZM223.701 9.38H225.801V18.44H223.701V9.38ZM224.941 13.34H228.381V15.06H224.941V13.34ZM213.301 25.48H214.241C215.561 25.48 217.161 25.38 218.621 24.88L218.941 26.54C217.301 27.1 215.721 27.18 214.241 27.18H213.301V25.48ZM213.301 20.32H215.341V26.04H213.301V20.32ZM218.301 20.4H227.441V21.94H218.301V20.4ZM222.881 22.5C224.901 22.5 226.321 23.5 226.321 25.08C226.321 26.66 224.901 27.66 222.881 27.66C220.841 27.66 219.421 26.66 219.421 25.08C219.421 23.5 220.841 22.5 222.881 22.5ZM222.881 23.96C221.941 23.96 221.281 24.38 221.281 25.08C221.281 25.78 221.941 26.2 222.881 26.2C223.781 26.2 224.461 25.78 224.461 25.08C224.461 24.38 223.781 23.96 222.881 23.96ZM221.861 18.92H223.901V21.58H221.861V18.92ZM235.02 10.4C237.8 10.4 239.88 12.2 239.88 14.76C239.88 17.32 237.8 19.12 235.02 19.12C232.24 19.12 230.18 17.32 230.18 14.76C230.18 12.2 232.24 10.4 235.02 10.4ZM235.02 12.16C233.4 12.16 232.22 13.18 232.22 14.76C232.22 16.34 233.4 17.36 235.02 17.36C236.64 17.36 237.84 16.34 237.84 14.76C237.84 13.18 236.64 12.16 235.02 12.16ZM242.1 9.38H244.2V19.7H242.1V9.38ZM243.62 13.54H246.78V15.26H243.62V13.54ZM234.08 20.5H235.66V21.34C235.66 23.92 234.32 26.42 231.6 27.44L230.54 25.9C232.88 25.04 234.08 23.12 234.08 21.34V20.5ZM234.58 20.5H236.1V21.34C236.1 23.18 237.1 25.12 239.32 26.04L238.44 27.6C235.68 26.54 234.58 23.9 234.58 21.34V20.5ZM240.78 20.5H242.32V21.34C242.32 23.68 241.18 26.48 238.44 27.6L237.56 26.04C239.78 25.04 240.78 22.96 240.78 21.34V20.5ZM241.24 20.5H242.84V21.34C242.84 23.26 244 25.1 246.36 25.9L245.32 27.44C242.56 26.44 241.24 24.06 241.24 21.34V20.5ZM256.578 9.66C260.678 9.66 263.098 10.78 263.098 12.82C263.098 14.84 260.678 15.96 256.578 15.96C252.478 15.96 250.078 14.84 250.078 12.82C250.078 10.78 252.478 9.66 256.578 9.66ZM256.578 11.22C253.758 11.22 252.238 11.78 252.238 12.82C252.238 13.86 253.758 14.4 256.578 14.4C259.418 14.4 260.918 13.86 260.918 12.82C260.918 11.78 259.418 11.22 256.578 11.22ZM248.318 17.02H264.838V18.68H248.318V17.02ZM250.278 20.02H262.778V24.38H252.378V26.34H250.298V22.9H260.718V21.58H250.278V20.02ZM250.298 25.88H263.298V27.5H250.298V25.88ZM279.056 9.38H281.156V27.66H279.056V9.38ZM280.496 16.74H283.716V18.48H280.496V16.74ZM270.216 11.3H272.156C272.156 16 271.436 20.1 268.176 23.68L266.516 22.48C269.436 19.36 270.216 15.9 270.216 11.54V11.3ZM267.196 11.3H271.016V13.02H267.196V11.3ZM275.216 11.3H277.176C277.176 16.12 276.636 20.88 273.336 24.86L271.676 23.7C274.636 20.16 275.216 16.08 275.216 11.52V11.3ZM272.756 11.3H276.076V13.02H272.756V11.3ZM287.755 21.32C287.275 17.94 290.775 16.66 290.775 14.5C290.775 13.38 290.075 12.56 288.815 12.56C287.875 12.56 287.055 13.02 286.375 13.78L285.075 12.58C286.055 11.46 287.395 10.66 289.075 10.66C291.415 10.66 293.015 11.98 293.015 14.34C293.015 17.24 289.455 18.32 289.795 21.32H287.755ZM288.815 26.28C287.935 26.28 287.275 25.6 287.275 24.66C287.275 23.7 287.935 23.04 288.815 23.04C289.675 23.04 290.355 23.7 290.355 24.66C290.355 25.6 289.675 26.28 288.815 26.28Z" fill="black"/>
<path d="M49.78 505.72C52.5 505.72 54.46 508.22 54.46 512.16C54.46 516.1 52.5 518.62 49.78 518.62C47.06 518.62 45.1 516.1 45.1 512.16C45.1 508.22 47.06 505.72 49.78 505.72ZM49.78 507.62C48.2 507.62 47.1 509.32 47.1 512.16C47.1 515.02 48.2 516.74 49.78 516.74C51.36 516.74 52.46 515.02 52.46 512.16C52.46 509.32 51.36 507.62 49.78 507.62ZM56.98 504.38H59.08V522.66H56.98V504.38ZM58.6 511.5H61.92V513.24H58.6V511.5ZM76.2584 504.36H78.3584V522.68H76.2584V504.36ZM68.6184 505.72C71.3584 505.72 73.3384 508.22 73.3384 512.16C73.3384 516.1 71.3584 518.62 68.6184 518.62C65.8984 518.62 63.9184 516.1 63.9184 512.16C63.9184 508.22 65.8984 505.72 68.6184 505.72ZM68.6184 507.62C67.0184 507.62 65.9184 509.32 65.9184 512.16C65.9184 515.02 67.0184 516.74 68.6184 516.74C70.2184 516.74 71.3184 515.02 71.3184 512.16C71.3184 509.32 70.2184 507.62 68.6184 507.62ZM89.0769 511.32H92.3169V513.02H89.0769V511.32ZM95.3169 504.38H97.3169V522.66H95.3169V504.38ZM91.6369 504.72H93.6169V521.78H91.6369V504.72ZM85.8169 505.8C88.2169 505.8 89.7569 508.28 89.7569 512.28C89.7569 516.3 88.2169 518.78 85.8169 518.78C83.4369 518.78 81.8969 516.3 81.8969 512.28C81.8969 508.28 83.4369 505.8 85.8169 505.8ZM85.8169 507.76C84.5769 507.76 83.8169 509.4 83.8169 512.28C83.8169 515.16 84.5769 516.8 85.8169 516.8C87.0769 516.8 87.8369 515.16 87.8369 512.28C87.8369 509.4 87.0769 507.76 85.8169 507.76ZM113.715 504.38H115.735V522.66H113.715V504.38ZM106.095 511.64H110.395V513.32H106.095V511.64ZM109.895 504.82H111.855V521.78H109.895V504.82ZM105.955 506.62H107.975C107.975 511.6 106.215 515.84 101.195 518.78L99.9953 517.3C104.235 514.76 105.955 511.38 105.955 507.02V506.62ZM100.895 506.62H106.675V508.32H100.895V506.62ZM119.154 505.96H127.694V514.58H119.154V505.96ZM125.634 507.64H121.214V512.92H125.634V507.64ZM130.674 504.38H132.774V517.74H130.674V504.38ZM132.154 509.82H135.354V511.54H132.154V509.82ZM121.214 520.6H133.514V522.3H121.214V520.6ZM121.214 516.46H123.314V521.4H121.214V516.46ZM138.972 521.28C138.092 521.28 137.432 520.6 137.432 519.66C137.432 518.7 138.092 518.04 138.972 518.04C139.832 518.04 140.512 518.7 140.512 519.66C140.512 520.6 139.832 521.28 138.972 521.28ZM144.929 521.28C144.049 521.28 143.389 520.6 143.389 519.66C143.389 518.7 144.049 518.04 144.929 518.04C145.789 518.04 146.469 518.7 146.469 519.66C146.469 520.6 145.789 521.28 144.929 521.28ZM150.886 521.28C150.006 521.28 149.346 520.6 149.346 519.66C149.346 518.7 150.006 518.04 150.886 518.04C151.746 518.04 152.426 518.7 152.426 519.66C152.426 520.6 151.746 521.28 150.886 521.28ZM159.915 505.64H168.455V513.3H159.915V505.64ZM166.395 507.32H161.975V511.64H166.395V507.32ZM171.435 504.38H173.535V514.18H171.435V504.38ZM172.955 508.4H176.115V510.14H172.955V508.4ZM161.895 515.06H173.635V516.58H163.975V521.7H161.895V515.06ZM161.895 520.94H174.035V522.44H161.895V520.94ZM163.315 517.98H173.455V519.44H163.315V517.98ZM184.834 506.32H186.894C186.894 511.66 184.754 516.32 178.674 519.34L177.574 517.7C182.614 515.16 184.834 511.52 184.834 506.68V506.32ZM178.394 506.32H185.914V508H178.394V506.32ZM190.714 504.36H192.794V522.64H190.714V504.36ZM186.194 509.24H191.074V510.92H186.194V509.24ZM185.994 514.18H190.874V515.88H185.994V514.18ZM198.092 512.74H210.772V514.44H198.092V512.74ZM196.072 518.74H212.632V520.48H196.072V518.74ZM203.272 513.5H205.352V519.36H203.272V513.5ZM198.092 505.74H210.612V507.44H200.172V513.48H198.092V505.74ZM219.683 505.78H226.443V507.48H219.683V505.78ZM221.603 509.98H223.543V514.34H221.603V509.98ZM225.403 505.78H227.363V506.98C227.363 508.28 227.363 509.98 226.963 512.16L225.003 511.96C225.403 509.8 225.403 508.24 225.403 506.98V505.78ZM218.963 515.36L218.743 513.66C221.203 513.66 225.163 513.6 228.003 513.24L228.123 514.74C225.203 515.28 221.423 515.36 218.963 515.36ZM232.543 504.38H234.543V518.22H232.543V504.38ZM230.203 510.02H233.203V511.74H230.203V510.02ZM228.823 504.72H230.783V517.74H228.823V504.72ZM221.883 520.6H235.003V522.3H221.883V520.6ZM221.883 516.8H224.003V521.16H221.883V516.8ZM249.521 504.38H251.621V513.74H249.521V504.38ZM250.761 508.38H254.201V510.1H250.761V508.38ZM239.121 520.58H240.061C241.381 520.58 242.981 520.5 244.441 520L244.761 521.64C243.121 522.2 241.541 522.3 240.061 522.3H239.121V520.58ZM239.121 515.38H241.161V521.08H239.121V515.38ZM244.121 515.64H253.261V517.18H244.121V515.64ZM248.701 517.74C250.701 517.74 252.141 518.7 252.141 520.18C252.141 521.7 250.701 522.66 248.701 522.66C246.681 522.66 245.241 521.7 245.241 520.18C245.241 518.7 246.681 517.74 248.701 517.74ZM248.701 519.16C247.801 519.16 247.141 519.54 247.141 520.18C247.141 520.86 247.801 521.24 248.701 521.24C249.581 521.24 250.241 520.86 250.241 520.18C250.241 519.54 249.581 519.16 248.701 519.16ZM247.681 514.16H249.721V516.72H247.681V514.16ZM241.701 507.22H243.401V507.94C243.401 510.84 241.481 513.22 238.181 514.06L237.261 512.44C240.081 511.76 241.701 509.94 241.701 507.94V507.22ZM242.101 507.22H243.801V507.94C243.801 509.7 245.421 511.32 248.181 511.94L247.301 513.54C244.021 512.8 242.101 510.6 242.101 507.94V507.22ZM237.861 506.12H247.641V507.8H237.861V506.12ZM241.701 504.32H243.801V507H241.701V504.32ZM264 504.66C268.1 504.66 270.52 505.78 270.52 507.82C270.52 509.84 268.1 510.96 264 510.96C259.9 510.96 257.5 509.84 257.5 507.82C257.5 505.78 259.9 504.66 264 504.66ZM264 506.22C261.18 506.22 259.66 506.78 259.66 507.82C259.66 508.86 261.18 509.4 264 509.4C266.84 509.4 268.34 508.86 268.34 507.82C268.34 506.78 266.84 506.22 264 506.22ZM255.74 512.02H272.26V513.68H255.74V512.02ZM257.7 515.02H270.2V519.38H259.8V521.34H257.72V517.9H268.14V516.58H257.7V515.02ZM257.72 520.88H270.72V522.5H257.72V520.88ZM286.478 504.38H288.578V522.66H286.478V504.38ZM287.918 511.74H291.138V513.48H287.918V511.74ZM277.638 506.3H279.578C279.578 511 278.858 515.1 275.598 518.68L273.938 517.48C276.858 514.36 277.638 510.9 277.638 506.54V506.3ZM274.618 506.3H278.438V508.02H274.618V506.3ZM282.638 506.3H284.598C284.598 511.12 284.058 515.88 280.758 519.86L279.098 518.7C282.058 515.16 282.638 511.08 282.638 506.52V506.3ZM280.178 506.3H283.498V508.02H280.178V506.3ZM295.177 516.32C294.697 512.94 298.197 511.66 298.197 509.5C298.197 508.38 297.497 507.56 296.237 507.56C295.297 507.56 294.477 508.02 293.797 508.78L292.497 507.58C293.477 506.46 294.817 505.66 296.497 505.66C298.837 505.66 300.437 506.98 300.437 509.34C300.437 512.24 296.877 513.32 297.217 516.32H295.177ZM296.237 521.28C295.357 521.28 294.697 520.6 294.697 519.66C294.697 518.7 295.357 518.04 296.237 518.04C297.097 518.04 297.777 518.7 297.777 519.66C297.777 520.6 297.097 521.28 296.237 521.28Z" fill="black"/>
<path d="M47.08 399.64H59.56V401.32H47.08V399.64ZM47.08 394.98H49.14V400.32H47.08V394.98ZM44.92 403.76H61.44V405.46H44.92V403.76ZM52.14 400.6H54.22V404.28H52.14V400.6ZM46.94 410.6H59.7V412.3H46.94V410.6ZM46.94 406.78H49.02V411.42H46.94V406.78ZM70.4984 394.48H72.2784V395C72.2784 398.08 69.0584 400.3 64.8584 400.8L64.1584 399.22C67.8384 398.82 70.4984 397.04 70.4984 395V394.48ZM70.8584 394.48H72.6384V395C72.6384 397.04 75.2984 398.82 78.9584 399.22L78.2584 400.8C74.0584 400.3 70.8584 398.08 70.8584 395V394.48ZM70.4984 403.06H72.5784V405.74H70.4984V403.06ZM63.2984 401.8H79.8184V403.46H63.2984V401.8ZM65.2584 404.98H77.7584V409.42H67.3584V411.34H65.2784V407.92H75.6984V406.58H65.2584V404.98ZM65.2784 410.88H78.2784V412.5H65.2784V410.88ZM89.9569 394.66C94.0569 394.66 96.4769 395.78 96.4769 397.82C96.4769 399.84 94.0569 400.96 89.9569 400.96C85.8569 400.96 83.4569 399.84 83.4569 397.82C83.4569 395.78 85.8569 394.66 89.9569 394.66ZM89.9569 396.22C87.1369 396.22 85.6169 396.78 85.6169 397.82C85.6169 398.86 87.1369 399.4 89.9569 399.4C92.7969 399.4 94.2969 398.86 94.2969 397.82C94.2969 396.78 92.7969 396.22 89.9569 396.22ZM81.6969 402.02H98.2169V403.68H81.6969V402.02ZM83.6569 405.02H96.1569V409.38H85.7569V411.34H83.6769V407.9H94.0969V406.58H83.6569V405.02ZM83.6769 410.88H96.6769V412.5H83.6769V410.88ZM111.448 396.2H113.308V396.7C113.308 399.7 110.388 402 106.248 402.54L105.468 400.88C109.028 400.44 111.448 398.62 111.448 396.7V396.2ZM112.408 396.2H114.247V396.7C114.247 398.64 116.688 400.44 120.248 400.88L119.468 402.54C115.328 402 112.408 399.7 112.408 396.7V396.2ZM106.108 395.24H119.628V396.9H106.108V395.24ZM104.588 403.64H121.148V405.34H104.588V403.64ZM111.988 404.7H114.068V408.76H111.988V404.7ZM106.608 410.6H119.308V412.3H106.608V410.6ZM106.608 407.08H108.688V411.22H106.608V407.08ZM135.946 394.36H138.046V412.68H135.946V394.36ZM123.966 395.88H126.046V400.54H130.666V395.88H132.746V408.34H123.966V395.88ZM126.046 402.18V406.64H130.666V402.18H126.046ZM141.364 397.34H150.284V399.02H141.364V397.34ZM145.844 400.06C148.144 400.06 149.804 401.82 149.804 404.32C149.804 406.82 148.144 408.56 145.844 408.56C143.564 408.56 141.884 406.82 141.884 404.32C141.884 401.82 143.564 400.06 145.844 400.06ZM145.844 401.82C144.624 401.82 143.744 402.82 143.744 404.32C143.744 405.84 144.624 406.8 145.844 406.8C147.064 406.8 147.944 405.84 147.944 404.32C147.944 402.82 147.064 401.82 145.844 401.82ZM154.964 394.38H156.964V412.66H154.964V394.38ZM152.364 401.96H155.624V403.66H152.364V401.96ZM151.084 394.76H153.044V411.82H151.084V394.76ZM144.824 394.9H146.884V398.38H144.824V394.9ZM164.663 395.72C167.383 395.72 169.343 398.22 169.343 402.16C169.343 406.1 167.383 408.62 164.663 408.62C161.943 408.62 159.983 406.1 159.983 402.16C159.983 398.22 161.943 395.72 164.663 395.72ZM164.663 397.62C163.083 397.62 161.983 399.32 161.983 402.16C161.983 405.02 163.083 406.74 164.663 406.74C166.243 406.74 167.343 405.02 167.343 402.16C167.343 399.32 166.243 397.62 164.663 397.62ZM173.383 398.82H176.683V400.56H173.383V398.82ZM173.383 404.22H176.683V405.96H173.383V404.22ZM171.863 394.38H173.963V412.66H171.863V394.38ZM194.773 394.38H196.853V412.66H194.773V394.38ZM196.373 401.72H199.693V403.46H196.373V401.72ZM182.593 397.2H193.313V398.88H182.593V397.2ZM188.013 400.2C190.613 400.2 192.533 401.96 192.533 404.46C192.533 406.98 190.613 408.74 188.013 408.74C185.393 408.74 183.473 406.98 183.473 404.46C183.473 401.96 185.393 400.2 188.013 400.2ZM188.013 401.92C186.533 401.92 185.473 402.92 185.473 404.46C185.473 406 186.533 407.02 188.013 407.02C189.473 407.02 190.533 406 190.533 404.46C190.533 402.92 189.473 401.92 188.013 401.92ZM186.933 394.64H189.033V397.9H186.933V394.64ZM203.232 399.62H215.752V401.3H203.232V399.62ZM201.072 403.5H217.632V405.2H201.072V403.5ZM203.232 395.04H205.312V400.46H203.232V395.04ZM203.092 410.54H215.852V412.24H203.092V410.54ZM203.092 406.86H205.172V411H203.092V406.86ZM228.623 395.88H230.343V398.88C230.343 403.3 228.363 407.36 225.083 408.96L223.823 407.22C226.743 405.9 228.623 402.38 228.623 398.88V395.88ZM229.023 395.88H230.723V398.88C230.723 402.24 232.583 405.6 235.463 406.88L234.223 408.56C231.003 407.04 229.023 403.14 229.023 398.88V395.88ZM236.923 394.36H239.023V412.68H236.923V394.36ZM255.361 394.38H257.461V412.66H255.361V394.38ZM250.001 396.32H252.061C252.061 401.74 249.901 406.34 243.621 409.4L242.521 407.72C247.781 405.18 250.001 401.56 250.001 396.68V396.32ZM243.421 396.32H250.941V398H243.421V396.32ZM262.919 399.62H275.439V401.3H262.919V399.62ZM260.759 403.5H277.319V405.2H260.759V403.5ZM262.919 395.04H264.999V400.46H262.919V395.04ZM262.779 410.54H275.539V412.24H262.779V410.54ZM262.779 406.86H264.859V411H262.779V406.86ZM292.79 399.34H297.63V401.02H292.79V399.34ZM296.71 394.4H298.81V407.8H296.71V394.4ZM286.97 410.6H299.27V412.3H286.97V410.6ZM286.97 406.46H289.05V411.4H286.97V406.46ZM288.67 395.52C291.37 395.52 293.43 397.44 293.43 400.12C293.43 402.78 291.37 404.72 288.67 404.72C285.97 404.72 283.91 402.78 283.91 400.12C283.91 397.44 285.97 395.52 288.67 395.52ZM288.67 397.36C287.09 397.36 285.91 398.44 285.91 400.12C285.91 401.78 287.09 402.88 288.67 402.88C290.23 402.88 291.41 401.78 291.41 400.12C291.41 398.44 290.23 397.36 288.67 397.36ZM315.648 394.38H317.648V412.66H315.648V394.38ZM309.268 400.8H312.568V402.52H309.268V400.8ZM311.968 394.74H313.928V411.76H311.968V394.74ZM305.568 397.28H307.168V399.4C307.168 403.44 305.808 407.36 303.028 409.12L301.768 407.56C304.368 405.96 305.568 402.66 305.568 399.4V397.28ZM306.028 397.28H307.608V399.4C307.608 402.52 308.768 405.64 311.328 407.14L310.088 408.68C307.308 407.02 306.028 403.32 306.028 399.4V397.28ZM302.348 396.38H310.608V398.08H302.348V396.38ZM325.587 394.98C328.347 394.98 330.387 396.68 330.387 399.1C330.387 401.5 328.347 403.2 325.587 403.2C322.847 403.2 320.807 401.5 320.807 399.1C320.807 396.68 322.847 394.98 325.587 394.98ZM325.587 396.7C324.007 396.7 322.827 397.64 322.827 399.1C322.827 400.56 324.007 401.5 325.587 401.5C327.187 401.5 328.347 400.56 328.347 399.1C328.347 397.64 327.187 396.7 325.587 396.7ZM333.427 394.38H335.527V403.64H333.427V394.38ZM323.547 404.48H335.527V409.16H325.627V411.68H323.587V407.62H333.447V406.12H323.547V404.48ZM323.587 410.78H336.067V412.44H323.587V410.78ZM351.185 394.38H353.285V412.66H351.185V394.38ZM352.625 401.74H355.845V403.48H352.625V401.74ZM342.345 396.3H344.285C344.285 401 343.565 405.1 340.305 408.68L338.645 407.48C341.565 404.36 342.345 400.9 342.345 396.54V396.3ZM339.325 396.3H343.145V398.02H339.325V396.3ZM347.345 396.3H349.305C349.305 401.12 348.765 405.88 345.465 409.86L343.805 408.7C346.765 405.16 347.345 401.08 347.345 396.52V396.3ZM344.885 396.3H348.205V398.02H344.885V396.3ZM359.884 406.32C359.404 402.94 362.904 401.66 362.904 399.5C362.904 398.38 362.204 397.56 360.944 397.56C360.004 397.56 359.184 398.02 358.504 398.78L357.204 397.58C358.184 396.46 359.524 395.66 361.204 395.66C363.544 395.66 365.144 396.98 365.144 399.34C365.144 402.24 361.584 403.32 361.924 406.32H359.884ZM360.944 411.28C360.064 411.28 359.404 410.6 359.404 409.66C359.404 408.7 360.064 408.04 360.944 408.04C361.804 408.04 362.484 408.7 362.484 409.66C362.484 410.6 361.804 411.28 360.944 411.28Z" fill="black"/>
<path d="M58.5 339.38H60.5V357.66H58.5V339.38ZM55.7 346.58H59V348.28H55.7V346.58ZM54.38 339.74H56.32V356.76H54.38V339.74ZM45.5 351.58H46.74C49.22 351.58 51.06 351.5 53.2 351.08L53.38 352.8C51.18 353.24 49.3 353.32 46.74 353.32H45.5V351.58ZM45.5 341.56H52.28V343.26H47.58V352.4H45.5V341.56ZM76.2784 339.38H78.3784V349.2H76.2784V339.38ZM66.4384 350.06H68.4984V352.04H76.2984V350.06H78.3784V357.44H66.4384V350.06ZM68.4984 353.68V355.76H76.2984V353.68H68.4984ZM68.5184 340.2C71.3184 340.2 73.3584 341.94 73.3584 344.46C73.3584 346.96 71.3184 348.72 68.5184 348.72C65.7184 348.72 63.6584 346.96 63.6584 344.46C63.6584 341.94 65.7184 340.2 68.5184 340.2ZM68.5184 341.94C66.8784 341.94 65.6984 342.94 65.6984 344.46C65.6984 345.98 66.8784 346.98 68.5184 346.98C70.1584 346.98 71.3184 345.98 71.3184 344.46C71.3184 342.94 70.1584 341.94 68.5184 341.94ZM81.6969 348.86H98.2169V350.54H81.6969V348.86ZM83.7769 355.6H96.3769V357.3H83.7769V355.6ZM83.7769 351.98H85.8769V356.12H83.7769V351.98ZM89.9569 339.96C93.8969 339.96 96.4769 341.36 96.4769 343.66C96.4769 345.96 93.8969 347.36 89.9569 347.36C86.0169 347.36 83.4569 345.96 83.4569 343.66C83.4569 341.36 86.0169 339.96 89.9569 339.96ZM89.9569 341.64C87.2769 341.64 85.6169 342.38 85.6169 343.66C85.6169 344.96 87.2769 345.68 89.9569 345.68C92.6569 345.68 94.3169 344.96 94.3169 343.66C94.3169 342.38 92.6569 341.64 89.9569 341.64ZM114.328 344.28H118.788V345.98H114.328V344.28ZM117.648 339.4H119.748V352.76H117.648V339.4ZM107.908 355.6H120.208V357.3H107.908V355.6ZM107.908 351.6H109.988V356.54H107.908V351.6ZM109.068 341.72H110.768V343.04C110.768 346.42 108.908 349.42 105.648 350.58L104.588 348.9C107.428 347.92 109.068 345.52 109.068 343.04V341.72ZM109.488 341.72H111.168V343.04C111.168 345.3 112.728 347.58 115.468 348.54L114.428 350.18C111.268 349.08 109.488 346.2 109.488 343.04V341.72ZM105.188 340.76H114.987V342.44H105.188V340.76ZM136.646 342.12H139.826V343.84H136.646V342.12ZM136.646 345.98H139.826V347.7H136.646V345.98ZM123.726 347.96H125.206C128.646 347.96 130.946 347.86 133.646 347.38L133.826 349.08C131.086 349.58 128.726 349.68 125.206 349.68H123.726V347.96ZM123.686 340.42H131.966V345.74H125.786V348.78H123.726V344.16H129.906V342.12H123.686V340.42ZM135.166 339.4H137.266V350.5H135.166V339.4ZM125.246 351.4H137.266V357.66H135.166V353.08H125.246V351.4ZM158.357 339.38H160.457V357.66H158.357V339.38ZM159.497 346.4H162.797V348.14H159.497V346.4ZM148.277 340.92H149.817V344.58C149.817 347.88 149.257 351.68 146.917 353.54L145.537 352.06C147.817 350.34 148.277 347.16 148.277 344.58V340.92ZM148.757 340.92H150.237V344.58C150.237 347.02 150.637 350.36 152.917 352.2L151.777 353.76C149.217 351.84 148.757 347.7 148.757 344.58V340.92ZM153.297 340.92H154.817V344.58C154.817 347.78 154.337 351.86 151.777 353.76L150.637 352.2C152.917 350.4 153.297 347.12 153.297 344.58V340.92ZM153.777 340.92H155.297V344.58C155.297 347.22 155.757 350.36 158.037 352.06L156.757 353.6C154.317 351.74 153.777 347.92 153.777 344.58V340.92ZM171.495 348.78H173.575V351.84H171.495V348.78ZM172.535 339.68C176.535 339.68 179.055 340.98 179.055 343.18C179.055 345.34 176.535 346.62 172.535 346.62C168.555 346.62 166.035 345.34 166.035 343.18C166.035 340.98 168.555 339.68 172.535 339.68ZM172.535 341.3C169.815 341.3 168.195 341.96 168.195 343.18C168.195 344.36 169.815 345 172.535 345C175.255 345 176.895 344.36 176.895 343.18C176.895 341.96 175.255 341.3 172.535 341.3ZM166.255 351.32H178.795V357.44H166.255V351.32ZM176.755 353H168.315V355.76H176.755V353ZM164.275 347.8H180.795V349.5H164.275V347.8ZM195.633 339.36H197.733V357.68H195.633V339.36ZM187.993 340.72C190.733 340.72 192.713 343.22 192.713 347.16C192.713 351.1 190.733 353.62 187.993 353.62C185.273 353.62 183.293 351.1 183.293 347.16C183.293 343.22 185.273 340.72 187.993 340.72ZM187.993 342.62C186.393 342.62 185.293 344.32 185.293 347.16C185.293 350.02 186.393 351.74 187.993 351.74C189.593 351.74 190.693 350.02 190.693 347.16C190.693 344.32 189.593 342.62 187.993 342.62ZM213.172 339.36H215.252V357.68H213.172V339.36ZM214.772 346.48H218.092V348.22H214.772V346.48ZM201.832 351.62H203.312C206.592 351.62 208.992 351.52 211.732 351.02L211.932 352.72C209.132 353.22 206.672 353.36 203.312 353.36H201.832V351.62ZM201.792 341H210.112V347.8H203.892V352.3H201.832V346.1H208.032V342.7H201.792V341ZM221.63 344.62H234.15V346.3H221.63V344.62ZM219.47 348.5H236.03V350.2H219.47V348.5ZM221.63 340.04H223.71V345.46H221.63V340.04ZM221.49 355.54H234.25V357.24H221.49V355.54ZM221.49 351.86H223.57V356H221.49V351.86ZM251.469 339.38H253.469V357.66H251.469V339.38ZM244.169 346.22H248.609V347.92H244.169V346.22ZM247.749 339.76H249.709V356.78H247.749V339.76ZM238.489 351.68H239.709C242.429 351.68 244.149 351.6 246.169 351.18L246.349 352.9C244.289 353.34 242.509 353.42 239.709 353.42H238.489V351.68ZM238.489 341.54H245.409V343.22H240.549V352.38H238.489V341.54ZM256.927 360.02L256.427 358.72C257.807 358.14 258.607 357.12 258.607 355.92L258.447 354.08L259.407 355.58C259.127 355.88 258.767 356 258.387 356C257.567 356 256.827 355.46 256.827 354.52C256.827 353.6 257.567 353.04 258.447 353.04C259.567 353.04 260.227 353.96 260.227 355.5C260.227 357.62 259.007 359.24 256.927 360.02ZM271.656 340.72C274.356 340.72 276.276 343.22 276.276 347.16C276.276 351.1 274.356 353.62 271.656 353.62C268.956 353.62 267.036 351.1 267.036 347.16C267.036 343.22 268.956 340.72 271.656 340.72ZM271.656 342.62C270.096 342.62 269.036 344.32 269.036 347.16C269.036 350.02 270.096 351.74 271.656 351.74C273.236 351.74 274.296 350.02 274.296 347.16C274.296 344.32 273.236 342.62 271.656 342.62ZM279.816 339.36H281.896V357.68H279.816V339.36ZM275.636 346.18H280.716V347.86H275.636V346.18ZM287.535 350.16H300.735V351.76H287.535V350.16ZM294.115 352.48C297.415 352.48 299.375 353.4 299.375 355.08C299.375 356.74 297.415 357.66 294.115 357.66C290.835 357.66 288.875 356.74 288.875 355.08C288.875 353.4 290.835 352.48 294.115 352.48ZM294.115 353.94C292.195 353.94 291.095 354.32 291.095 355.08C291.095 355.84 292.195 356.22 294.115 356.22C296.035 356.22 297.135 355.84 297.135 355.08C297.135 354.32 296.035 353.94 294.115 353.94ZM293.095 348.56H295.195V351.2H293.095V348.56ZM285.515 346.24H286.355C287.615 346.24 288.875 346.2 290.375 345.88L290.555 347.54C288.955 347.86 287.695 347.88 286.355 347.88H285.515V346.24ZM285.515 340.2H290.155V341.84H287.575V347.4H285.515V340.2ZM291.115 346.24H292.055C294.155 346.24 295.335 346.2 296.755 345.86L296.915 347.5C295.455 347.84 294.235 347.88 292.055 347.88H291.115V346.24ZM291.115 340.2H296.175V341.84H293.175V347.4H291.115V340.2ZM298.375 339.38H300.455V349.1H298.375V339.38ZM295.515 343.06H299.535V344.66H295.515V343.06ZM317.133 339.38H319.153V357.66H317.133V339.38ZM309.513 346.64H313.813V348.32H309.513V346.64ZM313.313 339.82H315.273V356.78H313.313V339.82ZM309.373 341.62H311.393C311.393 346.6 309.633 350.84 304.613 353.78L303.413 352.3C307.653 349.76 309.373 346.38 309.373 342.02V341.62ZM304.313 341.62H310.093V343.32H304.313V341.62ZM333.264 341.2H335.124V341.7C335.124 344.7 332.204 347 328.064 347.54L327.284 345.88C330.844 345.44 333.264 343.62 333.264 341.7V341.2ZM334.224 341.2H336.064V341.7C336.064 343.64 338.504 345.44 342.064 345.88L341.284 347.54C337.144 347 334.224 344.7 334.224 341.7V341.2ZM327.924 340.24H341.444V341.9H327.924V340.24ZM326.404 348.64H342.964V350.34H326.404V348.64ZM333.804 349.7H335.884V353.76H333.804V349.7ZM328.424 355.6H341.124V357.3H328.424V355.6ZM328.424 352.08H330.504V356.22H328.424V352.08ZM357.762 339.36H359.862V357.68H357.762V339.36ZM345.782 340.88H347.862V345.54H352.482V340.88H354.562V353.34H345.782V340.88ZM347.862 347.18V351.64H352.482V347.18H347.862ZM367.861 340.88H369.581V343.88C369.581 348.3 367.601 352.36 364.321 353.96L363.061 352.22C365.981 350.9 367.861 347.38 367.861 343.88V340.88ZM368.261 340.88H369.961V343.88C369.961 347.24 371.821 350.6 374.701 351.88L373.461 353.56C370.241 352.04 368.261 348.14 368.261 343.88V340.88ZM376.161 339.36H378.261V357.68H376.161V339.36ZM390.259 344.36H394.939V346.04H390.259V344.36ZM390.059 349.28H394.739V350.98H390.059V349.28ZM388.819 341.22H390.859C390.859 346.66 389.179 351.44 382.699 354.76L381.539 353.16C387.079 350.32 388.819 346.52 388.819 341.46V341.22ZM382.579 341.22H390.099V342.9H382.579V341.22ZM388.879 345.72V347.32L381.939 347.96L381.619 346.18L388.879 345.72ZM394.659 339.36H396.739V357.64H394.659V339.36ZM404.878 340.72C407.598 340.72 409.558 343.22 409.558 347.16C409.558 351.1 407.598 353.62 404.878 353.62C402.158 353.62 400.198 351.1 400.198 347.16C400.198 343.22 402.158 340.72 404.878 340.72ZM404.878 342.62C403.298 342.62 402.198 344.32 402.198 347.16C402.198 350.02 403.298 351.74 404.878 351.74C406.458 351.74 407.558 350.02 407.558 347.16C407.558 344.32 406.458 342.62 404.878 342.62ZM413.598 343.82H416.898V345.56H413.598V343.82ZM413.598 349.22H416.898V350.96H413.598V349.22ZM412.078 339.38H414.178V357.66H412.078V339.38ZM435.068 339.34H437.168V349.34H435.068V339.34ZM436.308 343.52H439.748V345.24H436.308V343.52ZM425.368 350.18H437.168V354.5H427.468V356.46H425.388V353.04H435.108V351.72H425.368V350.18ZM425.388 355.92H437.768V357.5H425.388V355.92ZM422.928 340.9H433.688V342.5H422.928V340.9ZM428.308 343.14C430.988 343.14 432.728 344.3 432.728 346.14C432.728 347.98 430.988 349.12 428.308 349.12C425.628 349.12 423.868 347.98 423.868 346.14C423.868 344.3 425.628 343.14 428.308 343.14ZM428.308 344.64C426.828 344.64 425.888 345.2 425.888 346.14C425.888 347.06 426.828 347.62 428.308 347.62C429.788 347.62 430.728 347.06 430.728 346.14C430.728 345.2 429.788 344.64 428.308 344.64ZM427.268 339.22H429.348V342.02H427.268V339.22ZM453.627 339.38H455.727V357.66H453.627V339.38ZM455.067 346.74H458.287V348.48H455.067V346.74ZM444.787 341.3H446.727C446.727 346 446.007 350.1 442.747 353.68L441.087 352.48C444.007 349.36 444.787 345.9 444.787 341.54V341.3ZM441.767 341.3H445.587V343.02H441.767V341.3ZM449.787 341.3H451.747C451.747 346.12 451.207 350.88 447.907 354.86L446.247 353.7C449.207 350.16 449.787 346.08 449.787 341.52V341.3ZM447.327 341.3H450.647V343.02H447.327V341.3ZM462.325 351.32C461.845 347.94 465.345 346.66 465.345 344.5C465.345 343.38 464.645 342.56 463.385 342.56C462.445 342.56 461.625 343.02 460.945 343.78L459.645 342.58C460.625 341.46 461.965 340.66 463.645 340.66C465.985 340.66 467.585 341.98 467.585 344.34C467.585 347.24 464.025 348.32 464.365 351.32H462.325ZM463.385 356.28C462.505 356.28 461.845 355.6 461.845 354.66C461.845 353.7 462.505 353.04 463.385 353.04C464.245 353.04 464.925 353.7 464.925 354.66C464.925 355.6 464.245 356.28 463.385 356.28Z" fill="black"/>
<path d="M49.78 450.72C52.5 450.72 54.46 453.22 54.46 457.16C54.46 461.1 52.5 463.62 49.78 463.62C47.06 463.62 45.1 461.1 45.1 457.16C45.1 453.22 47.06 450.72 49.78 450.72ZM49.78 452.62C48.2 452.62 47.1 454.32 47.1 457.16C47.1 460.02 48.2 461.74 49.78 461.74C51.36 461.74 52.46 460.02 52.46 457.16C52.46 454.32 51.36 452.62 49.78 452.62ZM56.98 449.38H59.08V467.66H56.98V449.38ZM58.6 456.5H61.92V458.24H58.6V456.5ZM76.2584 449.36H78.3584V467.68H76.2584V449.36ZM68.6184 450.72C71.3584 450.72 73.3384 453.22 73.3384 457.16C73.3384 461.1 71.3584 463.62 68.6184 463.62C65.8984 463.62 63.9184 461.1 63.9184 457.16C63.9184 453.22 65.8984 450.72 68.6184 450.72ZM68.6184 452.62C67.0184 452.62 65.9184 454.32 65.9184 457.16C65.9184 460.02 67.0184 461.74 68.6184 461.74C70.2184 461.74 71.3184 460.02 71.3184 457.16C71.3184 454.32 70.2184 452.62 68.6184 452.62ZM93.7769 449.36H95.8769V467.64H93.7769V449.36ZM95.3169 456.6H98.6169V458.32H95.3169V456.6ZM89.0369 451.3H91.0969C91.0969 456.62 88.8369 461.32 82.8569 464.32L81.6769 462.72C86.6169 460.2 89.0369 456.54 89.0369 451.66V451.3ZM82.5969 451.3H90.1169V453H82.5969V451.3ZM111.768 449.98H113.608V450.92C113.608 454.42 110.388 457.14 106.168 457.82L105.348 456.12C109.048 455.6 111.768 453.32 111.768 450.92V449.98ZM112.148 449.98H113.967V450.92C113.967 453.28 116.708 455.6 120.408 456.12L119.588 457.82C115.368 457.14 112.148 454.4 112.148 450.92V449.98ZM111.768 460.82H113.848V467.66H111.768V460.82ZM104.608 459.5H121.128V461.22H104.608V459.5ZM127.646 450.88H129.366V453.88C129.366 458.3 127.386 462.36 124.106 463.96L122.846 462.22C125.766 460.9 127.646 457.38 127.646 453.88V450.88ZM128.046 450.88H129.746V453.88C129.746 457.24 131.606 460.6 134.486 461.88L133.246 463.56C130.026 462.04 128.046 458.14 128.046 453.88V450.88ZM135.946 449.36H138.046V467.68H135.946V449.36ZM143.544 454.62H156.064V456.3H143.544V454.62ZM141.384 458.5H157.944V460.2H141.384V458.5ZM143.544 450.04H145.624V455.46H143.544V450.04ZM143.404 465.54H156.164V467.24H143.404V465.54ZM143.404 461.86H145.484V466H143.404V461.86ZM164.295 463.76H180.855V465.48H164.295V463.76ZM171.475 459.3H173.555V464.54H171.475V459.3ZM165.655 451.02H179.375V452.72H165.655V451.02ZM165.715 458.34H179.335V460H165.715V458.34ZM168.335 452.4H170.435V458.58H168.335V452.4ZM174.615 452.4H176.695V458.58H174.615V452.4ZM195.673 449.38H197.773V467.66H195.673V449.38ZM190.313 451.32H192.373C192.373 456.74 190.213 461.34 183.933 464.4L182.833 462.72C188.093 460.18 190.313 456.56 190.313 451.68V451.32ZM183.733 451.32H191.253V453H183.733V451.32ZM213.172 449.38H215.252V467.66H213.172V449.38ZM214.772 456.72H218.092V458.46H214.772V456.72ZM200.992 452.2H211.712V453.88H200.992V452.2ZM206.412 455.2C209.012 455.2 210.932 456.96 210.932 459.46C210.932 461.98 209.012 463.74 206.412 463.74C203.792 463.74 201.872 461.98 201.872 459.46C201.872 456.96 203.792 455.2 206.412 455.2ZM206.412 456.92C204.932 456.92 203.872 457.92 203.872 459.46C203.872 461 204.932 462.02 206.412 462.02C207.872 462.02 208.932 461 208.932 459.46C208.932 457.92 207.872 456.92 206.412 456.92ZM205.332 449.64H207.432V452.9H205.332V449.64ZM221.21 451.08H232.89V452.78H221.21V451.08ZM219.49 463.54H236.01V465.26H219.49V463.54ZM225.65 457.12H227.75V464.4H225.65V457.12ZM232.11 451.08H234.21V452.86C234.21 455.14 234.21 457.68 233.51 461.46L231.41 461.22C232.11 457.66 232.11 455.06 232.11 452.86V451.08ZM252.201 453.98H256.021V455.7H252.201V453.98ZM255.421 449.38H257.521V460.26H255.421V449.38ZM251.421 460.74C255.241 460.74 257.581 462.04 257.581 464.2C257.581 466.4 255.241 467.66 251.421 467.66C247.601 467.66 245.261 466.4 245.261 464.2C245.261 462.04 247.601 460.74 251.421 460.74ZM251.421 462.36C248.841 462.36 247.341 463 247.341 464.2C247.341 465.4 248.841 466.04 251.421 466.04C254.021 466.04 255.501 465.4 255.501 464.2C255.501 463 254.021 462.36 251.421 462.36ZM246.841 451.22H248.541V452.56C248.541 455.98 246.681 459 243.441 460.16L242.361 458.5C245.221 457.5 246.841 455.06 246.841 452.56V451.22ZM247.261 451.22H248.941V452.54C248.941 454.82 250.501 457.08 253.241 458.02L252.201 459.68C249.041 458.58 247.261 455.7 247.261 452.54V451.22ZM242.961 450.62H252.761V452.3H242.961V450.62ZM265.419 450.88H267.139V453.88C267.139 458.3 265.159 462.36 261.879 463.96L260.619 462.22C263.539 460.9 265.419 457.38 265.419 453.88V450.88ZM265.819 450.88H267.519V453.88C267.519 457.24 269.379 460.6 272.259 461.88L271.019 463.56C267.799 462.04 265.819 458.14 265.819 453.88V450.88ZM273.719 449.36H275.819V467.68H273.719V449.36ZM279.818 450.96H288.358V459.58H279.818V450.96ZM286.298 452.64H281.878V457.92H286.298V452.64ZM291.338 449.38H293.438V462.74H291.338V449.38ZM292.818 454.82H296.018V456.54H292.818V454.82ZM281.878 465.6H294.178V467.3H281.878V465.6ZM281.878 461.46H283.978V466.4H281.878V461.46ZM308.908 451.2H310.768V451.7C310.768 454.7 307.848 457 303.708 457.54L302.928 455.88C306.488 455.44 308.908 453.62 308.908 451.7V451.2ZM309.868 451.2H311.708V451.7C311.708 453.64 314.148 455.44 317.708 455.88L316.928 457.54C312.788 457 309.868 454.7 309.868 451.7V451.2ZM303.568 450.24H317.088V451.9H303.568V450.24ZM302.048 458.64H318.608V460.34H302.048V458.64ZM309.448 459.7H311.528V463.76H309.448V459.7ZM304.068 465.6H316.768V467.3H304.068V465.6ZM304.068 462.08H306.148V466.22H304.068V462.08ZM333.407 449.36H335.507V467.68H333.407V449.36ZM321.427 450.88H323.507V455.54H328.127V450.88H330.207V463.34H321.427V450.88ZM323.507 457.18V461.64H328.127V457.18H323.507ZM351.025 449.4H353.125V463.08H351.025V449.4ZM352.505 455.2H355.705V456.94H352.505V455.2ZM338.885 451.48H349.645V453.14H338.885V451.48ZM344.265 453.98C346.865 453.98 348.685 455.38 348.685 457.44C348.685 459.52 346.865 460.9 344.265 460.9C341.645 460.9 339.825 459.52 339.825 457.44C339.825 455.38 341.645 453.98 344.265 453.98ZM344.265 455.6C342.825 455.6 341.845 456.3 341.845 457.44C341.845 458.6 342.825 459.28 344.265 459.28C345.705 459.28 346.685 458.6 346.685 457.44C346.685 456.3 345.705 455.6 344.265 455.6ZM343.225 449.38H345.305V452.3H343.225V449.38ZM341.565 465.6H353.865V467.3H341.565V465.6ZM341.565 462.02H343.665V466.32H341.565V462.02ZM369.324 449.36H371.424V467.68H369.324V449.36ZM370.944 456.38H374.264V458.12H370.944V456.38ZM358.004 461.46H359.484C362.724 461.46 365.124 461.34 367.824 460.84L368.044 462.6C365.244 463.1 362.804 463.2 359.484 463.2H358.004V461.46ZM358.004 451.1H366.504V452.8H360.084V462.26H358.004V451.1ZM377.802 454.62H390.322V456.3H377.802V454.62ZM375.642 458.5H392.202V460.2H375.642V458.5ZM377.802 450.04H379.882V455.46H377.802V450.04ZM377.662 465.54H390.422V467.24H377.662V465.54ZM377.662 461.86H379.742V466H377.662V461.86ZM407.641 449.38H409.641V467.66H407.641V449.38ZM400.341 456.22H404.781V457.92H400.341V456.22ZM403.921 449.76H405.881V466.78H403.921V449.76ZM394.661 461.68H395.881C398.601 461.68 400.321 461.6 402.341 461.18L402.521 462.9C400.461 463.34 398.681 463.42 395.881 463.42H394.661V461.68ZM394.661 451.54H401.581V453.22H396.721V462.38H394.661V451.54ZM414.519 466.28C413.639 466.28 412.979 465.6 412.979 464.66C412.979 463.7 413.639 463.04 414.519 463.04C415.379 463.04 416.059 463.7 416.059 464.66C416.059 465.6 415.379 466.28 414.519 466.28ZM420.476 466.28C419.596 466.28 418.936 465.6 418.936 464.66C418.936 463.7 419.596 463.04 420.476 463.04C421.336 463.04 422.016 463.7 422.016 464.66C422.016 465.6 421.336 466.28 420.476 466.28ZM440.925 449.36H443.025V467.64H440.925V449.36ZM442.465 456.6H445.765V458.32H442.465V456.6ZM436.185 451.3H438.245C438.245 456.62 435.985 461.32 430.005 464.32L428.825 462.72C433.765 460.2 436.185 456.54 436.185 451.66V451.3ZM429.745 451.3H437.265V453H429.745V451.3ZM449.424 454.22H461.924V455.9H449.424V454.22ZM449.424 449.72H451.504V454.98H449.424V449.72ZM447.264 457.78H463.784V459.46H447.264V457.78ZM455.484 460.9C459.404 460.9 461.784 462.1 461.784 464.26C461.784 466.38 459.404 467.6 455.484 467.6C451.564 467.6 449.184 466.38 449.184 464.26C449.184 462.1 451.564 460.9 455.484 460.9ZM455.484 462.52C452.804 462.52 451.304 463.1 451.304 464.26C451.304 465.36 452.804 465.98 455.484 465.98C458.164 465.98 459.664 465.36 459.664 464.26C459.664 463.1 458.164 462.52 455.484 462.52ZM477.822 449.34H479.922V459.34H477.822V449.34ZM479.062 453.52H482.502V455.24H479.062V453.52ZM468.122 460.18H479.922V464.5H470.222V466.46H468.142V463.04H477.862V461.72H468.122V460.18ZM468.142 465.92H480.522V467.5H468.142V465.92ZM465.682 450.9H476.442V452.5H465.682V450.9ZM471.062 453.14C473.742 453.14 475.482 454.3 475.482 456.14C475.482 457.98 473.742 459.12 471.062 459.12C468.382 459.12 466.622 457.98 466.622 456.14C466.622 454.3 468.382 453.14 471.062 453.14ZM471.062 454.64C469.582 454.64 468.642 455.2 468.642 456.14C468.642 457.06 469.582 457.62 471.062 457.62C472.542 457.62 473.482 457.06 473.482 456.14C473.482 455.2 472.542 454.64 471.062 454.64ZM470.022 449.22H472.102V452.02H470.022V449.22ZM496.381 449.38H498.481V467.66H496.381V449.38ZM497.821 456.74H501.041V458.48H497.821V456.74ZM487.541 451.3H489.481C489.481 456 488.761 460.1 485.501 463.68L483.841 462.48C486.761 459.36 487.541 455.9 487.541 451.54V451.3ZM484.521 451.3H488.341V453.02H484.521V451.3ZM492.541 451.3H494.501C494.501 456.12 493.961 460.88 490.661 464.86L489.001 463.7C491.961 460.16 492.541 456.08 492.541 451.52V451.3ZM490.081 451.3H493.401V453.02H490.081V451.3ZM505.079 461.32C504.599 457.94 508.099 456.66 508.099 454.5C508.099 453.38 507.399 452.56 506.139 452.56C505.199 452.56 504.379 453.02 503.699 453.78L502.399 452.58C503.379 451.46 504.719 450.66 506.399 450.66C508.739 450.66 510.339 451.98 510.339 454.34C510.339 457.24 506.779 458.32 507.119 461.32H505.079ZM506.139 466.28C505.259 466.28 504.599 465.6 504.599 464.66C504.599 463.7 505.259 463.04 506.139 463.04C506.999 463.04 507.679 463.7 507.679 464.66C507.679 465.6 506.999 466.28 506.139 466.28Z" fill="black"/>
<path d="M44.9 74.74H61.46V76.44H44.9V74.74ZM52.08 75.82H54.16V82.66H52.08V75.82ZM53.14 65.06C57 65.06 59.62 66.64 59.62 69.12C59.62 71.58 57 73.16 53.14 73.16C49.3 73.16 46.66 71.58 46.66 69.12C46.66 66.64 49.3 65.06 53.14 65.06ZM53.14 66.74C50.52 66.74 48.8 67.64 48.8 69.12C48.8 70.6 50.52 71.48 53.14 71.48C55.76 71.48 57.48 70.6 57.48 69.12C57.48 67.64 55.76 66.74 53.14 66.74ZM76.2984 64.36H78.3984V82.68H76.2984V64.36ZM64.3384 76.62H65.8984C69.0384 76.62 71.6984 76.5 74.7784 75.98L74.9984 77.68C71.8384 78.22 69.1184 78.34 65.8984 78.34H64.3384V76.62ZM64.2984 66H72.8184V72.78H66.4584V77.26H64.3384V71.1H70.6984V67.7H64.2984V66ZM91.0691 65.72C93.7891 65.72 95.7491 68.22 95.7491 72.16C95.7491 76.1 93.7891 78.62 91.0691 78.62C88.3491 78.62 86.3891 76.1 86.3891 72.16C86.3891 68.22 88.3491 65.72 91.0691 65.72ZM91.0691 67.62C89.4891 67.62 88.3891 69.32 88.3891 72.16C88.3891 75.02 89.4891 76.74 91.0691 76.74C92.6491 76.74 93.7491 75.02 93.7491 72.16C93.7491 69.32 92.6491 67.62 91.0691 67.62ZM98.2691 64.38H100.369V82.66H98.2691V64.38ZM99.8891 71.5H103.209V73.24H99.8891V71.5ZM117.548 64.36H119.648V82.68H117.548V64.36ZM109.908 65.72C112.648 65.72 114.628 68.22 114.628 72.16C114.628 76.1 112.648 78.62 109.908 78.62C107.188 78.62 105.208 76.1 105.208 72.16C105.208 68.22 107.188 65.72 109.908 65.72ZM109.908 67.62C108.308 67.62 107.208 69.32 107.208 72.16C107.208 75.02 108.308 76.74 109.908 76.74C111.508 76.74 112.608 75.02 112.608 72.16C112.608 69.32 111.508 67.62 109.908 67.62ZM135.066 64.36H137.166V82.64H135.066V64.36ZM136.606 71.6H139.906V73.32H136.606V71.6ZM130.326 66.3H132.386C132.386 71.62 130.126 76.32 124.146 79.32L122.966 77.72C127.906 75.2 130.326 71.54 130.326 66.66V66.3ZM123.886 66.3H131.406V68H123.886V66.3ZM154.417 66.42H159.377V68.06H154.417V66.42ZM154.417 70.16H159.377V71.8H154.417V70.16ZM150.897 64.94C153.637 64.94 155.657 66.68 155.657 69.14C155.657 71.58 153.637 73.32 150.897 73.32C148.157 73.32 146.137 71.58 146.137 69.14C146.137 66.68 148.157 64.94 150.897 64.94ZM150.897 66.66C149.297 66.66 148.137 67.64 148.137 69.14C148.137 70.64 149.297 71.62 150.897 71.62C152.497 71.62 153.657 70.64 153.657 69.14C153.657 67.64 152.497 66.66 150.897 66.66ZM158.937 64.38H161.017V73.64H158.937V64.38ZM149.117 74.5H161.017V79.16H151.217V81.68H149.157V77.62H158.957V76.14H149.117V74.5ZM149.157 80.78H161.637V82.44H149.157V80.78ZM177.255 64.4H179.355V74.74H177.255V64.4ZM167.395 75.7H179.355V82.44H167.395V75.7ZM177.295 77.36H169.455V80.76H177.295V77.36ZM168.835 65.08H170.575V66.84C170.575 70.24 168.655 73.22 165.335 74.36L164.315 72.7C167.215 71.74 168.835 69.32 168.835 66.84V65.08ZM169.235 65.08H170.955V66.84C170.955 69.26 172.575 71.48 175.395 72.38L174.375 74C171.135 72.96 169.235 70.18 169.235 66.84V65.08ZM195.633 64.38H197.733V82.66H195.633V64.38ZM183.093 67.24H193.973V68.92H183.093V67.24ZM188.553 70.2C191.213 70.2 193.153 71.96 193.153 74.46C193.153 76.98 191.213 78.74 188.553 78.74C185.893 78.74 183.973 76.98 183.973 74.46C183.973 71.96 185.893 70.2 188.553 70.2ZM188.553 71.92C187.053 71.92 185.973 72.92 185.973 74.46C185.973 76 187.053 77.02 188.553 77.02C190.053 77.02 191.133 76 191.133 74.46C191.133 72.92 190.053 71.92 188.553 71.92ZM187.473 64.6H189.573V68.28H187.473V64.6ZM217.664 64.38H219.744V82.66H217.664V64.38ZM219.264 71.72H222.584V73.46H219.264V71.72ZM205.484 67.2H216.204V68.88H205.484V67.2ZM210.904 70.2C213.504 70.2 215.424 71.96 215.424 74.46C215.424 76.98 213.504 78.74 210.904 78.74C208.284 78.74 206.364 76.98 206.364 74.46C206.364 71.96 208.284 70.2 210.904 70.2ZM210.904 71.92C209.424 71.92 208.364 72.92 208.364 74.46C208.364 76 209.424 77.02 210.904 77.02C212.364 77.02 213.424 76 213.424 74.46C213.424 72.92 212.364 71.92 210.904 71.92ZM209.824 64.64H211.924V67.9H209.824V64.64ZM226.123 69.62H238.643V71.3H226.123V69.62ZM223.963 73.5H240.523V75.2H223.963V73.5ZM226.123 65.04H228.202V70.46H226.123V65.04ZM225.983 80.54H238.743V82.24H225.983V80.54ZM225.983 76.86H228.062V81H225.983V76.86ZM259.913 64.38H262.013V76.64H259.913V64.38ZM256.333 69.4H260.273V71.1H256.333V69.4ZM254.053 65.8H256.253C256.253 70.64 253.373 73.94 248.013 75.66L247.133 74.02C251.733 72.6 254.053 70.02 254.053 66.68V65.8ZM248.033 65.8H255.573V67.48H248.033V65.8ZM254.953 75.18H256.733V75.9C256.733 79.34 253.873 81.86 249.853 82.62L249.033 80.96C252.553 80.36 254.953 78.3 254.953 75.9V75.18ZM255.253 75.18H257.033V75.9C257.033 78.28 259.413 80.34 262.933 80.92L262.093 82.58C258.093 81.84 255.253 79.32 255.253 75.9V75.18ZM281.924 64.38H284.024V74.06H281.924V64.38ZM283.444 68.4H286.604V70.12H283.444V68.4ZM276.804 65.64H279.124C279.124 70.34 276.044 73.26 270.604 74.4L269.764 72.72C274.564 71.78 276.804 69.52 276.804 66.86V65.64ZM270.564 65.64H278.084V67.32H270.564V65.64ZM272.324 74.84H284.104V76.4H274.404V81.66H272.324V74.84ZM272.324 80.88H284.504V82.44H272.324V80.88ZM273.724 77.84H283.904V79.36H273.724V77.84ZM288.142 73.86H304.662V75.54H288.142V73.86ZM290.222 80.6H302.822V82.3H290.222V80.6ZM290.222 76.98H292.322V81.12H290.222V76.98ZM296.402 64.96C300.342 64.96 302.922 66.36 302.922 68.66C302.922 70.96 300.342 72.36 296.402 72.36C292.462 72.36 289.902 70.96 289.902 68.66C289.902 66.36 292.462 64.96 296.402 64.96ZM296.402 66.64C293.722 66.64 292.062 67.38 292.062 68.66C292.062 69.96 293.722 70.68 296.402 70.68C299.102 70.68 300.762 69.96 300.762 68.66C300.762 67.38 299.102 66.64 296.402 66.64ZM320.141 64.38H322.141V82.66H320.141V64.38ZM312.841 71.22H317.281V72.92H312.841V71.22ZM316.421 64.76H318.381V81.78H316.421V64.76ZM307.161 76.68H308.381C311.101 76.68 312.821 76.6 314.841 76.18L315.021 77.9C312.961 78.34 311.181 78.42 308.381 78.42H307.161V76.68ZM307.161 66.54H314.081V68.22H309.221V77.38H307.161V66.54ZM325.599 85.02L325.099 83.72C326.479 83.14 327.279 82.12 327.279 80.92L327.119 79.08L328.079 80.58C327.799 80.88 327.439 81 327.059 81C326.239 81 325.499 80.46 325.499 79.52C325.499 78.6 326.239 78.04 327.119 78.04C328.239 78.04 328.899 78.96 328.899 80.5C328.899 82.62 327.679 84.24 325.599 85.02ZM338.848 73.5H340.808V77.28H338.848V73.5ZM335.428 78.54L335.168 76.82C337.608 76.82 341.548 76.78 344.388 76.38L344.528 77.9C341.608 78.46 337.788 78.54 335.428 78.54ZM348.948 64.38H350.948V82.66H348.948V64.38ZM346.428 71.84H349.568V73.54H346.428V71.84ZM345.188 64.74H347.148V81.76H345.188V64.74ZM339.828 66.06C342.268 66.06 344.008 67.66 344.008 70C344.008 72.34 342.268 73.96 339.828 73.96C337.388 73.96 335.648 72.34 335.648 70C335.648 67.66 337.388 66.06 339.828 66.06ZM339.828 67.74C338.488 67.74 337.548 68.64 337.548 70C337.548 71.38 338.488 72.24 339.828 72.24C341.148 72.24 342.088 71.38 342.088 70C342.088 68.64 341.148 67.74 339.828 67.74ZM362.739 65.38H364.479V67.14C364.479 70.74 362.639 73.78 359.299 74.96L358.199 73.26C361.139 72.28 362.739 69.82 362.739 67.14V65.38ZM363.139 65.38H364.839V67.06C364.839 69.58 366.359 71.86 369.139 72.78L368.019 74.42C364.879 73.28 363.139 70.48 363.139 67.06V65.38ZM371.339 64.38H373.439V75.14H371.339V64.38ZM367.339 75.66C371.159 75.66 373.499 76.94 373.499 79.14C373.499 81.36 371.159 82.64 367.339 82.64C363.519 82.64 361.179 81.36 361.179 79.14C361.179 76.94 363.519 75.66 367.339 75.66ZM367.339 77.3C364.759 77.3 363.259 77.96 363.259 79.14C363.259 80.34 364.759 81 367.339 81C369.939 81 371.419 80.34 371.419 79.14C371.419 77.96 369.939 77.3 367.339 77.3ZM367.639 68H371.699V69.72H367.639V68ZM381.157 66.22H382.857V67.56C382.857 70.94 380.997 73.94 377.737 75.06L376.677 73.4C379.517 72.44 381.157 70.02 381.157 67.56V66.22ZM381.577 66.22H383.257V67.56C383.257 69.82 384.817 72.08 387.557 73.02L386.517 74.68C383.357 73.58 381.577 70.7 381.577 67.56V66.22ZM386.537 68.96H390.337V70.68H386.537V68.96ZM377.277 65.52H387.077V67.2H377.277V65.52ZM379.517 76.2H391.837V82.66H389.737V77.9H379.517V76.2ZM389.737 64.38H391.837V75.28H389.737V64.38ZM408.408 67.6H413.408V69.28H408.408V67.6ZM408.408 71.54H413.468V73.22H408.408V71.54ZM412.628 64.4H414.728V77.9H412.628V64.4ZM402.828 80.6H415.148V82.3H402.828V80.6ZM402.828 76.58H404.928V81.52H402.828V76.58ZM400.408 65.6H402.488V68.62H406.788V65.6H408.848V74.9H400.408V65.6ZM402.488 70.24V73.22H406.788V70.24H402.488ZM422.486 75.24H424.586V78.2H422.486V75.24ZM430.166 64.38H432.266V82.66H430.166V64.38ZM431.566 72H434.866V73.74H431.566V72ZM418.046 79.38L417.766 77.66C420.986 77.66 425.406 77.64 429.146 77.1L429.306 78.64C425.406 79.36 421.186 79.38 418.046 79.38ZM418.086 66.5H428.946V68.16H418.086V66.5ZM423.526 69.08C426.106 69.08 427.906 70.44 427.906 72.48C427.906 74.54 426.106 75.88 423.526 75.88C420.946 75.88 419.166 74.54 419.166 72.48C419.166 70.44 420.946 69.08 423.526 69.08ZM423.526 70.68C422.086 70.68 421.146 71.38 421.146 72.48C421.146 73.6 422.086 74.28 423.526 74.28C424.966 74.28 425.926 73.6 425.926 72.48C425.926 71.38 424.966 70.68 423.526 70.68ZM422.486 64.44H424.586V67.68H422.486V64.44ZM438.525 69.62H451.045V71.3H438.525V69.62ZM436.365 73.5H452.925V75.2H436.365V73.5ZM438.525 65.04H440.605V70.46H438.525V65.04ZM438.385 80.54H451.145V82.24H438.385V80.54ZM438.385 76.86H440.465V81H438.385V76.86ZM461.315 75.1H463.275V77.16H465.855V75.1H467.795V82.44H461.315V75.1ZM463.275 78.7V80.84H465.855V78.7H463.275ZM471.015 74.96H472.615V76.42C472.615 78.98 471.435 81.54 468.835 82.6L467.795 81.02C469.995 80.12 471.015 78.22 471.015 76.42V74.96ZM471.475 74.96H473.095V76.42C473.095 78.34 474.095 80.22 476.315 81.02L475.255 82.6C472.615 81.58 471.475 79.14 471.475 76.42V74.96ZM468.475 68.5H473.235V70.22H468.475V68.5ZM464.275 65.14C467.015 65.14 469.035 66.88 469.035 69.38C469.035 71.9 467.015 73.64 464.275 73.64C461.535 73.64 459.515 71.9 459.515 69.38C459.515 66.88 461.535 65.14 464.275 65.14ZM464.275 66.86C462.675 66.86 461.515 67.86 461.515 69.38C461.515 70.9 462.675 71.92 464.275 71.92C465.875 71.92 467.015 70.9 467.015 69.38C467.015 67.86 465.875 66.86 464.275 66.86ZM472.315 64.38H474.415V74.06H472.315V64.38ZM485.914 64.66C490.014 64.66 492.434 65.78 492.434 67.82C492.434 69.84 490.014 70.96 485.914 70.96C481.814 70.96 479.414 69.84 479.414 67.82C479.414 65.78 481.814 64.66 485.914 64.66ZM485.914 66.22C483.094 66.22 481.574 66.78 481.574 67.82C481.574 68.86 483.094 69.4 485.914 69.4C488.754 69.4 490.254 68.86 490.254 67.82C490.254 66.78 488.754 66.22 485.914 66.22ZM477.654 72.02H494.174V73.68H477.654V72.02ZM479.614 75.02H492.114V79.38H481.714V81.34H479.634V77.9H490.054V76.58H479.614V75.02ZM479.634 80.88H492.634V82.5H479.634V80.88ZM508.392 64.38H510.492V82.66H508.392V64.38ZM509.832 71.74H513.052V73.48H509.832V71.74ZM499.552 66.3H501.492C501.492 71 500.772 75.1 497.512 78.68L495.852 77.48C498.772 74.36 499.552 70.9 499.552 66.54V66.3ZM496.532 66.3H500.352V68.02H496.532V66.3ZM504.552 66.3H506.512C506.512 71.12 505.972 75.88 502.672 79.86L501.012 78.7C503.972 75.16 504.552 71.08 504.552 66.52V66.3ZM502.092 66.3H505.412V68.02H502.092V66.3ZM517.091 76.32C516.611 72.94 520.111 71.66 520.111 69.5C520.111 68.38 519.411 67.56 518.151 67.56C517.211 67.56 516.391 68.02 515.711 68.78L514.411 67.58C515.391 66.46 516.731 65.66 518.411 65.66C520.751 65.66 522.351 66.98 522.351 69.34C522.351 72.24 518.791 73.32 519.131 76.32H517.091ZM518.151 81.28C517.271 81.28 516.611 80.6 516.611 79.66C516.611 78.7 517.271 78.04 518.151 78.04C519.011 78.04 519.691 78.7 519.691 79.66C519.691 80.6 519.011 81.28 518.151 81.28Z" fill="black"/>
<path d="M58.46 119.38H60.46V137.66H58.46V119.38ZM55.7 126.64H59V128.34H55.7V126.64ZM54.34 119.74H56.3V136.76H54.34V119.74ZM45.72 121.5H47.82V132.06H45.72V121.5ZM45.72 131.24H46.92C48.76 131.24 50.82 131.14 53.16 130.68L53.38 132.5C50.94 132.96 48.84 133.04 46.92 133.04H45.72V131.24ZM76.2784 119.4H78.3784V132.76H76.2784V119.4ZM66.4384 135.6H78.8984V137.3H66.4384V135.6ZM66.4384 131.5H68.5384V136.44H66.4384V131.5ZM67.8584 120.4H69.5984V122.22C69.5984 125.78 67.7384 128.98 64.4584 130.22L63.3784 128.54C66.2784 127.48 67.8584 124.86 67.8584 122.22V120.4ZM68.2584 120.4H69.9784V122.22C69.9784 124.8 71.5584 127.24 74.3984 128.22L73.3184 129.88C70.0984 128.72 68.2584 125.72 68.2584 122.22V120.4ZM98.3691 119.38H100.469V128.6H98.3691V119.38ZM99.5891 123.12H103.029V124.84H99.5891V123.12ZM86.8491 120.34H95.3891V127.78H86.8491V120.34ZM93.3291 121.98H88.9091V126.12H93.3291V121.98ZM88.6691 129.4H100.469V134.12H90.7691V136.62H88.6891V132.58H98.4091V131.04H88.6691V129.4ZM88.6891 135.78H101.069V137.44H88.6891V135.78ZM106.327 121.08H118.008V122.78H106.327V121.08ZM104.608 133.54H121.128V135.26H104.608V133.54ZM110.768 127.12H112.868V134.4H110.768V127.12ZM117.228 121.08H119.328V122.86C119.328 125.14 119.328 127.68 118.628 131.46L116.528 131.22C117.228 127.66 117.228 125.06 117.228 122.86V121.08ZM123.646 140.02L123.146 138.72C124.526 138.14 125.326 137.12 125.326 135.92L125.166 134.08L126.126 135.58C125.846 135.88 125.486 136 125.106 136C124.286 136 123.546 135.46 123.546 134.52C123.546 133.6 124.286 133.04 125.166 133.04C126.286 133.04 126.946 133.96 126.946 135.5C126.946 137.62 125.726 139.24 123.646 140.02ZM140.615 119.98H142.455V120.92C142.455 124.42 139.235 127.14 135.015 127.82L134.195 126.12C137.895 125.6 140.615 123.32 140.615 120.92V119.98ZM140.995 119.98H142.815V120.92C142.815 123.28 145.555 125.6 149.255 126.12L148.435 127.82C144.215 127.14 140.995 124.4 140.995 120.92V119.98ZM140.615 130.82H142.695V137.66H140.615V130.82ZM133.455 129.5H149.975V131.22H133.455V129.5ZM154.014 124.22H166.514V125.9H154.014V124.22ZM154.014 119.72H156.094V124.98H154.014V119.72ZM151.854 127.78H168.374V129.46H151.854V127.78ZM160.074 130.9C163.994 130.9 166.374 132.1 166.374 134.26C166.374 136.38 163.994 137.6 160.074 137.6C156.154 137.6 153.774 136.38 153.774 134.26C153.774 132.1 156.154 130.9 160.074 130.9ZM160.074 132.52C157.394 132.52 155.894 133.1 155.894 134.26C155.894 135.36 157.394 135.98 160.074 135.98C162.754 135.98 164.254 135.36 164.254 134.26C164.254 133.1 162.754 132.52 160.074 132.52ZM178.492 119.66C182.592 119.66 185.012 120.78 185.012 122.82C185.012 124.84 182.592 125.96 178.492 125.96C174.392 125.96 171.992 124.84 171.992 122.82C171.992 120.78 174.392 119.66 178.492 119.66ZM178.492 121.22C175.672 121.22 174.152 121.78 174.152 122.82C174.152 123.86 175.672 124.4 178.492 124.4C181.332 124.4 182.832 123.86 182.832 122.82C182.832 121.78 181.332 121.22 178.492 121.22ZM170.232 127.02H186.752V128.68H170.232V127.02ZM172.192 130.02H184.692V134.38H174.292V136.34H172.212V132.9H182.632V131.58H172.192V130.02ZM172.212 135.88H185.212V137.5H172.212V135.88ZM201.303 130.84C205.223 130.84 207.723 132.12 207.723 134.26C207.723 136.36 205.223 137.64 201.303 137.64C197.403 137.64 194.903 136.36 194.903 134.26C194.903 132.12 197.403 130.84 201.303 130.84ZM201.303 132.44C198.623 132.44 196.983 133.1 196.983 134.26C196.983 135.38 198.623 136.04 201.303 136.04C204.003 136.04 205.643 135.38 205.643 134.26C205.643 133.1 204.003 132.44 201.303 132.44ZM195.063 120.26H206.743V121.92H195.063V120.26ZM193.163 127.74H209.623V129.4H193.163V127.74ZM199.623 124.36H201.703V128.18H199.623V124.36ZM205.523 120.26H207.603V121.78C207.603 123.24 207.603 124.76 207.103 126.64L205.023 126.42C205.523 124.54 205.523 123.2 205.523 121.78V120.26ZM211.521 130.06H228.081V131.74H211.521V130.06ZM218.701 130.88H220.781V137.66H218.701V130.88ZM213.521 120.1H215.601V122.42H223.961V120.1H226.041V128.08H213.521V120.1ZM215.601 124.08V126.4H223.961V124.08H215.601ZM242.02 119.38H244.1V137.66H242.02V119.38ZM243.62 126.72H246.94V128.46H243.62V126.72ZM229.84 122.2H240.56V123.88H229.84V122.2ZM235.26 125.2C237.86 125.2 239.78 126.96 239.78 129.46C239.78 131.98 237.86 133.74 235.26 133.74C232.64 133.74 230.72 131.98 230.72 129.46C230.72 126.96 232.64 125.2 235.26 125.2ZM235.26 126.92C233.78 126.92 232.72 127.92 232.72 129.46C232.72 131 233.78 132.02 235.26 132.02C236.72 132.02 237.78 131 237.78 129.46C237.78 127.92 236.72 126.92 235.26 126.92ZM234.18 119.64H236.28V122.9H234.18V119.64ZM250.478 124.62H262.998V126.3H250.478V124.62ZM248.318 128.5H264.878V130.2H248.318V128.5ZM250.478 120.04H252.558V125.46H250.478V120.04ZM250.338 135.54H263.098V137.24H250.338V135.54ZM250.338 131.86H252.418V136H250.338V131.86ZM279.609 130.72C283.349 130.72 285.689 132 285.689 134.18C285.689 136.38 283.349 137.66 279.609 137.66C275.849 137.66 273.509 136.38 273.509 134.18C273.509 132 275.849 130.72 279.609 130.72ZM279.609 132.38C277.069 132.38 275.589 133 275.589 134.18C275.589 135.38 277.069 136.02 279.609 136.02C282.149 136.02 283.609 135.38 283.609 134.18C283.609 133 282.149 132.38 279.609 132.38ZM283.389 119.38H285.489V130.26H283.389V119.38ZM284.909 123.82H288.069V125.56H284.909V123.82ZM271.869 120.54H273.949V123.06H278.409V120.54H280.469V129.04H271.869V120.54ZM273.949 124.7V127.38H278.409V124.7H273.949ZM290.447 120.32H292.527V122.9H296.827V120.32H298.887V128.76H290.447V120.32ZM292.527 124.52V127.06H296.827V124.52H292.527ZM298.367 123.72H303.207V125.44H298.367V123.72ZM302.667 119.38H304.767V129.38H302.667V119.38ZM292.867 130.22H294.947V132.16H302.687V130.22H304.747V137.42H292.867V130.22ZM294.947 133.8V135.74H302.687V133.8H294.947ZM320.965 119.36H323.065V137.68H320.965V119.36ZM313.325 120.72C316.065 120.72 318.045 123.22 318.045 127.16C318.045 131.1 316.065 133.62 313.325 133.62C310.605 133.62 308.625 131.1 308.625 127.16C308.625 123.22 310.605 120.72 313.325 120.72ZM313.325 122.62C311.725 122.62 310.625 124.32 310.625 127.16C310.625 130.02 311.725 131.74 313.325 131.74C314.925 131.74 316.025 130.02 316.025 127.16C316.025 124.32 314.925 122.62 313.325 122.62ZM335.256 130.56H336.856V131.38C336.856 133.94 335.476 136.4 332.736 137.4L331.716 135.86C334.056 135.04 335.256 133.14 335.256 131.38V130.56ZM335.756 130.56H337.276V131.38C337.276 133.18 338.296 135.1 340.496 136L339.636 137.58C336.876 136.52 335.756 133.92 335.756 131.38V130.56ZM341.976 130.56H343.496V131.38C343.496 133.7 342.336 136.46 339.636 137.58L338.776 136C340.956 135.02 341.976 132.98 341.976 131.38V130.56ZM342.436 130.56H344.036V131.38C344.036 133.26 345.216 135.1 347.576 135.86L346.556 137.4C343.776 136.44 342.436 134.06 342.436 131.38V130.56ZM343.876 119.4H345.976V129.78H343.876V119.4ZM336.116 120.4C338.916 120.4 340.956 122.16 340.956 124.72C340.956 127.24 338.916 129.02 336.116 129.02C333.316 129.02 331.256 127.24 331.256 124.72C331.256 122.16 333.316 120.4 336.116 120.4ZM336.116 122.14C334.496 122.14 333.296 123.16 333.296 124.72C333.296 126.28 334.496 127.28 336.116 127.28C337.736 127.28 338.916 126.28 338.916 124.72C338.916 123.16 337.736 122.14 336.116 122.14ZM357.555 119.66C361.655 119.66 364.075 120.78 364.075 122.82C364.075 124.84 361.655 125.96 357.555 125.96C353.455 125.96 351.055 124.84 351.055 122.82C351.055 120.78 353.455 119.66 357.555 119.66ZM357.555 121.22C354.735 121.22 353.215 121.78 353.215 122.82C353.215 123.86 354.735 124.4 357.555 124.4C360.395 124.4 361.895 123.86 361.895 122.82C361.895 121.78 360.395 121.22 357.555 121.22ZM349.295 127.02H365.815V128.68H349.295V127.02ZM351.255 130.02H363.755V134.38H353.355V136.34H351.275V132.9H361.695V131.58H351.255V130.02ZM351.275 135.88H364.275V137.5H351.275V135.88ZM380.033 119.38H382.133V137.66H380.033V119.38ZM381.473 126.74H384.693V128.48H381.473V126.74ZM371.193 121.3H373.133C373.133 126 372.413 130.1 369.153 133.68L367.493 132.48C370.413 129.36 371.193 125.9 371.193 121.54V121.3ZM368.173 121.3H371.993V123.02H368.173V121.3ZM376.193 121.3H378.153C378.153 126.12 377.613 130.88 374.313 134.86L372.653 133.7C375.613 130.16 376.193 126.08 376.193 121.52V121.3ZM373.733 121.3H377.053V123.02H373.733V121.3ZM388.731 131.32C388.251 127.94 391.751 126.66 391.751 124.5C391.751 123.38 391.051 122.56 389.791 122.56C388.851 122.56 388.031 123.02 387.351 123.78L386.051 122.58C387.031 121.46 388.371 120.66 390.051 120.66C392.391 120.66 393.991 121.98 393.991 124.34C393.991 127.24 390.431 128.32 390.771 131.32H388.731ZM389.791 136.28C388.911 136.28 388.251 135.6 388.251 134.66C388.251 133.7 388.911 133.04 389.791 133.04C390.651 133.04 391.331 133.7 391.331 134.66C391.331 135.6 390.651 136.28 389.791 136.28Z" fill="black"/>
<path d="M49.78 175.72C52.5 175.72 54.46 178.22 54.46 182.16C54.46 186.1 52.5 188.62 49.78 188.62C47.06 188.62 45.1 186.1 45.1 182.16C45.1 178.22 47.06 175.72 49.78 175.72ZM49.78 177.62C48.2 177.62 47.1 179.32 47.1 182.16C47.1 185.02 48.2 186.74 49.78 186.74C51.36 186.74 52.46 185.02 52.46 182.16C52.46 179.32 51.36 177.62 49.78 177.62ZM56.98 174.38H59.08V192.66H56.98V174.38ZM58.6 181.5H61.92V183.24H58.6V181.5ZM76.2584 174.36H78.3584V192.68H76.2584V174.36ZM68.6184 175.72C71.3584 175.72 73.3384 178.22 73.3384 182.16C73.3384 186.1 71.3584 188.62 68.6184 188.62C65.8984 188.62 63.9184 186.1 63.9184 182.16C63.9184 178.22 65.8984 175.72 68.6184 175.72ZM68.6184 177.62C67.0184 177.62 65.9184 179.32 65.9184 182.16C65.9184 185.02 67.0184 186.74 68.6184 186.74C70.2184 186.74 71.3184 185.02 71.3184 182.16C71.3184 179.32 70.2184 177.62 68.6184 177.62ZM93.7769 174.36H95.8769V192.64H93.7769V174.36ZM95.3169 181.6H98.6169V183.32H95.3169V181.6ZM89.0369 176.3H91.0969C91.0969 181.62 88.8369 186.32 82.8569 189.32L81.6769 187.72C86.6169 185.2 89.0369 181.54 89.0369 176.66V176.3ZM82.5969 176.3H90.1169V178H82.5969V176.3ZM112.768 185.84C116.688 185.84 119.188 187.12 119.188 189.26C119.188 191.36 116.688 192.64 112.768 192.64C108.868 192.64 106.368 191.36 106.368 189.26C106.368 187.12 108.868 185.84 112.768 185.84ZM112.768 187.44C110.088 187.44 108.448 188.1 108.448 189.26C108.448 190.38 110.088 191.04 112.768 191.04C115.468 191.04 117.108 190.38 117.108 189.26C117.108 188.1 115.468 187.44 112.768 187.44ZM106.528 175.26H118.208V176.92H106.528V175.26ZM104.628 182.74H121.088V184.4H104.628V182.74ZM111.088 179.36H113.168V183.18H111.088V179.36ZM116.988 175.26H119.068V176.78C119.068 178.24 119.068 179.76 118.568 181.64L116.488 181.42C116.988 179.54 116.988 178.2 116.988 176.78V175.26ZM122.986 185.06H139.546V186.74H122.986V185.06ZM130.166 185.88H132.246V192.66H130.166V185.88ZM124.986 175.1H127.066V177.42H135.426V175.1H137.506V183.08H124.986V175.1ZM127.066 179.08V181.4H135.426V179.08H127.066ZM153.484 174.38H155.564V192.66H153.484V174.38ZM155.084 181.72H158.404V183.46H155.084V181.72ZM141.304 177.2H152.024V178.88H141.304V177.2ZM146.724 180.2C149.324 180.2 151.244 181.96 151.244 184.46C151.244 186.98 149.324 188.74 146.724 188.74C144.104 188.74 142.184 186.98 142.184 184.46C142.184 181.96 144.104 180.2 146.724 180.2ZM146.724 181.92C145.244 181.92 144.184 182.92 144.184 184.46C144.184 186 145.244 187.02 146.724 187.02C148.184 187.02 149.244 186 149.244 184.46C149.244 182.92 148.184 181.92 146.724 181.92ZM145.644 174.64H147.744V177.9H145.644V174.64ZM161.943 179.62H174.463V181.3H161.943V179.62ZM159.783 183.5H176.343V185.2H159.783V183.5ZM161.943 175.04H164.023V180.46H161.943V175.04ZM161.803 190.54H174.563V192.24H161.803V190.54ZM161.803 186.86H163.883V191H161.803V186.86ZM191.073 185.72C194.813 185.72 197.153 187 197.153 189.18C197.153 191.38 194.813 192.66 191.073 192.66C187.313 192.66 184.973 191.38 184.973 189.18C184.973 187 187.313 185.72 191.073 185.72ZM191.073 187.38C188.533 187.38 187.053 188 187.053 189.18C187.053 190.38 188.533 191.02 191.073 191.02C193.613 191.02 195.073 190.38 195.073 189.18C195.073 188 193.613 187.38 191.073 187.38ZM194.853 174.38H196.953V185.26H194.853V174.38ZM196.373 178.82H199.533V180.56H196.373V178.82ZM183.333 175.54H185.413V178.06H189.873V175.54H191.933V184.04H183.333V175.54ZM185.413 179.7V182.38H189.873V179.7H185.413ZM201.912 175.32H203.992V177.9H208.292V175.32H210.352V183.76H201.912V175.32ZM203.992 179.52V182.06H208.292V179.52H203.992ZM209.832 178.72H214.672V180.44H209.832V178.72ZM214.132 174.38H216.232V184.38H214.132V174.38ZM204.332 185.22H206.412V187.16H214.152V185.22H216.212V192.42H204.332V185.22ZM206.412 188.8V190.74H214.152V188.8H206.412ZM227.73 174.66C231.83 174.66 234.25 175.78 234.25 177.82C234.25 179.84 231.83 180.96 227.73 180.96C223.63 180.96 221.23 179.84 221.23 177.82C221.23 175.78 223.63 174.66 227.73 174.66ZM227.73 176.22C224.91 176.22 223.39 176.78 223.39 177.82C223.39 178.86 224.91 179.4 227.73 179.4C230.57 179.4 232.07 178.86 232.07 177.82C232.07 176.78 230.57 176.22 227.73 176.22ZM219.47 182.02H235.99V183.68H219.47V182.02ZM221.43 185.02H233.93V189.38H223.53V191.34H221.45V187.9H231.87V186.58H221.43V185.02ZM221.45 190.88H234.45V192.5H221.45V190.88ZM242.381 188.7H258.941V190.42H242.381V188.7ZM249.581 184.28H251.661V189.14H249.581V184.28ZM244.221 175.82H257.001V184.6H244.221V175.82ZM254.961 177.5H246.281V182.92H254.961V177.5ZM260.779 188.74H277.339V190.48H260.779V188.74ZM262.719 175.7H275.359V181.5H264.839V184.88H262.759V179.84H273.279V177.4H262.719V175.7ZM262.759 184.04H275.779V185.72H262.759V184.04ZM281.318 179.62H293.838V181.3H281.318V179.62ZM279.158 183.5H295.718V185.2H279.158V183.5ZM281.318 175.04H283.398V180.46H281.318V175.04ZM281.178 190.54H293.938V192.24H281.178V190.54ZM281.178 186.86H283.258V191H281.178V186.86ZM315.108 174.38H317.208V186.64H315.108V174.38ZM311.528 179.4H315.468V181.1H311.528V179.4ZM309.248 175.8H311.448C311.448 180.64 308.568 183.94 303.208 185.66L302.328 184.02C306.928 182.6 309.248 180.02 309.248 176.68V175.8ZM303.228 175.8H310.768V177.48H303.228V175.8ZM310.148 185.18H311.928V185.9C311.928 189.34 309.068 191.86 305.048 192.62L304.228 190.96C307.748 190.36 310.148 188.3 310.148 185.9V185.18ZM310.448 185.18H312.228V185.9C312.228 188.28 314.608 190.34 318.128 190.92L317.288 192.58C313.288 191.84 310.448 189.32 310.448 185.9V185.18ZM337.119 174.38H339.219V184.06H337.119V174.38ZM338.639 178.4H341.799V180.12H338.639V178.4ZM331.999 175.64H334.319C334.319 180.34 331.239 183.26 325.799 184.4L324.959 182.72C329.759 181.78 331.999 179.52 331.999 176.86V175.64ZM325.759 175.64H333.279V177.32H325.759V175.64ZM327.519 184.84H339.299V186.4H329.599V191.66H327.519V184.84ZM327.519 190.88H339.699V192.44H327.519V190.88ZM328.919 187.84H339.099V189.36H328.919V187.84ZM343.338 183.86H359.858V185.54H343.338V183.86ZM345.418 190.6H358.018V192.3H345.418V190.6ZM345.418 186.98H347.518V191.12H345.418V186.98ZM351.598 174.96C355.538 174.96 358.118 176.36 358.118 178.66C358.118 180.96 355.538 182.36 351.598 182.36C347.658 182.36 345.098 180.96 345.098 178.66C345.098 176.36 347.658 174.96 351.598 174.96ZM351.598 176.64C348.918 176.64 347.258 177.38 347.258 178.66C347.258 179.96 348.918 180.68 351.598 180.68C354.298 180.68 355.958 179.96 355.958 178.66C355.958 177.38 354.298 176.64 351.598 176.64ZM375.336 174.38H377.336V192.66H375.336V174.38ZM368.036 181.22H372.476V182.92H368.036V181.22ZM371.616 174.76H373.576V191.78H371.616V174.76ZM362.356 186.68H363.576C366.296 186.68 368.016 186.6 370.036 186.18L370.216 187.9C368.156 188.34 366.376 188.42 363.576 188.42H362.356V186.68ZM362.356 176.54H369.276V178.22H364.416V187.38H362.356V176.54ZM382.774 186.32C382.294 182.94 385.794 181.66 385.794 179.5C385.794 178.38 385.094 177.56 383.834 177.56C382.894 177.56 382.074 178.02 381.394 178.78L380.094 177.58C381.074 176.46 382.414 175.66 384.094 175.66C386.434 175.66 388.034 176.98 388.034 179.34C388.034 182.24 384.474 183.32 384.814 186.32H382.774ZM383.834 191.28C382.954 191.28 382.294 190.6 382.294 189.66C382.294 188.7 382.954 188.04 383.834 188.04C384.694 188.04 385.374 188.7 385.374 189.66C385.374 190.6 384.694 191.28 383.834 191.28Z" fill="black"/>
<path d="M58.46 229.38H60.46V247.66H58.46V229.38ZM55.7 236.64H59V238.34H55.7V236.64ZM54.34 229.74H56.3V246.76H54.34V229.74ZM45.72 231.5H47.82V242.06H45.72V231.5ZM45.72 241.24H46.92C48.76 241.24 50.82 241.14 53.16 240.68L53.38 242.5C50.94 242.96 48.84 243.04 46.92 243.04H45.72V241.24ZM75.3784 229.36H77.4784V247.64H75.3784V229.36ZM76.9184 236.6H80.2184V238.32H76.9184V236.6ZM70.6384 231.3H72.6984C72.6984 236.62 70.4384 241.32 64.4584 244.32L63.2784 242.72C68.2184 240.2 70.6384 236.54 70.6384 231.66V231.3ZM64.1984 231.3H71.7184V233H64.1984V231.3ZM99.1691 229.4H101.269V242.76H99.1691V229.4ZM89.3291 245.6H101.789V247.3H89.3291V245.6ZM89.3291 241.5H91.4291V246.44H89.3291V241.5ZM90.7491 230.4H92.4891V232.22C92.4891 235.78 90.6291 238.98 87.3491 240.22L86.2691 238.54C89.1691 237.48 90.7491 234.86 90.7491 232.22V230.4ZM91.1491 230.4H92.8691V232.22C92.8691 234.8 94.4491 237.24 97.2891 238.22L96.2091 239.88C92.9891 238.72 91.1491 235.72 91.1491 232.22V230.4ZM113.368 232.54H117.988V234.22H113.368V232.54ZM113.208 236.32H117.868V238.02H113.208V236.32ZM117.648 229.38H119.748V240.14H117.648V229.38ZM111.828 230.7H114.048C114.048 235.52 111.008 238.78 105.628 240.32L104.788 238.66C109.448 237.38 111.828 234.86 111.828 231.66V230.7ZM105.768 230.7H113.268V232.38H105.768V230.7ZM113.748 240.36C117.448 240.36 119.848 241.72 119.848 243.96C119.848 246.2 117.448 247.58 113.748 247.58C110.048 247.58 107.648 246.2 107.648 243.96C107.648 241.72 110.048 240.36 113.748 240.36ZM113.748 241.98C111.268 241.98 109.708 242.7 109.708 243.96C109.708 245.22 111.268 245.92 113.748 245.92C116.248 245.92 117.788 245.22 117.788 243.96C117.788 242.7 116.248 241.98 113.748 241.98ZM131.246 229.66C135.346 229.66 137.766 230.78 137.766 232.82C137.766 234.84 135.346 235.96 131.246 235.96C127.146 235.96 124.746 234.84 124.746 232.82C124.746 230.78 127.146 229.66 131.246 229.66ZM131.246 231.22C128.426 231.22 126.906 231.78 126.906 232.82C126.906 233.86 128.426 234.4 131.246 234.4C134.086 234.4 135.586 233.86 135.586 232.82C135.586 231.78 134.086 231.22 131.246 231.22ZM122.986 237.02H139.506V238.68H122.986V237.02ZM124.946 240.02H137.446V244.38H127.046V246.34H124.966V242.9H135.386V241.58H124.946V240.02ZM124.966 245.88H137.966V247.5H124.966V245.88ZM147.957 230.12H160.297V236.36H147.957V230.12ZM158.237 231.78H150.017V234.7H158.237V231.78ZM145.877 238.28H162.397V239.94H145.877V238.28ZM153.097 235.92H155.177V238.9H153.097V235.92ZM153.077 240.96H154.877V241.42C154.877 244.68 151.977 246.94 147.837 247.56L147.077 245.94C150.717 245.46 153.077 243.62 153.077 241.42V240.96ZM153.397 240.96H155.197V241.42C155.197 243.62 157.557 245.46 161.197 245.94L160.417 247.56C156.297 246.94 153.397 244.68 153.397 241.42V240.96ZM182.127 229.38H184.247V247.66H182.127V229.38ZM179.347 235.78H183.127V237.58H179.347V235.78ZM171.167 230.92H172.707V234.58C172.707 237.88 172.147 241.68 169.807 243.54L168.427 242.06C170.707 240.34 171.167 237.16 171.167 234.58V230.92ZM171.647 230.92H173.127V234.58C173.127 237.02 173.527 240.36 175.807 242.2L174.667 243.76C172.107 241.84 171.647 237.7 171.647 234.58V230.92ZM176.187 230.92H177.687V234.58C177.687 237.78 177.207 241.86 174.667 243.76L173.527 242.2C175.807 240.4 176.187 237.12 176.187 234.58V230.92ZM176.647 230.92H178.187V234.58C178.187 237.22 178.647 240.36 180.927 242.06L179.627 243.6C177.187 241.74 176.647 237.92 176.647 234.58V230.92ZM194.026 231.2H195.886V231.7C195.886 234.7 192.966 237 188.826 237.54L188.046 235.88C191.606 235.44 194.026 233.62 194.026 231.7V231.2ZM194.986 231.2H196.826V231.7C196.826 233.64 199.266 235.44 202.826 235.88L202.046 237.54C197.906 237 194.986 234.7 194.986 231.7V231.2ZM188.686 230.24H202.206V231.9H188.686V230.24ZM187.166 238.64H203.726V240.34H187.166V238.64ZM194.566 239.7H196.646V243.76H194.566V239.7ZM189.186 245.6H201.886V247.3H189.186V245.6ZM189.186 242.08H191.266V246.22H189.186V242.08ZM223.656 229.38H225.656V247.66H223.656V229.38ZM220.856 236.58H224.156V238.28H220.856V236.58ZM219.536 229.74H221.476V246.76H219.536V229.74ZM210.656 241.58H211.896C214.376 241.58 216.216 241.5 218.356 241.08L218.536 242.8C216.336 243.24 214.456 243.32 211.896 243.32H210.656V241.58ZM210.656 231.56H217.436V233.26H212.736V242.4H210.656V231.56ZM241.435 229.38H243.535V239.2H241.435V229.38ZM231.595 240.06H233.655V242.04H241.455V240.06H243.535V247.44H231.595V240.06ZM233.655 243.68V245.76H241.455V243.68H233.655ZM233.675 230.2C236.475 230.2 238.515 231.94 238.515 234.46C238.515 236.96 236.475 238.72 233.675 238.72C230.875 238.72 228.815 236.96 228.815 234.46C228.815 231.94 230.875 230.2 233.675 230.2ZM233.675 231.94C232.035 231.94 230.855 232.94 230.855 234.46C230.855 235.98 232.035 236.98 233.675 236.98C235.315 236.98 236.475 235.98 236.475 234.46C236.475 232.94 235.315 231.94 233.675 231.94ZM261.185 233.98H265.005V235.7H261.185V233.98ZM264.405 229.38H266.505V240.26H264.405V229.38ZM260.405 240.74C264.225 240.74 266.565 242.04 266.565 244.2C266.565 246.4 264.225 247.66 260.405 247.66C256.585 247.66 254.245 246.4 254.245 244.2C254.245 242.04 256.585 240.74 260.405 240.74ZM260.405 242.36C257.825 242.36 256.325 243 256.325 244.2C256.325 245.4 257.825 246.04 260.405 246.04C263.005 246.04 264.485 245.4 264.485 244.2C264.485 243 263.005 242.36 260.405 242.36ZM255.825 231.22H257.525V232.56C257.525 235.98 255.665 239 252.425 240.16L251.345 238.5C254.205 237.5 255.825 235.06 255.825 232.56V231.22ZM256.245 231.22H257.925V232.54C257.925 234.82 259.485 237.08 262.225 238.02L261.185 239.68C258.025 238.58 256.245 235.7 256.245 232.54V231.22ZM251.945 230.62H261.745V232.3H251.945V230.62ZM269.764 243.7H286.324V245.42H269.764V243.7ZM276.964 239.54H279.044V244.16H276.964V239.54ZM271.604 230.62H273.704V233.68H282.324V230.62H284.404V240.04H271.604V230.62ZM273.704 235.34V238.34H282.324V235.34H273.704ZM290.302 234.62H302.822V236.3H290.302V234.62ZM288.142 238.5H304.702V240.2H288.142V238.5ZM290.302 230.04H292.382V235.46H290.302V230.04ZM290.162 245.54H302.922V247.24H290.162V245.54ZM290.162 241.86H292.242V246H290.162V241.86ZM315.973 230.72C318.673 230.72 320.593 233.22 320.593 237.16C320.593 241.1 318.673 243.62 315.973 243.62C313.273 243.62 311.353 241.1 311.353 237.16C311.353 233.22 313.273 230.72 315.973 230.72ZM315.973 232.62C314.413 232.62 313.353 234.32 313.353 237.16C313.353 240.02 314.413 241.74 315.973 241.74C317.553 241.74 318.613 240.02 318.613 237.16C318.613 234.32 317.553 232.62 315.973 232.62ZM324.133 229.36H326.213V247.68H324.133V229.36ZM319.953 236.18H325.033V237.86H319.953V236.18ZM342.391 229.38H344.491V247.7H342.391V229.38ZM330.591 241.48H332.111C335.831 241.48 338.091 241.38 340.691 240.9L340.891 242.64C338.251 243.14 335.891 243.24 332.111 243.24H330.591V241.48ZM330.591 231.06H339.291V232.78H332.671V242.14H330.591V231.06ZM357.01 235.36H361.97V237.06H357.01V235.36ZM352.35 230.88H354.05V233.88C354.05 238.18 352.17 242.26 349.03 243.88L347.71 242.2C350.59 240.82 352.35 237.3 352.35 233.88V230.88ZM352.77 230.88H354.45V233.88C354.45 237.26 356.19 240.58 359.01 241.88L357.75 243.56C354.59 241.98 352.77 238.12 352.77 233.88V230.88ZM360.93 229.36H363.01V247.68H360.93V229.36ZM373.88 240.76H385.98V242.44H375.96V246.66H373.88V240.76ZM373.88 245.76H386.26V247.44H373.88V245.76ZM383.78 229.38H385.88V239.82H383.78V229.38ZM379.68 233.82H384.28V235.54H379.68V233.82ZM375.74 230.32C378.44 230.32 380.5 232.16 380.5 234.74C380.5 237.3 378.44 239.14 375.74 239.14C373.02 239.14 370.98 237.3 370.98 234.74C370.98 232.16 373.02 230.32 375.74 230.32ZM375.74 232.1C374.16 232.1 372.98 233.14 372.98 234.74C372.98 236.32 374.16 237.36 375.74 237.36C377.32 237.36 378.48 236.32 378.48 234.74C378.48 233.14 377.32 232.1 375.74 232.1ZM397.379 229.66C401.479 229.66 403.899 230.78 403.899 232.82C403.899 234.84 401.479 235.96 397.379 235.96C393.279 235.96 390.879 234.84 390.879 232.82C390.879 230.78 393.279 229.66 397.379 229.66ZM397.379 231.22C394.559 231.22 393.039 231.78 393.039 232.82C393.039 233.86 394.559 234.4 397.379 234.4C400.219 234.4 401.719 233.86 401.719 232.82C401.719 231.78 400.219 231.22 397.379 231.22ZM389.119 237.02H405.639V238.68H389.119V237.02ZM391.079 240.02H403.579V244.38H393.179V246.34H391.099V242.9H401.519V241.58H391.079V240.02ZM391.099 245.88H404.099V247.5H391.099V245.88ZM419.189 229.98H421.029V230.92C421.029 234.42 417.809 237.14 413.589 237.82L412.769 236.12C416.469 235.6 419.189 233.32 419.189 230.92V229.98ZM419.569 229.98H421.389V230.92C421.389 233.28 424.129 235.6 427.829 236.12L427.009 237.82C422.789 237.14 419.569 234.4 419.569 230.92V229.98ZM419.189 240.82H421.269V247.66H419.189V240.82ZM412.029 239.5H428.549V241.22H412.029V239.5ZM439.26 240.56H440.86V241.38C440.86 243.94 439.48 246.4 436.74 247.4L435.72 245.86C438.06 245.04 439.26 243.14 439.26 241.38V240.56ZM439.76 240.56H441.28V241.38C441.28 243.18 442.3 245.1 444.5 246L443.64 247.58C440.88 246.52 439.76 243.92 439.76 241.38V240.56ZM445.98 240.56H447.5V241.38C447.5 243.7 446.34 246.46 443.64 247.58L442.78 246C444.96 245.02 445.98 242.98 445.98 241.38V240.56ZM446.44 240.56H448.04V241.38C448.04 243.26 449.22 245.1 451.58 245.86L450.56 247.4C447.78 246.44 446.44 244.06 446.44 241.38V240.56ZM447.88 229.4H449.98V239.78H447.88V229.4ZM440.12 230.4C442.92 230.4 444.96 232.16 444.96 234.72C444.96 237.24 442.92 239.02 440.12 239.02C437.32 239.02 435.26 237.24 435.26 234.72C435.26 232.16 437.32 230.4 440.12 230.4ZM440.12 232.14C438.5 232.14 437.3 233.16 437.3 234.72C437.3 236.28 438.5 237.28 440.12 237.28C441.74 237.28 442.92 236.28 442.92 234.72C442.92 233.16 441.74 232.14 440.12 232.14ZM461.558 229.66C465.658 229.66 468.078 230.78 468.078 232.82C468.078 234.84 465.658 235.96 461.558 235.96C457.458 235.96 455.058 234.84 455.058 232.82C455.058 230.78 457.458 229.66 461.558 229.66ZM461.558 231.22C458.738 231.22 457.218 231.78 457.218 232.82C457.218 233.86 458.738 234.4 461.558 234.4C464.398 234.4 465.898 233.86 465.898 232.82C465.898 231.78 464.398 231.22 461.558 231.22ZM453.298 237.02H469.818V238.68H453.298V237.02ZM455.258 240.02H467.758V244.38H457.358V246.34H455.278V242.9H465.698V241.58H455.258V240.02ZM455.278 245.88H468.278V247.5H455.278V245.88ZM484.037 229.38H486.137V247.66H484.037V229.38ZM485.477 236.74H488.697V238.48H485.477V236.74ZM475.197 231.3H477.137C477.137 236 476.417 240.1 473.157 243.68L471.497 242.48C474.417 239.36 475.197 235.9 475.197 231.54V231.3ZM472.177 231.3H475.997V233.02H472.177V231.3ZM480.197 231.3H482.157C482.157 236.12 481.617 240.88 478.317 244.86L476.657 243.7C479.617 240.16 480.197 236.08 480.197 231.52V231.3ZM477.737 231.3H481.057V233.02H477.737V231.3ZM492.735 241.32C492.255 237.94 495.755 236.66 495.755 234.5C495.755 233.38 495.055 232.56 493.795 232.56C492.855 232.56 492.035 233.02 491.355 233.78L490.055 232.58C491.035 231.46 492.375 230.66 494.055 230.66C496.395 230.66 497.995 231.98 497.995 234.34C497.995 237.24 494.435 238.32 494.775 241.32H492.735ZM493.795 246.28C492.915 246.28 492.255 245.6 492.255 244.66C492.255 243.7 492.915 243.04 493.795 243.04C494.655 243.04 495.335 243.7 495.335 244.66C495.335 245.6 494.655 246.28 493.795 246.28Z" fill="black"/>
<path d="M57.96 284.4H60.06V298.32H57.96V284.4ZM55.18 289.1H58.78V290.8H55.18V289.1ZM55.18 292.98H58.78V294.66H55.18V292.98ZM44.94 286.48H55.1V288.14H44.94V286.48ZM50.1 288.98C52.56 288.98 54.3 290.42 54.3 292.52C54.3 294.62 52.56 296.06 50.1 296.06C47.64 296.06 45.9 294.62 45.9 292.52C45.9 290.42 47.64 288.98 50.1 288.98ZM50.1 290.62C48.78 290.62 47.88 291.36 47.88 292.52C47.88 293.7 48.78 294.44 50.1 294.44C51.42 294.44 52.34 293.7 52.34 292.52C52.34 291.36 51.42 290.62 50.1 290.62ZM49.08 284.36H51.16V287.52H49.08V284.36ZM48.16 300.6H60.48V302.3H48.16V300.6ZM48.16 297.14H50.26V301.4H48.16V297.14ZM76.9984 284.38H78.9984V302.66H76.9984V284.38ZM74.4184 291.58H77.7184V293.32H74.4184V291.58ZM73.0384 284.72H74.9984V301.78H73.0384V284.72ZM66.8584 287.22H68.4584V289.1C68.4584 293.54 67.2184 297.28 64.3184 299.02L63.0384 297.42C65.7184 295.9 66.8584 292.74 66.8584 289.1V287.22ZM67.2584 287.22H68.8784V289.1C68.8784 292.4 70.0384 295.4 72.6784 296.76L71.4584 298.36C68.5384 296.78 67.2584 293.22 67.2584 289.1V287.22ZM63.5384 286.4H71.9384V288.1H63.5384V286.4ZM99.8091 291.5H103.109V293.24H99.8091V291.5ZM98.2691 284.36H100.369V302.64H98.2691V284.36ZM86.8491 286.14H88.9291V297.48H86.8491V286.14ZM86.8491 296.34H88.3491C91.0091 296.34 93.8091 296.16 96.7891 295.56L97.0291 297.28C93.9491 297.92 91.0891 298.1 88.3491 298.1H86.8491V296.34ZM110.508 285.66C113.368 285.66 115.447 287.46 115.447 290.04C115.447 292.64 113.368 294.44 110.508 294.44C107.648 294.44 105.528 292.64 105.528 290.04C105.528 287.46 107.648 285.66 110.508 285.66ZM110.508 287.46C108.827 287.46 107.588 288.46 107.588 290.04C107.588 291.62 108.827 292.64 110.508 292.64C112.168 292.64 113.408 291.62 113.408 290.04C113.408 288.46 112.168 287.46 110.508 287.46ZM117.548 284.36H119.648V302.68H117.548V284.36ZM104.948 298.82L104.688 297.1C107.968 297.1 112.508 297.06 116.448 296.48L116.608 298C112.568 298.78 108.168 298.82 104.948 298.82ZM132.358 285.72C135.078 285.72 137.038 288.22 137.038 292.16C137.038 296.1 135.078 298.62 132.358 298.62C129.638 298.62 127.678 296.1 127.678 292.16C127.678 288.22 129.638 285.72 132.358 285.72ZM132.358 287.62C130.778 287.62 129.678 289.32 129.678 292.16C129.678 295.02 130.778 296.74 132.358 296.74C133.938 296.74 135.038 295.02 135.038 292.16C135.038 289.32 133.938 287.62 132.358 287.62ZM139.558 284.38H141.658V302.66H139.558V284.38ZM141.178 291.5H144.498V293.24H141.178V291.5ZM158.837 284.36H160.937V302.68H158.837V284.36ZM151.197 285.72C153.937 285.72 155.917 288.22 155.917 292.16C155.917 296.1 153.937 298.62 151.197 298.62C148.477 298.62 146.497 296.1 146.497 292.16C146.497 288.22 148.477 285.72 151.197 285.72ZM151.197 287.62C149.597 287.62 148.497 289.32 148.497 292.16C148.497 295.02 149.597 296.74 151.197 296.74C152.797 296.74 153.897 295.02 153.897 292.16C153.897 289.32 152.797 287.62 151.197 287.62ZM182.327 284.38H184.327V302.66H182.327V284.38ZM179.567 291.64H182.867V293.34H179.567V291.64ZM178.207 284.74H180.167V301.76H178.207V284.74ZM169.587 286.5H171.687V297.06H169.587V286.5ZM169.587 296.24H170.787C172.627 296.24 174.687 296.14 177.027 295.68L177.247 297.5C174.807 297.96 172.707 298.04 170.787 298.04H169.587V296.24ZM200.146 284.4H202.246V297.76H200.146V284.4ZM190.306 300.6H202.766V302.3H190.306V300.6ZM190.306 296.5H192.406V301.44H190.306V296.5ZM191.726 285.4H193.466V287.22C193.466 290.78 191.606 293.98 188.326 295.22L187.246 293.54C190.146 292.48 191.726 289.86 191.726 287.22V285.4ZM192.126 285.4H193.846V287.22C193.846 289.8 195.426 292.24 198.266 293.22L197.186 294.88C193.966 293.72 192.126 290.72 192.126 287.22V285.4ZM213.824 285.44C217.644 285.44 220.544 287.48 220.544 290.58C220.544 293.7 217.644 295.74 213.824 295.74C210.024 295.74 207.104 293.7 207.104 290.58C207.104 287.48 210.024 285.44 213.824 285.44ZM213.824 287.14C211.124 287.14 209.144 288.48 209.144 290.58C209.144 292.66 211.124 294.02 213.824 294.02C216.544 294.02 218.524 292.66 218.524 290.58C218.524 288.48 216.544 287.14 213.824 287.14ZM205.584 298.6H222.144V300.34H205.584V298.6ZM223.983 298.8H240.543V300.52H223.983V298.8ZM231.183 295.08H233.263V299.5H231.183V295.08ZM225.923 285.66H238.563V291.44H228.043V294.84H225.963V289.78H236.483V287.34H225.923V285.66ZM225.963 293.98H238.983V295.68H225.963V293.98ZM259.033 284.38H261.133V293.6H259.033V284.38ZM260.553 288.26H263.713V289.98H260.553V288.26ZM253.893 285.18H256.193C256.193 289.9 252.993 292.88 247.613 294.08L246.833 292.34C251.533 291.38 253.893 289.08 253.893 286.36V285.18ZM247.673 285.18H255.193V286.86H247.673V285.18ZM249.333 294.38H261.133V299.14H251.433V301.7H249.353V297.56H259.073V296.04H249.333V294.38ZM249.353 300.82H261.733V302.48H249.353V300.82ZM276.924 284.98H278.764V285.92C278.764 289.42 275.544 292.14 271.324 292.82L270.504 291.12C274.204 290.6 276.924 288.32 276.924 285.92V284.98ZM277.304 284.98H279.124V285.92C279.124 288.28 281.864 290.6 285.564 291.12L284.744 292.82C280.524 292.14 277.304 289.4 277.304 285.92V284.98ZM276.924 295.82H279.004V302.66H276.924V295.82ZM269.764 294.5H286.284V296.22H269.764V294.5ZM296.994 295.56H298.594V296.38C298.594 298.94 297.214 301.4 294.474 302.4L293.454 300.86C295.794 300.04 296.994 298.14 296.994 296.38V295.56ZM297.494 295.56H299.014V296.38C299.014 298.18 300.034 300.1 302.234 301L301.374 302.58C298.614 301.52 297.494 298.92 297.494 296.38V295.56ZM303.714 295.56H305.234V296.38C305.234 298.7 304.074 301.46 301.374 302.58L300.514 301C302.694 300.02 303.714 297.98 303.714 296.38V295.56ZM304.174 295.56H305.774V296.38C305.774 298.26 306.954 300.1 309.314 300.86L308.294 302.4C305.514 301.44 304.174 299.06 304.174 296.38V295.56ZM305.614 284.4H307.714V294.78H305.614V284.4ZM297.854 285.4C300.654 285.4 302.694 287.16 302.694 289.72C302.694 292.24 300.654 294.02 297.854 294.02C295.054 294.02 292.994 292.24 292.994 289.72C292.994 287.16 295.054 285.4 297.854 285.4ZM297.854 287.14C296.234 287.14 295.034 288.16 295.034 289.72C295.034 291.28 296.234 292.28 297.854 292.28C299.474 292.28 300.654 291.28 300.654 289.72C300.654 288.16 299.474 287.14 297.854 287.14ZM313.193 289.62H325.713V291.3H313.193V289.62ZM311.033 293.5H327.593V295.2H311.033V293.5ZM313.193 285.04H315.273V290.46H313.193V285.04ZM313.053 300.54H325.813V302.24H313.053V300.54ZM313.053 296.86H315.133V301H313.053V296.86ZM347.523 284.38H349.523V302.66H347.523V284.38ZM344.723 291.58H348.023V293.28H344.723V291.58ZM343.403 284.74H345.343V301.76H343.403V284.74ZM334.523 296.58H335.763C338.243 296.58 340.083 296.5 342.223 296.08L342.403 297.8C340.203 298.24 338.323 298.32 335.763 298.32H334.523V296.58ZM334.523 286.56H341.303V288.26H336.603V297.4H334.523V286.56ZM352.362 286.16H363.122V287.84H352.362V286.16ZM357.742 288.62C360.362 288.62 362.162 289.94 362.162 291.96C362.162 293.96 360.362 295.26 357.742 295.26C355.122 295.26 353.302 293.96 353.302 291.96C353.302 289.94 355.122 288.62 357.742 288.62ZM357.742 290.22C356.302 290.22 355.322 290.86 355.322 291.96C355.322 293.02 356.302 293.68 357.742 293.68C359.182 293.68 360.162 293.02 360.162 291.96C360.162 290.86 359.182 290.22 357.742 290.22ZM364.502 284.38H366.602V295.82H364.502V284.38ZM366.022 289.28H369.182V291H366.022V289.28ZM354.582 296.72H366.602V302.66H364.502V298.4H354.582V296.72ZM356.702 284.28H358.782V287.12H356.702V284.28ZM370.72 293.86H387.24V295.54H370.72V293.86ZM372.8 300.6H385.4V302.3H372.8V300.6ZM372.8 296.98H374.9V301.12H372.8V296.98ZM378.98 284.96C382.92 284.96 385.5 286.36 385.5 288.66C385.5 290.96 382.92 292.36 378.98 292.36C375.04 292.36 372.48 290.96 372.48 288.66C372.48 286.36 375.04 284.96 378.98 284.96ZM378.98 286.64C376.3 286.64 374.64 287.38 374.64 288.66C374.64 289.96 376.3 290.68 378.98 290.68C381.68 290.68 383.34 289.96 383.34 288.66C383.34 287.38 381.68 286.64 378.98 286.64ZM398.551 285.72C401.251 285.72 403.171 288.22 403.171 292.16C403.171 296.1 401.251 298.62 398.551 298.62C395.851 298.62 393.931 296.1 393.931 292.16C393.931 288.22 395.851 285.72 398.551 285.72ZM398.551 287.62C396.991 287.62 395.931 289.32 395.931 292.16C395.931 295.02 396.991 296.74 398.551 296.74C400.131 296.74 401.191 295.02 401.191 292.16C401.191 289.32 400.131 287.62 398.551 287.62ZM406.711 284.36H408.791V302.68H406.711V284.36ZM402.531 291.18H407.611V292.86H402.531V291.18ZM424.969 284.38H427.069V302.7H424.969V284.38ZM413.169 296.48H414.689C418.409 296.48 420.669 296.38 423.269 295.9L423.469 297.64C420.829 298.14 418.469 298.24 414.689 298.24H413.169V296.48ZM413.169 286.06H421.869V287.78H415.249V297.14H413.169V286.06ZM435.548 284.98C438.308 284.98 440.348 286.68 440.348 289.1C440.348 291.5 438.308 293.2 435.548 293.2C432.808 293.2 430.768 291.5 430.768 289.1C430.768 286.68 432.808 284.98 435.548 284.98ZM435.548 286.7C433.968 286.7 432.788 287.64 432.788 289.1C432.788 290.56 433.968 291.5 435.548 291.5C437.148 291.5 438.308 290.56 438.308 289.1C438.308 287.64 437.148 286.7 435.548 286.7ZM443.388 284.38H445.488V293.64H443.388V284.38ZM433.508 294.48H445.488V299.16H435.588V301.68H433.548V297.62H443.408V296.12H433.508V294.48ZM433.548 300.78H446.028V302.44H433.548V300.78ZM461.146 284.38H463.246V302.66H461.146V284.38ZM462.586 291.74H465.806V293.48H462.586V291.74ZM452.306 286.3H454.246C454.246 291 453.526 295.1 450.266 298.68L448.606 297.48C451.526 294.36 452.306 290.9 452.306 286.54V286.3ZM449.286 286.3H453.106V288.02H449.286V286.3ZM457.306 286.3H459.266C459.266 291.12 458.726 295.88 455.426 299.86L453.766 298.7C456.726 295.16 457.306 291.08 457.306 286.52V286.3ZM454.846 286.3H458.166V288.02H454.846V286.3ZM469.845 296.32C469.365 292.94 472.865 291.66 472.865 289.5C472.865 288.38 472.165 287.56 470.905 287.56C469.965 287.56 469.145 288.02 468.465 288.78L467.165 287.58C468.145 286.46 469.485 285.66 471.165 285.66C473.505 285.66 475.105 286.98 475.105 289.34C475.105 292.24 471.545 293.32 471.885 296.32H469.845ZM470.905 301.28C470.025 301.28 469.365 300.6 469.365 299.66C469.365 298.7 470.025 298.04 470.905 298.04C471.765 298.04 472.445 298.7 472.445 299.66C472.445 300.6 471.765 301.28 470.905 301.28Z" fill="black"/>
</svg>
