<svg width="214" height="47" viewBox="0 0 214 47" fill="none" xmlns="http://www.w3.org/2000/svg">
<g clip-path="url(#clip0_338_25935)">
<path d="M32.2225 0L32.2129 1.13693C32.2129 1.13693 35.0777 2.1197 35.4053 5.71998C35.9384 11.5877 38.0549 15.9138 38.0549 15.9138C28.8117 24.9418 28.9177 31.6831 28.9177 31.6831H28.1694V17.5325C29.2935 17.3462 30.1478 16.3699 30.1478 15.1944C30.1478 13.884 29.0847 12.821 27.7776 12.821C26.4704 12.821 25.4042 13.884 25.4042 15.1944C25.4042 16.3699 26.2617 17.3462 27.3825 17.5325V31.6831H26.6342C26.6342 31.6831 26.7402 24.9418 17.497 15.9138C17.497 15.9138 19.6135 11.5877 20.1466 5.71998C20.4742 2.1197 23.339 1.13693 23.339 1.13693L23.3294 0H5.00684V1.32321C5.00684 1.32321 9.16916 1.90773 10.8713 5.28641C12.5735 8.66187 27.0389 42.2078 27.0389 42.2078H28.5098C28.5098 42.2078 42.9752 8.66187 44.6806 5.28641C46.386 1.91094 50.5451 1.32321 50.5451 1.32321V0H32.2225Z" fill="#E96A00"/>
<path d="M3.17313 13.4601L3.25342 36.536C13.8295 40.602 19.8449 46.7041 19.8449 46.7041C10.7366 41.0901 0 40.1941 0 40.1941V12.1144C0 12.1144 1.55124 12.0309 3.17313 13.4569V13.4601Z" fill="#B3B3B3"/>
<path d="M5.8584 6.7478V34.259C5.8584 34.259 13.1778 37.1045 20.9854 44.3436C20.9854 44.3436 18.0692 38.0841 9.11182 30.7229V8.45641C9.11182 8.45641 8.70394 7.48006 5.8584 6.7478Z" fill="#B9A29D"/>
<path d="M22.8506 41.938C22.8506 41.938 18.4635 34.0951 12.2168 29.0463V22.1316C12.2168 22.1316 18.0652 29.4446 22.8506 41.938Z" fill="#B9A29D"/>
<path d="M52.3788 13.4601L52.2985 36.536C41.7225 40.602 35.707 46.7041 35.707 46.7041C44.8185 41.0933 55.5519 40.1973 55.5519 40.1973V12.1144C55.5519 12.1144 53.9975 12.0309 52.3788 13.4569V13.4601Z" fill="#B3B3B3"/>
<path d="M49.6943 6.7478V34.259C49.6943 34.259 42.375 37.1045 34.5674 44.3436C34.5674 44.3436 37.4868 38.0841 46.4409 30.7229V8.45641C46.4409 8.45641 46.8488 7.48006 49.6943 6.7478Z" fill="#B9A29D"/>
<path d="M32.6982 41.938C32.6982 41.938 37.0854 34.0951 43.3321 29.0463V22.1316C43.3321 22.1316 37.4836 29.4446 32.6982 41.938Z" fill="#B9A29D"/>
<path d="M64.9205 16.5563L82.3631 37.2105L95.0203 8.75513H87.5531L78.1526 30.2669L68.7552 8.75513H61.2881L64.9205 16.5563Z" fill="#5D6164"/>
<path d="M74.2216 37.8399C76.0908 41.5719 78.6537 41.3053 78.6537 41.3053H85.8222L64.9238 16.553L74.2216 37.8399Z" fill="#ED6C00"/>
<path d="M167.399 24.8456C167.418 27.9448 169.949 30.4628 173.051 30.4628H182.763C185.882 30.4628 188.419 27.9256 188.419 24.807V15.4065C188.419 12.288 185.882 9.75073 182.763 9.75073H168.985L170.63 14.7449H182.763C183.129 14.7449 183.425 15.0404 183.425 15.4065V24.807C183.425 25.17 183.126 25.4686 182.763 25.4686H173.051C172.685 25.4686 172.393 25.1732 172.393 24.807V22.97C172.393 22.607 172.685 22.3084 173.051 22.3084H180.165L181.787 17.7863H173.051C169.933 17.7863 167.396 20.3236 167.396 23.4389V24.8424L167.399 24.8456Z" fill="#5D6164"/>
<path d="M197.974 14.4717C197.974 14.1055 198.266 13.8101 198.632 13.8101H208.348C208.711 13.8101 214 16.1803 214 16.1803V14.4717C214 11.3531 211.463 8.81592 208.348 8.81592H198.632C195.527 8.81592 192.999 11.3307 192.98 14.4331V15.8366C192.98 18.9552 195.517 21.4924 198.636 21.4924H207.429V21.4827H208.348C208.711 21.4827 209.009 21.7782 209.009 22.1411V23.9782C209.009 24.3411 208.711 24.6366 208.348 24.6366H198.632C198.266 24.6366 192.977 22.2664 192.977 22.2664V23.975C192.977 27.0935 195.514 29.6275 198.632 29.6275H208.348C211.453 29.6275 213.981 27.1096 214 24.0103V22.6068C214 19.4883 211.463 16.9511 208.348 16.9511H199.554V16.9607H198.636C198.269 16.9607 197.977 16.6652 197.977 16.3023V14.4652L197.974 14.4717Z" fill="#5D6164"/>
<path d="M119.214 15.3421C119.194 12.2428 116.667 9.72485 113.561 9.72485H103.846C100.731 9.72485 98.1934 12.2621 98.1934 15.3806V24.7812C98.1934 27.8997 100.731 30.4337 103.846 30.4337H117.624L115.983 25.4428H103.846C103.483 25.4428 103.188 25.1473 103.188 24.7812V15.3806C103.188 15.0145 103.483 14.719 103.846 14.719H113.561C113.927 14.719 114.223 15.0145 114.223 15.3806V17.2145C114.223 17.5774 113.927 17.8761 113.561 17.8761H106.447L104.825 22.3981H113.561C116.68 22.3981 119.217 19.8641 119.217 16.7456V15.3421H119.214Z" fill="#5D6164"/>
<path d="M162.903 25.4429H158.766C158.4 25.4429 158.104 25.1443 158.104 24.7813V14.6774H163.05V9.91452H158.104V4.96533C155.519 5.27044 153.46 7.32591 153.155 9.91452H149.687V14.6774H153.113V24.7813C153.113 27.8999 155.647 30.4339 158.769 30.4339H164.55L162.906 25.4429H162.903Z" fill="#5D6164"/>
<path d="M134.428 9.69287H129.511C126.392 9.69287 123.858 12.2301 123.858 15.3486V30.4017H128.849V15.3486C128.849 14.9825 129.145 14.687 129.511 14.687H134.428V9.69287Z" fill="#5D6164"/>
<path d="M144.766 11.2375H139.775V30.4016H144.766V11.2375Z" fill="#5D6164"/>
<path d="M101.312 44.5682C100.725 43.6754 99.7578 42.1852 99.7578 40.1811C99.7578 38.177 100.725 36.6868 101.312 35.7939H101.772C100.834 37.403 100.448 38.8193 100.448 40.1811C100.448 41.5428 100.834 42.9688 101.772 44.5682H101.312Z" fill="#231815"/>
<path d="M106.676 41.2732V44.2151H105.976V41.2732H102.279V40.7047H110.373V41.2732H106.673H106.676ZM109.371 39.9404C109.011 39.8569 108.186 39.5806 107.521 39.1503C106.933 38.7552 106.464 38.2125 106.326 37.9459C106.188 38.2125 105.719 38.7552 105.131 39.1503C104.47 39.5839 103.641 39.8601 103.281 39.9404L102.822 39.4522C103.262 39.359 104.065 39.1117 104.772 38.6428C105.353 38.2574 105.867 37.6504 105.947 37.2072C105.957 37.188 105.957 37.1077 105.966 37.0884H103.297V36.5071H109.351V37.0884H106.683C106.692 37.1077 106.692 37.1912 106.702 37.2072C106.785 37.6472 107.299 38.2542 107.877 38.6428C108.587 39.1117 109.387 39.359 109.827 39.4522L109.367 39.9404H109.371Z" fill="#231815"/>
<path d="M112.829 40.1779C112.829 42.1852 111.866 43.6754 111.275 44.5651H110.815C111.753 42.9656 112.139 41.5397 112.139 40.1779C112.139 38.8162 111.753 37.3998 110.815 35.7908H111.275C111.866 36.6836 112.829 38.1835 112.829 40.1779Z" fill="#231815"/>
<path d="M124.953 43.8488V39.8567H123.72V42.471H120.537V36.9983H121.218V38.9767H123.039V36.9983H123.72V39.269H124.953V36.3078H125.624V43.8488H124.953ZM123.039 39.5452H121.218V41.8993H123.039V39.5452ZM126.607 44.2182V36.1248H127.278V44.2182H126.607Z" fill="#231815"/>
<path d="M137.976 42.5449L135.475 42.5706V39.4424H138.747V37.5186H135.475V36.9502H139.428V40.0141H136.152V41.9989L138.086 41.9796C138.93 41.9507 140.164 41.8415 140.652 41.758V42.3201C140.128 42.3939 138.924 42.5128 137.976 42.5417V42.5449ZM141.278 44.2182V36.1248H141.969V44.2182H141.278Z" fill="#231815"/>
<path d="M156.299 42.4421C155.269 42.4967 153.557 42.4871 153.467 42.4871V36.9855H157.469V37.5539H154.157V39.3396H157.311V39.9177H154.157V41.9025C154.222 41.9025 155.452 41.9122 156.328 41.8769C157.083 41.848 157.854 41.7741 158.371 41.7002V42.2719C157.848 42.3458 157.093 42.4004 156.303 42.4389L156.299 42.4421ZM159.63 39.9049V44.2182H158.939V36.1248H159.63V39.3236H160.947V39.9017H159.63V39.9049Z" fill="#231815"/>
<path d="M167.752 42.9657V42.3941H175.845V42.9657H167.752ZM174.888 41.1929C174.557 41.0901 173.694 40.6951 172.993 40.0977C172.386 39.5742 171.908 38.8644 171.795 38.4983C171.686 38.8676 171.208 39.5742 170.601 40.0977C169.901 40.6951 169.037 41.0901 168.706 41.1929L168.237 40.6951C168.622 40.5859 169.615 40.133 170.325 39.4907C170.976 38.903 171.42 38.0647 171.42 37.2907V36.6741H172.174V37.2907C172.174 38.0647 172.614 38.8998 173.27 39.4907C173.979 40.133 174.972 40.5859 175.357 40.6951L174.888 41.1929Z" fill="#231815"/>
<path d="M182.651 43.0782V42.5065H184.713V39.6192H185.394V42.5065H186.82V39.6192H187.511V42.5065H190.748V43.0782H182.651ZM189.56 39.388C189.431 40.3996 189.219 41.4017 189.21 41.4563H188.538C188.567 41.3278 189.007 38.9094 189.046 37.6761H183.637V37.1077H189.791C189.756 37.962 189.672 38.5786 189.563 39.388H189.56Z" fill="#231815"/>
<path d="M203.411 40.6501V41.8738H204.542V44.2183H203.851V42.4422H198.533V41.8738H199.801V40.6501H197.547V40.0817H205.643V40.6501H203.408H203.411ZM204.635 37.6954C204.635 38.6139 203.575 39.2948 201.6 39.2948C199.625 39.2948 198.546 38.6139 198.546 37.6954C198.546 36.7769 199.631 36.0928 201.6 36.0928C203.569 36.0928 204.635 36.7833 204.635 37.6954ZM199.265 37.6954C199.265 38.312 200.213 38.7617 201.603 38.7617C202.994 38.7617 203.922 38.3217 203.922 37.6954C203.922 37.0691 202.984 36.6291 201.603 36.6291C200.222 36.6291 199.265 37.0595 199.265 37.6954ZM202.73 40.6501H200.495V41.8738H202.73V40.6501Z" fill="#231815"/>
</g>
<defs>
<clipPath id="clip0_338_25935">
<rect width="214" height="46.7009" fill="white"/>
</clipPath>
</defs>
</svg>
