<svg width="649" height="308" viewBox="0 0 649 308" fill="none" xmlns="http://www.w3.org/2000/svg">
<path d="M12.104 4.72H13.784V15.312H12.104V4.72ZM4.232 17.68H14.2V19.04H4.232V17.68ZM4.232 14.24H5.912V18.192H4.232V14.24ZM5.896 5.696C8.104 5.696 9.768 7.2 9.768 9.344C9.768 11.456 8.104 12.992 5.896 12.992C3.688 12.992 2.008 11.456 2.008 9.344C2.008 7.2 3.688 5.696 5.896 5.696ZM5.896 7.136C4.616 7.136 3.64 8 3.64 9.344C3.64 10.656 4.616 11.52 5.896 11.52C7.176 11.52 8.136 10.656 8.136 9.344C8.136 8 7.176 7.136 5.896 7.136ZM16.4388 12.064H29.6868V13.408H16.4388V12.064ZM22.3588 12.912H24.0228V16.144H22.3588V12.912ZM18.1028 5.36H27.9748V10.624H18.1028V5.36ZM26.3268 6.688H19.7508V9.296H26.3268V6.688ZM18.0548 17.68H28.2148V19.04H18.0548V17.68ZM18.0548 14.816H19.7188V18.144H18.0548V14.816ZM36.8215 8.672H39.9415V10.016H36.8215V8.672ZM36.7255 12.336H39.8935V13.68H36.7255V12.336ZM42.0535 4.704H43.6695V19.328H42.0535V4.704ZM39.0935 5.056H40.6615V18.624H39.0935V5.056ZM35.8135 6.496H37.4295C37.4295 10.464 36.0215 13.856 32.0215 16.224L31.0615 15.04C34.4375 13.008 35.8135 10.304 35.8135 6.816V6.496ZM31.7975 6.496H36.4215V7.856H31.7975V6.496ZM52.7083 6.336H56.6763V7.648H52.7083V6.336ZM52.7083 9.328H56.6763V10.64H52.7083V9.328ZM49.8923 5.152C52.0843 5.152 53.7003 6.544 53.7003 8.512C53.7003 10.464 52.0843 11.856 49.8923 11.856C47.7003 11.856 46.0843 10.464 46.0843 8.512C46.0843 6.544 47.7003 5.152 49.8923 5.152ZM49.8923 6.528C48.6123 6.528 47.6843 7.312 47.6843 8.512C47.6843 9.712 48.6123 10.496 49.8923 10.496C51.1723 10.496 52.1003 9.712 52.1003 8.512C52.1003 7.312 51.1723 6.528 49.8923 6.528ZM56.3243 4.704H57.9883V12.112H56.3243V4.704ZM48.4683 12.8H57.9883V16.528H50.1483V18.544H48.5003V15.296H56.3403V14.112H48.4683V12.8ZM48.5003 17.824H58.4843V19.152H48.5003V17.824Z" fill="#272628"/>
<path d="M4.192 182.896H5.52V184.944C5.52 188.096 3.872 191.328 1.408 192.544L0.448 191.216C2.688 190.144 4.192 187.392 4.192 184.944V182.896ZM4.528 182.896H5.856V184.944C5.856 187.216 7.28 189.808 9.52 190.848L8.576 192.176C6.112 190.992 4.528 187.936 4.528 184.944V182.896ZM0.992 182.16H8.944V183.552H0.992V182.16ZM10.384 180.704H12.064V195.328H10.384V180.704ZM11.68 186.464H14.336V187.856H11.68V186.464ZM22.1428 182.88H26.4948V184.24H22.1428V182.88ZM22.1428 186.4H26.4948V187.76H22.1428V186.4ZM25.8868 180.72H27.5668V191.472H25.8868V180.72ZM18.0948 193.68H27.9348V195.04H18.0948V193.68ZM18.0948 190.384H19.7588V194.336H18.0948V190.384ZM19.4548 181.616C21.6148 181.616 23.2628 183.152 23.2628 185.328C23.2628 187.488 21.6148 189.04 19.4548 189.04C17.2948 189.04 15.6468 187.488 15.6468 185.328C15.6468 183.152 17.2948 181.616 19.4548 181.616ZM19.4548 183.088C18.1908 183.088 17.2468 183.984 17.2468 185.328C17.2468 186.672 18.1908 187.568 19.4548 187.568C20.7188 187.568 21.6628 186.672 21.6628 185.328C21.6628 183.984 20.7188 183.088 19.4548 183.088ZM35.8215 184.672H38.9415V186.016H35.8215V184.672ZM35.7255 188.336H38.8935V189.68H35.7255V188.336ZM41.0535 180.704H42.6695V195.328H41.0535V180.704ZM38.0935 181.056H39.6615V194.624H38.0935V181.056ZM34.8135 182.496H36.4295C36.4295 186.464 35.0215 189.856 31.0215 192.224L30.0615 191.04C33.4375 189.008 34.8135 186.304 34.8135 182.816V182.496ZM30.7975 182.496H35.4215V183.856H30.7975V182.496ZM51.7083 182.336H55.6763V183.648H51.7083V182.336ZM51.7083 185.328H55.6763V186.64H51.7083V185.328ZM48.8923 181.152C51.0843 181.152 52.7003 182.544 52.7003 184.512C52.7003 186.464 51.0843 187.856 48.8923 187.856C46.7003 187.856 45.0843 186.464 45.0843 184.512C45.0843 182.544 46.7003 181.152 48.8923 181.152ZM48.8923 182.528C47.6123 182.528 46.6843 183.312 46.6843 184.512C46.6843 185.712 47.6123 186.496 48.8923 186.496C50.1723 186.496 51.1003 185.712 51.1003 184.512C51.1003 183.312 50.1723 182.528 48.8923 182.528ZM55.3243 180.704H56.9883V188.112H55.3243V180.704ZM47.4683 188.8H56.9883V192.528H49.1483V194.544H47.5003V191.296H55.3403V190.112H47.4683V188.8ZM47.5003 193.824H57.4843V195.152H47.5003V193.824Z" fill="#272628"/>
<path d="M39.73 261.366H41.2V274.162H39.73V261.366ZM35.978 262.724H37.42C37.42 266.518 35.908 269.738 31.512 271.88L30.742 270.704C34.424 268.926 35.978 266.392 35.978 262.976V262.724ZM31.372 262.724H36.636V263.9H31.372V262.724ZM45.0209 261.856H46.4629V263.298H52.1329V261.856H53.5889V267.008H45.0209V261.856ZM46.4629 264.446V265.846H52.1329V264.446H46.4629ZM43.5089 268.254H55.0729V269.43H43.5089V268.254ZM48.5629 266.364H50.0189V268.758H48.5629V266.364ZM44.9649 272.72H53.7849V273.91H44.9649V272.72ZM44.9649 270.34H46.4349V273.14H44.9649V270.34ZM65.8798 261.366H67.2798V274.162H65.8798V261.366ZM64.0038 266.364H66.3138V267.554H64.0038V266.364ZM60.4758 262.976H61.8898C61.8898 266.406 60.7838 269.402 57.1718 271.474L56.3178 270.438C59.3978 268.674 60.4758 266.28 60.4758 263.27V262.976ZM56.8778 262.976H60.9378V264.166H56.8778V262.976ZM63.0378 261.702H64.4238V273.56H63.0378V261.702ZM70.0367 261.968H71.4927V267.498H70.0367V261.968ZM70.0367 267.232H70.9887C72.9767 267.232 74.5307 267.148 76.2947 266.826L76.4627 268.002C74.6427 268.352 73.0327 268.422 70.9887 268.422H70.0367V267.232ZM78.4087 261.366H79.8787V268.87H78.4087V261.366ZM75.0627 262.654H78.7867V263.788H75.0627V262.654ZM75.0627 264.922H78.7867V266.042H75.0627V264.922ZM71.5487 269.43H79.8787V274.008H71.5487V269.43ZM78.4367 270.592H72.9907V272.832H78.4367V270.592ZM39.702 281.352H41.172V294.176H39.702V281.352ZM34.354 282.304C36.272 282.304 37.658 284.054 37.658 286.812C37.658 289.57 36.272 291.334 34.354 291.334C32.45 291.334 31.064 289.57 31.064 286.812C31.064 284.054 32.45 282.304 34.354 282.304ZM34.354 283.634C33.234 283.634 32.464 284.824 32.464 286.812C32.464 288.814 33.234 290.018 34.354 290.018C35.474 290.018 36.244 288.814 36.244 286.812C36.244 284.824 35.474 283.634 34.354 283.634ZM43.4949 283.438H49.7389V284.614H43.4949V283.438ZM46.6309 285.342C48.2409 285.342 49.4029 286.574 49.4029 288.324C49.4029 290.074 48.2409 291.292 46.6309 291.292C45.0349 291.292 43.8589 290.074 43.8589 288.324C43.8589 286.574 45.0349 285.342 46.6309 285.342ZM46.6309 286.574C45.7769 286.574 45.1609 287.274 45.1609 288.324C45.1609 289.388 45.7769 290.06 46.6309 290.06C47.4849 290.06 48.1009 289.388 48.1009 288.324C48.1009 287.274 47.4849 286.574 46.6309 286.574ZM53.0149 281.366H54.4149V294.162H53.0149V281.366ZM51.1949 286.672H53.4769V287.862H51.1949V286.672ZM50.2989 281.632H51.6709V293.574H50.2989V281.632ZM45.9169 281.73H47.3589V284.166H45.9169V281.73ZM64.8578 281.366H66.3138V294.162H64.8578V281.366ZM65.9778 286.504H68.3018V287.722H65.9778V286.504ZM56.3318 283.34H63.8358V284.516H56.3318V283.34ZM60.1258 285.44C61.9458 285.44 63.2898 286.672 63.2898 288.422C63.2898 290.186 61.9458 291.418 60.1258 291.418C58.2918 291.418 56.9478 290.186 56.9478 288.422C56.9478 286.672 58.2918 285.44 60.1258 285.44ZM60.1258 286.644C59.0898 286.644 58.3478 287.344 58.3478 288.422C58.3478 289.5 59.0898 290.214 60.1258 290.214C61.1478 290.214 61.8898 289.5 61.8898 288.422C61.8898 287.344 61.1478 286.644 60.1258 286.644ZM59.3698 281.548H60.8398V283.83H59.3698V281.548ZM78.3667 281.366H79.8367V294.162H78.3667V281.366ZM74.6147 282.724H76.0567C76.0567 286.518 74.5447 289.738 70.1487 291.88L69.3787 290.704C73.0607 288.926 74.6147 286.392 74.6147 282.976V282.724ZM70.0087 282.724H75.2727V283.9H70.0087V282.724Z" fill="#272928"/>
<path d="M154.79 261.786H156.078V262.444C156.078 264.894 153.824 266.798 150.87 267.274L150.296 266.084C152.886 265.72 154.79 264.124 154.79 262.444V261.786ZM155.056 261.786H156.33V262.444C156.33 264.096 158.248 265.72 160.838 266.084L160.264 267.274C157.31 266.798 155.056 264.88 155.056 262.444V261.786ZM154.79 269.374H156.246V274.162H154.79V269.374ZM149.778 268.45H161.342V269.654H149.778V268.45ZM162.671 262.612H170.203V263.788H162.671V262.612ZM166.437 264.334C168.271 264.334 169.531 265.258 169.531 266.672C169.531 268.072 168.271 268.982 166.437 268.982C164.603 268.982 163.329 268.072 163.329 266.672C163.329 265.258 164.603 264.334 166.437 264.334ZM166.437 265.454C165.429 265.454 164.743 265.902 164.743 266.672C164.743 267.414 165.429 267.876 166.437 267.876C167.445 267.876 168.131 267.414 168.131 266.672C168.131 265.902 167.445 265.454 166.437 265.454ZM171.169 261.366H172.639V269.374H171.169V261.366ZM172.233 264.796H174.445V266H172.233V264.796ZM164.225 270.004H172.639V274.162H171.169V271.18H164.225V270.004ZM165.709 261.296H167.165V263.284H165.709V261.296ZM175.984 275.814L175.634 274.904C176.6 274.498 177.16 273.784 177.16 272.944L177.048 271.656L177.72 272.706C177.524 272.916 177.272 273 177.006 273C176.432 273 175.914 272.622 175.914 271.964C175.914 271.32 176.432 270.928 177.048 270.928C177.832 270.928 178.294 271.572 178.294 272.65C178.294 274.134 177.44 275.268 175.984 275.814ZM183.396 262.71H189.066V263.886H183.396V262.71ZM185.244 266.364H186.686V270.704H185.244V266.364ZM188.464 262.71H189.92V263.55C189.92 264.684 189.92 266.294 189.556 268.562L188.114 268.436C188.464 266.238 188.464 264.67 188.464 263.55V262.71ZM191.292 261.366H192.748V274.162H191.292V261.366ZM192.342 266.616H194.652V267.848H192.342V266.616ZM182.878 271.46L182.724 270.256C185.006 270.256 188.044 270.214 190.606 269.892L190.676 270.97C188.058 271.404 185.118 271.46 182.878 271.46ZM195.743 262.612H203.275V263.788H195.743V262.612ZM199.509 264.334C201.343 264.334 202.603 265.258 202.603 266.672C202.603 268.072 201.343 268.982 199.509 268.982C197.675 268.982 196.401 268.072 196.401 266.672C196.401 265.258 197.675 264.334 199.509 264.334ZM199.509 265.454C198.501 265.454 197.815 265.902 197.815 266.672C197.815 267.414 198.501 267.876 199.509 267.876C200.517 267.876 201.203 267.414 201.203 266.672C201.203 265.902 200.517 265.454 199.509 265.454ZM204.241 261.366H205.711V269.374H204.241V261.366ZM205.305 264.796H207.517V266H205.305V264.796ZM197.297 270.004H205.711V274.162H204.241V271.18H197.297V270.004ZM198.781 261.296H200.237V263.284H198.781V261.296ZM212.914 262.556H221.076V263.746H212.914V262.556ZM211.752 271.278H223.316V272.482H211.752V271.278ZM214.398 267.148H215.854V271.684H214.398V267.148ZM220.642 262.556H222.098V263.9C222.098 265.496 222.098 267.204 221.65 269.682L220.194 269.528C220.642 267.19 220.642 265.454 220.642 263.9V262.556ZM217.562 267.148H219.004V271.684H217.562V267.148ZM225.177 262.71H230.847V263.886H225.177V262.71ZM227.025 266.364H228.467V270.704H227.025V266.364ZM230.245 262.71H231.701V263.55C231.701 264.684 231.701 266.294 231.337 268.562L229.895 268.436C230.245 266.238 230.245 264.67 230.245 263.55V262.71ZM233.073 261.366H234.529V274.162H233.073V261.366ZM234.123 266.616H236.433V267.848H234.123V266.616ZM224.659 271.46L224.505 270.256C226.787 270.256 229.825 270.214 232.387 269.892L232.457 270.97C229.839 271.404 226.899 271.46 224.659 271.46ZM173.738 283.27H177.546V284.46H173.738V283.27ZM173.738 286.35H177.546V287.54H173.738V286.35ZM177.014 281.38H178.484V290.788H177.014V281.38ZM170.196 292.72H178.806V293.91H170.196V292.72ZM170.196 289.836H171.652V293.294H170.196V289.836ZM171.386 282.164C173.276 282.164 174.718 283.508 174.718 285.412C174.718 287.302 173.276 288.66 171.386 288.66C169.496 288.66 168.054 287.302 168.054 285.412C168.054 283.508 169.496 282.164 171.386 282.164ZM171.386 283.452C170.28 283.452 169.454 284.236 169.454 285.412C169.454 286.588 170.28 287.372 171.386 287.372C172.492 287.372 173.318 286.588 173.318 285.412C173.318 284.236 172.492 283.452 171.386 283.452ZM185.707 284.838H188.437V286.014H185.707V284.838ZM185.623 288.044H188.395V289.22H185.623V288.044ZM190.285 281.366H191.699V294.162H190.285V281.366ZM187.695 281.674H189.067V293.546H187.695V281.674ZM184.825 282.934H186.239C186.239 286.406 185.007 289.374 181.507 291.446L180.667 290.41C183.621 288.632 184.825 286.266 184.825 283.214V282.934ZM181.311 282.934H185.357V284.124H181.311V282.934ZM202.1 281.366H203.556V294.162H202.1V281.366ZM203.22 286.504H205.544V287.722H203.22V286.504ZM193.574 283.34H201.078V284.516H193.574V283.34ZM197.368 285.44C199.188 285.44 200.532 286.672 200.532 288.422C200.532 290.186 199.188 291.418 197.368 291.418C195.534 291.418 194.19 290.186 194.19 288.422C194.19 286.672 195.534 285.44 197.368 285.44ZM197.368 286.644C196.332 286.644 195.59 287.344 195.59 288.422C195.59 289.5 196.332 290.214 197.368 290.214C198.39 290.214 199.132 289.5 199.132 288.422C199.132 287.344 198.39 286.644 197.368 286.644ZM196.612 281.548H198.082V283.83H196.612V281.548ZM215.609 281.366H217.079V294.162H215.609V281.366ZM211.857 282.724H213.299C213.299 286.518 211.787 289.738 207.391 291.88L206.621 290.704C210.303 288.926 211.857 286.392 211.857 282.976V282.724ZM207.251 282.724H212.515V283.9H207.251V282.724Z" fill="#272928"/>
<path d="M284.921 267.806H296.513V268.982H284.921V267.806ZM290.101 268.548H291.557V271.376H290.101V268.548ZM286.377 261.94H295.015V266.546H286.377V261.94ZM293.573 263.102H287.819V265.384H293.573V263.102ZM286.335 272.72H295.225V273.91H286.335V272.72ZM286.335 270.214H287.791V273.126H286.335V270.214ZM307.32 261.366H308.72V274.162H307.32V261.366ZM302.854 265.86H305.164V267.064H302.854V265.86ZM304.744 261.618H306.116V273.532H304.744V261.618ZM300.264 263.396H301.384V264.88C301.384 267.708 300.432 270.452 298.486 271.684L297.604 270.592C299.424 269.472 300.264 267.162 300.264 264.88V263.396ZM300.586 263.396H301.692V264.88C301.692 267.064 302.504 269.248 304.296 270.298L303.428 271.376C301.482 270.214 300.586 267.624 300.586 264.88V263.396ZM298.01 262.766H303.792V263.956H298.01V262.766ZM310.665 263.438H316.909V264.614H310.665V263.438ZM313.801 265.342C315.411 265.342 316.573 266.574 316.573 268.324C316.573 270.074 315.411 271.292 313.801 271.292C312.205 271.292 311.029 270.074 311.029 268.324C311.029 266.574 312.205 265.342 313.801 265.342ZM313.801 266.574C312.947 266.574 312.331 267.274 312.331 268.324C312.331 269.388 312.947 270.06 313.801 270.06C314.655 270.06 315.271 269.388 315.271 268.324C315.271 267.274 314.655 266.574 313.801 266.574ZM320.185 261.366H321.585V274.162H320.185V261.366ZM318.365 266.672H320.647V267.862H318.365V266.672ZM317.469 261.632H318.841V273.574H317.469V261.632ZM313.087 261.73H314.529V264.166H313.087V261.73ZM332.7 261.366H334.17V267.848H332.7V261.366ZM328.556 261.926H330.152C330.152 265.23 328.038 267.26 324.244 268.142L323.74 266.952C327.002 266.238 328.556 264.684 328.556 262.696V261.926ZM324.44 261.926H329.186V263.116H324.44V261.926ZM329.676 263.102H332.91V264.236H329.676V263.102ZM329.578 265.566H332.84V266.686H329.578V265.566ZM325.84 268.38H334.17V271.698H327.324V273.532H325.868V270.592H332.7V269.542H325.84V268.38ZM325.868 272.874H334.52V274.036H325.868V272.874ZM340.141 262.71H345.811V263.886H340.141V262.71ZM341.989 266.364H343.431V270.704H341.989V266.364ZM345.209 262.71H346.665V263.55C346.665 264.684 346.665 266.294 346.301 268.562L344.859 268.436C345.209 266.238 345.209 264.67 345.209 263.55V262.71ZM348.037 261.366H349.493V274.162H348.037V261.366ZM349.087 266.616H351.397V267.848H349.087V266.616ZM339.623 271.46L339.469 270.256C341.751 270.256 344.789 270.214 347.351 269.892L347.421 270.97C344.803 271.404 341.863 271.46 339.623 271.46ZM359.348 264.586H362.022V265.79H359.348V264.586ZM361.602 261.366H363.072V268.982H361.602V261.366ZM358.802 269.318C361.476 269.318 363.114 270.228 363.114 271.74C363.114 273.28 361.476 274.162 358.802 274.162C356.128 274.162 354.49 273.28 354.49 271.74C354.49 270.228 356.128 269.318 358.802 269.318ZM358.802 270.452C356.996 270.452 355.946 270.9 355.946 271.74C355.946 272.58 356.996 273.028 358.802 273.028C360.622 273.028 361.658 272.58 361.658 271.74C361.658 270.9 360.622 270.452 358.802 270.452ZM355.596 262.654H356.786V263.592C356.786 265.986 355.484 268.1 353.216 268.912L352.46 267.75C354.462 267.05 355.596 265.342 355.596 263.592V262.654ZM355.89 262.654H357.066V263.578C357.066 265.174 358.158 266.756 360.076 267.414L359.348 268.576C357.136 267.806 355.89 265.79 355.89 263.578V262.654ZM352.88 262.234H359.74V263.41H352.88V262.234ZM306.26 284.586H308.934V285.79H306.26V284.586ZM308.514 281.366H309.984V288.982H308.514V281.366ZM305.714 289.318C308.388 289.318 310.026 290.228 310.026 291.74C310.026 293.28 308.388 294.162 305.714 294.162C303.04 294.162 301.402 293.28 301.402 291.74C301.402 290.228 303.04 289.318 305.714 289.318ZM305.714 290.452C303.908 290.452 302.858 290.9 302.858 291.74C302.858 292.58 303.908 293.028 305.714 293.028C307.534 293.028 308.57 292.58 308.57 291.74C308.57 290.9 307.534 290.452 305.714 290.452ZM302.508 282.654H303.698V283.592C303.698 285.986 302.396 288.1 300.128 288.912L299.372 287.75C301.374 287.05 302.508 285.342 302.508 283.592V282.654ZM302.802 282.654H303.978V283.578C303.978 285.174 305.07 286.756 306.988 287.414L306.26 288.576C304.048 287.806 302.802 285.79 302.802 283.578V282.654ZM299.792 282.234H306.652V283.41H299.792V282.234ZM321.351 281.352H322.821V294.176H321.351V281.352ZM312.979 289.934H314.071C316.269 289.934 318.131 289.85 320.287 289.486L320.441 290.676C318.229 291.054 316.325 291.138 314.071 291.138H312.979V289.934ZM312.951 282.5H318.915V287.246H314.463V290.382H312.979V286.07H317.431V283.69H312.951V282.5ZM333.6 281.366H335.056V294.162H333.6V281.366ZM334.72 286.504H337.044V287.722H334.72V286.504ZM325.074 283.34H332.578V284.516H325.074V283.34ZM328.868 285.44C330.688 285.44 332.032 286.672 332.032 288.422C332.032 290.186 330.688 291.418 328.868 291.418C327.034 291.418 325.69 290.186 325.69 288.422C325.69 286.672 327.034 285.44 328.868 285.44ZM328.868 286.644C327.832 286.644 327.09 287.344 327.09 288.422C327.09 289.5 327.832 290.214 328.868 290.214C329.89 290.214 330.632 289.5 330.632 288.422C330.632 287.344 329.89 286.644 328.868 286.644ZM328.112 281.548H329.582V283.83H328.112V281.548ZM347.109 281.366H348.579V294.162H347.109V281.366ZM343.357 282.724H344.799C344.799 286.518 343.287 289.738 338.891 291.88L338.121 290.704C341.803 288.926 343.357 286.392 343.357 282.976V282.724ZM338.751 282.724H344.015V283.9H338.751V282.724Z" fill="#272928"/>
<path d="M425.374 271.39H436.966V272.594H425.374V271.39ZM430.428 268.408H431.884V271.754H430.428V268.408ZM430.386 263.004H431.632V263.648C431.632 266.308 429.308 268.352 426.466 268.912L425.878 267.75C428.37 267.344 430.386 265.566 430.386 263.648V263.004ZM430.68 263.004H431.912V263.648C431.912 265.566 433.942 267.302 436.476 267.694L435.902 268.856C433.004 268.31 430.68 266.308 430.68 263.648V263.004ZM426.326 262.444H435.972V263.634H426.326V262.444ZM447.381 261.366H448.851V270.774H447.381V261.366ZM444.861 265.216H447.619V266.42H444.861V265.216ZM443.391 262.346H444.931C444.931 265.706 442.691 268.226 439.037 269.416L438.421 268.24C441.473 267.246 443.391 265.342 443.391 262.976V262.346ZM439.065 262.346H444.343V263.536H439.065V262.346ZM440.633 272.72H449.173V273.91H440.633V272.72ZM440.633 269.836H442.103V273.364H440.633V269.836ZM456.284 266.224H458.552V267.414H456.284V266.224ZM460.652 261.366H462.052V274.162H460.652V261.366ZM458.076 261.604H459.462V273.546H458.076V261.604ZM454.002 262.36C455.682 262.36 456.76 264.096 456.76 266.896C456.76 269.71 455.682 271.446 454.002 271.446C452.336 271.446 451.258 269.71 451.258 266.896C451.258 264.096 452.336 262.36 454.002 262.36ZM454.002 263.732C453.134 263.732 452.602 264.88 452.602 266.896C452.602 268.912 453.134 270.06 454.002 270.06C454.884 270.06 455.416 268.912 455.416 266.896C455.416 264.88 454.884 263.732 454.002 263.732ZM467.604 262.206H473.582V267.764H467.604V262.206ZM472.14 263.382H469.046V266.588H472.14V263.382ZM475.668 261.366H477.138V268.604H475.668V261.366ZM476.732 264.306H478.944V265.51H476.732V264.306ZM472.322 269.836H473.568V270.158C473.568 272.16 471.664 273.7 468.892 274.12L468.346 273C470.754 272.664 472.322 271.446 472.322 270.158V269.836ZM472.63 269.836H473.876V270.158C473.876 271.418 475.472 272.664 477.838 273.014L477.306 274.134C474.548 273.728 472.63 272.118 472.63 270.158V269.836ZM468.864 269.29H477.334V270.452H468.864V269.29ZM481.533 265.034H490.297V266.21H481.533V265.034ZM480.021 267.75H491.613V268.94H480.021V267.75ZM481.533 261.828H482.989V265.622H481.533V261.828ZM481.435 272.678H490.367V273.868H481.435V272.678ZM481.435 270.102H482.891V273H481.435V270.102ZM427.447 281.366H428.917V288.198H427.447V281.366ZM428.511 284.25H430.723V285.454H428.511V284.25ZM419.467 286.644H420.489C423.191 286.644 424.619 286.56 426.257 286.224L426.411 287.4C424.731 287.764 423.247 287.834 420.489 287.834H419.467V286.644ZM419.467 282.178H425.123V283.354H420.923V287.442H419.467V282.178ZM420.727 288.856H422.183V290.256H427.461V288.856H428.917V293.98H420.727V288.856ZM422.183 291.404V292.79H427.461V291.404H422.183ZM440.326 281.366H441.796V290.732H440.326V281.366ZM441.362 285.146H443.602V286.364H441.362V285.146ZM433.704 292.72H442.314V293.91H433.704V292.72ZM433.704 289.766H435.174V293.224H433.704V289.766ZM435.37 282.234C437.302 282.234 438.772 283.564 438.772 285.426C438.772 287.288 437.302 288.618 435.37 288.618C433.438 288.618 431.982 287.288 431.982 285.426C431.982 283.564 433.438 282.234 435.37 282.234ZM435.37 283.508C434.264 283.508 433.41 284.264 433.41 285.426C433.41 286.588 434.264 287.344 435.37 287.344C436.49 287.344 437.344 286.588 437.344 285.426C437.344 284.264 436.49 283.508 435.37 283.508ZM447.703 282.682H448.907V283.606C448.907 285.986 447.605 288.044 445.337 288.814L444.567 287.68C446.583 286.994 447.703 285.342 447.703 283.606V282.682ZM447.983 282.682H449.173V283.606C449.173 285.216 450.251 286.784 452.211 287.428L451.469 288.576C449.229 287.82 447.983 285.846 447.983 283.606V282.682ZM444.987 282.192H451.861V283.382H444.987V282.192ZM453.205 281.366H454.675V289.066H453.205V281.366ZM454.269 284.614H456.481V285.832H454.269V284.614ZM446.261 289.696H454.675V294.162H453.205V290.886H446.261V289.696ZM460.68 282.066H461.898V283.298C461.898 285.818 460.61 287.946 458.272 288.772L457.502 287.582C459.56 286.896 460.68 285.174 460.68 283.298V282.066ZM460.96 282.066H462.15V283.242C462.15 285.006 463.214 286.602 465.16 287.246L464.376 288.394C462.178 287.596 460.96 285.636 460.96 283.242V282.066ZM466.7 281.366H468.17V288.898H466.7V281.366ZM463.9 289.262C466.574 289.262 468.212 290.158 468.212 291.698C468.212 293.252 466.574 294.148 463.9 294.148C461.226 294.148 459.588 293.252 459.588 291.698C459.588 290.158 461.226 289.262 463.9 289.262ZM463.9 290.41C462.094 290.41 461.044 290.872 461.044 291.698C461.044 292.538 462.094 293 463.9 293C465.72 293 466.756 292.538 466.756 291.698C466.756 290.872 465.72 290.41 463.9 290.41ZM464.11 283.9H466.952V285.104H464.11V283.9ZM473.581 288.632H485.145V289.78H473.581V288.632ZM478.761 289.486H480.217V291.544H478.761V289.486ZM474.995 292.748H483.885V293.91H474.995V292.748ZM474.995 290.732H476.451V293.434H474.995V290.732ZM474.169 282.486H484.515V283.606H474.169V282.486ZM479.363 284.068C482.037 284.068 483.563 284.754 483.563 286.014C483.563 287.288 482.037 287.974 479.363 287.974C476.703 287.974 475.163 287.288 475.163 286.014C475.163 284.754 476.703 284.068 479.363 284.068ZM479.363 285.118C477.571 285.118 476.661 285.412 476.661 286.014C476.661 286.616 477.571 286.924 479.363 286.924C481.155 286.924 482.065 286.616 482.065 286.014C482.065 285.412 481.155 285.118 479.363 285.118ZM478.635 281.268H480.091V283.158H478.635V281.268ZM486.978 287.974H487.916C490.226 287.974 491.556 287.918 493.124 287.638L493.278 288.828C491.668 289.108 490.282 289.164 487.916 289.164H486.978V287.974ZM486.95 282.262H492.508V286.168H488.434V288.674H486.978V285.048H491.052V283.438H486.95V282.262ZM495.602 281.38H497.072V290.802H495.602V281.38ZM493.32 283.424H495.91V284.6H493.32V283.424ZM488.686 292.678H497.422V293.868H488.686V292.678ZM488.686 290.102H490.142V293.154H488.686V290.102ZM493.32 286.294H495.91V287.484H493.32V286.294Z" fill="#272928"/>
<rect x="0.5" y="237.5" width="111" height="70" stroke="#EAEAEA"/>
<rect x="15" y="220" width="81" height="34.1053" rx="17.0526" fill="#195CCD"/>
<path d="M38.056 243.182C36.756 243.182 35.482 242.688 34.546 241.791L35.651 240.465C36.327 241.102 37.25 241.518 38.095 241.518C39.096 241.518 39.616 241.089 39.616 240.426C39.616 239.711 39.031 239.477 38.173 239.113L36.886 238.567C35.924 238.177 34.936 237.384 34.936 235.993C34.936 234.42 36.327 233.211 38.264 233.211C39.382 233.211 40.5 233.653 41.28 234.446L40.318 235.655C39.694 235.148 39.057 234.862 38.264 234.862C37.419 234.862 36.886 235.239 36.886 235.863C36.886 236.552 37.575 236.812 38.394 237.137L39.655 237.657C40.812 238.138 41.579 238.892 41.579 240.27C41.579 241.843 40.266 243.182 38.056 243.182ZM44.8381 243V234.979H42.1211V233.38H49.4791V234.979H46.7621V243H44.8381ZM51.0521 243V233.38H56.9541V234.979H52.9761V237.202H56.3431V238.827H52.9761V241.388H57.0971V243H51.0521ZM59.0502 243V233.38H62.2092C64.3282 233.38 65.9662 234.121 65.9662 236.409C65.9662 238.606 64.3282 239.581 62.2612 239.581H60.9742V243H59.0502ZM60.9742 238.06H62.1312C63.4572 238.06 64.0942 237.501 64.0942 236.409C64.0942 235.278 63.3922 234.914 62.0662 234.914H60.9742V238.06ZM70.5364 243V241.453H72.6164V235.629H70.8614V234.446C71.8364 234.251 72.4864 234.004 73.1104 233.627H74.5274V241.453H76.3344V243H70.5364Z" fill="white"/>
<rect x="0.5" y="237.5" width="111" height="70" stroke="#EAEAEA"/>
<rect x="15" y="220" width="81" height="34.1053" rx="17.0526" fill="#195CCD"/>
<path d="M38.056 243.182C36.756 243.182 35.482 242.688 34.546 241.791L35.651 240.465C36.327 241.102 37.25 241.518 38.095 241.518C39.096 241.518 39.616 241.089 39.616 240.426C39.616 239.711 39.031 239.477 38.173 239.113L36.886 238.567C35.924 238.177 34.936 237.384 34.936 235.993C34.936 234.42 36.327 233.211 38.264 233.211C39.382 233.211 40.5 233.653 41.28 234.446L40.318 235.655C39.694 235.148 39.057 234.862 38.264 234.862C37.419 234.862 36.886 235.239 36.886 235.863C36.886 236.552 37.575 236.812 38.394 237.137L39.655 237.657C40.812 238.138 41.579 238.892 41.579 240.27C41.579 241.843 40.266 243.182 38.056 243.182ZM44.8381 243V234.979H42.1211V233.38H49.4791V234.979H46.7621V243H44.8381ZM51.0521 243V233.38H56.9541V234.979H52.9761V237.202H56.3431V238.827H52.9761V241.388H57.0971V243H51.0521ZM59.0502 243V233.38H62.2092C64.3282 233.38 65.9662 234.121 65.9662 236.409C65.9662 238.606 64.3282 239.581 62.2612 239.581H60.9742V243H59.0502ZM60.9742 238.06H62.1312C63.4572 238.06 64.0942 237.501 64.0942 236.409C64.0942 235.278 63.3922 234.914 62.0662 234.914H60.9742V238.06ZM70.5364 243V241.453H72.6164V235.629H70.8614V234.446C71.8364 234.251 72.4864 234.004 73.1104 233.627H74.5274V241.453H76.3344V243H70.5364Z" fill="white"/>
<rect x="134.5" y="237.5" width="111" height="70" stroke="#EAEAEA"/>
<rect x="149" y="220" width="81" height="34.1053" rx="17.0526" fill="#195CCD"/>
<path d="M172.056 243.182C170.756 243.182 169.482 242.688 168.546 241.791L169.651 240.465C170.327 241.102 171.25 241.518 172.095 241.518C173.096 241.518 173.616 241.089 173.616 240.426C173.616 239.711 173.031 239.477 172.173 239.113L170.886 238.567C169.924 238.177 168.936 237.384 168.936 235.993C168.936 234.42 170.327 233.211 172.264 233.211C173.382 233.211 174.5 233.653 175.28 234.446L174.318 235.655C173.694 235.148 173.057 234.862 172.264 234.862C171.419 234.862 170.886 235.239 170.886 235.863C170.886 236.552 171.575 236.812 172.394 237.137L173.655 237.657C174.812 238.138 175.579 238.892 175.579 240.27C175.579 241.843 174.266 243.182 172.056 243.182ZM178.838 243V234.979H176.121V233.38H183.479V234.979H180.762V243H178.838ZM185.052 243V233.38H190.954V234.979H186.976V237.202H190.343V238.827H186.976V241.388H191.097V243H185.052ZM193.05 243V233.38H196.209C198.328 233.38 199.966 234.121 199.966 236.409C199.966 238.606 198.328 239.581 196.261 239.581H194.974V243H193.05ZM194.974 238.06H196.131C197.457 238.06 198.094 237.501 198.094 236.409C198.094 235.278 197.392 234.914 196.066 234.914H194.974V238.06ZM204.536 243V241.453H206.616V235.629H204.861V234.446C205.836 234.251 206.486 234.004 207.11 233.627H208.527V241.453H210.334V243H204.536Z" fill="white"/>
<rect x="134.5" y="237.5" width="111" height="70" stroke="#EAEAEA"/>
<rect x="149" y="220" width="81" height="34.1053" rx="17.0526" fill="#195CCD"/>
<path d="M172.056 243.182C170.756 243.182 169.482 242.688 168.546 241.791L169.651 240.465C170.327 241.102 171.25 241.518 172.095 241.518C173.096 241.518 173.616 241.089 173.616 240.426C173.616 239.711 173.031 239.477 172.173 239.113L170.886 238.567C169.924 238.177 168.936 237.384 168.936 235.993C168.936 234.42 170.327 233.211 172.264 233.211C173.382 233.211 174.5 233.653 175.28 234.446L174.318 235.655C173.694 235.148 173.057 234.862 172.264 234.862C171.419 234.862 170.886 235.239 170.886 235.863C170.886 236.552 171.575 236.812 172.394 237.137L173.655 237.657C174.812 238.138 175.579 238.892 175.579 240.27C175.579 241.843 174.266 243.182 172.056 243.182ZM178.838 243V234.979H176.121V233.38H183.479V234.979H180.762V243H178.838ZM185.052 243V233.38H190.954V234.979H186.976V237.202H190.343V238.827H186.976V241.388H191.097V243H185.052ZM193.05 243V233.38H196.209C198.328 233.38 199.966 234.121 199.966 236.409C199.966 238.606 198.328 239.581 196.261 239.581H194.974V243H193.05ZM194.974 238.06H196.131C197.457 238.06 198.094 237.501 198.094 236.409C198.094 235.278 197.392 234.914 196.066 234.914H194.974V238.06ZM204.029 243V241.908C206.538 239.503 208.189 237.878 208.189 236.474C208.189 235.525 207.682 234.953 206.759 234.953C206.044 234.953 205.485 235.434 204.991 235.954L203.938 234.914C204.822 233.965 205.693 233.458 207.006 233.458C208.813 233.458 210.035 234.602 210.035 236.383C210.035 238.008 208.514 239.711 206.798 241.505C207.279 241.453 207.916 241.388 208.371 241.388H210.477V243H204.029Z" fill="white"/>
<rect x="268.5" y="237.5" width="111" height="70" stroke="#EAEAEA"/>
<rect x="283" y="220" width="81" height="34.1053" rx="17.0526" fill="#195CCD"/>
<path d="M306.056 243.182C304.756 243.182 303.482 242.688 302.546 241.791L303.651 240.465C304.327 241.102 305.25 241.518 306.095 241.518C307.096 241.518 307.616 241.089 307.616 240.426C307.616 239.711 307.031 239.477 306.173 239.113L304.886 238.567C303.924 238.177 302.936 237.384 302.936 235.993C302.936 234.42 304.327 233.211 306.264 233.211C307.382 233.211 308.5 233.653 309.28 234.446L308.318 235.655C307.694 235.148 307.057 234.862 306.264 234.862C305.419 234.862 304.886 235.239 304.886 235.863C304.886 236.552 305.575 236.812 306.394 237.137L307.655 237.657C308.812 238.138 309.579 238.892 309.579 240.27C309.579 241.843 308.266 243.182 306.056 243.182ZM312.838 243V234.979H310.121V233.38H317.479V234.979H314.762V243H312.838ZM319.052 243V233.38H324.954V234.979H320.976V237.202H324.343V238.827H320.976V241.388H325.097V243H319.052ZM327.05 243V233.38H330.209C332.328 233.38 333.966 234.121 333.966 236.409C333.966 238.606 332.328 239.581 330.261 239.581H328.974V243H327.05ZM328.974 238.06H330.131C331.457 238.06 332.094 237.501 332.094 236.409C332.094 235.278 331.392 234.914 330.066 234.914H328.974V238.06ZM341.032 243.182C339.511 243.182 338.484 242.623 337.808 241.843L338.718 240.634C339.29 241.193 339.979 241.635 340.85 241.635C341.838 241.635 342.501 241.167 342.501 240.348C342.501 239.451 341.942 238.879 339.849 238.879V237.501C341.617 237.501 342.189 236.916 342.189 236.11C342.189 235.382 341.721 234.953 340.902 234.953C340.213 234.953 339.654 235.291 339.082 235.824L338.107 234.641C338.939 233.926 339.862 233.458 340.98 233.458C342.839 233.458 344.1 234.368 344.1 235.967C344.1 236.981 343.515 237.683 342.501 238.099V238.151C343.593 238.45 344.425 239.243 344.425 240.465C344.425 242.194 342.878 243.182 341.032 243.182Z" fill="white"/>
<rect x="402.5" y="237.5" width="111" height="70" stroke="#EAEAEA"/>
<rect x="417" y="220" width="81" height="34.1053" rx="17.0526" fill="#195CCD"/>
<path d="M440.056 243.182C438.756 243.182 437.482 242.688 436.546 241.791L437.651 240.465C438.327 241.102 439.25 241.518 440.095 241.518C441.096 241.518 441.616 241.089 441.616 240.426C441.616 239.711 441.031 239.477 440.173 239.113L438.886 238.567C437.924 238.177 436.936 237.384 436.936 235.993C436.936 234.42 438.327 233.211 440.264 233.211C441.382 233.211 442.5 233.653 443.28 234.446L442.318 235.655C441.694 235.148 441.057 234.862 440.264 234.862C439.419 234.862 438.886 235.239 438.886 235.863C438.886 236.552 439.575 236.812 440.394 237.137L441.655 237.657C442.812 238.138 443.579 238.892 443.579 240.27C443.579 241.843 442.266 243.182 440.056 243.182ZM446.838 243V234.979H444.121V233.38H451.479V234.979H448.762V243H446.838ZM453.052 243V233.38H458.954V234.979H454.976V237.202H458.343V238.827H454.976V241.388H459.097V243H453.052ZM461.05 243V233.38H464.209C466.328 233.38 467.966 234.121 467.966 236.409C467.966 238.606 466.328 239.581 464.261 239.581H462.974V243H461.05ZM462.974 238.06H464.131C465.457 238.06 466.094 237.501 466.094 236.409C466.094 235.278 465.392 234.914 464.066 234.914H462.974V238.06ZM475.851 243V237.345C475.851 236.786 475.903 235.889 475.929 235.33H475.877C475.63 235.837 475.37 236.318 475.097 236.851L473.615 239.204H478.776V240.673H471.756V239.36L475.331 233.627H477.632V243H475.851Z" fill="white"/>
<path d="M31.806 86.556H39.968V87.746H31.806V86.556ZM30.644 95.278H42.208V96.482H30.644V95.278ZM33.29 91.148H34.746V95.684H33.29V91.148ZM39.534 86.556H40.99V87.9C40.99 89.496 40.99 91.204 40.542 93.682L39.086 93.528C39.534 91.19 39.534 89.454 39.534 87.9V86.556ZM36.454 91.148H37.896V95.684H36.454V91.148ZM44.0689 86.71H49.7389V87.886H44.0689V86.71ZM45.9169 90.364H47.3589V94.704H45.9169V90.364ZM49.1369 86.71H50.5929V87.55C50.5929 88.684 50.5929 90.294 50.2289 92.562L48.7869 92.436C49.1369 90.238 49.1369 88.67 49.1369 87.55V86.71ZM51.9649 85.366H53.4209V98.162H51.9649V85.366ZM53.0149 90.616H55.3249V91.848H53.0149V90.616ZM43.5509 95.46L43.3969 94.256C45.6789 94.256 48.7169 94.214 51.2789 93.892L51.3489 94.97C48.7309 95.404 45.7909 95.46 43.5509 95.46ZM65.8798 85.366H67.2798V98.162H65.8798V85.366ZM63.9478 90.448H66.2578V91.638H63.9478V90.448ZM62.9958 85.618H64.3678V97.532H62.9958V85.618ZM56.9618 86.85H58.4318V94.242H56.9618V86.85ZM56.9618 93.668H57.8018C59.0898 93.668 60.5318 93.598 62.1698 93.276L62.3238 94.55C60.6158 94.872 59.1458 94.928 57.8018 94.928H56.9618V93.668ZM72.0107 89.678H73.4667V92.058H72.0107V89.678ZM76.6167 89.678H78.0727V92.058H76.6167V89.678ZM69.2667 91.582H80.8307V92.744H69.2667V91.582ZM75.0347 93.57C77.7787 93.57 79.4447 94.396 79.4447 95.852C79.4447 97.322 77.7787 98.148 75.0347 98.148C72.2767 98.148 70.6247 97.322 70.6247 95.852C70.6247 94.396 72.2767 93.57 75.0347 93.57ZM75.0347 94.69C73.1587 94.69 72.1087 95.096 72.1087 95.852C72.1087 96.622 73.1587 97.028 75.0347 97.028C76.9107 97.028 77.9607 96.622 77.9607 95.852C77.9607 95.096 76.9107 94.69 75.0347 94.69ZM75.0487 85.576C77.8487 85.576 79.6127 86.486 79.6127 87.998C79.6127 89.51 77.8487 90.392 75.0487 90.392C72.2487 90.392 70.4987 89.51 70.4987 87.998C70.4987 86.486 72.2487 85.576 75.0487 85.576ZM75.0487 86.71C73.1447 86.71 72.0107 87.158 72.0107 87.998C72.0107 88.824 73.1447 89.272 75.0487 89.272C76.9667 89.272 78.1007 88.824 78.1007 87.998C78.1007 87.158 76.9667 86.71 75.0487 86.71ZM39.716 105.38H41.186V112.618H39.716V105.38ZM32.814 113.29H41.186V118.008H32.814V113.29ZM39.744 114.452H34.256V116.832H39.744V114.452ZM33.822 105.856H35.04V107.088C35.04 109.468 33.696 111.554 31.372 112.352L30.658 111.19C32.688 110.518 33.822 108.824 33.822 107.088V105.856ZM34.102 105.856H35.306V107.088C35.306 108.782 36.44 110.336 38.414 110.966L37.7 112.1C35.432 111.372 34.102 109.426 34.102 107.088V105.856ZM46.6729 112.968H48.1429V115.04H46.6729V112.968ZM52.0489 105.366H53.5189V118.162H52.0489V105.366ZM53.0289 110.7H55.3389V111.918H53.0289V110.7ZM43.5649 115.866L43.3689 114.662C45.6229 114.662 48.7169 114.648 51.3349 114.27L51.4469 115.348C48.7169 115.852 45.7629 115.866 43.5649 115.866ZM43.5929 106.85H51.1949V108.012H43.5929V106.85ZM47.4009 108.656C49.2069 108.656 50.4669 109.608 50.4669 111.036C50.4669 112.478 49.2069 113.416 47.4009 113.416C45.5949 113.416 44.3489 112.478 44.3489 111.036C44.3489 109.608 45.5949 108.656 47.4009 108.656ZM47.4009 109.776C46.3929 109.776 45.7349 110.266 45.7349 111.036C45.7349 111.82 46.3929 112.296 47.4009 112.296C48.4089 112.296 49.0809 111.82 49.0809 111.036C49.0809 110.266 48.4089 109.776 47.4009 109.776ZM46.6729 105.408H48.1429V107.676H46.6729V105.408ZM56.4158 106.612H63.9478V107.788H56.4158V106.612ZM60.1818 108.334C62.0158 108.334 63.2758 109.258 63.2758 110.672C63.2758 112.072 62.0158 112.982 60.1818 112.982C58.3478 112.982 57.0738 112.072 57.0738 110.672C57.0738 109.258 58.3478 108.334 60.1818 108.334ZM60.1818 109.454C59.1738 109.454 58.4878 109.902 58.4878 110.672C58.4878 111.414 59.1738 111.876 60.1818 111.876C61.1898 111.876 61.8758 111.414 61.8758 110.672C61.8758 109.902 61.1898 109.454 60.1818 109.454ZM64.9138 105.366H66.3838V113.374H64.9138V105.366ZM65.9778 108.796H68.1898V110H65.9778V108.796ZM57.9698 114.004H66.3838V118.162H64.9138V115.18H57.9698V114.004ZM59.4538 105.296H60.9098V107.284H59.4538V105.296ZM70.6807 113.038H72.1367V114.34H77.8907V113.038H79.3467V118.008H70.6807V113.038ZM72.1367 115.446V116.846H77.8907V115.446H72.1367ZM69.2667 111.092H80.8307V112.254H69.2667V111.092ZM74.3067 105.506H75.5667V105.996C75.5667 108.222 73.3407 109.93 70.4147 110.336L69.8827 109.188C72.4447 108.866 74.3067 107.466 74.3067 105.996V105.506ZM74.5447 105.506H75.8047V105.996C75.8047 107.452 77.6807 108.866 80.2147 109.188L79.6827 110.336C76.7707 109.93 74.5447 108.194 74.5447 105.996V105.506Z" fill="#272928"/>
<path d="M156.054 85.352H157.524V98.176H156.054V85.352ZM147.668 86.416H149.124V89.678H152.358V86.416H153.814V95.138H147.668V86.416ZM149.124 90.826V93.948H152.358V90.826H149.124ZM160.196 86.486H167.028V87.676H160.196V86.486ZM160.014 92.982L159.846 91.778C162.058 91.764 165.068 91.736 167.56 91.428L167.658 92.506C165.124 92.926 162.17 92.982 160.014 92.982ZM161.344 87.396H162.758V92.016H161.344V87.396ZM164.466 87.396H165.88V92.016H164.466V87.396ZM168.386 85.38H169.856V94.802H168.386V85.38ZM169.422 89.132H171.662V90.35H169.422V89.132ZM161.764 96.72H170.374V97.91H161.764V96.72ZM161.764 93.906H163.234V97.028H161.764V93.906ZM175.875 86.654H177.065V87.592C177.065 89.958 175.763 92.058 173.481 92.842L172.739 91.68C174.727 91.008 175.875 89.314 175.875 87.592V86.654ZM176.169 86.654H177.345V87.592C177.345 89.174 178.437 90.756 180.355 91.414L179.627 92.576C177.415 91.806 176.169 89.79 176.169 87.592V86.654ZM179.641 88.572H182.301V89.776H179.641V88.572ZM173.159 86.164H180.019V87.34H173.159V86.164ZM174.727 93.64H183.351V98.162H181.881V94.83H174.727V93.64ZM181.881 85.366H183.351V92.996H181.881V85.366ZM191.787 86.416H192.977V88.516C192.977 91.498 191.647 94.354 189.449 95.474L188.553 94.298C190.541 93.332 191.787 90.882 191.787 88.516V86.416ZM192.067 86.416H193.243V88.516C193.243 90.798 194.447 93.122 196.365 94.074L195.469 95.236C193.341 94.13 192.067 91.4 192.067 88.516V86.416ZM197.219 85.366H198.689V98.162H197.219V85.366ZM198.353 90.434H200.677V91.652H198.353V90.434ZM202.86 86.556H211.036V87.746H202.86V86.556ZM201.656 95.278H213.22V96.482H201.656V95.278ZM205.968 90.784H207.438V95.88H205.968V90.784ZM210.49 86.556H211.96V87.802C211.96 89.398 211.96 91.176 211.47 93.822L210 93.654C210.49 91.162 210.49 89.342 210.49 87.802V86.556ZM216.047 88.754H224.797V89.93H216.047V88.754ZM216.047 85.604H217.503V89.286H216.047V85.604ZM214.535 91.246H226.099V92.422H214.535V91.246ZM220.289 93.43C223.033 93.43 224.699 94.27 224.699 95.782C224.699 97.266 223.033 98.12 220.289 98.12C217.545 98.12 215.879 97.266 215.879 95.782C215.879 94.27 217.545 93.43 220.289 93.43ZM220.289 94.564C218.413 94.564 217.363 94.97 217.363 95.782C217.363 96.552 218.413 96.986 220.289 96.986C222.165 96.986 223.215 96.552 223.215 95.782C223.215 94.97 222.165 94.564 220.289 94.564ZM227.918 91.596H228.856C231.32 91.596 232.566 91.554 234.05 91.288L234.204 92.464C232.664 92.744 231.376 92.786 228.856 92.786H227.918V91.596ZM227.89 86.122H233.448V89.93H229.374V92.352H227.918V88.81H232.006V87.298H227.89V86.122ZM236.542 85.38H238.012V93.248H236.542V85.38ZM234.246 87.214H236.836V88.39H234.246V87.214ZM234.246 89.888H236.836V91.078H234.246V89.888ZM229.36 93.892H238.012V98.176H236.542V95.068H229.36V93.892ZM169.286 113.038H170.742V114.34H176.496V113.038H177.952V118.008H169.286V113.038ZM170.742 115.446V116.846H176.496V115.446H170.742ZM167.872 111.092H179.436V112.254H167.872V111.092ZM172.912 105.506H174.172V105.996C174.172 108.222 171.946 109.93 169.02 110.336L168.488 109.188C171.05 108.866 172.912 107.466 172.912 105.996V105.506ZM173.15 105.506H174.41V105.996C174.41 107.452 176.286 108.866 178.82 109.188L178.288 110.336C175.376 109.93 173.15 108.194 173.15 105.996V105.506ZM181.395 106.332H186.967V107.522H181.395V106.332ZM183.173 109.244H184.615V112.436H183.173V109.244ZM186.393 106.332H187.835V107.06C187.835 107.928 187.835 109.202 187.513 110.84L186.085 110.686C186.393 109.048 186.393 107.914 186.393 107.06V106.332ZM189.347 105.366H190.831V114.97H189.347V105.366ZM190.201 109.412H192.525V110.63H190.201V109.412ZM182.543 116.72H191.237V117.91H182.543V116.72ZM182.543 114.102H184.013V117.084H182.543V114.102ZM180.765 113.08L180.625 111.904C182.879 111.904 185.987 111.862 188.563 111.498L188.661 112.548C186.015 113.024 182.991 113.08 180.765 113.08ZM202.156 105.352H203.626V112.562H202.156V105.352ZM203.22 108.474H205.432V109.678H203.22V108.474ZM198.558 106.136H200.14C200.14 109.454 197.984 111.68 194.162 112.646L193.616 111.456C196.906 110.644 198.558 108.964 198.558 106.892V106.136ZM194.204 106.136H199.454V107.312H194.204V106.136ZM198.81 113.78H200.056V114.13C200.056 116.146 198.152 117.7 195.394 118.134L194.848 117C197.256 116.678 198.81 115.446 198.81 114.13V113.78ZM199.132 113.78H200.378V114.13C200.378 115.404 201.96 116.678 204.326 117.028L203.794 118.148C201.036 117.728 199.132 116.104 199.132 114.13V113.78ZM195.352 113.164H203.822V114.326H195.352V113.164ZM215.609 105.366H217.079V118.162H215.609V105.366ZM211.857 106.724H213.299C213.299 110.518 211.787 113.738 207.391 115.88L206.621 114.704C210.303 112.926 211.857 110.392 211.857 106.976V106.724ZM207.251 106.724H212.515V107.9H207.251V106.724Z" fill="#272928"/>
<path d="M306.76 88.586H309.434V89.79H306.76V88.586ZM309.014 85.366H310.484V92.982H309.014V85.366ZM306.214 93.318C308.888 93.318 310.526 94.228 310.526 95.74C310.526 97.28 308.888 98.162 306.214 98.162C303.54 98.162 301.902 97.28 301.902 95.74C301.902 94.228 303.54 93.318 306.214 93.318ZM306.214 94.452C304.408 94.452 303.358 94.9 303.358 95.74C303.358 96.58 304.408 97.028 306.214 97.028C308.034 97.028 309.07 96.58 309.07 95.74C309.07 94.9 308.034 94.452 306.214 94.452ZM303.008 86.654H304.198V87.592C304.198 89.986 302.896 92.1 300.628 92.912L299.872 91.75C301.874 91.05 303.008 89.342 303.008 87.592V86.654ZM303.302 86.654H304.478V87.578C304.478 89.174 305.57 90.756 307.488 91.414L306.76 92.576C304.548 91.806 303.302 89.79 303.302 87.578V86.654ZM300.292 86.234H307.152V87.41H300.292V86.234ZM312.765 91.666H324.329V92.828H312.765V91.666ZM317.805 89.524H319.261V92.072H317.805V89.524ZM314.039 93.906H322.929V98.232H321.473V95.082H314.039V93.906ZM314.193 89.132H323.027V90.322H314.193V89.132ZM314.193 85.884H322.915V87.06H315.663V89.762H314.193V85.884ZM334.1 85.366H335.556V98.162H334.1V85.366ZM335.22 90.504H337.544V91.722H335.22V90.504ZM325.574 87.34H333.078V88.516H325.574V87.34ZM329.368 89.44C331.188 89.44 332.532 90.672 332.532 92.422C332.532 94.186 331.188 95.418 329.368 95.418C327.534 95.418 326.19 94.186 326.19 92.422C326.19 90.672 327.534 89.44 329.368 89.44ZM329.368 90.644C328.332 90.644 327.59 91.344 327.59 92.422C327.59 93.5 328.332 94.214 329.368 94.214C330.39 94.214 331.132 93.5 331.132 92.422C331.132 91.344 330.39 90.644 329.368 90.644ZM328.612 85.548H330.082V87.83H328.612V85.548ZM340.021 89.034H348.785V90.21H340.021V89.034ZM338.509 91.75H350.101V92.94H338.509V91.75ZM340.021 85.828H341.477V89.622H340.021V85.828ZM339.923 96.678H348.855V97.868H339.923V96.678ZM339.923 94.102H341.379V97H339.923V94.102ZM305.738 107.27H309.546V108.46H305.738V107.27ZM305.738 110.35H309.546V111.54H305.738V110.35ZM309.014 105.38H310.484V114.788H309.014V105.38ZM302.196 116.72H310.806V117.91H302.196V116.72ZM302.196 113.836H303.652V117.294H302.196V113.836ZM303.386 106.164C305.276 106.164 306.718 107.508 306.718 109.412C306.718 111.302 305.276 112.66 303.386 112.66C301.496 112.66 300.054 111.302 300.054 109.412C300.054 107.508 301.496 106.164 303.386 106.164ZM303.386 107.452C302.28 107.452 301.454 108.236 301.454 109.412C301.454 110.588 302.28 111.372 303.386 111.372C304.492 111.372 305.318 110.588 305.318 109.412C305.318 108.236 304.492 107.452 303.386 107.452ZM314.165 113.038H315.621V114.34H321.375V113.038H322.831V118.008H314.165V113.038ZM315.621 115.446V116.846H321.375V115.446H315.621ZM312.751 111.092H324.315V112.254H312.751V111.092ZM317.791 105.506H319.051V105.996C319.051 108.222 316.825 109.93 313.899 110.336L313.367 109.188C315.929 108.866 317.791 107.466 317.791 105.996V105.506ZM318.029 105.506H319.289V105.996C319.289 107.452 321.165 108.866 323.699 109.188L323.167 110.336C320.255 109.93 318.029 108.194 318.029 105.996V105.506ZM334.1 105.366H335.556V118.162H334.1V105.366ZM335.22 110.504H337.544V111.722H335.22V110.504ZM325.574 107.34H333.078V108.516H325.574V107.34ZM329.368 109.44C331.188 109.44 332.532 110.672 332.532 112.422C332.532 114.186 331.188 115.418 329.368 115.418C327.534 115.418 326.19 114.186 326.19 112.422C326.19 110.672 327.534 109.44 329.368 109.44ZM329.368 110.644C328.332 110.644 327.59 111.344 327.59 112.422C327.59 113.5 328.332 114.214 329.368 114.214C330.39 114.214 331.132 113.5 331.132 112.422C331.132 111.344 330.39 110.644 329.368 110.644ZM328.612 105.548H330.082V107.83H328.612V105.548ZM347.609 105.366H349.079V118.162H347.609V105.366ZM343.857 106.724H345.299C345.299 110.518 343.787 113.738 339.391 115.88L338.621 114.704C342.303 112.926 343.857 110.392 343.857 106.976V106.724ZM339.251 106.724H344.515V107.9H339.251V106.724Z" fill="#272928"/>
<path d="M448.768 85.352H450.238V98.176H448.768V85.352ZM449.902 90.266H452.226V91.484H449.902V90.266ZM440.844 93.822H441.88C444.148 93.822 445.828 93.738 447.718 93.388L447.872 94.62C445.912 94.97 444.204 95.04 441.88 95.04H440.844V93.822ZM440.844 86.57H446.794V87.76H442.3V94.382H440.844V86.57ZM462.739 87.13H464.951V88.334H462.739V87.13ZM462.739 89.874H464.951V91.078H462.739V89.874ZM456.761 86.094C458.707 86.094 460.163 87.354 460.163 89.16C460.163 90.938 458.707 92.198 456.761 92.198C454.815 92.198 453.373 90.938 453.373 89.16C453.373 87.354 454.815 86.094 456.761 86.094ZM456.761 87.326C455.627 87.326 454.801 88.054 454.801 89.16C454.801 90.266 455.627 90.966 456.761 90.966C457.895 90.966 458.735 90.266 458.735 89.16C458.735 88.054 457.895 87.326 456.761 87.326ZM461.717 85.366H463.187V92.898H461.717V85.366ZM459.071 93.234C461.689 93.234 463.327 94.158 463.327 95.698C463.327 97.238 461.689 98.148 459.071 98.148C456.439 98.148 454.801 97.238 454.801 95.698C454.801 94.158 456.439 93.234 459.071 93.234ZM459.071 94.41C457.293 94.41 456.257 94.858 456.257 95.698C456.257 96.538 457.293 96.986 459.071 96.986C460.849 96.986 461.871 96.538 461.871 95.698C461.871 94.858 460.849 94.41 459.071 94.41ZM474.595 85.38H476.065V94.956H474.595V85.38ZM475.631 89.44H477.871V90.658H475.631V89.44ZM466.097 86.836H473.629V87.998H466.097V86.836ZM469.863 88.586C471.683 88.586 472.957 89.566 472.957 91.008C472.957 92.464 471.683 93.43 469.863 93.43C468.029 93.43 466.755 92.464 466.755 91.008C466.755 89.566 468.029 88.586 469.863 88.586ZM469.863 89.72C468.855 89.72 468.169 90.21 468.169 91.008C468.169 91.82 468.855 92.296 469.863 92.296C470.871 92.296 471.557 91.82 471.557 91.008C471.557 90.21 470.871 89.72 469.863 89.72ZM469.135 85.366H470.591V87.41H469.135V85.366ZM467.973 96.72H476.583V97.91H467.973V96.72ZM467.973 94.214H469.443V97.224H467.973V94.214ZM425.846 107.438H432.09V108.614H425.846V107.438ZM428.982 109.342C430.592 109.342 431.754 110.574 431.754 112.324C431.754 114.074 430.592 115.292 428.982 115.292C427.386 115.292 426.21 114.074 426.21 112.324C426.21 110.574 427.386 109.342 428.982 109.342ZM428.982 110.574C428.128 110.574 427.512 111.274 427.512 112.324C427.512 113.388 428.128 114.06 428.982 114.06C429.836 114.06 430.452 113.388 430.452 112.324C430.452 111.274 429.836 110.574 428.982 110.574ZM435.366 105.366H436.766V118.162H435.366V105.366ZM433.546 110.672H435.828V111.862H433.546V110.672ZM432.65 105.632H434.022V117.574H432.65V105.632ZM428.268 105.73H429.71V108.166H428.268V105.73ZM447.881 105.366H449.351V111.848H447.881V105.366ZM443.737 105.926H445.333C445.333 109.23 443.219 111.26 439.425 112.142L438.921 110.952C442.183 110.238 443.737 108.684 443.737 106.696V105.926ZM439.621 105.926H444.367V107.116H439.621V105.926ZM444.857 107.102H448.091V108.236H444.857V107.102ZM444.759 109.566H448.021V110.686H444.759V109.566ZM441.021 112.38H449.351V115.698H442.505V117.532H441.049V114.592H447.881V113.542H441.021V112.38ZM441.049 116.874H449.701V118.036H441.049V116.874ZM452.136 111.596H453.074C455.538 111.596 456.784 111.554 458.268 111.288L458.422 112.464C456.882 112.744 455.594 112.786 453.074 112.786H452.136V111.596ZM452.108 106.122H457.666V109.93H453.592V112.352H452.136V108.81H456.224V107.298H452.108V106.122ZM460.76 105.38H462.23V113.248H460.76V105.38ZM458.464 107.214H461.054V108.39H458.464V107.214ZM458.464 109.888H461.054V111.078H458.464V109.888ZM453.578 113.892H462.23V118.176H460.76V115.068H453.578V113.892ZM470.694 107.48H471.884V107.998C471.884 110.168 470.568 112.002 468.286 112.674L467.6 111.526C469.574 110.966 470.694 109.538 470.694 107.998V107.48ZM470.96 107.48H472.164V107.998C472.164 109.412 473.242 110.77 475.202 111.302L474.544 112.436C472.248 111.792 470.96 110.042 470.96 107.998V107.48ZM468.006 106.738H474.852V107.9H468.006V106.738ZM470.694 105.31H472.164V107.256H470.694V105.31ZM476.168 105.366H477.638V112.73H476.168V105.366ZM477.232 108.39H479.444V109.608H477.232V108.39ZM472.822 113.836H474.068V114.158C474.068 116.16 472.15 117.7 469.392 118.12L468.846 117C471.254 116.664 472.822 115.446 472.822 114.158V113.836ZM473.13 113.836H474.376V114.158C474.376 115.418 475.972 116.664 478.338 117.014L477.806 118.134C475.048 117.728 473.13 116.118 473.13 114.158V113.836ZM469.364 113.36H477.834V114.522H469.364V113.36ZM489.621 105.366H491.091V118.162H489.621V105.366ZM485.869 106.724H487.311C487.311 110.518 485.799 113.738 481.403 115.88L480.633 114.704C484.315 112.926 485.869 110.392 485.869 106.976V106.724ZM481.263 106.724H486.527V107.9H481.263V106.724Z" fill="#272928"/>
<path d="M567.826 89.048H576.562V90.224H567.826V89.048ZM567.826 85.786H569.268V89.524H567.826V85.786ZM566.314 91.932H577.878V93.122H566.314V91.932ZM571.368 89.72H572.824V92.296H571.368V89.72ZM567.728 96.72H576.66V97.91H567.728V96.72ZM567.728 94.046H569.184V97.294H567.728V94.046ZM588.699 85.366H590.099V98.162H588.699V85.366ZM584.233 89.86H586.543V91.064H584.233V89.86ZM586.123 85.618H587.495V97.532H586.123V85.618ZM581.643 87.396H582.763V88.88C582.763 91.708 581.811 94.452 579.865 95.684L578.983 94.592C580.803 93.472 581.643 91.162 581.643 88.88V87.396ZM581.965 87.396H583.071V88.88C583.071 91.064 583.883 93.248 585.675 94.298L584.807 95.376C582.861 94.214 581.965 91.624 581.965 88.88V87.396ZM579.389 86.766H585.171V87.956H579.389V86.766ZM600.256 91.778H601.712V94.018H600.256V91.778ZM595.202 91.274H606.766V92.45H595.202V91.274ZM600.97 93.598C603.714 93.598 605.38 94.41 605.38 95.88C605.38 97.322 603.714 98.148 600.97 98.148C598.212 98.148 596.56 97.322 596.56 95.88C596.56 94.41 598.212 93.598 600.97 93.598ZM600.97 94.718C599.094 94.718 598.044 95.11 598.044 95.88C598.044 96.622 599.094 97.028 600.97 97.028C602.846 97.028 603.896 96.622 603.896 95.88C603.896 95.11 602.846 94.718 600.97 94.718ZM600.004 86.486H601.306V86.836C601.306 88.838 599.234 90.308 596.294 90.63L595.79 89.468C598.296 89.23 600.004 88.082 600.004 86.836V86.486ZM600.676 86.486H601.964V86.836C601.964 88.096 603.672 89.23 606.192 89.468L605.674 90.63C602.748 90.308 600.676 88.838 600.676 86.836V86.486ZM596.266 85.926H605.73V87.102H596.266V85.926ZM617.167 85.38H618.637V92.618H617.167V85.38ZM610.265 93.29H618.637V98.008H610.265V93.29ZM617.195 94.452H611.707V96.832H617.195V94.452ZM611.273 85.856H612.491V87.088C612.491 89.468 611.147 91.554 608.823 92.352L608.109 91.19C610.139 90.518 611.273 88.824 611.273 87.088V85.856ZM611.553 85.856H612.757V87.088C612.757 88.782 613.891 90.336 615.865 90.966L615.151 92.1C612.883 91.372 611.553 89.426 611.553 87.088V85.856ZM576.958 105.366H578.428V111.918H576.958V105.366ZM570.042 112.534H578.428V115.782H571.498V117.322H570.07V114.704H576.972V113.668H570.042V112.534ZM570.07 116.888H578.806V118.05H570.07V116.888ZM571.064 105.702H572.282V106.668C572.282 109.034 570.924 111.106 568.614 111.876L567.9 110.714C569.916 110.056 571.064 108.39 571.064 106.668V105.702ZM571.344 105.702H572.548V106.668C572.548 108.334 573.696 109.888 575.67 110.49L574.956 111.638C572.674 110.91 571.344 108.964 571.344 106.668V105.702ZM587.569 108.796H590.691V109.986H587.569V108.796ZM589.893 105.38H591.363V114.732H589.893V105.38ZM583.075 116.72H591.685V117.91H583.075V116.72ZM583.075 113.92H584.531V117.378H583.075V113.92ZM583.887 107.004H585.077V107.928C585.077 110.294 583.775 112.394 581.493 113.206L580.751 112.03C582.739 111.344 583.887 109.664 583.887 107.928V107.004ZM584.181 107.004H585.357V107.928C585.357 109.51 586.449 111.106 588.367 111.778L587.639 112.926C585.427 112.156 584.181 110.14 584.181 107.928V107.004ZM581.171 106.332H588.031V107.508H581.171V106.332ZM599.496 107.27H603.304V108.46H599.496V107.27ZM599.496 110.35H603.304V111.54H599.496V110.35ZM602.772 105.38H604.242V114.788H602.772V105.38ZM595.954 116.72H604.564V117.91H595.954V116.72ZM595.954 113.836H597.41V117.294H595.954V113.836ZM597.144 106.164C599.034 106.164 600.476 107.508 600.476 109.412C600.476 111.302 599.034 112.66 597.144 112.66C595.254 112.66 593.812 111.302 593.812 109.412C593.812 107.508 595.254 106.164 597.144 106.164ZM597.144 107.452C596.038 107.452 595.212 108.236 595.212 109.412C595.212 110.588 596.038 111.372 597.144 111.372C598.25 111.372 599.076 110.588 599.076 109.412C599.076 108.236 598.25 107.452 597.144 107.452ZM607.923 113.038H609.379V114.34H615.133V113.038H616.589V118.008H607.923V113.038ZM609.379 115.446V116.846H615.133V115.446H609.379ZM606.509 111.092H618.073V112.254H606.509V111.092ZM611.549 105.506H612.809V105.996C612.809 108.222 610.583 109.93 607.657 110.336L607.125 109.188C609.687 108.866 611.549 107.466 611.549 105.996V105.506ZM611.787 105.506H613.047V105.996C613.047 107.452 614.923 108.866 617.457 109.188L616.925 110.336C614.013 109.93 611.787 108.194 611.787 105.996V105.506Z" fill="#272928"/>
<rect x="1.5" y="61.5" width="111" height="70" stroke="#EAEAEA"/>
<rect x="16" y="44" width="81" height="34.1053" rx="17.0526" fill="#195CCD"/>
<path d="M39.056 67.182C37.756 67.182 36.482 66.688 35.546 65.791L36.651 64.465C37.327 65.102 38.25 65.518 39.095 65.518C40.096 65.518 40.616 65.089 40.616 64.426C40.616 63.711 40.031 63.477 39.173 63.113L37.886 62.567C36.924 62.177 35.936 61.384 35.936 59.993C35.936 58.42 37.327 57.211 39.264 57.211C40.382 57.211 41.5 57.653 42.28 58.446L41.318 59.655C40.694 59.148 40.057 58.862 39.264 58.862C38.419 58.862 37.886 59.239 37.886 59.863C37.886 60.552 38.575 60.812 39.394 61.137L40.655 61.657C41.812 62.138 42.579 62.892 42.579 64.27C42.579 65.843 41.266 67.182 39.056 67.182ZM45.8381 67V58.979H43.1211V57.38H50.4791V58.979H47.7621V67H45.8381ZM52.0521 67V57.38H57.9541V58.979H53.9761V61.202H57.3431V62.827H53.9761V65.388H58.0971V67H52.0521ZM60.0502 67V57.38H63.2092C65.3282 57.38 66.9662 58.121 66.9662 60.409C66.9662 62.606 65.3282 63.581 63.2612 63.581H61.9742V67H60.0502ZM61.9742 62.06H63.1312C64.4572 62.06 65.0942 61.501 65.0942 60.409C65.0942 59.278 64.3922 58.914 63.0662 58.914H61.9742V62.06ZM71.5364 67V65.453H73.6164V59.629H71.8614V58.446C72.8364 58.251 73.4864 58.004 74.1104 57.627H75.5274V65.453H77.3344V67H71.5364Z" fill="white"/>
<rect x="1.5" y="61.5" width="111" height="70" stroke="#EAEAEA"/>
<rect x="16" y="44" width="81" height="34.1053" rx="17.0526" fill="#195CCD"/>
<path d="M39.056 67.182C37.756 67.182 36.482 66.688 35.546 65.791L36.651 64.465C37.327 65.102 38.25 65.518 39.095 65.518C40.096 65.518 40.616 65.089 40.616 64.426C40.616 63.711 40.031 63.477 39.173 63.113L37.886 62.567C36.924 62.177 35.936 61.384 35.936 59.993C35.936 58.42 37.327 57.211 39.264 57.211C40.382 57.211 41.5 57.653 42.28 58.446L41.318 59.655C40.694 59.148 40.057 58.862 39.264 58.862C38.419 58.862 37.886 59.239 37.886 59.863C37.886 60.552 38.575 60.812 39.394 61.137L40.655 61.657C41.812 62.138 42.579 62.892 42.579 64.27C42.579 65.843 41.266 67.182 39.056 67.182ZM45.8381 67V58.979H43.1211V57.38H50.4791V58.979H47.7621V67H45.8381ZM52.0521 67V57.38H57.9541V58.979H53.9761V61.202H57.3431V62.827H53.9761V65.388H58.0971V67H52.0521ZM60.0502 67V57.38H63.2092C65.3282 57.38 66.9662 58.121 66.9662 60.409C66.9662 62.606 65.3282 63.581 63.2612 63.581H61.9742V67H60.0502ZM61.9742 62.06H63.1312C64.4572 62.06 65.0942 61.501 65.0942 60.409C65.0942 59.278 64.3922 58.914 63.0662 58.914H61.9742V62.06ZM71.5364 67V65.453H73.6164V59.629H71.8614V58.446C72.8364 58.251 73.4864 58.004 74.1104 57.627H75.5274V65.453H77.3344V67H71.5364Z" fill="white"/>
<rect x="135.5" y="61.5" width="111" height="70" stroke="#EAEAEA"/>
<rect x="150" y="44" width="81" height="34.1053" rx="17.0526" fill="#195CCD"/>
<path d="M173.056 67.182C171.756 67.182 170.482 66.688 169.546 65.791L170.651 64.465C171.327 65.102 172.25 65.518 173.095 65.518C174.096 65.518 174.616 65.089 174.616 64.426C174.616 63.711 174.031 63.477 173.173 63.113L171.886 62.567C170.924 62.177 169.936 61.384 169.936 59.993C169.936 58.42 171.327 57.211 173.264 57.211C174.382 57.211 175.5 57.653 176.28 58.446L175.318 59.655C174.694 59.148 174.057 58.862 173.264 58.862C172.419 58.862 171.886 59.239 171.886 59.863C171.886 60.552 172.575 60.812 173.394 61.137L174.655 61.657C175.812 62.138 176.579 62.892 176.579 64.27C176.579 65.843 175.266 67.182 173.056 67.182ZM179.838 67V58.979H177.121V57.38H184.479V58.979H181.762V67H179.838ZM186.052 67V57.38H191.954V58.979H187.976V61.202H191.343V62.827H187.976V65.388H192.097V67H186.052ZM194.05 67V57.38H197.209C199.328 57.38 200.966 58.121 200.966 60.409C200.966 62.606 199.328 63.581 197.261 63.581H195.974V67H194.05ZM195.974 62.06H197.131C198.457 62.06 199.094 61.501 199.094 60.409C199.094 59.278 198.392 58.914 197.066 58.914H195.974V62.06ZM205.536 67V65.453H207.616V59.629H205.861V58.446C206.836 58.251 207.486 58.004 208.11 57.627H209.527V65.453H211.334V67H205.536Z" fill="white"/>
<rect x="135.5" y="61.5" width="111" height="70" stroke="#EAEAEA"/>
<rect x="150" y="44" width="81" height="34.1053" rx="17.0526" fill="#195CCD"/>
<path d="M173.056 67.182C171.756 67.182 170.482 66.688 169.546 65.791L170.651 64.465C171.327 65.102 172.25 65.518 173.095 65.518C174.096 65.518 174.616 65.089 174.616 64.426C174.616 63.711 174.031 63.477 173.173 63.113L171.886 62.567C170.924 62.177 169.936 61.384 169.936 59.993C169.936 58.42 171.327 57.211 173.264 57.211C174.382 57.211 175.5 57.653 176.28 58.446L175.318 59.655C174.694 59.148 174.057 58.862 173.264 58.862C172.419 58.862 171.886 59.239 171.886 59.863C171.886 60.552 172.575 60.812 173.394 61.137L174.655 61.657C175.812 62.138 176.579 62.892 176.579 64.27C176.579 65.843 175.266 67.182 173.056 67.182ZM179.838 67V58.979H177.121V57.38H184.479V58.979H181.762V67H179.838ZM186.052 67V57.38H191.954V58.979H187.976V61.202H191.343V62.827H187.976V65.388H192.097V67H186.052ZM194.05 67V57.38H197.209C199.328 57.38 200.966 58.121 200.966 60.409C200.966 62.606 199.328 63.581 197.261 63.581H195.974V67H194.05ZM195.974 62.06H197.131C198.457 62.06 199.094 61.501 199.094 60.409C199.094 59.278 198.392 58.914 197.066 58.914H195.974V62.06ZM205.029 67V65.908C207.538 63.503 209.189 61.878 209.189 60.474C209.189 59.525 208.682 58.953 207.759 58.953C207.044 58.953 206.485 59.434 205.991 59.954L204.938 58.914C205.822 57.965 206.693 57.458 208.006 57.458C209.813 57.458 211.035 58.602 211.035 60.383C211.035 62.008 209.514 63.711 207.798 65.505C208.279 65.453 208.916 65.388 209.371 65.388H211.477V67H205.029Z" fill="white"/>
<rect x="269.5" y="61.5" width="111" height="70" stroke="#EAEAEA"/>
<rect x="284" y="44" width="81" height="34.1053" rx="17.0526" fill="#195CCD"/>
<path d="M307.056 67.182C305.756 67.182 304.482 66.688 303.546 65.791L304.651 64.465C305.327 65.102 306.25 65.518 307.095 65.518C308.096 65.518 308.616 65.089 308.616 64.426C308.616 63.711 308.031 63.477 307.173 63.113L305.886 62.567C304.924 62.177 303.936 61.384 303.936 59.993C303.936 58.42 305.327 57.211 307.264 57.211C308.382 57.211 309.5 57.653 310.28 58.446L309.318 59.655C308.694 59.148 308.057 58.862 307.264 58.862C306.419 58.862 305.886 59.239 305.886 59.863C305.886 60.552 306.575 60.812 307.394 61.137L308.655 61.657C309.812 62.138 310.579 62.892 310.579 64.27C310.579 65.843 309.266 67.182 307.056 67.182ZM313.838 67V58.979H311.121V57.38H318.479V58.979H315.762V67H313.838ZM320.052 67V57.38H325.954V58.979H321.976V61.202H325.343V62.827H321.976V65.388H326.097V67H320.052ZM328.05 67V57.38H331.209C333.328 57.38 334.966 58.121 334.966 60.409C334.966 62.606 333.328 63.581 331.261 63.581H329.974V67H328.05ZM329.974 62.06H331.131C332.457 62.06 333.094 61.501 333.094 60.409C333.094 59.278 332.392 58.914 331.066 58.914H329.974V62.06ZM342.032 67.182C340.511 67.182 339.484 66.623 338.808 65.843L339.718 64.634C340.29 65.193 340.979 65.635 341.85 65.635C342.838 65.635 343.501 65.167 343.501 64.348C343.501 63.451 342.942 62.879 340.849 62.879V61.501C342.617 61.501 343.189 60.916 343.189 60.11C343.189 59.382 342.721 58.953 341.902 58.953C341.213 58.953 340.654 59.291 340.082 59.824L339.107 58.641C339.939 57.926 340.862 57.458 341.98 57.458C343.839 57.458 345.1 58.368 345.1 59.967C345.1 60.981 344.515 61.683 343.501 62.099V62.151C344.593 62.45 345.425 63.243 345.425 64.465C345.425 66.194 343.878 67.182 342.032 67.182Z" fill="white"/>
<rect x="403.5" y="61.5" width="111" height="70" stroke="#EAEAEA"/>
<rect x="418" y="44" width="81" height="34.1053" rx="17.0526" fill="#195CCD"/>
<path d="M441.056 67.182C439.756 67.182 438.482 66.688 437.546 65.791L438.651 64.465C439.327 65.102 440.25 65.518 441.095 65.518C442.096 65.518 442.616 65.089 442.616 64.426C442.616 63.711 442.031 63.477 441.173 63.113L439.886 62.567C438.924 62.177 437.936 61.384 437.936 59.993C437.936 58.42 439.327 57.211 441.264 57.211C442.382 57.211 443.5 57.653 444.28 58.446L443.318 59.655C442.694 59.148 442.057 58.862 441.264 58.862C440.419 58.862 439.886 59.239 439.886 59.863C439.886 60.552 440.575 60.812 441.394 61.137L442.655 61.657C443.812 62.138 444.579 62.892 444.579 64.27C444.579 65.843 443.266 67.182 441.056 67.182ZM447.838 67V58.979H445.121V57.38H452.479V58.979H449.762V67H447.838ZM454.052 67V57.38H459.954V58.979H455.976V61.202H459.343V62.827H455.976V65.388H460.097V67H454.052ZM462.05 67V57.38H465.209C467.328 57.38 468.966 58.121 468.966 60.409C468.966 62.606 467.328 63.581 465.261 63.581H463.974V67H462.05ZM463.974 62.06H465.131C466.457 62.06 467.094 61.501 467.094 60.409C467.094 59.278 466.392 58.914 465.066 58.914H463.974V62.06ZM476.851 67V61.345C476.851 60.786 476.903 59.889 476.929 59.33H476.877C476.63 59.837 476.37 60.318 476.097 60.851L474.615 63.204H479.776V64.673H472.756V63.36L476.331 57.627H478.632V67H476.851Z" fill="white"/>
<rect x="537.5" y="61.5" width="111" height="70" stroke="#EAEAEA"/>
<rect x="552" y="44" width="81" height="34.1053" rx="17.0526" fill="#195CCD"/>
<path d="M575.056 67.182C573.756 67.182 572.482 66.688 571.546 65.791L572.651 64.465C573.327 65.102 574.25 65.518 575.095 65.518C576.096 65.518 576.616 65.089 576.616 64.426C576.616 63.711 576.031 63.477 575.173 63.113L573.886 62.567C572.924 62.177 571.936 61.384 571.936 59.993C571.936 58.42 573.327 57.211 575.264 57.211C576.382 57.211 577.5 57.653 578.28 58.446L577.318 59.655C576.694 59.148 576.057 58.862 575.264 58.862C574.419 58.862 573.886 59.239 573.886 59.863C573.886 60.552 574.575 60.812 575.394 61.137L576.655 61.657C577.812 62.138 578.579 62.892 578.579 64.27C578.579 65.843 577.266 67.182 575.056 67.182ZM581.838 67V58.979H579.121V57.38H586.479V58.979H583.762V67H581.838ZM588.052 67V57.38H593.954V58.979H589.976V61.202H593.343V62.827H589.976V65.388H594.097V67H588.052ZM596.05 67V57.38H599.209C601.328 57.38 602.966 58.121 602.966 60.409C602.966 62.606 601.328 63.581 599.261 63.581H597.974V67H596.05ZM597.974 62.06H599.131C600.457 62.06 601.094 61.501 601.094 60.409C601.094 59.278 600.392 58.914 599.066 58.914H597.974V62.06ZM610.071 67.182C608.55 67.182 607.536 66.584 606.808 65.869L607.705 64.66C608.238 65.193 608.927 65.635 609.811 65.635C610.825 65.635 611.514 65.037 611.514 63.984C611.514 62.957 610.864 62.359 609.902 62.359C609.33 62.359 609.018 62.515 608.459 62.879L607.575 62.307L607.848 57.627H612.996V59.239H609.499L609.317 61.28C609.694 61.098 610.032 61.02 610.474 61.02C612.086 61.02 613.438 61.93 613.438 63.932C613.438 65.999 611.839 67.182 610.071 67.182Z" fill="white"/>
</svg>
