<svg width="629" height="281" viewBox="0 0 629 281" fill="none" xmlns="http://www.w3.org/2000/svg">
<line x1="68.7898" y1="37" x2="68.7898" y2="263" stroke="#4482EA" stroke-width="3.79832"/>
<line x1="66.8906" y1="261.101" x2="518.891" y2="261.101" stroke="#4482EA" stroke-width="3.79832"/>
<line x1="111.521" y1="261.101" x2="111.521" y2="242.109" stroke="#4482EA" stroke-width="1.89916"/>
<line x1="248.26" y1="261.101" x2="248.26" y2="242.109" stroke="#4482EA" stroke-width="1.89916"/>
<path d="M385.949 261.101V242.109" stroke="#4482EA" stroke-width="1.89916"/>
<line x1="179.89" y1="261.101" x2="179.89" y2="242.109" stroke="#4482EA" stroke-width="1.89916"/>
<line x1="316.63" y1="261.101" x2="316.63" y2="242.109" stroke="#4482EA" stroke-width="1.89916"/>
<line x1="69" y1="221.95" x2="57" y2="221.95" stroke="#4482EA" stroke-width="1.89916"/>
<path d="M454.319 261.101V242.109" stroke="#4482EA" stroke-width="1.89916"/>
<path d="M69 176L57 176" stroke="#4482EA" stroke-width="1.89916"/>
<line x1="69" y1="130.95" x2="56" y2="130.95" stroke="#4482EA" stroke-width="1.89916"/>
<path d="M69 84L57 84" stroke="#4482EA" stroke-width="1.89916"/>
<path d="M18.474 84.512H20.336V86.318H18.474V84.512ZM13.56 83.42H25.278V84.876H13.56V83.42ZM15.002 78.66H23.794V82.734H15.002V78.66ZM21.96 80.102H16.836V81.306H21.96V80.102ZM14.904 85.688H23.864V89.02H16.752V90.168H14.918V87.732H22.03V87.074H14.904V85.688ZM14.918 89.762H24.2V91.162H14.918V89.762ZM35.3709 78.268H37.2329V91.274H35.3709V78.268ZM27.1389 86.738H28.2869C30.5829 86.738 32.4169 86.654 34.4749 86.304L34.6569 87.802C32.5569 88.18 30.6529 88.25 28.2869 88.25H27.1389V86.738ZM27.1249 79.374H33.2429V84.386H29.0289V87.298H27.1389V82.916H31.3389V80.858H27.1249V79.374ZM39.3178 79.416H46.9478V80.886H39.3178V79.416ZM43.1398 81.292C45.0018 81.292 46.3178 82.258 46.3178 83.686C46.3178 85.114 45.0018 86.066 43.1398 86.066C41.2638 86.066 39.9478 85.114 39.9478 83.686C39.9478 82.258 41.2638 81.292 43.1398 81.292ZM43.1398 82.692C42.2998 82.692 41.7398 83.028 41.7398 83.686C41.7398 84.33 42.2998 84.666 43.1398 84.666C43.9658 84.666 44.5398 84.33 44.5398 83.686C44.5398 83.028 43.9658 82.692 43.1398 82.692ZM47.6618 78.282H49.5238V86.416H47.6618V78.282ZM49.0058 81.628H51.2458V83.14H49.0058V81.628ZM40.8718 86.948H49.5238V91.246H47.6618V88.432H40.8718V86.948ZM42.2018 78.212H44.0638V80.256H42.2018V78.212Z" fill="black"/>
<path d="M29.556 131.954H31.418V134.054H29.556V131.954ZM35.002 124.282H36.878V137.246H35.002V124.282ZM36.22 129.546H38.502V131.086H36.22V129.546ZM26.644 135.09L26.42 133.592C28.66 133.592 31.74 133.578 34.358 133.214L34.498 134.558C31.768 135.09 28.828 135.09 26.644 135.09ZM26.658 125.71H34.288V127.166H26.658V125.71ZM30.494 127.684C32.342 127.684 33.658 128.664 33.658 130.106C33.658 131.562 32.342 132.542 30.494 132.542C28.632 132.542 27.33 131.562 27.33 130.106C27.33 128.664 28.632 127.684 30.494 127.684ZM30.494 129.084C29.64 129.084 29.094 129.448 29.094 130.106C29.094 130.778 29.64 131.142 30.494 131.142C31.334 131.142 31.894 130.778 31.894 130.106C31.894 129.448 31.334 129.084 30.494 129.084ZM29.556 124.352H31.418V126.802H29.556V124.352ZM39.4389 125.416H47.0689V126.886H39.4389V125.416ZM43.2609 127.292C45.1229 127.292 46.4389 128.258 46.4389 129.686C46.4389 131.114 45.1229 132.066 43.2609 132.066C41.3849 132.066 40.0689 131.114 40.0689 129.686C40.0689 128.258 41.3849 127.292 43.2609 127.292ZM43.2609 128.692C42.4209 128.692 41.8609 129.028 41.8609 129.686C41.8609 130.33 42.4209 130.666 43.2609 130.666C44.0869 130.666 44.6609 130.33 44.6609 129.686C44.6609 129.028 44.0869 128.692 43.2609 128.692ZM47.7829 124.282H49.6449V132.416H47.7829V124.282ZM49.1269 127.628H51.3669V129.14H49.1269V127.628ZM40.9929 132.948H49.6449V137.246H47.7829V134.432H40.9929V132.948ZM42.3229 124.212H44.1849V126.256H42.3229V124.212Z" fill="black"/>
<path d="M2.898 171.066H4.354V172.564C4.354 174.762 3.472 176.96 1.358 177.856L0.378 176.414C2.184 175.616 2.898 174.02 2.898 172.564V171.066ZM3.234 171.066H4.69V172.564C4.69 173.95 5.39 175.35 7.098 176.022L6.104 177.436C4.088 176.638 3.234 174.678 3.234 172.564V171.066ZM9.842 170.296H11.606V178.206H9.842V170.296ZM8.288 173.432H10.346V174.93H8.288V173.432ZM7.098 170.534H8.834V177.8H7.098V170.534ZM7.21 178.388C9.926 178.388 11.676 179.298 11.676 180.824C11.676 182.336 9.926 183.246 7.21 183.246C4.48 183.246 2.758 182.336 2.758 180.824C2.758 179.298 4.48 178.388 7.21 178.388ZM7.21 179.788C5.544 179.788 4.606 180.138 4.606 180.824C4.606 181.51 5.544 181.846 7.21 181.846C8.876 181.846 9.8 181.51 9.8 180.824C9.8 180.138 8.876 179.788 7.21 179.788ZM19.7109 172.158H23.0149V173.628H19.7109V172.158ZM19.7109 174.748H23.0709V176.232H19.7109V174.748ZM22.4269 170.282H24.2889V177.87H22.4269V170.282ZM13.9709 171.22H20.1029V177.17H13.9709V171.22ZM18.2689 172.69H15.8049V175.714H18.2689V172.69ZM19.8929 178.206C22.6369 178.206 24.3309 179.144 24.3309 180.726C24.3309 182.322 22.6369 183.246 19.8929 183.246C17.1489 183.246 15.4549 182.322 15.4549 180.726C15.4549 179.144 17.1489 178.206 19.8929 178.206ZM19.8929 179.634C18.2129 179.634 17.3169 179.984 17.3169 180.726C17.3169 181.468 18.2129 181.832 19.8929 181.832C21.5869 181.832 22.4829 181.468 22.4829 180.726C22.4829 179.984 21.5869 179.634 19.8929 179.634ZM26.8638 171.57H32.4498V173.04H26.8638V171.57ZM28.5298 175.28H30.3638V179.676H28.5298V175.28ZM31.7078 171.57H33.5418V172.62C33.5418 173.88 33.5418 175.448 33.1918 177.604L31.3718 177.436C31.7078 175.364 31.7078 173.866 31.7078 172.62V171.57ZM34.6478 170.282H36.5098V183.246H34.6478V170.282ZM35.9638 175.49H38.2458V177.03H35.9638V175.49ZM26.3738 180.628L26.2058 179.13C28.4878 179.13 31.5118 179.088 34.0598 178.766L34.1578 180.124C31.5398 180.572 28.6278 180.628 26.3738 180.628ZM39.1967 171.416H46.8267V172.886H39.1967V171.416ZM43.0187 173.292C44.8807 173.292 46.1967 174.258 46.1967 175.686C46.1967 177.114 44.8807 178.066 43.0187 178.066C41.1427 178.066 39.8267 177.114 39.8267 175.686C39.8267 174.258 41.1427 173.292 43.0187 173.292ZM43.0187 174.692C42.1787 174.692 41.6187 175.028 41.6187 175.686C41.6187 176.33 42.1787 176.666 43.0187 176.666C43.8447 176.666 44.4187 176.33 44.4187 175.686C44.4187 175.028 43.8447 174.692 43.0187 174.692ZM47.5407 170.282H49.4027V178.416H47.5407V170.282ZM48.8847 173.628H51.1247V175.14H48.8847V173.628ZM40.7507 178.948H49.4027V183.246H47.5407V180.432H40.7507V178.948ZM42.0807 170.212H43.9427V172.256H42.0807V170.212Z" fill="black"/>
<path d="M3.682 218.326H5.166V219.782C5.166 222.778 3.948 225.704 1.512 226.81L0.462 225.34C2.632 224.374 3.682 221.98 3.682 219.782V218.326ZM4.102 218.326H5.572V219.782C5.572 221.882 6.608 224.122 8.778 225.018L7.77 226.488C5.306 225.424 4.102 222.666 4.102 219.782V218.326ZM0.98 217.528H8.246V219.054H0.98V217.528ZM9.45 216.282H11.326V229.246H9.45V216.282ZM14.7829 217.038H22.9169V218.508H14.7829V217.038ZM13.4529 222.554H25.1709V224.052H13.4529V222.554ZM18.3109 223.604H20.1869V229.26H18.3109V223.604ZM21.9649 217.038H23.7989V218.186C23.7989 219.586 23.7989 221.154 23.2949 223.45L21.4609 223.24C21.9649 221.07 21.9649 219.53 21.9649 218.186V217.038ZM26.8638 217.57H32.4498V219.04H26.8638V217.57ZM28.5298 221.28H30.3638V225.676H28.5298V221.28ZM31.7078 217.57H33.5418V218.62C33.5418 219.88 33.5418 221.448 33.1918 223.604L31.3718 223.436C31.7078 221.364 31.7078 219.866 31.7078 218.62V217.57ZM34.6478 216.282H36.5098V229.246H34.6478V216.282ZM35.9638 221.49H38.2458V223.03H35.9638V221.49ZM26.3738 226.628L26.2058 225.13C28.4878 225.13 31.5118 225.088 34.0598 224.766L34.1578 226.124C31.5398 226.572 28.6278 226.628 26.3738 226.628ZM39.1967 217.416H46.8267V218.886H39.1967V217.416ZM43.0187 219.292C44.8807 219.292 46.1967 220.258 46.1967 221.686C46.1967 223.114 44.8807 224.066 43.0187 224.066C41.1427 224.066 39.8267 223.114 39.8267 221.686C39.8267 220.258 41.1427 219.292 43.0187 219.292ZM43.0187 220.692C42.1787 220.692 41.6187 221.028 41.6187 221.686C41.6187 222.33 42.1787 222.666 43.0187 222.666C43.8447 222.666 44.4187 222.33 44.4187 221.686C44.4187 221.028 43.8447 220.692 43.0187 220.692ZM47.5407 216.282H49.4027V224.416H47.5407V216.282ZM48.8847 219.628H51.1247V221.14H48.8847V219.628ZM40.7507 224.948H49.4027V229.246H47.5407V226.432H40.7507V224.948ZM42.0807 216.212H43.9427V218.256H42.0807V216.212Z" fill="black"/>
<path d="M108.799 223.843L110.453 222.479L119.908 233.948L118.254 235.312L108.799 223.843ZM104.954 228.36C106.682 226.935 109.257 227.467 111.313 229.961C113.389 232.48 113.42 235.108 111.691 236.533C109.963 237.958 107.389 237.426 105.313 234.907C103.257 232.414 103.226 229.785 104.954 228.36ZM106.185 229.854C105.334 230.556 105.496 231.936 106.88 233.615C108.285 235.319 109.618 235.754 110.47 235.052C111.322 234.349 111.137 232.968 109.732 231.264C108.348 229.585 107.037 229.152 106.185 229.854ZM113.729 222.682L119.198 218.173L120.277 219.482L114.808 223.99L113.729 222.682ZM117.978 222.227C119.435 221.026 121.41 221.284 122.733 222.889C124.046 224.482 123.923 226.471 122.466 227.672C121.022 228.862 119.034 228.614 117.721 227.021C116.398 225.417 116.534 223.418 117.978 222.227ZM119.108 223.597C118.49 224.106 118.465 224.956 119.178 225.821C119.89 226.685 120.719 226.81 121.337 226.301C121.954 225.792 122.001 224.944 121.289 224.08C120.577 223.216 119.725 223.089 119.108 223.597ZM120.586 214.147L122.154 212.854L131.578 224.287L130.01 225.579L120.586 214.147ZM123.042 219.919L124.931 218.361L126.02 219.682L124.131 221.24L123.042 219.919ZM118.364 216.331L119.895 215.069L128.749 225.81L127.218 227.072L118.364 216.331ZM114.519 219.666L116.137 218.333L117.979 220.568L116.361 221.901L114.519 219.666Z" fill="black"/>
<path d="M174.548 229.276L175.881 228.177L176.481 228.905C178.252 231.053 178.879 233.875 177.271 236.403L175.375 235.789C176.756 233.614 176.329 231.436 175.148 230.004L174.548 229.276ZM174.893 228.991L176.214 227.902L176.815 228.63C177.914 229.964 179.852 230.73 182.153 229.849L182.409 231.794C179.706 232.841 177.163 231.744 175.494 229.719L174.893 228.991ZM179.441 227.917L181.614 226.126L182.713 227.459L180.54 229.25L179.441 227.917ZM171.871 230.632L178.019 225.564L179.088 226.86L172.94 231.928L171.871 230.632ZM178.782 236.173L186.573 229.752L189.962 233.863L188.32 235.216L186.009 232.414L179.861 237.482L178.782 236.173ZM178.895 223.784L180.537 222.43L186.145 229.233L184.503 230.587L178.895 223.784ZM187.803 222.869L189.445 221.516L191.175 223.615L189.533 224.968L187.803 222.869ZM191.827 219.552L193.457 218.208L195.187 220.307L193.557 221.65L191.827 219.552ZM186.794 226.375L197.128 217.857L198.196 219.153L187.863 227.672L186.794 226.375ZM193.49 224.008C195.959 221.972 198.063 221.482 199.152 222.803C200.251 224.136 199.368 226.108 196.899 228.144C194.418 230.189 192.313 230.68 191.214 229.347C190.125 228.026 191.008 226.054 193.49 224.008ZM194.507 225.242C192.976 226.505 192.412 227.405 192.881 227.973C193.359 228.553 194.35 228.171 195.881 226.909C197.412 225.647 197.976 224.747 197.498 224.166C197.03 223.599 196.038 223.98 194.507 225.242ZM187.632 216.852C190.15 214.775 192.46 214.282 193.589 215.652C194.709 217.01 193.763 219.158 191.245 221.234C188.714 223.321 186.437 223.829 185.318 222.471C184.188 221.101 185.101 218.938 187.632 216.852ZM188.67 218.111C187.102 219.403 186.48 220.435 187.009 221.077C187.528 221.706 188.659 221.292 190.227 220C191.795 218.707 192.417 217.676 191.898 217.046C191.369 216.404 190.238 216.818 188.67 218.111Z" fill="black"/>
<path d="M244.984 233.247L255.33 224.718L256.409 226.027L246.063 234.556L244.984 233.247ZM250.148 230.38L251.802 229.016L253.787 231.423L252.132 232.787L250.148 230.38ZM242.002 227.038L249.767 220.637L253.268 224.884L245.503 231.285L242.002 227.038ZM249.208 223.254L244.665 226.999L246.049 228.678L250.593 224.933L249.208 223.254ZM249.713 236.544L257.726 229.939L258.805 231.247L250.792 237.852L249.713 236.544ZM248.054 234.531L249.684 233.188L251.699 235.632L250.07 236.976L248.054 234.531ZM259.95 211.434L261.505 210.151L270.93 221.584L269.374 222.866L259.95 211.434ZM259.4 218.439L261.289 216.882L262.388 218.215L260.5 219.773L259.4 218.439ZM257.794 213.522L259.325 212.26L268.169 222.989L266.638 224.251L257.794 213.522ZM255.252 218.438L256.487 217.42L257.453 218.593C259.57 221.161 260.973 224.296 260.095 226.928L258.122 226.522C258.936 224.089 257.827 221.561 256.219 219.61L255.252 218.438ZM255.622 218.132L256.845 217.125L257.811 218.298C259.379 220.199 261.534 221.657 263.982 221.256L264.007 223.247C261.306 223.669 258.665 221.824 256.589 219.305L255.622 218.132ZM252.834 219.228L257.933 215.025L259.022 216.346L253.923 220.549L252.834 219.228ZM273.707 200.114L275.361 198.75L282.129 206.96L280.475 208.324L273.707 200.114ZM275.916 214.943L283.818 208.43L284.896 209.738L276.995 216.252L275.916 214.943ZM273.83 212.412L275.472 211.059L277.996 214.12L276.354 215.474L273.83 212.412ZM269.729 204.595C271.482 203.15 273.825 203.251 275.22 204.942C276.604 206.621 276.266 208.953 274.513 210.398C272.759 211.843 270.394 211.74 269.01 210.061C267.615 208.37 267.976 206.041 269.729 204.595ZM270.9 206.015C270.048 206.717 269.841 207.8 270.615 208.738C271.378 209.664 272.48 209.668 273.332 208.966C274.172 208.274 274.378 207.191 273.615 206.265C272.841 205.327 271.739 205.323 270.9 206.015ZM280.308 195.522L281.666 194.402L282.572 195.501C284.353 197.662 284.922 200.49 283.278 203.048L281.407 202.413C282.824 200.208 282.405 198.065 281.214 196.621L280.308 195.522ZM280.642 195.247L281.987 194.138L282.893 195.236C284.053 196.644 285.983 197.375 288.316 196.406L288.572 198.352C285.817 199.462 283.298 198.469 281.548 196.346L280.642 195.247ZM284.941 203.128L292.743 196.696L296.133 200.807L294.478 202.171L292.168 199.369L286.02 204.437L284.941 203.128ZM285.054 190.739L286.708 189.375L292.326 196.19L290.672 197.554L285.054 190.739ZM292.496 185.744L298.04 181.175L302.029 186.014L296.486 190.584L292.496 185.744ZM297.493 183.782L295.16 185.705L297.032 187.977L299.366 186.053L297.493 183.782ZM299.208 179.071L300.863 177.707L306.206 184.188L304.551 185.552L299.208 179.071ZM302.713 189.535L304.12 188.375L304.243 188.523C305.586 190.153 305.166 192.863 302.464 195.547L300.915 194.75C303.248 192.474 303.527 190.523 302.835 189.683L302.713 189.535ZM302.985 189.311L304.404 188.141L304.527 188.289C305.188 189.092 307.189 189.205 309.854 187.381L310.341 189.053C307.178 191.204 304.409 191.04 303.107 189.459L302.985 189.311ZM298.826 191.309L306.875 184.673L307.883 185.896L299.833 192.531L298.826 191.309ZM301.26 187.747L302.939 186.363L304.17 187.857L302.491 189.241L301.26 187.747ZM312.809 167.838L314.463 166.474L323.888 177.906L322.233 179.27L312.809 167.838ZM317.634 171.201L319.647 169.542L320.756 170.887L318.743 172.546L317.634 171.201ZM310.786 171.496L312.391 170.173C315.22 173.605 316.334 177.622 314.109 182.671L312.167 182.177C313.885 178.148 313.575 174.879 311.02 171.78L310.786 171.496ZM306.996 174.621L311.626 170.804L312.715 172.125L308.085 175.942L306.996 174.621ZM324.081 161.366L326.896 159.045L327.975 160.354L325.16 162.674L324.081 161.366ZM324.794 157.979L326.436 156.625L331.219 162.428L329.577 163.781L324.794 157.979ZM324.06 169.138L331.616 162.909L334.15 165.983L328.237 170.858L329.417 172.291L327.8 173.624L325.642 171.006L331.544 166.142L331.025 165.512L325.099 170.397L324.06 169.138ZM327.179 172.871L335.031 166.398L336.079 167.669L328.227 174.142L327.179 172.871ZM319.79 162.726L321.124 161.626L321.795 162.441C323.577 164.602 324.101 167.3 322.486 169.793L320.578 169.189C322.011 167.054 321.663 164.997 320.462 163.54L319.79 162.726ZM320.111 162.461L321.445 161.362L322.116 162.177C323.236 163.535 325.09 164.225 327.341 163.282L327.549 165.246C324.903 166.287 322.473 165.325 320.783 163.276L320.111 162.461ZM338.236 149.697L341.05 147.377L342.129 148.685L339.314 151.006L338.236 149.697ZM338.948 146.311L340.59 144.957L345.373 150.76L343.731 152.113L338.948 146.311ZM338.215 157.47L345.77 151.241L348.305 154.315L342.391 159.19L343.572 160.622L341.954 161.955L339.797 159.338L345.698 154.473L345.179 153.844L339.253 158.729L338.215 157.47ZM341.333 161.202L349.185 154.73L350.234 156.001L342.382 162.474L341.333 161.202ZM333.945 151.057L335.278 149.958L335.95 150.773C337.731 152.933 338.255 155.632 336.64 158.125L334.732 157.521C336.165 155.385 335.817 153.329 334.616 151.872L333.945 151.057ZM334.266 150.793L335.599 149.693L336.271 150.508C337.39 151.866 339.245 152.556 341.495 151.614L341.704 153.577C339.058 154.618 336.627 153.657 334.937 151.607L334.266 150.793ZM350.857 141.138L353.029 139.347L354.129 140.681L351.956 142.472L350.857 141.138ZM350.305 136.948L351.947 135.595L357.545 142.385L355.903 143.738L350.305 136.948ZM353.872 145.827C356.292 143.833 358.467 143.428 359.607 144.811C360.757 146.206 359.925 148.24 357.505 150.235C355.085 152.23 352.93 152.659 351.78 151.264C350.64 149.881 351.452 147.822 353.872 145.827ZM354.9 147.074C353.418 148.296 352.883 149.256 353.422 149.91C353.951 150.552 354.996 150.209 356.477 148.988C357.971 147.756 358.507 146.796 357.978 146.154C357.438 145.5 356.394 145.843 354.9 147.074ZM345.968 142.452L347.301 141.353L347.891 142.069C349.693 144.254 350.329 147.089 348.755 149.631L346.846 149.027C348.206 146.828 347.769 144.637 346.558 143.168L345.968 142.452ZM346.313 142.167L347.634 141.078L348.225 141.794C349.334 143.14 351.262 143.894 353.563 143.013L353.829 144.971C351.126 146.018 348.583 144.92 346.904 142.883L346.313 142.167ZM343.332 143.858L349.48 138.79L350.559 140.098L344.411 145.167L343.332 143.858Z" fill="black"/>
<path d="M311.885 232.271L312.836 231.488C315.058 229.656 316.336 228.54 317.606 227.037L318.837 228.178C317.53 229.712 316.188 230.901 313.904 232.784L312.954 233.568L311.885 232.271ZM308.292 227.913L313.663 223.486L314.731 224.782L311.003 227.856L313.944 231.424L312.302 232.778L308.292 227.913ZM311.219 229.15L315.207 225.862L316.266 227.146L312.278 230.434L311.219 229.15ZM314.824 233.498L322.257 227.371L325.656 231.494L318.224 237.621L314.824 233.498ZM321.71 229.978L317.5 233.448L318.772 234.992L322.982 231.521L321.71 229.978ZM314.691 221.539L316.333 220.186L321.839 226.865L320.197 228.218L314.691 221.539ZM318.075 223.229L320.05 221.6L321.17 222.959L319.194 224.587L318.075 223.229ZM320.425 217.932L327.598 212.019L328.667 213.315L321.494 219.228L320.425 217.932ZM323.262 223.763L333.596 215.245L334.685 216.566L324.351 225.084L323.262 223.763ZM328.31 221.158L329.964 219.794L334.076 224.782L332.421 226.145L328.31 221.158ZM326.759 212.711L328.376 211.378L329.21 212.39C330.228 213.625 331.368 215.008 332.593 217.399L330.823 218.547C329.69 216.267 328.57 214.909 327.593 213.723L326.759 212.711ZM340.058 203.427L342.873 201.107L343.952 202.415L341.137 204.736L340.058 203.427ZM340.771 200.04L342.413 198.687L347.196 204.489L345.554 205.843L340.771 200.04ZM340.037 211.199L347.593 204.971L350.127 208.045L344.214 212.92L345.394 214.352L343.777 215.685L341.619 213.068L347.521 208.203L347.002 207.573L341.076 212.459L340.037 211.199ZM343.156 214.932L351.008 208.459L352.056 209.731L344.204 216.204L343.156 214.932ZM335.767 204.787L337.101 203.688L337.772 204.503C339.553 206.663 340.078 209.362 338.463 211.855L336.554 211.25C337.988 209.115 337.64 207.059 336.439 205.602L335.767 204.787ZM336.088 204.522L337.422 203.423L338.093 204.238C339.213 205.596 341.067 206.286 343.318 205.343L343.526 207.307C340.88 208.348 338.45 207.387 336.76 205.337L336.088 204.522ZM351.093 196.591L353.414 194.677L354.493 195.986L352.171 197.899L351.093 196.591ZM353.382 199.494L355.715 197.57L356.794 198.879L354.461 200.802L353.382 199.494ZM352.486 190.383L354.054 189.09L363.478 200.522L361.91 201.815L352.486 190.383ZM350.331 192.574L351.862 191.312L360.666 201.991L359.135 203.253L350.331 192.574ZM348.657 195.799L350.237 194.497C352.914 197.744 354.076 201.14 352.438 205.643L350.565 205.258C351.853 201.563 351.212 198.898 348.932 196.133L348.657 195.799ZM345.805 198.15L349.213 195.341L350.291 196.65L346.884 199.459L345.805 198.15ZM359.496 185.744L365.04 181.175L369.029 186.014L363.486 190.584L359.496 185.744ZM364.493 183.782L362.16 185.705L364.032 187.977L366.366 186.053L364.493 183.782ZM366.208 179.071L367.863 177.707L373.206 184.188L371.551 185.552L366.208 179.071ZM369.713 189.535L371.12 188.375L371.243 188.523C372.586 190.153 372.166 192.863 369.464 195.547L367.915 194.75C370.248 192.474 370.527 190.523 369.835 189.683L369.713 189.535ZM369.985 189.311L371.404 188.141L371.527 188.289C372.188 189.092 374.189 189.205 376.854 187.381L377.341 189.053C374.178 191.204 371.409 191.04 370.107 189.459L369.985 189.311ZM365.826 191.309L373.875 184.673L374.883 185.896L366.833 192.531L365.826 191.309ZM368.26 187.747L369.939 186.363L371.17 187.857L369.491 189.241L368.26 187.747ZM377.094 170.657L378.538 169.466L378.976 169.997C380.788 172.194 380.596 175.483 377.962 178.401L376.231 177.609C378.576 175.096 378.641 172.533 377.532 171.187L377.094 170.657ZM377.403 170.402L378.835 169.222L379.272 169.752C380.372 171.086 382.922 171.513 385.824 169.701L386.284 171.541C382.917 173.57 379.652 173.131 377.84 170.933L377.403 170.402ZM382.806 177.56L384.435 176.217L387.886 180.402L386.256 181.745L382.806 177.56ZM377.642 180.075L387.976 171.556L389.075 172.89L378.741 181.408L377.642 180.075ZM392.053 157.765L393.609 156.483L399.512 163.643L397.956 164.926L392.053 157.765ZM392.978 161.73L394.806 160.224L395.905 161.557L394.078 163.063L392.978 161.73ZM389.866 159.941L391.397 158.679L396.811 165.247L395.28 166.509L389.866 159.941ZM384.785 165.726L390.329 161.157L391.367 162.416L385.823 166.986L384.785 165.726ZM388.919 165.056C390.351 163.875 392.06 163.835 393.037 165.02C394.014 166.206 393.638 167.863 392.206 169.044C390.774 170.224 389.075 170.277 388.098 169.091C387.121 167.906 387.487 166.236 388.919 165.056ZM389.886 166.229C389.281 166.727 389.118 167.36 389.555 167.89C389.993 168.421 390.644 168.382 391.249 167.883C391.842 167.395 392.005 166.762 391.568 166.232C391.13 165.701 390.478 165.74 389.886 166.229ZM385.873 163.046L387.49 161.713L389.078 163.639L387.461 164.972L385.873 163.046ZM395.749 166.952C398.194 164.937 400.286 164.457 401.385 165.79C402.474 167.111 401.613 169.085 399.169 171.101C396.712 173.126 394.61 173.594 393.521 172.273C392.421 170.94 393.292 168.978 395.749 166.952ZM396.757 168.175C395.226 169.437 394.674 170.327 395.163 170.919C395.641 171.5 396.63 171.14 398.161 169.878C399.68 168.626 400.221 167.724 399.743 167.144C399.254 166.551 398.275 166.923 396.757 168.175Z" fill="black"/>
<path d="M378.387 229.291L379.683 228.222L380.742 229.506C382.869 232.086 383.95 235.611 382.666 238.329L380.671 237.796C381.827 235.35 380.992 232.451 379.446 230.575L378.387 229.291ZM378.733 229.006L380.029 227.937L381.087 229.221C382.512 230.949 385.07 232.241 387.659 231.558L387.827 233.598C384.924 234.353 381.796 232.722 379.791 230.29L378.733 229.006ZM375.437 230.541L381.708 225.371L382.818 226.716L376.546 231.887L375.437 230.541ZM381.642 223.58L383.296 222.216L392.721 233.648L391.066 235.012L381.642 223.58ZM386.519 226.88L388.543 225.21L389.663 226.568L387.638 228.238L386.519 226.88ZM393.816 224.741L395.421 223.418L397.64 226.11L396.035 227.433L393.816 224.741ZM397.423 221.747L399.028 220.424L401.257 223.128L399.652 224.451L397.423 221.747ZM392.99 229.072L403.336 220.543L404.435 221.877L394.089 230.405L392.99 229.072ZM387.474 220.016L395.499 213.401L398.623 217.191L392.253 222.443L393.851 224.381L392.221 225.725L389.565 222.502L395.935 217.251L394.938 216.041L388.543 221.313L387.474 220.016ZM391.651 225.033L399.91 218.224L400.999 219.545L392.74 226.354L391.651 225.033ZM404.669 214.426L415.015 205.897L416.083 207.194L405.737 215.722L404.669 214.426ZM409.72 211.423L411.375 210.059L413.359 212.467L411.705 213.831L409.72 211.423ZM409.225 217.513L417.237 210.908L418.316 212.217L410.304 218.822L409.225 217.513ZM407.708 215.674L409.338 214.33L411.313 216.725L409.683 218.069L407.708 215.674ZM401.461 207.843L403.078 206.51L404.045 207.683L408.502 204.009L407.535 202.836L409.165 201.493L413.042 206.196L405.338 212.547L401.461 207.843ZM405.063 208.917L405.897 209.93L410.354 206.256L409.52 205.243L405.063 208.917ZM418.792 196.521L421.113 194.608L422.212 195.941L419.891 197.855L418.792 196.521ZM414.308 197.647L415.653 196.537L416.539 197.611C418.401 199.871 419.02 202.658 417.468 205.202L415.535 204.619C416.929 202.411 416.465 200.264 415.193 198.721L414.308 197.647ZM414.641 197.372L415.962 196.283L416.929 197.456C418.099 198.876 420.015 199.64 422.283 198.744L422.49 200.73C419.826 201.724 417.348 200.656 415.608 198.545L414.641 197.372ZM419.015 205.067L426.805 198.645L430.194 202.756L428.552 204.11L426.232 201.295L420.084 206.364L419.015 205.067ZM419.128 192.678L420.77 191.324L426.378 198.127L424.736 199.48L419.128 192.678ZM426.496 187.744L432.04 183.175L436.029 188.014L430.486 192.584L426.496 187.744ZM431.493 185.782L429.16 187.705L431.032 189.977L433.366 188.053L431.493 185.782ZM433.208 181.071L434.863 179.707L440.206 186.188L438.551 187.552L433.208 181.071ZM436.713 191.535L438.12 190.375L438.243 190.523C439.586 192.153 439.166 194.863 436.464 197.547L434.915 196.75C437.248 194.474 437.527 192.523 436.835 191.683L436.713 191.535ZM436.985 191.311L438.404 190.141L438.527 190.289C439.188 191.092 441.189 191.205 443.854 189.381L444.341 191.053C441.178 193.204 438.409 193.04 437.107 191.459L436.985 191.311ZM432.826 193.309L440.875 186.673L441.883 187.896L433.833 194.531L432.826 193.309ZM435.26 189.747L436.939 188.363L438.17 189.857L436.491 191.241L435.26 189.747ZM440.913 177.601L446.382 173.093L447.461 174.402L441.992 178.91L440.913 177.601ZM445.162 177.147C446.619 175.946 448.594 176.204 449.917 177.809C451.23 179.402 451.107 181.39 449.65 182.591C448.206 183.782 446.218 183.534 444.905 181.941C443.582 180.336 443.718 178.337 445.162 177.147ZM446.292 178.517C445.674 179.026 445.649 179.876 446.362 180.74C447.074 181.604 447.903 181.73 448.521 181.221C449.138 180.712 449.185 179.864 448.473 179C447.761 178.136 446.909 178.008 446.292 178.517ZM447.77 169.067L449.338 167.774L458.762 179.206L457.194 180.499L447.77 169.067ZM450.226 174.838L452.115 173.281L453.204 174.602L451.315 176.159L450.226 174.838ZM445.548 171.251L447.079 169.989L455.933 180.73L454.402 181.992L445.548 171.251ZM441.703 174.586L443.321 173.253L445.163 175.487L443.545 176.821L441.703 174.586ZM458.458 163.822L460.779 161.909L461.878 163.242L459.557 165.156L458.458 163.822ZM453.974 164.948L455.319 163.838L456.205 164.912C458.067 167.172 458.685 169.959 457.133 172.503L455.201 171.92C456.595 169.712 456.131 167.565 454.859 166.022L453.974 164.948ZM454.307 164.673L455.628 163.584L456.595 164.757C457.765 166.177 459.681 166.941 461.949 166.045L462.156 168.031C459.491 169.025 457.014 167.957 455.274 165.846L454.307 164.673ZM458.681 172.368L466.471 165.946L469.86 170.057L468.218 171.411L465.898 168.596L459.749 173.665L458.681 172.368ZM458.794 159.979L460.436 158.625L466.044 165.428L464.402 166.781L458.794 159.979Z" fill="black"/>
<path d="M452.259 221.071L453.901 219.717L458.634 225.458L456.992 226.812L452.259 221.071ZM448.801 224.648L450.591 223.172C453.094 226.209 452.807 229.432 449.958 233.045L448.326 232.172C450.722 229.243 450.795 227.068 449.533 225.537L448.801 224.648ZM445.48 227.386L449.492 224.078L450.571 225.387L446.558 228.694L445.48 227.386ZM450.96 224.526L453.64 222.318L454.667 223.565L451.988 225.773L450.96 224.526ZM452.718 226.81L455.41 224.591L456.427 225.826L453.736 228.044L452.718 226.81ZM451.424 232.107L458.98 225.878L461.575 229.026L455.686 233.881L456.856 235.301L455.214 236.654L453.047 234.025L458.936 229.17L458.396 228.516L452.483 233.391L451.424 232.107ZM454.645 235.963L462.41 229.561L463.469 230.845L455.703 237.247L454.645 235.963ZM460.901 224.564L471.259 216.025L472.338 217.333L461.98 225.872L460.901 224.564ZM465.393 227.372L473.455 220.726L474.534 222.034L466.472 228.68L465.393 227.372ZM463.745 225.372L465.387 224.018L467.361 226.413L465.719 227.767L463.745 225.372ZM463.957 219.391L465.599 218.037L467.38 220.198L465.738 221.551L463.957 219.391ZM457.166 217.441L464.993 210.989L467.608 214.162L461.423 219.26L462.4 220.446L460.771 221.789L458.837 219.443L465.034 214.334L464.403 213.569L458.194 218.688L457.166 217.441ZM460.455 221.406L468.492 214.781L469.51 216.015L461.473 222.641L460.455 221.406ZM475.258 210.676L483.295 204.05L484.374 205.359L476.337 211.984L475.258 210.676ZM477.114 215.367L487.459 206.838L488.569 208.184L478.223 216.712L477.114 215.367ZM478.882 208.683L480.524 207.33L483.445 210.873L481.803 212.226L478.882 208.683ZM471.696 206.355L479.647 199.8L480.735 201.121L474.427 206.322L477.368 209.89L475.726 211.244L471.696 206.355ZM490.341 199.444L491.983 198.091L493.347 199.745L491.705 201.099L490.341 199.444ZM485.226 202.043L495.523 193.555L496.51 194.753L486.214 203.241L485.226 202.043ZM485.537 193.617L487.167 192.274L488.307 193.656L486.677 195L485.537 193.617ZM486.64 195.155L488.084 193.964L488.267 194.187C489.621 195.829 488.85 198.289 485.832 201.067L484.367 200.222C487.066 197.81 487.474 196.168 486.823 195.377L486.64 195.155ZM487.022 194.84L488.467 193.649L488.65 193.871C489.301 194.661 490.992 194.574 493.861 192.395L494.412 193.994C491.121 196.416 488.559 196.704 487.206 195.062L487.022 194.84ZM482.922 197.286L491.281 190.396L492.268 191.594L483.91 198.484L482.922 197.286ZM487.944 202.976L495.845 196.462L498.176 199.289L491.904 204.459L492.8 205.546L491.183 206.879L489.381 204.694L495.653 199.524L495.205 198.98L488.921 204.161L487.944 202.976ZM490.776 206.385L498.961 199.638L499.948 200.835L491.763 207.583L490.776 206.385ZM496.496 185.744L502.04 181.175L506.029 186.014L500.486 190.584L496.496 185.744ZM501.493 183.782L499.16 185.705L501.032 187.977L503.366 186.053L501.493 183.782ZM503.208 179.071L504.863 177.707L510.206 184.188L508.551 185.552L503.208 179.071ZM506.713 189.535L508.12 188.375L508.243 188.523C509.586 190.153 509.166 192.863 506.464 195.547L504.915 194.75C507.248 192.474 507.527 190.523 506.835 189.683L506.713 189.535ZM506.985 189.311L508.404 188.141L508.527 188.289C509.188 189.092 511.189 189.205 513.854 187.381L514.341 189.053C511.178 191.204 508.409 191.04 507.107 189.459L506.985 189.311ZM502.826 191.309L510.875 184.673L511.883 185.896L503.833 192.531L502.826 191.309ZM505.26 187.747L506.939 186.363L508.17 187.857L506.491 189.241L505.26 187.747ZM517.62 170.28L519.891 168.407L520.96 169.704L518.688 171.576L517.62 170.28ZM519.391 172.428L521.662 170.556L522.741 171.864L520.469 173.737L519.391 172.428ZM510.415 174.394L516.452 169.417L517.531 170.726L511.494 175.703L510.415 174.394ZM515.085 180.311L513.826 179.11C515.665 177.593 518.213 175.452 520.081 173.518L521.155 174.644C519.327 176.752 516.9 178.815 515.085 180.311ZM512.222 174.75L513.803 173.447L516.988 177.312L515.408 178.614L512.222 174.75ZM514.877 172.562L516.445 171.269L519.63 175.134L518.062 176.426L514.877 172.562ZM517.437 167.341L519.079 165.988L524.839 172.975L523.197 174.329L517.437 167.341ZM521.105 176.344C523.537 174.339 525.66 173.896 526.789 175.266C527.899 176.612 527.058 178.611 524.626 180.616C522.194 182.621 520.071 183.064 518.962 181.718C517.832 180.348 518.673 178.349 521.105 176.344ZM522.133 177.591C520.639 178.822 520.095 179.748 520.604 180.365C521.093 180.957 522.115 180.613 523.609 179.381C525.115 178.139 525.648 177.202 525.16 176.609C524.651 175.992 523.639 176.349 522.133 177.591ZM528.166 158.475L529.821 157.112L539.245 168.544L537.591 169.908L528.166 158.475ZM532.991 161.838L535.004 160.179L536.113 161.525L534.101 163.184L532.991 161.838ZM526.143 162.134L527.748 160.811C530.578 164.243 531.691 168.26 529.466 173.308L527.525 172.814C529.242 168.786 528.932 165.516 526.377 162.418L526.143 162.134ZM522.353 165.258L526.983 161.442L528.072 162.763L523.442 166.579L522.353 165.258Z" fill="black"/>
<path d="M135 0H8V37H118.585L135 20.5234V0Z" fill="#4482EA"/>
<path d="M629 244H502V281H612.585L629 264.523V244Z" fill="#4482EA"/>
<path d="M46.5518 11.934H48.8378V28.602H46.5518V11.934ZM44.3738 18.36H47.1458V20.268H44.3738V18.36ZM42.8258 12.222H45.0578V27.81H42.8258V12.222ZM35.2118 13.77H37.6058V23.4H35.2118V13.77ZM35.2118 22.5H36.3638C37.9658 22.5 39.8378 22.41 41.9078 22.014L42.1418 24.066C39.9638 24.462 38.0558 24.552 36.3638 24.552H35.2118V22.5ZM54.5063 17.514H56.9003V20.574H54.5063V17.514ZM60.3743 17.514H62.7503V20.574H60.3743V17.514ZM51.1223 19.836H66.1883V21.726H51.1223V19.836ZM58.6283 22.572C62.2283 22.572 64.4063 23.652 64.4063 25.578C64.4063 27.522 62.2283 28.602 58.6283 28.602C55.0103 28.602 52.8323 27.522 52.8323 25.578C52.8323 23.652 55.0103 22.572 58.6283 22.572ZM58.6283 24.372C56.3963 24.372 55.2623 24.75 55.2623 25.578C55.2623 26.424 56.3963 26.802 58.6283 26.802C60.8603 26.802 61.9943 26.424 61.9943 25.578C61.9943 24.75 60.8603 24.372 58.6283 24.372ZM58.6643 12.168C62.3363 12.168 64.6943 13.392 64.6943 15.39C64.6943 17.37 62.3363 18.558 58.6643 18.558C54.9743 18.558 52.6343 17.37 52.6343 15.39C52.6343 13.392 54.9743 12.168 58.6643 12.168ZM58.6643 14.004C56.3783 14.004 55.1003 14.454 55.1003 15.39C55.1003 16.308 56.3783 16.758 58.6643 16.758C60.9503 16.758 62.2283 16.308 62.2283 15.39C62.2283 14.454 60.9503 14.004 58.6643 14.004ZM79.1391 14.112H84.0711V16.02H79.1391V14.112ZM79.1391 17.802H84.0711V19.728H79.1391V17.802ZM76.3671 12.816C78.8511 12.816 80.7591 14.544 80.7591 16.902C80.7591 19.26 78.8511 20.988 76.3671 20.988C73.8651 20.988 71.9571 19.26 71.9571 16.902C71.9571 14.544 73.8651 12.816 76.3671 12.816ZM76.3671 14.85C75.1431 14.85 74.2431 15.588 74.2431 16.902C74.2431 18.198 75.1431 18.972 76.3671 18.972C77.5911 18.972 78.4911 18.198 78.4911 16.902C78.4911 15.588 77.5911 14.85 76.3671 14.85ZM83.3151 11.934H85.7091V21.69H83.3151V11.934ZM80.0571 22.032C83.5671 22.032 85.7631 23.256 85.7631 25.326C85.7631 27.396 83.5671 28.602 80.0571 28.602C76.5471 28.602 74.3511 27.396 74.3511 25.326C74.3511 23.256 76.5471 22.032 80.0571 22.032ZM80.0571 23.886C77.8791 23.886 76.7091 24.354 76.7091 25.326C76.7091 26.298 77.8791 26.766 80.0571 26.766C82.2531 26.766 83.4051 26.298 83.4051 25.326C83.4051 24.354 82.2531 23.886 80.0571 23.886ZM95.6977 14.166H100.63V16.092H95.6977V14.166ZM95.6977 17.784H100.63V19.71H95.6977V17.784ZM90.9097 22.554H102.268V28.602H99.8737V24.444H90.9097V22.554ZM99.8737 11.934H102.268V21.798H99.8737V11.934ZM92.9257 12.798C95.4097 12.798 97.3177 14.526 97.3177 16.92C97.3177 19.332 95.4097 21.06 92.9257 21.06C90.4237 21.06 88.5157 19.332 88.5157 16.92C88.5157 14.526 90.4237 12.798 92.9257 12.798ZM92.9257 14.832C91.7017 14.832 90.8017 15.606 90.8017 16.92C90.8017 18.252 91.7017 19.026 92.9257 19.026C94.1317 19.026 95.0497 18.252 95.0497 16.92C95.0497 15.606 94.1317 14.832 92.9257 14.832Z" fill="white"/>
<path d="M543.498 254.934H545.766V265.374H543.498V254.934ZM541.464 259.038H544.128V260.982H541.464V259.038ZM540.042 255.258H542.274V264.834H540.042V255.258ZM531.492 256.644H539.574V258.48H531.492V256.644ZM535.56 259.02C537.648 259.02 539.16 260.208 539.16 261.936C539.16 263.664 537.648 264.834 535.56 264.834C533.472 264.834 531.96 263.664 531.96 261.936C531.96 260.208 533.472 259.02 535.56 259.02ZM535.56 260.73C534.678 260.73 534.084 261.162 534.084 261.936C534.084 262.71 534.678 263.142 535.56 263.142C536.424 263.142 537.018 262.71 537.018 261.936C537.018 261.162 536.424 260.73 535.56 260.73ZM534.354 255.096H536.712V257.904H534.354V255.096ZM540.132 265.554C543.696 265.554 545.856 266.634 545.856 268.578C545.856 270.504 543.696 271.602 540.132 271.602C536.55 271.602 534.39 270.504 534.39 268.578C534.39 266.634 536.55 265.554 540.132 265.554ZM540.132 267.336C537.9 267.336 536.784 267.714 536.784 268.578C536.784 269.424 537.9 269.82 540.132 269.82C542.346 269.82 543.462 269.424 543.462 268.578C543.462 267.714 542.346 267.336 540.132 267.336ZM548.14 262.764H563.224V264.672H548.14V262.764ZM554.494 260.262H556.87V263.502H554.494V260.262ZM549.958 259.506H561.514V261.396H549.958V259.506ZM549.958 255.654H561.424V257.526H552.334V260.712H549.958V255.654ZM555.628 265.5C559.228 265.5 561.406 266.598 561.406 268.56C561.406 270.522 559.228 271.62 555.628 271.62C552.028 271.62 549.832 270.522 549.832 268.56C549.832 266.598 552.028 265.5 555.628 265.5ZM555.628 267.3C553.396 267.3 552.262 267.714 552.262 268.56C552.262 269.424 553.396 269.802 555.628 269.802C557.86 269.802 558.994 269.424 558.994 268.56C558.994 267.714 557.86 267.3 555.628 267.3ZM576.139 257.112H581.071V259.02H576.139V257.112ZM576.139 260.802H581.071V262.728H576.139V260.802ZM573.367 255.816C575.851 255.816 577.759 257.544 577.759 259.902C577.759 262.26 575.851 263.988 573.367 263.988C570.865 263.988 568.957 262.26 568.957 259.902C568.957 257.544 570.865 255.816 573.367 255.816ZM573.367 257.85C572.143 257.85 571.243 258.588 571.243 259.902C571.243 261.198 572.143 261.972 573.367 261.972C574.591 261.972 575.491 261.198 575.491 259.902C575.491 258.588 574.591 257.85 573.367 257.85ZM580.315 254.934H582.709V264.69H580.315V254.934ZM577.057 265.032C580.567 265.032 582.763 266.256 582.763 268.326C582.763 270.396 580.567 271.602 577.057 271.602C573.547 271.602 571.351 270.396 571.351 268.326C571.351 266.256 573.547 265.032 577.057 265.032ZM577.057 266.886C574.879 266.886 573.709 267.354 573.709 268.326C573.709 269.298 574.879 269.766 577.057 269.766C579.253 269.766 580.405 269.298 580.405 268.326C580.405 267.354 579.253 266.886 577.057 266.886ZM592.698 257.166H597.63V259.092H592.698V257.166ZM592.698 260.784H597.63V262.71H592.698V260.784ZM587.91 265.554H599.268V271.602H596.874V267.444H587.91V265.554ZM596.874 254.934H599.268V264.798H596.874V254.934ZM589.926 255.798C592.41 255.798 594.318 257.526 594.318 259.92C594.318 262.332 592.41 264.06 589.926 264.06C587.424 264.06 585.516 262.332 585.516 259.92C585.516 257.526 587.424 255.798 589.926 255.798ZM589.926 257.832C588.702 257.832 587.802 258.606 587.802 259.92C587.802 261.252 588.702 262.026 589.926 262.026C591.132 262.026 592.05 261.252 592.05 259.92C592.05 258.606 591.132 257.832 589.926 257.832Z" fill="white"/>
</svg>
