<svg width="648" height="88" viewBox="0 0 648 88" fill="none" xmlns="http://www.w3.org/2000/svg">
<path d="M30.806 42.556H38.968V43.746H30.806V42.556ZM29.644 51.278H41.208V52.482H29.644V51.278ZM32.29 47.148H33.746V51.684H32.29V47.148ZM38.534 42.556H39.99V43.9C39.99 45.496 39.99 47.204 39.542 49.682L38.086 49.528C38.534 47.19 38.534 45.454 38.534 43.9V42.556ZM35.454 47.148H36.896V51.684H35.454V47.148ZM43.0689 42.71H48.7389V43.886H43.0689V42.71ZM44.9169 46.364H46.3589V50.704H44.9169V46.364ZM48.1369 42.71H49.5929V43.55C49.5929 44.684 49.5929 46.294 49.2289 48.562L47.7869 48.436C48.1369 46.238 48.1369 44.67 48.1369 43.55V42.71ZM50.9649 41.366H52.4209V54.162H50.9649V41.366ZM52.0149 46.616H54.3249V47.848H52.0149V46.616ZM42.5509 51.46L42.3969 50.256C44.6789 50.256 47.7169 50.214 50.2789 49.892L50.3489 50.97C47.7309 51.404 44.7909 51.46 42.5509 51.46ZM64.8798 41.366H66.2798V54.162H64.8798V41.366ZM62.9478 46.448H65.2578V47.638H62.9478V46.448ZM61.9958 41.618H63.3678V53.532H61.9958V41.618ZM55.9618 42.85H57.4318V50.242H55.9618V42.85ZM55.9618 49.668H56.8018C58.0898 49.668 59.5318 49.598 61.1698 49.276L61.3238 50.55C59.6158 50.872 58.1458 50.928 56.8018 50.928H55.9618V49.668ZM71.0107 45.678H72.4667V48.058H71.0107V45.678ZM75.6167 45.678H77.0727V48.058H75.6167V45.678ZM68.2667 47.582H79.8307V48.744H68.2667V47.582ZM74.0347 49.57C76.7787 49.57 78.4447 50.396 78.4447 51.852C78.4447 53.322 76.7787 54.148 74.0347 54.148C71.2767 54.148 69.6247 53.322 69.6247 51.852C69.6247 50.396 71.2767 49.57 74.0347 49.57ZM74.0347 50.69C72.1587 50.69 71.1087 51.096 71.1087 51.852C71.1087 52.622 72.1587 53.028 74.0347 53.028C75.9107 53.028 76.9607 52.622 76.9607 51.852C76.9607 51.096 75.9107 50.69 74.0347 50.69ZM74.0487 41.576C76.8487 41.576 78.6127 42.486 78.6127 43.998C78.6127 45.51 76.8487 46.392 74.0487 46.392C71.2487 46.392 69.4987 45.51 69.4987 43.998C69.4987 42.486 71.2487 41.576 74.0487 41.576ZM74.0487 42.71C72.1447 42.71 71.0107 43.158 71.0107 43.998C71.0107 44.824 72.1447 45.272 74.0487 45.272C75.9667 45.272 77.1007 44.824 77.1007 43.998C77.1007 43.158 75.9667 42.71 74.0487 42.71ZM38.716 61.38H40.186V68.618H38.716V61.38ZM31.814 69.29H40.186V74.008H31.814V69.29ZM38.744 70.452H33.256V72.832H38.744V70.452ZM32.822 61.856H34.04V63.088C34.04 65.468 32.696 67.554 30.372 68.352L29.658 67.19C31.688 66.518 32.822 64.824 32.822 63.088V61.856ZM33.102 61.856H34.306V63.088C34.306 64.782 35.44 66.336 37.414 66.966L36.7 68.1C34.432 67.372 33.102 65.426 33.102 63.088V61.856ZM45.6729 68.968H47.1429V71.04H45.6729V68.968ZM51.0489 61.366H52.5189V74.162H51.0489V61.366ZM52.0289 66.7H54.3389V67.918H52.0289V66.7ZM42.5649 71.866L42.3689 70.662C44.6229 70.662 47.7169 70.648 50.3349 70.27L50.4469 71.348C47.7169 71.852 44.7629 71.866 42.5649 71.866ZM42.5929 62.85H50.1949V64.012H42.5929V62.85ZM46.4009 64.656C48.2069 64.656 49.4669 65.608 49.4669 67.036C49.4669 68.478 48.2069 69.416 46.4009 69.416C44.5949 69.416 43.3489 68.478 43.3489 67.036C43.3489 65.608 44.5949 64.656 46.4009 64.656ZM46.4009 65.776C45.3929 65.776 44.7349 66.266 44.7349 67.036C44.7349 67.82 45.3929 68.296 46.4009 68.296C47.4089 68.296 48.0809 67.82 48.0809 67.036C48.0809 66.266 47.4089 65.776 46.4009 65.776ZM45.6729 61.408H47.1429V63.676H45.6729V61.408ZM55.4158 62.612H62.9478V63.788H55.4158V62.612ZM59.1818 64.334C61.0158 64.334 62.2758 65.258 62.2758 66.672C62.2758 68.072 61.0158 68.982 59.1818 68.982C57.3478 68.982 56.0738 68.072 56.0738 66.672C56.0738 65.258 57.3478 64.334 59.1818 64.334ZM59.1818 65.454C58.1738 65.454 57.4878 65.902 57.4878 66.672C57.4878 67.414 58.1738 67.876 59.1818 67.876C60.1898 67.876 60.8758 67.414 60.8758 66.672C60.8758 65.902 60.1898 65.454 59.1818 65.454ZM63.9138 61.366H65.3838V69.374H63.9138V61.366ZM64.9778 64.796H67.1898V66H64.9778V64.796ZM56.9698 70.004H65.3838V74.162H63.9138V71.18H56.9698V70.004ZM58.4538 61.296H59.9098V63.284H58.4538V61.296ZM69.6807 69.038H71.1367V70.34H76.8907V69.038H78.3467V74.008H69.6807V69.038ZM71.1367 71.446V72.846H76.8907V71.446H71.1367ZM68.2667 67.092H79.8307V68.254H68.2667V67.092ZM73.3067 61.506H74.5667V61.996C74.5667 64.222 72.3407 65.93 69.4147 66.336L68.8827 65.188C71.4447 64.866 73.3067 63.466 73.3067 61.996V61.506ZM73.5447 61.506H74.8047V61.996C74.8047 63.452 76.6807 64.866 79.2147 65.188L78.6827 66.336C75.7707 65.93 73.5447 64.194 73.5447 61.996V61.506Z" fill="#272928"/>
<path d="M155.054 41.352H156.524V54.176H155.054V41.352ZM146.668 42.416H148.124V45.678H151.358V42.416H152.814V51.138H146.668V42.416ZM148.124 46.826V49.948H151.358V46.826H148.124ZM159.196 42.486H166.028V43.676H159.196V42.486ZM159.014 48.982L158.846 47.778C161.058 47.764 164.068 47.736 166.56 47.428L166.658 48.506C164.124 48.926 161.17 48.982 159.014 48.982ZM160.344 43.396H161.758V48.016H160.344V43.396ZM163.466 43.396H164.88V48.016H163.466V43.396ZM167.386 41.38H168.856V50.802H167.386V41.38ZM168.422 45.132H170.662V46.35H168.422V45.132ZM160.764 52.72H169.374V53.91H160.764V52.72ZM160.764 49.906H162.234V53.028H160.764V49.906ZM174.875 42.654H176.065V43.592C176.065 45.958 174.763 48.058 172.481 48.842L171.739 47.68C173.727 47.008 174.875 45.314 174.875 43.592V42.654ZM175.169 42.654H176.345V43.592C176.345 45.174 177.437 46.756 179.355 47.414L178.627 48.576C176.415 47.806 175.169 45.79 175.169 43.592V42.654ZM178.641 44.572H181.301V45.776H178.641V44.572ZM172.159 42.164H179.019V43.34H172.159V42.164ZM173.727 49.64H182.351V54.162H180.881V50.83H173.727V49.64ZM180.881 41.366H182.351V48.996H180.881V41.366ZM190.787 42.416H191.977V44.516C191.977 47.498 190.647 50.354 188.449 51.474L187.553 50.298C189.541 49.332 190.787 46.882 190.787 44.516V42.416ZM191.067 42.416H192.243V44.516C192.243 46.798 193.447 49.122 195.365 50.074L194.469 51.236C192.341 50.13 191.067 47.4 191.067 44.516V42.416ZM196.219 41.366H197.689V54.162H196.219V41.366ZM197.353 46.434H199.677V47.652H197.353V46.434ZM201.86 42.556H210.036V43.746H201.86V42.556ZM200.656 51.278H212.22V52.482H200.656V51.278ZM204.968 46.784H206.438V51.88H204.968V46.784ZM209.49 42.556H210.96V43.802C210.96 45.398 210.96 47.176 210.47 49.822L209 49.654C209.49 47.162 209.49 45.342 209.49 43.802V42.556ZM215.047 44.754H223.797V45.93H215.047V44.754ZM215.047 41.604H216.503V45.286H215.047V41.604ZM213.535 47.246H225.099V48.422H213.535V47.246ZM219.289 49.43C222.033 49.43 223.699 50.27 223.699 51.782C223.699 53.266 222.033 54.12 219.289 54.12C216.545 54.12 214.879 53.266 214.879 51.782C214.879 50.27 216.545 49.43 219.289 49.43ZM219.289 50.564C217.413 50.564 216.363 50.97 216.363 51.782C216.363 52.552 217.413 52.986 219.289 52.986C221.165 52.986 222.215 52.552 222.215 51.782C222.215 50.97 221.165 50.564 219.289 50.564ZM226.918 47.596H227.856C230.32 47.596 231.566 47.554 233.05 47.288L233.204 48.464C231.664 48.744 230.376 48.786 227.856 48.786H226.918V47.596ZM226.89 42.122H232.448V45.93H228.374V48.352H226.918V44.81H231.006V43.298H226.89V42.122ZM235.542 41.38H237.012V49.248H235.542V41.38ZM233.246 43.214H235.836V44.39H233.246V43.214ZM233.246 45.888H235.836V47.078H233.246V45.888ZM228.36 49.892H237.012V54.176H235.542V51.068H228.36V49.892ZM168.286 69.038H169.742V70.34H175.496V69.038H176.952V74.008H168.286V69.038ZM169.742 71.446V72.846H175.496V71.446H169.742ZM166.872 67.092H178.436V68.254H166.872V67.092ZM171.912 61.506H173.172V61.996C173.172 64.222 170.946 65.93 168.02 66.336L167.488 65.188C170.05 64.866 171.912 63.466 171.912 61.996V61.506ZM172.15 61.506H173.41V61.996C173.41 63.452 175.286 64.866 177.82 65.188L177.288 66.336C174.376 65.93 172.15 64.194 172.15 61.996V61.506ZM180.395 62.332H185.967V63.522H180.395V62.332ZM182.173 65.244H183.615V68.436H182.173V65.244ZM185.393 62.332H186.835V63.06C186.835 63.928 186.835 65.202 186.513 66.84L185.085 66.686C185.393 65.048 185.393 63.914 185.393 63.06V62.332ZM188.347 61.366H189.831V70.97H188.347V61.366ZM189.201 65.412H191.525V66.63H189.201V65.412ZM181.543 72.72H190.237V73.91H181.543V72.72ZM181.543 70.102H183.013V73.084H181.543V70.102ZM179.765 69.08L179.625 67.904C181.879 67.904 184.987 67.862 187.563 67.498L187.661 68.548C185.015 69.024 181.991 69.08 179.765 69.08ZM201.156 61.352H202.626V68.562H201.156V61.352ZM202.22 64.474H204.432V65.678H202.22V64.474ZM197.558 62.136H199.14C199.14 65.454 196.984 67.68 193.162 68.646L192.616 67.456C195.906 66.644 197.558 64.964 197.558 62.892V62.136ZM193.204 62.136H198.454V63.312H193.204V62.136ZM197.81 69.78H199.056V70.13C199.056 72.146 197.152 73.7 194.394 74.134L193.848 73C196.256 72.678 197.81 71.446 197.81 70.13V69.78ZM198.132 69.78H199.378V70.13C199.378 71.404 200.96 72.678 203.326 73.028L202.794 74.148C200.036 73.728 198.132 72.104 198.132 70.13V69.78ZM194.352 69.164H202.822V70.326H194.352V69.164ZM214.609 61.366H216.079V74.162H214.609V61.366ZM210.857 62.724H212.299C212.299 66.518 210.787 69.738 206.391 71.88L205.621 70.704C209.303 68.926 210.857 66.392 210.857 62.976V62.724ZM206.251 62.724H211.515V63.9H206.251V62.724Z" fill="#272928"/>
<path d="M305.76 44.586H308.434V45.79H305.76V44.586ZM308.014 41.366H309.484V48.982H308.014V41.366ZM305.214 49.318C307.888 49.318 309.526 50.228 309.526 51.74C309.526 53.28 307.888 54.162 305.214 54.162C302.54 54.162 300.902 53.28 300.902 51.74C300.902 50.228 302.54 49.318 305.214 49.318ZM305.214 50.452C303.408 50.452 302.358 50.9 302.358 51.74C302.358 52.58 303.408 53.028 305.214 53.028C307.034 53.028 308.07 52.58 308.07 51.74C308.07 50.9 307.034 50.452 305.214 50.452ZM302.008 42.654H303.198V43.592C303.198 45.986 301.896 48.1 299.628 48.912L298.872 47.75C300.874 47.05 302.008 45.342 302.008 43.592V42.654ZM302.302 42.654H303.478V43.578C303.478 45.174 304.57 46.756 306.488 47.414L305.76 48.576C303.548 47.806 302.302 45.79 302.302 43.578V42.654ZM299.292 42.234H306.152V43.41H299.292V42.234ZM311.765 47.666H323.329V48.828H311.765V47.666ZM316.805 45.524H318.261V48.072H316.805V45.524ZM313.039 49.906H321.929V54.232H320.473V51.082H313.039V49.906ZM313.193 45.132H322.027V46.322H313.193V45.132ZM313.193 41.884H321.915V43.06H314.663V45.762H313.193V41.884ZM333.1 41.366H334.556V54.162H333.1V41.366ZM334.22 46.504H336.544V47.722H334.22V46.504ZM324.574 43.34H332.078V44.516H324.574V43.34ZM328.368 45.44C330.188 45.44 331.532 46.672 331.532 48.422C331.532 50.186 330.188 51.418 328.368 51.418C326.534 51.418 325.19 50.186 325.19 48.422C325.19 46.672 326.534 45.44 328.368 45.44ZM328.368 46.644C327.332 46.644 326.59 47.344 326.59 48.422C326.59 49.5 327.332 50.214 328.368 50.214C329.39 50.214 330.132 49.5 330.132 48.422C330.132 47.344 329.39 46.644 328.368 46.644ZM327.612 41.548H329.082V43.83H327.612V41.548ZM339.021 45.034H347.785V46.21H339.021V45.034ZM337.509 47.75H349.101V48.94H337.509V47.75ZM339.021 41.828H340.477V45.622H339.021V41.828ZM338.923 52.678H347.855V53.868H338.923V52.678ZM338.923 50.102H340.379V53H338.923V50.102ZM304.738 63.27H308.546V64.46H304.738V63.27ZM304.738 66.35H308.546V67.54H304.738V66.35ZM308.014 61.38H309.484V70.788H308.014V61.38ZM301.196 72.72H309.806V73.91H301.196V72.72ZM301.196 69.836H302.652V73.294H301.196V69.836ZM302.386 62.164C304.276 62.164 305.718 63.508 305.718 65.412C305.718 67.302 304.276 68.66 302.386 68.66C300.496 68.66 299.054 67.302 299.054 65.412C299.054 63.508 300.496 62.164 302.386 62.164ZM302.386 63.452C301.28 63.452 300.454 64.236 300.454 65.412C300.454 66.588 301.28 67.372 302.386 67.372C303.492 67.372 304.318 66.588 304.318 65.412C304.318 64.236 303.492 63.452 302.386 63.452ZM313.165 69.038H314.621V70.34H320.375V69.038H321.831V74.008H313.165V69.038ZM314.621 71.446V72.846H320.375V71.446H314.621ZM311.751 67.092H323.315V68.254H311.751V67.092ZM316.791 61.506H318.051V61.996C318.051 64.222 315.825 65.93 312.899 66.336L312.367 65.188C314.929 64.866 316.791 63.466 316.791 61.996V61.506ZM317.029 61.506H318.289V61.996C318.289 63.452 320.165 64.866 322.699 65.188L322.167 66.336C319.255 65.93 317.029 64.194 317.029 61.996V61.506ZM333.1 61.366H334.556V74.162H333.1V61.366ZM334.22 66.504H336.544V67.722H334.22V66.504ZM324.574 63.34H332.078V64.516H324.574V63.34ZM328.368 65.44C330.188 65.44 331.532 66.672 331.532 68.422C331.532 70.186 330.188 71.418 328.368 71.418C326.534 71.418 325.19 70.186 325.19 68.422C325.19 66.672 326.534 65.44 328.368 65.44ZM328.368 66.644C327.332 66.644 326.59 67.344 326.59 68.422C326.59 69.5 327.332 70.214 328.368 70.214C329.39 70.214 330.132 69.5 330.132 68.422C330.132 67.344 329.39 66.644 328.368 66.644ZM327.612 61.548H329.082V63.83H327.612V61.548ZM346.609 61.366H348.079V74.162H346.609V61.366ZM342.857 62.724H344.299C344.299 66.518 342.787 69.738 338.391 71.88L337.621 70.704C341.303 68.926 342.857 66.392 342.857 62.976V62.724ZM338.251 62.724H343.515V63.9H338.251V62.724Z" fill="#272928"/>
<path d="M447.768 41.352H449.238V54.176H447.768V41.352ZM448.902 46.266H451.226V47.484H448.902V46.266ZM439.844 49.822H440.88C443.148 49.822 444.828 49.738 446.718 49.388L446.872 50.62C444.912 50.97 443.204 51.04 440.88 51.04H439.844V49.822ZM439.844 42.57H445.794V43.76H441.3V50.382H439.844V42.57ZM461.739 43.13H463.951V44.334H461.739V43.13ZM461.739 45.874H463.951V47.078H461.739V45.874ZM455.761 42.094C457.707 42.094 459.163 43.354 459.163 45.16C459.163 46.938 457.707 48.198 455.761 48.198C453.815 48.198 452.373 46.938 452.373 45.16C452.373 43.354 453.815 42.094 455.761 42.094ZM455.761 43.326C454.627 43.326 453.801 44.054 453.801 45.16C453.801 46.266 454.627 46.966 455.761 46.966C456.895 46.966 457.735 46.266 457.735 45.16C457.735 44.054 456.895 43.326 455.761 43.326ZM460.717 41.366H462.187V48.898H460.717V41.366ZM458.071 49.234C460.689 49.234 462.327 50.158 462.327 51.698C462.327 53.238 460.689 54.148 458.071 54.148C455.439 54.148 453.801 53.238 453.801 51.698C453.801 50.158 455.439 49.234 458.071 49.234ZM458.071 50.41C456.293 50.41 455.257 50.858 455.257 51.698C455.257 52.538 456.293 52.986 458.071 52.986C459.849 52.986 460.871 52.538 460.871 51.698C460.871 50.858 459.849 50.41 458.071 50.41ZM473.595 41.38H475.065V50.956H473.595V41.38ZM474.631 45.44H476.871V46.658H474.631V45.44ZM465.097 42.836H472.629V43.998H465.097V42.836ZM468.863 44.586C470.683 44.586 471.957 45.566 471.957 47.008C471.957 48.464 470.683 49.43 468.863 49.43C467.029 49.43 465.755 48.464 465.755 47.008C465.755 45.566 467.029 44.586 468.863 44.586ZM468.863 45.72C467.855 45.72 467.169 46.21 467.169 47.008C467.169 47.82 467.855 48.296 468.863 48.296C469.871 48.296 470.557 47.82 470.557 47.008C470.557 46.21 469.871 45.72 468.863 45.72ZM468.135 41.366H469.591V43.41H468.135V41.366ZM466.973 52.72H475.583V53.91H466.973V52.72ZM466.973 50.214H468.443V53.224H466.973V50.214ZM424.846 63.438H431.09V64.614H424.846V63.438ZM427.982 65.342C429.592 65.342 430.754 66.574 430.754 68.324C430.754 70.074 429.592 71.292 427.982 71.292C426.386 71.292 425.21 70.074 425.21 68.324C425.21 66.574 426.386 65.342 427.982 65.342ZM427.982 66.574C427.128 66.574 426.512 67.274 426.512 68.324C426.512 69.388 427.128 70.06 427.982 70.06C428.836 70.06 429.452 69.388 429.452 68.324C429.452 67.274 428.836 66.574 427.982 66.574ZM434.366 61.366H435.766V74.162H434.366V61.366ZM432.546 66.672H434.828V67.862H432.546V66.672ZM431.65 61.632H433.022V73.574H431.65V61.632ZM427.268 61.73H428.71V64.166H427.268V61.73ZM446.881 61.366H448.351V67.848H446.881V61.366ZM442.737 61.926H444.333C444.333 65.23 442.219 67.26 438.425 68.142L437.921 66.952C441.183 66.238 442.737 64.684 442.737 62.696V61.926ZM438.621 61.926H443.367V63.116H438.621V61.926ZM443.857 63.102H447.091V64.236H443.857V63.102ZM443.759 65.566H447.021V66.686H443.759V65.566ZM440.021 68.38H448.351V71.698H441.505V73.532H440.049V70.592H446.881V69.542H440.021V68.38ZM440.049 72.874H448.701V74.036H440.049V72.874ZM451.136 67.596H452.074C454.538 67.596 455.784 67.554 457.268 67.288L457.422 68.464C455.882 68.744 454.594 68.786 452.074 68.786H451.136V67.596ZM451.108 62.122H456.666V65.93H452.592V68.352H451.136V64.81H455.224V63.298H451.108V62.122ZM459.76 61.38H461.23V69.248H459.76V61.38ZM457.464 63.214H460.054V64.39H457.464V63.214ZM457.464 65.888H460.054V67.078H457.464V65.888ZM452.578 69.892H461.23V74.176H459.76V71.068H452.578V69.892ZM469.694 63.48H470.884V63.998C470.884 66.168 469.568 68.002 467.286 68.674L466.6 67.526C468.574 66.966 469.694 65.538 469.694 63.998V63.48ZM469.96 63.48H471.164V63.998C471.164 65.412 472.242 66.77 474.202 67.302L473.544 68.436C471.248 67.792 469.96 66.042 469.96 63.998V63.48ZM467.006 62.738H473.852V63.9H467.006V62.738ZM469.694 61.31H471.164V63.256H469.694V61.31ZM475.168 61.366H476.638V68.73H475.168V61.366ZM476.232 64.39H478.444V65.608H476.232V64.39ZM471.822 69.836H473.068V70.158C473.068 72.16 471.15 73.7 468.392 74.12L467.846 73C470.254 72.664 471.822 71.446 471.822 70.158V69.836ZM472.13 69.836H473.376V70.158C473.376 71.418 474.972 72.664 477.338 73.014L476.806 74.134C474.048 73.728 472.13 72.118 472.13 70.158V69.836ZM468.364 69.36H476.834V70.522H468.364V69.36ZM488.621 61.366H490.091V74.162H488.621V61.366ZM484.869 62.724H486.311C486.311 66.518 484.799 69.738 480.403 71.88L479.633 70.704C483.315 68.926 484.869 66.392 484.869 62.976V62.724ZM480.263 62.724H485.527V63.9H480.263V62.724Z" fill="#272928"/>
<path d="M566.826 45.048H575.562V46.224H566.826V45.048ZM566.826 41.786H568.268V45.524H566.826V41.786ZM565.314 47.932H576.878V49.122H565.314V47.932ZM570.368 45.72H571.824V48.296H570.368V45.72ZM566.728 52.72H575.66V53.91H566.728V52.72ZM566.728 50.046H568.184V53.294H566.728V50.046ZM587.699 41.366H589.099V54.162H587.699V41.366ZM583.233 45.86H585.543V47.064H583.233V45.86ZM585.123 41.618H586.495V53.532H585.123V41.618ZM580.643 43.396H581.763V44.88C581.763 47.708 580.811 50.452 578.865 51.684L577.983 50.592C579.803 49.472 580.643 47.162 580.643 44.88V43.396ZM580.965 43.396H582.071V44.88C582.071 47.064 582.883 49.248 584.675 50.298L583.807 51.376C581.861 50.214 580.965 47.624 580.965 44.88V43.396ZM578.389 42.766H584.171V43.956H578.389V42.766ZM599.256 47.778H600.712V50.018H599.256V47.778ZM594.202 47.274H605.766V48.45H594.202V47.274ZM599.97 49.598C602.714 49.598 604.38 50.41 604.38 51.88C604.38 53.322 602.714 54.148 599.97 54.148C597.212 54.148 595.56 53.322 595.56 51.88C595.56 50.41 597.212 49.598 599.97 49.598ZM599.97 50.718C598.094 50.718 597.044 51.11 597.044 51.88C597.044 52.622 598.094 53.028 599.97 53.028C601.846 53.028 602.896 52.622 602.896 51.88C602.896 51.11 601.846 50.718 599.97 50.718ZM599.004 42.486H600.306V42.836C600.306 44.838 598.234 46.308 595.294 46.63L594.79 45.468C597.296 45.23 599.004 44.082 599.004 42.836V42.486ZM599.676 42.486H600.964V42.836C600.964 44.096 602.672 45.23 605.192 45.468L604.674 46.63C601.748 46.308 599.676 44.838 599.676 42.836V42.486ZM595.266 41.926H604.73V43.102H595.266V41.926ZM616.167 41.38H617.637V48.618H616.167V41.38ZM609.265 49.29H617.637V54.008H609.265V49.29ZM616.195 50.452H610.707V52.832H616.195V50.452ZM610.273 41.856H611.491V43.088C611.491 45.468 610.147 47.554 607.823 48.352L607.109 47.19C609.139 46.518 610.273 44.824 610.273 43.088V41.856ZM610.553 41.856H611.757V43.088C611.757 44.782 612.891 46.336 614.865 46.966L614.151 48.1C611.883 47.372 610.553 45.426 610.553 43.088V41.856ZM575.958 61.366H577.428V67.918H575.958V61.366ZM569.042 68.534H577.428V71.782H570.498V73.322H569.07V70.704H575.972V69.668H569.042V68.534ZM569.07 72.888H577.806V74.05H569.07V72.888ZM570.064 61.702H571.282V62.668C571.282 65.034 569.924 67.106 567.614 67.876L566.9 66.714C568.916 66.056 570.064 64.39 570.064 62.668V61.702ZM570.344 61.702H571.548V62.668C571.548 64.334 572.696 65.888 574.67 66.49L573.956 67.638C571.674 66.91 570.344 64.964 570.344 62.668V61.702ZM586.569 64.796H589.691V65.986H586.569V64.796ZM588.893 61.38H590.363V70.732H588.893V61.38ZM582.075 72.72H590.685V73.91H582.075V72.72ZM582.075 69.92H583.531V73.378H582.075V69.92ZM582.887 63.004H584.077V63.928C584.077 66.294 582.775 68.394 580.493 69.206L579.751 68.03C581.739 67.344 582.887 65.664 582.887 63.928V63.004ZM583.181 63.004H584.357V63.928C584.357 65.51 585.449 67.106 587.367 67.778L586.639 68.926C584.427 68.156 583.181 66.14 583.181 63.928V63.004ZM580.171 62.332H587.031V63.508H580.171V62.332ZM598.496 63.27H602.304V64.46H598.496V63.27ZM598.496 66.35H602.304V67.54H598.496V66.35ZM601.772 61.38H603.242V70.788H601.772V61.38ZM594.954 72.72H603.564V73.91H594.954V72.72ZM594.954 69.836H596.41V73.294H594.954V69.836ZM596.144 62.164C598.034 62.164 599.476 63.508 599.476 65.412C599.476 67.302 598.034 68.66 596.144 68.66C594.254 68.66 592.812 67.302 592.812 65.412C592.812 63.508 594.254 62.164 596.144 62.164ZM596.144 63.452C595.038 63.452 594.212 64.236 594.212 65.412C594.212 66.588 595.038 67.372 596.144 67.372C597.25 67.372 598.076 66.588 598.076 65.412C598.076 64.236 597.25 63.452 596.144 63.452ZM606.923 69.038H608.379V70.34H614.133V69.038H615.589V74.008H606.923V69.038ZM608.379 71.446V72.846H614.133V71.446H608.379ZM605.509 67.092H617.073V68.254H605.509V67.092ZM610.549 61.506H611.809V61.996C611.809 64.222 609.583 65.93 606.657 66.336L606.125 65.188C608.687 64.866 610.549 63.466 610.549 61.996V61.506ZM610.787 61.506H612.047V61.996C612.047 63.452 613.923 64.866 616.457 65.188L615.925 66.336C613.013 65.93 610.787 64.194 610.787 61.996V61.506Z" fill="#272928"/>
<rect x="0.5" y="17.5" width="111" height="70" stroke="#EAEAEA"/>
<rect x="15" width="81" height="34.1053" rx="17.0526" fill="#195CCD"/>
<path d="M38.056 23.182C36.756 23.182 35.482 22.688 34.546 21.791L35.651 20.465C36.327 21.102 37.25 21.518 38.095 21.518C39.096 21.518 39.616 21.089 39.616 20.426C39.616 19.711 39.031 19.477 38.173 19.113L36.886 18.567C35.924 18.177 34.936 17.384 34.936 15.993C34.936 14.42 36.327 13.211 38.264 13.211C39.382 13.211 40.5 13.653 41.28 14.446L40.318 15.655C39.694 15.148 39.057 14.862 38.264 14.862C37.419 14.862 36.886 15.239 36.886 15.863C36.886 16.552 37.575 16.812 38.394 17.137L39.655 17.657C40.812 18.138 41.579 18.892 41.579 20.27C41.579 21.843 40.266 23.182 38.056 23.182ZM44.8381 23V14.979H42.1211V13.38H49.4791V14.979H46.7621V23H44.8381ZM51.0521 23V13.38H56.9541V14.979H52.9761V17.202H56.3431V18.827H52.9761V21.388H57.0971V23H51.0521ZM59.0502 23V13.38H62.2092C64.3282 13.38 65.9662 14.121 65.9662 16.409C65.9662 18.606 64.3282 19.581 62.2612 19.581H60.9742V23H59.0502ZM60.9742 18.06H62.1312C63.4572 18.06 64.0942 17.501 64.0942 16.409C64.0942 15.278 63.3922 14.914 62.0662 14.914H60.9742V18.06ZM70.5364 23V21.453H72.6164V15.629H70.8614V14.446C71.8364 14.251 72.4864 14.004 73.1104 13.627H74.5274V21.453H76.3344V23H70.5364Z" fill="white"/>
<rect x="0.5" y="17.5" width="111" height="70" stroke="#EAEAEA"/>
<rect x="15" width="81" height="34.1053" rx="17.0526" fill="#195CCD"/>
<path d="M38.056 23.182C36.756 23.182 35.482 22.688 34.546 21.791L35.651 20.465C36.327 21.102 37.25 21.518 38.095 21.518C39.096 21.518 39.616 21.089 39.616 20.426C39.616 19.711 39.031 19.477 38.173 19.113L36.886 18.567C35.924 18.177 34.936 17.384 34.936 15.993C34.936 14.42 36.327 13.211 38.264 13.211C39.382 13.211 40.5 13.653 41.28 14.446L40.318 15.655C39.694 15.148 39.057 14.862 38.264 14.862C37.419 14.862 36.886 15.239 36.886 15.863C36.886 16.552 37.575 16.812 38.394 17.137L39.655 17.657C40.812 18.138 41.579 18.892 41.579 20.27C41.579 21.843 40.266 23.182 38.056 23.182ZM44.8381 23V14.979H42.1211V13.38H49.4791V14.979H46.7621V23H44.8381ZM51.0521 23V13.38H56.9541V14.979H52.9761V17.202H56.3431V18.827H52.9761V21.388H57.0971V23H51.0521ZM59.0502 23V13.38H62.2092C64.3282 13.38 65.9662 14.121 65.9662 16.409C65.9662 18.606 64.3282 19.581 62.2612 19.581H60.9742V23H59.0502ZM60.9742 18.06H62.1312C63.4572 18.06 64.0942 17.501 64.0942 16.409C64.0942 15.278 63.3922 14.914 62.0662 14.914H60.9742V18.06ZM70.5364 23V21.453H72.6164V15.629H70.8614V14.446C71.8364 14.251 72.4864 14.004 73.1104 13.627H74.5274V21.453H76.3344V23H70.5364Z" fill="white"/>
<rect x="134.5" y="17.5" width="111" height="70" stroke="#EAEAEA"/>
<rect x="149" width="81" height="34.1053" rx="17.0526" fill="#195CCD"/>
<path d="M172.056 23.182C170.756 23.182 169.482 22.688 168.546 21.791L169.651 20.465C170.327 21.102 171.25 21.518 172.095 21.518C173.096 21.518 173.616 21.089 173.616 20.426C173.616 19.711 173.031 19.477 172.173 19.113L170.886 18.567C169.924 18.177 168.936 17.384 168.936 15.993C168.936 14.42 170.327 13.211 172.264 13.211C173.382 13.211 174.5 13.653 175.28 14.446L174.318 15.655C173.694 15.148 173.057 14.862 172.264 14.862C171.419 14.862 170.886 15.239 170.886 15.863C170.886 16.552 171.575 16.812 172.394 17.137L173.655 17.657C174.812 18.138 175.579 18.892 175.579 20.27C175.579 21.843 174.266 23.182 172.056 23.182ZM178.838 23V14.979H176.121V13.38H183.479V14.979H180.762V23H178.838ZM185.052 23V13.38H190.954V14.979H186.976V17.202H190.343V18.827H186.976V21.388H191.097V23H185.052ZM193.05 23V13.38H196.209C198.328 13.38 199.966 14.121 199.966 16.409C199.966 18.606 198.328 19.581 196.261 19.581H194.974V23H193.05ZM194.974 18.06H196.131C197.457 18.06 198.094 17.501 198.094 16.409C198.094 15.278 197.392 14.914 196.066 14.914H194.974V18.06ZM204.536 23V21.453H206.616V15.629H204.861V14.446C205.836 14.251 206.486 14.004 207.11 13.627H208.527V21.453H210.334V23H204.536Z" fill="white"/>
<rect x="134.5" y="17.5" width="111" height="70" stroke="#EAEAEA"/>
<rect x="149" width="81" height="34.1053" rx="17.0526" fill="#195CCD"/>
<path d="M172.056 23.182C170.756 23.182 169.482 22.688 168.546 21.791L169.651 20.465C170.327 21.102 171.25 21.518 172.095 21.518C173.096 21.518 173.616 21.089 173.616 20.426C173.616 19.711 173.031 19.477 172.173 19.113L170.886 18.567C169.924 18.177 168.936 17.384 168.936 15.993C168.936 14.42 170.327 13.211 172.264 13.211C173.382 13.211 174.5 13.653 175.28 14.446L174.318 15.655C173.694 15.148 173.057 14.862 172.264 14.862C171.419 14.862 170.886 15.239 170.886 15.863C170.886 16.552 171.575 16.812 172.394 17.137L173.655 17.657C174.812 18.138 175.579 18.892 175.579 20.27C175.579 21.843 174.266 23.182 172.056 23.182ZM178.838 23V14.979H176.121V13.38H183.479V14.979H180.762V23H178.838ZM185.052 23V13.38H190.954V14.979H186.976V17.202H190.343V18.827H186.976V21.388H191.097V23H185.052ZM193.05 23V13.38H196.209C198.328 13.38 199.966 14.121 199.966 16.409C199.966 18.606 198.328 19.581 196.261 19.581H194.974V23H193.05ZM194.974 18.06H196.131C197.457 18.06 198.094 17.501 198.094 16.409C198.094 15.278 197.392 14.914 196.066 14.914H194.974V18.06ZM204.029 23V21.908C206.538 19.503 208.189 17.878 208.189 16.474C208.189 15.525 207.682 14.953 206.759 14.953C206.044 14.953 205.485 15.434 204.991 15.954L203.938 14.914C204.822 13.965 205.693 13.458 207.006 13.458C208.813 13.458 210.035 14.602 210.035 16.383C210.035 18.008 208.514 19.711 206.798 21.505C207.279 21.453 207.916 21.388 208.371 21.388H210.477V23H204.029Z" fill="white"/>
<rect x="268.5" y="17.5" width="111" height="70" stroke="#EAEAEA"/>
<rect x="283" width="81" height="34.1053" rx="17.0526" fill="#195CCD"/>
<path d="M306.056 23.182C304.756 23.182 303.482 22.688 302.546 21.791L303.651 20.465C304.327 21.102 305.25 21.518 306.095 21.518C307.096 21.518 307.616 21.089 307.616 20.426C307.616 19.711 307.031 19.477 306.173 19.113L304.886 18.567C303.924 18.177 302.936 17.384 302.936 15.993C302.936 14.42 304.327 13.211 306.264 13.211C307.382 13.211 308.5 13.653 309.28 14.446L308.318 15.655C307.694 15.148 307.057 14.862 306.264 14.862C305.419 14.862 304.886 15.239 304.886 15.863C304.886 16.552 305.575 16.812 306.394 17.137L307.655 17.657C308.812 18.138 309.579 18.892 309.579 20.27C309.579 21.843 308.266 23.182 306.056 23.182ZM312.838 23V14.979H310.121V13.38H317.479V14.979H314.762V23H312.838ZM319.052 23V13.38H324.954V14.979H320.976V17.202H324.343V18.827H320.976V21.388H325.097V23H319.052ZM327.05 23V13.38H330.209C332.328 13.38 333.966 14.121 333.966 16.409C333.966 18.606 332.328 19.581 330.261 19.581H328.974V23H327.05ZM328.974 18.06H330.131C331.457 18.06 332.094 17.501 332.094 16.409C332.094 15.278 331.392 14.914 330.066 14.914H328.974V18.06ZM341.032 23.182C339.511 23.182 338.484 22.623 337.808 21.843L338.718 20.634C339.29 21.193 339.979 21.635 340.85 21.635C341.838 21.635 342.501 21.167 342.501 20.348C342.501 19.451 341.942 18.879 339.849 18.879V17.501C341.617 17.501 342.189 16.916 342.189 16.11C342.189 15.382 341.721 14.953 340.902 14.953C340.213 14.953 339.654 15.291 339.082 15.824L338.107 14.641C338.939 13.926 339.862 13.458 340.98 13.458C342.839 13.458 344.1 14.368 344.1 15.967C344.1 16.981 343.515 17.683 342.501 18.099V18.151C343.593 18.45 344.425 19.243 344.425 20.465C344.425 22.194 342.878 23.182 341.032 23.182Z" fill="white"/>
<rect x="402.5" y="17.5" width="111" height="70" stroke="#EAEAEA"/>
<rect x="417" width="81" height="34.1053" rx="17.0526" fill="#195CCD"/>
<path d="M440.056 23.182C438.756 23.182 437.482 22.688 436.546 21.791L437.651 20.465C438.327 21.102 439.25 21.518 440.095 21.518C441.096 21.518 441.616 21.089 441.616 20.426C441.616 19.711 441.031 19.477 440.173 19.113L438.886 18.567C437.924 18.177 436.936 17.384 436.936 15.993C436.936 14.42 438.327 13.211 440.264 13.211C441.382 13.211 442.5 13.653 443.28 14.446L442.318 15.655C441.694 15.148 441.057 14.862 440.264 14.862C439.419 14.862 438.886 15.239 438.886 15.863C438.886 16.552 439.575 16.812 440.394 17.137L441.655 17.657C442.812 18.138 443.579 18.892 443.579 20.27C443.579 21.843 442.266 23.182 440.056 23.182ZM446.838 23V14.979H444.121V13.38H451.479V14.979H448.762V23H446.838ZM453.052 23V13.38H458.954V14.979H454.976V17.202H458.343V18.827H454.976V21.388H459.097V23H453.052ZM461.05 23V13.38H464.209C466.328 13.38 467.966 14.121 467.966 16.409C467.966 18.606 466.328 19.581 464.261 19.581H462.974V23H461.05ZM462.974 18.06H464.131C465.457 18.06 466.094 17.501 466.094 16.409C466.094 15.278 465.392 14.914 464.066 14.914H462.974V18.06ZM475.851 23V17.345C475.851 16.786 475.903 15.889 475.929 15.33H475.877C475.63 15.837 475.37 16.318 475.097 16.851L473.615 19.204H478.776V20.673H471.756V19.36L475.331 13.627H477.632V23H475.851Z" fill="white"/>
<rect x="536.5" y="17.5" width="111" height="70" stroke="#EAEAEA"/>
<rect x="551" width="81" height="34.1053" rx="17.0526" fill="#195CCD"/>
<path d="M574.056 23.182C572.756 23.182 571.482 22.688 570.546 21.791L571.651 20.465C572.327 21.102 573.25 21.518 574.095 21.518C575.096 21.518 575.616 21.089 575.616 20.426C575.616 19.711 575.031 19.477 574.173 19.113L572.886 18.567C571.924 18.177 570.936 17.384 570.936 15.993C570.936 14.42 572.327 13.211 574.264 13.211C575.382 13.211 576.5 13.653 577.28 14.446L576.318 15.655C575.694 15.148 575.057 14.862 574.264 14.862C573.419 14.862 572.886 15.239 572.886 15.863C572.886 16.552 573.575 16.812 574.394 17.137L575.655 17.657C576.812 18.138 577.579 18.892 577.579 20.27C577.579 21.843 576.266 23.182 574.056 23.182ZM580.838 23V14.979H578.121V13.38H585.479V14.979H582.762V23H580.838ZM587.052 23V13.38H592.954V14.979H588.976V17.202H592.343V18.827H588.976V21.388H593.097V23H587.052ZM595.05 23V13.38H598.209C600.328 13.38 601.966 14.121 601.966 16.409C601.966 18.606 600.328 19.581 598.261 19.581H596.974V23H595.05ZM596.974 18.06H598.131C599.457 18.06 600.094 17.501 600.094 16.409C600.094 15.278 599.392 14.914 598.066 14.914H596.974V18.06ZM609.071 23.182C607.55 23.182 606.536 22.584 605.808 21.869L606.705 20.66C607.238 21.193 607.927 21.635 608.811 21.635C609.825 21.635 610.514 21.037 610.514 19.984C610.514 18.957 609.864 18.359 608.902 18.359C608.33 18.359 608.018 18.515 607.459 18.879L606.575 18.307L606.848 13.627H611.996V15.239H608.499L608.317 17.28C608.694 17.098 609.032 17.02 609.474 17.02C611.086 17.02 612.438 17.93 612.438 19.932C612.438 21.999 610.839 23.182 609.071 23.182Z" fill="white"/>
</svg>
