<svg width="514" height="88" viewBox="0 0 514 88" fill="none" xmlns="http://www.w3.org/2000/svg">
<path d="M39.73 41.366H41.2V54.162H39.73V41.366ZM35.978 42.724H37.42C37.42 46.518 35.908 49.738 31.512 51.88L30.742 50.704C34.424 48.926 35.978 46.392 35.978 42.976V42.724ZM31.372 42.724H36.636V43.9H31.372V42.724ZM45.0209 41.856H46.4629V43.298H52.1329V41.856H53.5889V47.008H45.0209V41.856ZM46.4629 44.446V45.846H52.1329V44.446H46.4629ZM43.5089 48.254H55.0729V49.43H43.5089V48.254ZM48.5629 46.364H50.0189V48.758H48.5629V46.364ZM44.9649 52.72H53.7849V53.91H44.9649V52.72ZM44.9649 50.34H46.4349V53.14H44.9649V50.34ZM65.8798 41.366H67.2798V54.162H65.8798V41.366ZM64.0038 46.364H66.3138V47.554H64.0038V46.364ZM60.4758 42.976H61.8898C61.8898 46.406 60.7838 49.402 57.1718 51.474L56.3178 50.438C59.3978 48.674 60.4758 46.28 60.4758 43.27V42.976ZM56.8778 42.976H60.9378V44.166H56.8778V42.976ZM63.0378 41.702H64.4238V53.56H63.0378V41.702ZM70.0367 41.968H71.4927V47.498H70.0367V41.968ZM70.0367 47.232H70.9887C72.9767 47.232 74.5307 47.148 76.2947 46.826L76.4627 48.002C74.6427 48.352 73.0327 48.422 70.9887 48.422H70.0367V47.232ZM78.4087 41.366H79.8787V48.87H78.4087V41.366ZM75.0627 42.654H78.7867V43.788H75.0627V42.654ZM75.0627 44.922H78.7867V46.042H75.0627V44.922ZM71.5487 49.43H79.8787V54.008H71.5487V49.43ZM78.4367 50.592H72.9907V52.832H78.4367V50.592ZM39.702 61.352H41.172V74.176H39.702V61.352ZM34.354 62.304C36.272 62.304 37.658 64.054 37.658 66.812C37.658 69.57 36.272 71.334 34.354 71.334C32.45 71.334 31.064 69.57 31.064 66.812C31.064 64.054 32.45 62.304 34.354 62.304ZM34.354 63.634C33.234 63.634 32.464 64.824 32.464 66.812C32.464 68.814 33.234 70.018 34.354 70.018C35.474 70.018 36.244 68.814 36.244 66.812C36.244 64.824 35.474 63.634 34.354 63.634ZM43.4949 63.438H49.7389V64.614H43.4949V63.438ZM46.6309 65.342C48.2409 65.342 49.4029 66.574 49.4029 68.324C49.4029 70.074 48.2409 71.292 46.6309 71.292C45.0349 71.292 43.8589 70.074 43.8589 68.324C43.8589 66.574 45.0349 65.342 46.6309 65.342ZM46.6309 66.574C45.7769 66.574 45.1609 67.274 45.1609 68.324C45.1609 69.388 45.7769 70.06 46.6309 70.06C47.4849 70.06 48.1009 69.388 48.1009 68.324C48.1009 67.274 47.4849 66.574 46.6309 66.574ZM53.0149 61.366H54.4149V74.162H53.0149V61.366ZM51.1949 66.672H53.4769V67.862H51.1949V66.672ZM50.2989 61.632H51.6709V73.574H50.2989V61.632ZM45.9169 61.73H47.3589V64.166H45.9169V61.73ZM64.8578 61.366H66.3138V74.162H64.8578V61.366ZM65.9778 66.504H68.3018V67.722H65.9778V66.504ZM56.3318 63.34H63.8358V64.516H56.3318V63.34ZM60.1258 65.44C61.9458 65.44 63.2898 66.672 63.2898 68.422C63.2898 70.186 61.9458 71.418 60.1258 71.418C58.2918 71.418 56.9478 70.186 56.9478 68.422C56.9478 66.672 58.2918 65.44 60.1258 65.44ZM60.1258 66.644C59.0898 66.644 58.3478 67.344 58.3478 68.422C58.3478 69.5 59.0898 70.214 60.1258 70.214C61.1478 70.214 61.8898 69.5 61.8898 68.422C61.8898 67.344 61.1478 66.644 60.1258 66.644ZM59.3698 61.548H60.8398V63.83H59.3698V61.548ZM78.3667 61.366H79.8367V74.162H78.3667V61.366ZM74.6147 62.724H76.0567C76.0567 66.518 74.5447 69.738 70.1487 71.88L69.3787 70.704C73.0607 68.926 74.6147 66.392 74.6147 62.976V62.724ZM70.0087 62.724H75.2727V63.9H70.0087V62.724Z" fill="#272928"/>
<path d="M154.79 41.786H156.078V42.444C156.078 44.894 153.824 46.798 150.87 47.274L150.296 46.084C152.886 45.72 154.79 44.124 154.79 42.444V41.786ZM155.056 41.786H156.33V42.444C156.33 44.096 158.248 45.72 160.838 46.084L160.264 47.274C157.31 46.798 155.056 44.88 155.056 42.444V41.786ZM154.79 49.374H156.246V54.162H154.79V49.374ZM149.778 48.45H161.342V49.654H149.778V48.45ZM162.671 42.612H170.203V43.788H162.671V42.612ZM166.437 44.334C168.271 44.334 169.531 45.258 169.531 46.672C169.531 48.072 168.271 48.982 166.437 48.982C164.603 48.982 163.329 48.072 163.329 46.672C163.329 45.258 164.603 44.334 166.437 44.334ZM166.437 45.454C165.429 45.454 164.743 45.902 164.743 46.672C164.743 47.414 165.429 47.876 166.437 47.876C167.445 47.876 168.131 47.414 168.131 46.672C168.131 45.902 167.445 45.454 166.437 45.454ZM171.169 41.366H172.639V49.374H171.169V41.366ZM172.233 44.796H174.445V46H172.233V44.796ZM164.225 50.004H172.639V54.162H171.169V51.18H164.225V50.004ZM165.709 41.296H167.165V43.284H165.709V41.296ZM175.984 55.814L175.634 54.904C176.6 54.498 177.16 53.784 177.16 52.944L177.048 51.656L177.72 52.706C177.524 52.916 177.272 53 177.006 53C176.432 53 175.914 52.622 175.914 51.964C175.914 51.32 176.432 50.928 177.048 50.928C177.832 50.928 178.294 51.572 178.294 52.65C178.294 54.134 177.44 55.268 175.984 55.814ZM183.396 42.71H189.066V43.886H183.396V42.71ZM185.244 46.364H186.686V50.704H185.244V46.364ZM188.464 42.71H189.92V43.55C189.92 44.684 189.92 46.294 189.556 48.562L188.114 48.436C188.464 46.238 188.464 44.67 188.464 43.55V42.71ZM191.292 41.366H192.748V54.162H191.292V41.366ZM192.342 46.616H194.652V47.848H192.342V46.616ZM182.878 51.46L182.724 50.256C185.006 50.256 188.044 50.214 190.606 49.892L190.676 50.97C188.058 51.404 185.118 51.46 182.878 51.46ZM195.743 42.612H203.275V43.788H195.743V42.612ZM199.509 44.334C201.343 44.334 202.603 45.258 202.603 46.672C202.603 48.072 201.343 48.982 199.509 48.982C197.675 48.982 196.401 48.072 196.401 46.672C196.401 45.258 197.675 44.334 199.509 44.334ZM199.509 45.454C198.501 45.454 197.815 45.902 197.815 46.672C197.815 47.414 198.501 47.876 199.509 47.876C200.517 47.876 201.203 47.414 201.203 46.672C201.203 45.902 200.517 45.454 199.509 45.454ZM204.241 41.366H205.711V49.374H204.241V41.366ZM205.305 44.796H207.517V46H205.305V44.796ZM197.297 50.004H205.711V54.162H204.241V51.18H197.297V50.004ZM198.781 41.296H200.237V43.284H198.781V41.296ZM212.914 42.556H221.076V43.746H212.914V42.556ZM211.752 51.278H223.316V52.482H211.752V51.278ZM214.398 47.148H215.854V51.684H214.398V47.148ZM220.642 42.556H222.098V43.9C222.098 45.496 222.098 47.204 221.65 49.682L220.194 49.528C220.642 47.19 220.642 45.454 220.642 43.9V42.556ZM217.562 47.148H219.004V51.684H217.562V47.148ZM225.177 42.71H230.847V43.886H225.177V42.71ZM227.025 46.364H228.467V50.704H227.025V46.364ZM230.245 42.71H231.701V43.55C231.701 44.684 231.701 46.294 231.337 48.562L229.895 48.436C230.245 46.238 230.245 44.67 230.245 43.55V42.71ZM233.073 41.366H234.529V54.162H233.073V41.366ZM234.123 46.616H236.433V47.848H234.123V46.616ZM224.659 51.46L224.505 50.256C226.787 50.256 229.825 50.214 232.387 49.892L232.457 50.97C229.839 51.404 226.899 51.46 224.659 51.46ZM173.738 63.27H177.546V64.46H173.738V63.27ZM173.738 66.35H177.546V67.54H173.738V66.35ZM177.014 61.38H178.484V70.788H177.014V61.38ZM170.196 72.72H178.806V73.91H170.196V72.72ZM170.196 69.836H171.652V73.294H170.196V69.836ZM171.386 62.164C173.276 62.164 174.718 63.508 174.718 65.412C174.718 67.302 173.276 68.66 171.386 68.66C169.496 68.66 168.054 67.302 168.054 65.412C168.054 63.508 169.496 62.164 171.386 62.164ZM171.386 63.452C170.28 63.452 169.454 64.236 169.454 65.412C169.454 66.588 170.28 67.372 171.386 67.372C172.492 67.372 173.318 66.588 173.318 65.412C173.318 64.236 172.492 63.452 171.386 63.452ZM185.707 64.838H188.437V66.014H185.707V64.838ZM185.623 68.044H188.395V69.22H185.623V68.044ZM190.285 61.366H191.699V74.162H190.285V61.366ZM187.695 61.674H189.067V73.546H187.695V61.674ZM184.825 62.934H186.239C186.239 66.406 185.007 69.374 181.507 71.446L180.667 70.41C183.621 68.632 184.825 66.266 184.825 63.214V62.934ZM181.311 62.934H185.357V64.124H181.311V62.934ZM202.1 61.366H203.556V74.162H202.1V61.366ZM203.22 66.504H205.544V67.722H203.22V66.504ZM193.574 63.34H201.078V64.516H193.574V63.34ZM197.368 65.44C199.188 65.44 200.532 66.672 200.532 68.422C200.532 70.186 199.188 71.418 197.368 71.418C195.534 71.418 194.19 70.186 194.19 68.422C194.19 66.672 195.534 65.44 197.368 65.44ZM197.368 66.644C196.332 66.644 195.59 67.344 195.59 68.422C195.59 69.5 196.332 70.214 197.368 70.214C198.39 70.214 199.132 69.5 199.132 68.422C199.132 67.344 198.39 66.644 197.368 66.644ZM196.612 61.548H198.082V63.83H196.612V61.548ZM215.609 61.366H217.079V74.162H215.609V61.366ZM211.857 62.724H213.299C213.299 66.518 211.787 69.738 207.391 71.88L206.621 70.704C210.303 68.926 211.857 66.392 211.857 62.976V62.724ZM207.251 62.724H212.515V63.9H207.251V62.724Z" fill="#272928"/>
<path d="M284.921 47.806H296.513V48.982H284.921V47.806ZM290.101 48.548H291.557V51.376H290.101V48.548ZM286.377 41.94H295.015V46.546H286.377V41.94ZM293.573 43.102H287.819V45.384H293.573V43.102ZM286.335 52.72H295.225V53.91H286.335V52.72ZM286.335 50.214H287.791V53.126H286.335V50.214ZM307.32 41.366H308.72V54.162H307.32V41.366ZM302.854 45.86H305.164V47.064H302.854V45.86ZM304.744 41.618H306.116V53.532H304.744V41.618ZM300.264 43.396H301.384V44.88C301.384 47.708 300.432 50.452 298.486 51.684L297.604 50.592C299.424 49.472 300.264 47.162 300.264 44.88V43.396ZM300.586 43.396H301.692V44.88C301.692 47.064 302.504 49.248 304.296 50.298L303.428 51.376C301.482 50.214 300.586 47.624 300.586 44.88V43.396ZM298.01 42.766H303.792V43.956H298.01V42.766ZM310.665 43.438H316.909V44.614H310.665V43.438ZM313.801 45.342C315.411 45.342 316.573 46.574 316.573 48.324C316.573 50.074 315.411 51.292 313.801 51.292C312.205 51.292 311.029 50.074 311.029 48.324C311.029 46.574 312.205 45.342 313.801 45.342ZM313.801 46.574C312.947 46.574 312.331 47.274 312.331 48.324C312.331 49.388 312.947 50.06 313.801 50.06C314.655 50.06 315.271 49.388 315.271 48.324C315.271 47.274 314.655 46.574 313.801 46.574ZM320.185 41.366H321.585V54.162H320.185V41.366ZM318.365 46.672H320.647V47.862H318.365V46.672ZM317.469 41.632H318.841V53.574H317.469V41.632ZM313.087 41.73H314.529V44.166H313.087V41.73ZM332.7 41.366H334.17V47.848H332.7V41.366ZM328.556 41.926H330.152C330.152 45.23 328.038 47.26 324.244 48.142L323.74 46.952C327.002 46.238 328.556 44.684 328.556 42.696V41.926ZM324.44 41.926H329.186V43.116H324.44V41.926ZM329.676 43.102H332.91V44.236H329.676V43.102ZM329.578 45.566H332.84V46.686H329.578V45.566ZM325.84 48.38H334.17V51.698H327.324V53.532H325.868V50.592H332.7V49.542H325.84V48.38ZM325.868 52.874H334.52V54.036H325.868V52.874ZM340.141 42.71H345.811V43.886H340.141V42.71ZM341.989 46.364H343.431V50.704H341.989V46.364ZM345.209 42.71H346.665V43.55C346.665 44.684 346.665 46.294 346.301 48.562L344.859 48.436C345.209 46.238 345.209 44.67 345.209 43.55V42.71ZM348.037 41.366H349.493V54.162H348.037V41.366ZM349.087 46.616H351.397V47.848H349.087V46.616ZM339.623 51.46L339.469 50.256C341.751 50.256 344.789 50.214 347.351 49.892L347.421 50.97C344.803 51.404 341.863 51.46 339.623 51.46ZM359.348 44.586H362.022V45.79H359.348V44.586ZM361.602 41.366H363.072V48.982H361.602V41.366ZM358.802 49.318C361.476 49.318 363.114 50.228 363.114 51.74C363.114 53.28 361.476 54.162 358.802 54.162C356.128 54.162 354.49 53.28 354.49 51.74C354.49 50.228 356.128 49.318 358.802 49.318ZM358.802 50.452C356.996 50.452 355.946 50.9 355.946 51.74C355.946 52.58 356.996 53.028 358.802 53.028C360.622 53.028 361.658 52.58 361.658 51.74C361.658 50.9 360.622 50.452 358.802 50.452ZM355.596 42.654H356.786V43.592C356.786 45.986 355.484 48.1 353.216 48.912L352.46 47.75C354.462 47.05 355.596 45.342 355.596 43.592V42.654ZM355.89 42.654H357.066V43.578C357.066 45.174 358.158 46.756 360.076 47.414L359.348 48.576C357.136 47.806 355.89 45.79 355.89 43.578V42.654ZM352.88 42.234H359.74V43.41H352.88V42.234ZM306.26 64.586H308.934V65.79H306.26V64.586ZM308.514 61.366H309.984V68.982H308.514V61.366ZM305.714 69.318C308.388 69.318 310.026 70.228 310.026 71.74C310.026 73.28 308.388 74.162 305.714 74.162C303.04 74.162 301.402 73.28 301.402 71.74C301.402 70.228 303.04 69.318 305.714 69.318ZM305.714 70.452C303.908 70.452 302.858 70.9 302.858 71.74C302.858 72.58 303.908 73.028 305.714 73.028C307.534 73.028 308.57 72.58 308.57 71.74C308.57 70.9 307.534 70.452 305.714 70.452ZM302.508 62.654H303.698V63.592C303.698 65.986 302.396 68.1 300.128 68.912L299.372 67.75C301.374 67.05 302.508 65.342 302.508 63.592V62.654ZM302.802 62.654H303.978V63.578C303.978 65.174 305.07 66.756 306.988 67.414L306.26 68.576C304.048 67.806 302.802 65.79 302.802 63.578V62.654ZM299.792 62.234H306.652V63.41H299.792V62.234ZM321.351 61.352H322.821V74.176H321.351V61.352ZM312.979 69.934H314.071C316.269 69.934 318.131 69.85 320.287 69.486L320.441 70.676C318.229 71.054 316.325 71.138 314.071 71.138H312.979V69.934ZM312.951 62.5H318.915V67.246H314.463V70.382H312.979V66.07H317.431V63.69H312.951V62.5ZM333.6 61.366H335.056V74.162H333.6V61.366ZM334.72 66.504H337.044V67.722H334.72V66.504ZM325.074 63.34H332.578V64.516H325.074V63.34ZM328.868 65.44C330.688 65.44 332.032 66.672 332.032 68.422C332.032 70.186 330.688 71.418 328.868 71.418C327.034 71.418 325.69 70.186 325.69 68.422C325.69 66.672 327.034 65.44 328.868 65.44ZM328.868 66.644C327.832 66.644 327.09 67.344 327.09 68.422C327.09 69.5 327.832 70.214 328.868 70.214C329.89 70.214 330.632 69.5 330.632 68.422C330.632 67.344 329.89 66.644 328.868 66.644ZM328.112 61.548H329.582V63.83H328.112V61.548ZM347.109 61.366H348.579V74.162H347.109V61.366ZM343.357 62.724H344.799C344.799 66.518 343.287 69.738 338.891 71.88L338.121 70.704C341.803 68.926 343.357 66.392 343.357 62.976V62.724ZM338.751 62.724H344.015V63.9H338.751V62.724Z" fill="#272928"/>
<path d="M425.374 51.39H436.966V52.594H425.374V51.39ZM430.428 48.408H431.884V51.754H430.428V48.408ZM430.386 43.004H431.632V43.648C431.632 46.308 429.308 48.352 426.466 48.912L425.878 47.75C428.37 47.344 430.386 45.566 430.386 43.648V43.004ZM430.68 43.004H431.912V43.648C431.912 45.566 433.942 47.302 436.476 47.694L435.902 48.856C433.004 48.31 430.68 46.308 430.68 43.648V43.004ZM426.326 42.444H435.972V43.634H426.326V42.444ZM447.381 41.366H448.851V50.774H447.381V41.366ZM444.861 45.216H447.619V46.42H444.861V45.216ZM443.391 42.346H444.931C444.931 45.706 442.691 48.226 439.037 49.416L438.421 48.24C441.473 47.246 443.391 45.342 443.391 42.976V42.346ZM439.065 42.346H444.343V43.536H439.065V42.346ZM440.633 52.72H449.173V53.91H440.633V52.72ZM440.633 49.836H442.103V53.364H440.633V49.836ZM456.284 46.224H458.552V47.414H456.284V46.224ZM460.652 41.366H462.052V54.162H460.652V41.366ZM458.076 41.604H459.462V53.546H458.076V41.604ZM454.002 42.36C455.682 42.36 456.76 44.096 456.76 46.896C456.76 49.71 455.682 51.446 454.002 51.446C452.336 51.446 451.258 49.71 451.258 46.896C451.258 44.096 452.336 42.36 454.002 42.36ZM454.002 43.732C453.134 43.732 452.602 44.88 452.602 46.896C452.602 48.912 453.134 50.06 454.002 50.06C454.884 50.06 455.416 48.912 455.416 46.896C455.416 44.88 454.884 43.732 454.002 43.732ZM467.604 42.206H473.582V47.764H467.604V42.206ZM472.14 43.382H469.046V46.588H472.14V43.382ZM475.668 41.366H477.138V48.604H475.668V41.366ZM476.732 44.306H478.944V45.51H476.732V44.306ZM472.322 49.836H473.568V50.158C473.568 52.16 471.664 53.7 468.892 54.12L468.346 53C470.754 52.664 472.322 51.446 472.322 50.158V49.836ZM472.63 49.836H473.876V50.158C473.876 51.418 475.472 52.664 477.838 53.014L477.306 54.134C474.548 53.728 472.63 52.118 472.63 50.158V49.836ZM468.864 49.29H477.334V50.452H468.864V49.29ZM481.533 45.034H490.297V46.21H481.533V45.034ZM480.021 47.75H491.613V48.94H480.021V47.75ZM481.533 41.828H482.989V45.622H481.533V41.828ZM481.435 52.678H490.367V53.868H481.435V52.678ZM481.435 50.102H482.891V53H481.435V50.102ZM427.447 61.366H428.917V68.198H427.447V61.366ZM428.511 64.25H430.723V65.454H428.511V64.25ZM419.467 66.644H420.489C423.191 66.644 424.619 66.56 426.257 66.224L426.411 67.4C424.731 67.764 423.247 67.834 420.489 67.834H419.467V66.644ZM419.467 62.178H425.123V63.354H420.923V67.442H419.467V62.178ZM420.727 68.856H422.183V70.256H427.461V68.856H428.917V73.98H420.727V68.856ZM422.183 71.404V72.79H427.461V71.404H422.183ZM440.326 61.366H441.796V70.732H440.326V61.366ZM441.362 65.146H443.602V66.364H441.362V65.146ZM433.704 72.72H442.314V73.91H433.704V72.72ZM433.704 69.766H435.174V73.224H433.704V69.766ZM435.37 62.234C437.302 62.234 438.772 63.564 438.772 65.426C438.772 67.288 437.302 68.618 435.37 68.618C433.438 68.618 431.982 67.288 431.982 65.426C431.982 63.564 433.438 62.234 435.37 62.234ZM435.37 63.508C434.264 63.508 433.41 64.264 433.41 65.426C433.41 66.588 434.264 67.344 435.37 67.344C436.49 67.344 437.344 66.588 437.344 65.426C437.344 64.264 436.49 63.508 435.37 63.508ZM447.703 62.682H448.907V63.606C448.907 65.986 447.605 68.044 445.337 68.814L444.567 67.68C446.583 66.994 447.703 65.342 447.703 63.606V62.682ZM447.983 62.682H449.173V63.606C449.173 65.216 450.251 66.784 452.211 67.428L451.469 68.576C449.229 67.82 447.983 65.846 447.983 63.606V62.682ZM444.987 62.192H451.861V63.382H444.987V62.192ZM453.205 61.366H454.675V69.066H453.205V61.366ZM454.269 64.614H456.481V65.832H454.269V64.614ZM446.261 69.696H454.675V74.162H453.205V70.886H446.261V69.696ZM460.68 62.066H461.898V63.298C461.898 65.818 460.61 67.946 458.272 68.772L457.502 67.582C459.56 66.896 460.68 65.174 460.68 63.298V62.066ZM460.96 62.066H462.15V63.242C462.15 65.006 463.214 66.602 465.16 67.246L464.376 68.394C462.178 67.596 460.96 65.636 460.96 63.242V62.066ZM466.7 61.366H468.17V68.898H466.7V61.366ZM463.9 69.262C466.574 69.262 468.212 70.158 468.212 71.698C468.212 73.252 466.574 74.148 463.9 74.148C461.226 74.148 459.588 73.252 459.588 71.698C459.588 70.158 461.226 69.262 463.9 69.262ZM463.9 70.41C462.094 70.41 461.044 70.872 461.044 71.698C461.044 72.538 462.094 73 463.9 73C465.72 73 466.756 72.538 466.756 71.698C466.756 70.872 465.72 70.41 463.9 70.41ZM464.11 63.9H466.952V65.104H464.11V63.9ZM473.581 68.632H485.145V69.78H473.581V68.632ZM478.761 69.486H480.217V71.544H478.761V69.486ZM474.995 72.748H483.885V73.91H474.995V72.748ZM474.995 70.732H476.451V73.434H474.995V70.732ZM474.169 62.486H484.515V63.606H474.169V62.486ZM479.363 64.068C482.037 64.068 483.563 64.754 483.563 66.014C483.563 67.288 482.037 67.974 479.363 67.974C476.703 67.974 475.163 67.288 475.163 66.014C475.163 64.754 476.703 64.068 479.363 64.068ZM479.363 65.118C477.571 65.118 476.661 65.412 476.661 66.014C476.661 66.616 477.571 66.924 479.363 66.924C481.155 66.924 482.065 66.616 482.065 66.014C482.065 65.412 481.155 65.118 479.363 65.118ZM478.635 61.268H480.091V63.158H478.635V61.268ZM486.978 67.974H487.916C490.226 67.974 491.556 67.918 493.124 67.638L493.278 68.828C491.668 69.108 490.282 69.164 487.916 69.164H486.978V67.974ZM486.95 62.262H492.508V66.168H488.434V68.674H486.978V65.048H491.052V63.438H486.95V62.262ZM495.602 61.38H497.072V70.802H495.602V61.38ZM493.32 63.424H495.91V64.6H493.32V63.424ZM488.686 72.678H497.422V73.868H488.686V72.678ZM488.686 70.102H490.142V73.154H488.686V70.102ZM493.32 66.294H495.91V67.484H493.32V66.294Z" fill="#272928"/>
<rect x="0.5" y="17.5" width="111" height="70" stroke="#EAEAEA"/>
<rect x="15" width="81" height="34.1053" rx="17.0526" fill="#195CCD"/>
<path d="M38.056 23.182C36.756 23.182 35.482 22.688 34.546 21.791L35.651 20.465C36.327 21.102 37.25 21.518 38.095 21.518C39.096 21.518 39.616 21.089 39.616 20.426C39.616 19.711 39.031 19.477 38.173 19.113L36.886 18.567C35.924 18.177 34.936 17.384 34.936 15.993C34.936 14.42 36.327 13.211 38.264 13.211C39.382 13.211 40.5 13.653 41.28 14.446L40.318 15.655C39.694 15.148 39.057 14.862 38.264 14.862C37.419 14.862 36.886 15.239 36.886 15.863C36.886 16.552 37.575 16.812 38.394 17.137L39.655 17.657C40.812 18.138 41.579 18.892 41.579 20.27C41.579 21.843 40.266 23.182 38.056 23.182ZM44.8381 23V14.979H42.1211V13.38H49.4791V14.979H46.7621V23H44.8381ZM51.0521 23V13.38H56.9541V14.979H52.9761V17.202H56.3431V18.827H52.9761V21.388H57.0971V23H51.0521ZM59.0502 23V13.38H62.2092C64.3282 13.38 65.9662 14.121 65.9662 16.409C65.9662 18.606 64.3282 19.581 62.2612 19.581H60.9742V23H59.0502ZM60.9742 18.06H62.1312C63.4572 18.06 64.0942 17.501 64.0942 16.409C64.0942 15.278 63.3922 14.914 62.0662 14.914H60.9742V18.06ZM70.5364 23V21.453H72.6164V15.629H70.8614V14.446C71.8364 14.251 72.4864 14.004 73.1104 13.627H74.5274V21.453H76.3344V23H70.5364Z" fill="white"/>
<rect x="0.5" y="17.5" width="111" height="70" stroke="#EAEAEA"/>
<rect x="15" width="81" height="34.1053" rx="17.0526" fill="#195CCD"/>
<path d="M38.056 23.182C36.756 23.182 35.482 22.688 34.546 21.791L35.651 20.465C36.327 21.102 37.25 21.518 38.095 21.518C39.096 21.518 39.616 21.089 39.616 20.426C39.616 19.711 39.031 19.477 38.173 19.113L36.886 18.567C35.924 18.177 34.936 17.384 34.936 15.993C34.936 14.42 36.327 13.211 38.264 13.211C39.382 13.211 40.5 13.653 41.28 14.446L40.318 15.655C39.694 15.148 39.057 14.862 38.264 14.862C37.419 14.862 36.886 15.239 36.886 15.863C36.886 16.552 37.575 16.812 38.394 17.137L39.655 17.657C40.812 18.138 41.579 18.892 41.579 20.27C41.579 21.843 40.266 23.182 38.056 23.182ZM44.8381 23V14.979H42.1211V13.38H49.4791V14.979H46.7621V23H44.8381ZM51.0521 23V13.38H56.9541V14.979H52.9761V17.202H56.3431V18.827H52.9761V21.388H57.0971V23H51.0521ZM59.0502 23V13.38H62.2092C64.3282 13.38 65.9662 14.121 65.9662 16.409C65.9662 18.606 64.3282 19.581 62.2612 19.581H60.9742V23H59.0502ZM60.9742 18.06H62.1312C63.4572 18.06 64.0942 17.501 64.0942 16.409C64.0942 15.278 63.3922 14.914 62.0662 14.914H60.9742V18.06ZM70.5364 23V21.453H72.6164V15.629H70.8614V14.446C71.8364 14.251 72.4864 14.004 73.1104 13.627H74.5274V21.453H76.3344V23H70.5364Z" fill="white"/>
<rect x="134.5" y="17.5" width="111" height="70" stroke="#EAEAEA"/>
<rect x="149" width="81" height="34.1053" rx="17.0526" fill="#195CCD"/>
<path d="M172.056 23.182C170.756 23.182 169.482 22.688 168.546 21.791L169.651 20.465C170.327 21.102 171.25 21.518 172.095 21.518C173.096 21.518 173.616 21.089 173.616 20.426C173.616 19.711 173.031 19.477 172.173 19.113L170.886 18.567C169.924 18.177 168.936 17.384 168.936 15.993C168.936 14.42 170.327 13.211 172.264 13.211C173.382 13.211 174.5 13.653 175.28 14.446L174.318 15.655C173.694 15.148 173.057 14.862 172.264 14.862C171.419 14.862 170.886 15.239 170.886 15.863C170.886 16.552 171.575 16.812 172.394 17.137L173.655 17.657C174.812 18.138 175.579 18.892 175.579 20.27C175.579 21.843 174.266 23.182 172.056 23.182ZM178.838 23V14.979H176.121V13.38H183.479V14.979H180.762V23H178.838ZM185.052 23V13.38H190.954V14.979H186.976V17.202H190.343V18.827H186.976V21.388H191.097V23H185.052ZM193.05 23V13.38H196.209C198.328 13.38 199.966 14.121 199.966 16.409C199.966 18.606 198.328 19.581 196.261 19.581H194.974V23H193.05ZM194.974 18.06H196.131C197.457 18.06 198.094 17.501 198.094 16.409C198.094 15.278 197.392 14.914 196.066 14.914H194.974V18.06ZM204.536 23V21.453H206.616V15.629H204.861V14.446C205.836 14.251 206.486 14.004 207.11 13.627H208.527V21.453H210.334V23H204.536Z" fill="white"/>
<rect x="134.5" y="17.5" width="111" height="70" stroke="#EAEAEA"/>
<rect x="149" width="81" height="34.1053" rx="17.0526" fill="#195CCD"/>
<path d="M172.056 23.182C170.756 23.182 169.482 22.688 168.546 21.791L169.651 20.465C170.327 21.102 171.25 21.518 172.095 21.518C173.096 21.518 173.616 21.089 173.616 20.426C173.616 19.711 173.031 19.477 172.173 19.113L170.886 18.567C169.924 18.177 168.936 17.384 168.936 15.993C168.936 14.42 170.327 13.211 172.264 13.211C173.382 13.211 174.5 13.653 175.28 14.446L174.318 15.655C173.694 15.148 173.057 14.862 172.264 14.862C171.419 14.862 170.886 15.239 170.886 15.863C170.886 16.552 171.575 16.812 172.394 17.137L173.655 17.657C174.812 18.138 175.579 18.892 175.579 20.27C175.579 21.843 174.266 23.182 172.056 23.182ZM178.838 23V14.979H176.121V13.38H183.479V14.979H180.762V23H178.838ZM185.052 23V13.38H190.954V14.979H186.976V17.202H190.343V18.827H186.976V21.388H191.097V23H185.052ZM193.05 23V13.38H196.209C198.328 13.38 199.966 14.121 199.966 16.409C199.966 18.606 198.328 19.581 196.261 19.581H194.974V23H193.05ZM194.974 18.06H196.131C197.457 18.06 198.094 17.501 198.094 16.409C198.094 15.278 197.392 14.914 196.066 14.914H194.974V18.06ZM204.029 23V21.908C206.538 19.503 208.189 17.878 208.189 16.474C208.189 15.525 207.682 14.953 206.759 14.953C206.044 14.953 205.485 15.434 204.991 15.954L203.938 14.914C204.822 13.965 205.693 13.458 207.006 13.458C208.813 13.458 210.035 14.602 210.035 16.383C210.035 18.008 208.514 19.711 206.798 21.505C207.279 21.453 207.916 21.388 208.371 21.388H210.477V23H204.029Z" fill="white"/>
<rect x="268.5" y="17.5" width="111" height="70" stroke="#EAEAEA"/>
<rect x="283" width="81" height="34.1053" rx="17.0526" fill="#195CCD"/>
<path d="M306.056 23.182C304.756 23.182 303.482 22.688 302.546 21.791L303.651 20.465C304.327 21.102 305.25 21.518 306.095 21.518C307.096 21.518 307.616 21.089 307.616 20.426C307.616 19.711 307.031 19.477 306.173 19.113L304.886 18.567C303.924 18.177 302.936 17.384 302.936 15.993C302.936 14.42 304.327 13.211 306.264 13.211C307.382 13.211 308.5 13.653 309.28 14.446L308.318 15.655C307.694 15.148 307.057 14.862 306.264 14.862C305.419 14.862 304.886 15.239 304.886 15.863C304.886 16.552 305.575 16.812 306.394 17.137L307.655 17.657C308.812 18.138 309.579 18.892 309.579 20.27C309.579 21.843 308.266 23.182 306.056 23.182ZM312.838 23V14.979H310.121V13.38H317.479V14.979H314.762V23H312.838ZM319.052 23V13.38H324.954V14.979H320.976V17.202H324.343V18.827H320.976V21.388H325.097V23H319.052ZM327.05 23V13.38H330.209C332.328 13.38 333.966 14.121 333.966 16.409C333.966 18.606 332.328 19.581 330.261 19.581H328.974V23H327.05ZM328.974 18.06H330.131C331.457 18.06 332.094 17.501 332.094 16.409C332.094 15.278 331.392 14.914 330.066 14.914H328.974V18.06ZM341.032 23.182C339.511 23.182 338.484 22.623 337.808 21.843L338.718 20.634C339.29 21.193 339.979 21.635 340.85 21.635C341.838 21.635 342.501 21.167 342.501 20.348C342.501 19.451 341.942 18.879 339.849 18.879V17.501C341.617 17.501 342.189 16.916 342.189 16.11C342.189 15.382 341.721 14.953 340.902 14.953C340.213 14.953 339.654 15.291 339.082 15.824L338.107 14.641C338.939 13.926 339.862 13.458 340.98 13.458C342.839 13.458 344.1 14.368 344.1 15.967C344.1 16.981 343.515 17.683 342.501 18.099V18.151C343.593 18.45 344.425 19.243 344.425 20.465C344.425 22.194 342.878 23.182 341.032 23.182Z" fill="white"/>
<rect x="402.5" y="17.5" width="111" height="70" stroke="#EAEAEA"/>
<rect x="417" width="81" height="34.1053" rx="17.0526" fill="#195CCD"/>
<path d="M440.056 23.182C438.756 23.182 437.482 22.688 436.546 21.791L437.651 20.465C438.327 21.102 439.25 21.518 440.095 21.518C441.096 21.518 441.616 21.089 441.616 20.426C441.616 19.711 441.031 19.477 440.173 19.113L438.886 18.567C437.924 18.177 436.936 17.384 436.936 15.993C436.936 14.42 438.327 13.211 440.264 13.211C441.382 13.211 442.5 13.653 443.28 14.446L442.318 15.655C441.694 15.148 441.057 14.862 440.264 14.862C439.419 14.862 438.886 15.239 438.886 15.863C438.886 16.552 439.575 16.812 440.394 17.137L441.655 17.657C442.812 18.138 443.579 18.892 443.579 20.27C443.579 21.843 442.266 23.182 440.056 23.182ZM446.838 23V14.979H444.121V13.38H451.479V14.979H448.762V23H446.838ZM453.052 23V13.38H458.954V14.979H454.976V17.202H458.343V18.827H454.976V21.388H459.097V23H453.052ZM461.05 23V13.38H464.209C466.328 13.38 467.966 14.121 467.966 16.409C467.966 18.606 466.328 19.581 464.261 19.581H462.974V23H461.05ZM462.974 18.06H464.131C465.457 18.06 466.094 17.501 466.094 16.409C466.094 15.278 465.392 14.914 464.066 14.914H462.974V18.06ZM475.851 23V17.345C475.851 16.786 475.903 15.889 475.929 15.33H475.877C475.63 15.837 475.37 16.318 475.097 16.851L473.615 19.204H478.776V20.673H471.756V19.36L475.331 13.627H477.632V23H475.851Z" fill="white"/>
</svg>
