<svg width="253" height="158" viewBox="0 0 253 158" fill="none" xmlns="http://www.w3.org/2000/svg">
<rect y="65" width="70" height="34" rx="5" fill="#195CCD"/>
<path d="M28.592 79.384H31.648V80.76H28.592V79.384ZM31.168 75.704H32.848V84.408H31.168V75.704ZM27.968 84.792C31.024 84.792 32.896 85.832 32.896 87.56C32.896 89.32 31.024 90.328 27.968 90.328C24.912 90.328 23.04 89.32 23.04 87.56C23.04 85.832 24.912 84.792 27.968 84.792ZM27.968 86.088C25.904 86.088 24.704 86.6 24.704 87.56C24.704 88.52 25.904 89.032 27.968 89.032C30.048 89.032 31.232 88.52 31.232 87.56C31.232 86.6 30.048 86.088 27.968 86.088ZM24.304 77.176H25.664V78.248C25.664 80.984 24.176 83.4 21.584 84.328L20.72 83C23.008 82.2 24.304 80.248 24.304 78.248V77.176ZM24.64 77.176H25.984V78.232C25.984 80.056 27.232 81.864 29.424 82.616L28.592 83.944C26.064 83.064 24.64 80.76 24.64 78.232V77.176ZM21.2 76.696H29.04V78.04H21.2V76.696ZM39.1668 76.904H40.5428V79.304C40.5428 82.84 38.9588 86.088 36.3348 87.368L35.3268 85.976C37.6628 84.92 39.1668 82.104 39.1668 79.304V76.904ZM39.4868 76.904H40.8468V79.304C40.8468 81.992 42.3348 84.68 44.6388 85.704L43.6468 87.048C41.0708 85.832 39.4868 82.712 39.4868 79.304V76.904ZM45.8068 75.688H47.4868V90.344H45.8068V75.688Z" fill="white"/>
<rect x="183" width="70" height="34" rx="5" fill="#173FB8"/>
<path d="M213.384 10.688H215.064V25.312H213.384V10.688ZM214.616 16.48H217.256V17.856H214.616V16.48ZM209.592 12.24H211.24C211.24 16.496 209.432 20.256 204.648 22.656L203.704 21.376C207.656 19.36 209.592 16.432 209.592 12.528V12.24ZM204.44 12.24H210.456V13.6H204.44V12.24ZM220.103 11.44H229.399V12.784H220.103V11.44ZM218.455 17.024H231.703V18.368H218.455V17.024ZM224.311 17.84H225.975V21.696H224.311V17.84ZM228.407 11.44H230.055V12.64C230.055 14 230.055 15.552 229.575 17.696L227.927 17.504C228.407 15.44 228.407 13.968 228.407 12.64V11.44ZM220.055 23.68H230.311V25.04H220.055V23.68ZM220.055 20.4H221.735V24H220.055V20.4Z" fill="white"/>
<rect x="183" y="62" width="70" height="34" rx="5" fill="#173FB8"/>
<path d="M214.616 78.4H217.256V79.792H214.616V78.4ZM213.384 72.688H215.064V87.312H213.384V72.688ZM204.248 74.112H205.912V83.184H204.248V74.112ZM204.248 82.272H205.448C207.576 82.272 209.816 82.128 212.2 81.648L212.392 83.024C209.928 83.536 207.64 83.68 205.448 83.68H204.248V82.272ZM220.103 73.44H229.399V74.784H220.103V73.44ZM218.455 79.024H231.703V80.368H218.455V79.024ZM224.311 79.84H225.975V83.696H224.311V79.84ZM228.407 73.44H230.055V74.64C230.055 76 230.055 77.552 229.575 79.696L227.927 79.504C228.407 77.44 228.407 75.968 228.407 74.64V73.44ZM220.055 85.68H230.311V87.04H220.055V85.68ZM220.055 82.4H221.735V86H220.055V82.4Z" fill="white"/>
<rect x="183" y="124" width="70" height="34" rx="5" fill="#173FB8"/>
<path d="M213.384 134.688H215.064V149.344H213.384V134.688ZM214.68 140.304H217.336V141.696H214.68V140.304ZM204.328 144.368H205.512C208.104 144.368 210.024 144.272 212.184 143.872L212.36 145.28C210.12 145.68 208.168 145.76 205.512 145.76H204.328V144.368ZM204.328 136.08H211.128V137.44H205.992V145.008H204.328V136.08ZM220.103 135.44H229.399V136.784H220.103V135.44ZM218.455 141.024H231.703V142.368H218.455V141.024ZM224.311 141.84H225.975V145.696H224.311V141.84ZM228.407 135.44H230.055V136.64C230.055 138 230.055 139.552 229.575 141.696L227.927 141.504C228.407 139.44 228.407 137.968 228.407 136.64V135.44ZM220.055 147.68H230.311V149.04H220.055V147.68ZM220.055 144.4H221.735V148H220.055V144.4Z" fill="white"/>
<line x1="79" y1="80.5" x2="172" y2="80.5" stroke="#828282" stroke-dasharray="6 6"/>
<line x1="172" y1="17.5" x2="104" y2="17.5" stroke="#828282" stroke-dasharray="6 6"/>
<line x1="172" y1="139.5" x2="104" y2="139.5" stroke="#828282" stroke-dasharray="6 6"/>
<line x1="104.5" y1="17" x2="104.5" y2="140" stroke="#828282" stroke-dasharray="6 6"/>
</svg>
