<svg width="545" height="384" viewBox="0 0 545 384" fill="none" xmlns="http://www.w3.org/2000/svg">
<circle cx="86.5" cy="176.5" r="86.5" fill="#173FB8"/>
<circle cx="86.5" cy="176.5" r="81.5" fill="white"/>
<circle cx="86.5" cy="176.5" r="78.5" fill="#173FB8"/>
<path d="M20.04 169.38H30.72V170.74H20.04V169.38ZM25.38 171.66C27.94 171.66 29.7 172.94 29.7 174.94C29.7 176.92 27.94 178.18 25.38 178.18C22.78 178.18 21.04 176.92 21.04 174.94C21.04 172.94 22.78 171.66 25.38 171.66ZM25.38 172.96C23.72 172.96 22.62 173.72 22.62 174.94C22.62 176.12 23.72 176.9 25.38 176.9C27 176.9 28.12 176.12 28.12 174.94C28.12 173.72 27 172.96 25.38 172.96ZM32.36 167.48H34.02V178.78H32.36V167.48ZM33.56 172.46H36.7V173.84H33.56V172.46ZM22.28 179.76H34.02V185.56H32.36V181.12H22.28V179.76ZM24.54 167.38H26.2V170.14H24.54V167.38ZM42.1784 168.6H43.4984V171.02C43.4984 173.72 41.9384 176.56 39.2784 177.74L38.3784 176.44C40.7584 175.4 42.1784 173.06 42.1784 171.02V168.6ZM42.4384 168.6H43.7584V171.02C43.7584 173.02 45.1184 175.06 47.4384 175.96L46.5384 177.22C43.9384 176.18 42.4384 173.68 42.4384 171.02V168.6ZM52.0384 167.5H53.6184V178.64H52.0384V167.5ZM49.1584 172.32H52.5784V173.68H49.1584V172.32ZM48.1584 167.84H49.7384V178.06H48.1584V167.84ZM47.6784 179.04C51.3984 179.04 53.7184 180.24 53.7184 182.3C53.7184 184.34 51.3984 185.52 47.6784 185.52C43.9384 185.52 41.6584 184.34 41.6584 182.3C41.6584 180.24 43.9384 179.04 47.6784 179.04ZM47.6784 180.34C44.9584 180.34 43.2784 181.06 43.2784 182.3C43.2784 183.52 44.9584 184.24 47.6784 184.24C50.3984 184.24 52.0584 183.52 52.0584 182.3C52.0584 181.06 50.3984 180.34 47.6784 180.34ZM56.7769 178.18H73.1769V179.54H56.7769V178.18ZM64.0969 178.82H65.7369V185.56H64.0969V178.82ZM58.8369 168.2H60.4969V170.68H69.4369V168.2H71.0769V176.02H58.8369V168.2ZM60.4969 172.02V174.68H69.4369V172.02H60.4969ZM88.1403 173.9H89.7803V177.26H88.1403V173.9ZM80.8003 176.48H97.1403V177.82H80.8003V176.48ZM88.9603 179.3C92.8403 179.3 95.1603 180.42 95.1603 182.42C95.1603 184.42 92.8403 185.52 88.9603 185.52C85.0803 185.52 82.7603 184.42 82.7603 182.42C82.7603 180.42 85.0803 179.3 88.9603 179.3ZM88.9603 180.58C86.1203 180.58 84.4403 181.24 84.4403 182.42C84.4403 183.6 86.1203 184.24 88.9603 184.24C91.8203 184.24 93.4803 183.6 93.4803 182.42C93.4803 181.24 91.8203 180.58 88.9603 180.58ZM87.9003 168.96H89.3803V169.5C89.3803 172.4 86.0603 174.36 82.3003 174.82L81.7003 173.48C84.9603 173.16 87.9003 171.54 87.9003 169.5V168.96ZM88.6003 168.96H90.0603V169.5C90.0603 171.54 93.0003 173.16 96.2603 173.48L95.6603 174.82C91.9203 174.36 88.6003 172.4 88.6003 169.5V168.96ZM82.3003 168.3H95.6803V169.64H82.3003V168.3ZM111.579 167.48H113.239V177.98H111.579V167.48ZM112.519 172.08H115.919V173.48H112.519V172.08ZM101.879 178.78H103.499V180.7H111.599V178.78H113.239V185.32H101.879V178.78ZM103.499 181.98V183.98H111.599V181.98H103.499ZM99.2588 169.32H109.939V170.68H99.2588V169.32ZM104.599 171.5C107.179 171.5 108.919 172.76 108.919 174.68C108.919 176.6 107.179 177.86 104.599 177.86C101.999 177.86 100.259 176.6 100.259 174.68C100.259 172.76 101.999 171.5 104.599 171.5ZM104.599 172.76C102.939 172.76 101.839 173.52 101.839 174.68C101.839 175.84 102.939 176.6 104.599 176.6C106.219 176.6 107.339 175.84 107.339 174.68C107.339 173.52 106.219 172.76 104.599 172.76ZM103.759 167.3H105.419V170.06H103.759V167.3ZM127.197 172.46H131.757V173.82H127.197V172.46ZM130.817 167.5H132.477V180.74H130.817V167.5ZM120.937 183.8H132.977V185.16H120.937V183.8ZM120.937 179.58H122.597V184.5H120.937V179.58ZM122.217 169.74H123.577V171.2C123.577 174.48 121.537 177.32 118.517 178.44L117.657 177.12C120.357 176.16 122.217 173.76 122.217 171.2V169.74ZM122.537 169.74H123.877V171.18C123.877 173.52 125.637 175.8 128.257 176.72L127.417 178.02C124.477 176.96 122.537 174.24 122.537 171.18V169.74ZM118.177 168.96H127.837V170.3H118.177V168.96ZM146.176 171.82H149.856V173.18H146.176V171.82ZM146.156 175.34H149.836V176.7H146.156V175.34ZM136.036 169.46H146.156V170.8H136.036V169.46ZM141.156 171.74C143.576 171.74 145.236 173.06 145.236 175.08C145.236 177.1 143.576 178.44 141.156 178.44C138.736 178.44 137.056 177.1 137.056 175.08C137.056 173.06 138.736 171.74 141.156 171.74ZM141.156 173.02C139.636 173.02 138.616 173.82 138.616 175.08C138.616 176.34 139.636 177.16 141.156 177.16C142.656 177.16 143.696 176.34 143.696 175.08C143.696 173.82 142.656 173.02 141.156 173.02ZM140.336 167.32H141.996V170.4H140.336V167.32ZM149.216 167.48H150.876V179.16H149.216V167.48ZM144.956 179.34C148.696 179.34 150.976 180.48 150.976 182.44C150.976 184.4 148.696 185.52 144.956 185.52C141.196 185.52 138.936 184.4 138.936 182.44C138.936 180.48 141.196 179.34 144.956 179.34ZM144.956 180.66C142.296 180.66 140.656 181.28 140.656 182.44C140.656 183.58 142.296 184.24 144.956 184.24C147.616 184.24 149.256 183.58 149.256 182.44C149.256 181.28 147.616 180.66 144.956 180.66Z" fill="white"/>
<line x1="173" y1="175" x2="213" y2="175" stroke="#173FB8" stroke-width="4"/>
<line x1="199" y1="39" x2="219" y2="39" stroke="#173FB8" stroke-width="4"/>
<line x1="199" y1="175" x2="219" y2="175" stroke="#173FB8" stroke-width="4"/>
<line x1="199" y1="315" x2="219" y2="315" stroke="#173FB8" stroke-width="4"/>
<line x1="201" y1="317" x2="201" y2="37" stroke="#173FB8" stroke-width="4"/>
<rect x="219" y="15" width="122.576" height="47" rx="23.5" fill="#173FB8"/>
<path d="M241.04 31.38H251.72V32.74H241.04V31.38ZM246.38 33.66C248.94 33.66 250.7 34.94 250.7 36.94C250.7 38.92 248.94 40.18 246.38 40.18C243.78 40.18 242.04 38.92 242.04 36.94C242.04 34.94 243.78 33.66 246.38 33.66ZM246.38 34.96C244.72 34.96 243.62 35.72 243.62 36.94C243.62 38.12 244.72 38.9 246.38 38.9C248 38.9 249.12 38.12 249.12 36.94C249.12 35.72 248 34.96 246.38 34.96ZM253.36 29.48H255.02V40.78H253.36V29.48ZM254.56 34.46H257.7V35.84H254.56V34.46ZM243.28 41.76H255.02V47.56H253.36V43.12H243.28V41.76ZM245.54 29.38H247.2V32.14H245.54V29.38ZM268.478 33.78H273.338V35.16H268.478V33.78ZM264.318 30.3C267.018 30.3 268.978 32.02 268.978 34.5C268.978 36.98 267.018 38.68 264.318 38.68C261.618 38.68 259.658 36.98 259.658 34.5C259.658 32.02 261.618 30.3 264.318 30.3ZM264.318 31.7C262.538 31.7 261.258 32.84 261.258 34.5C261.258 36.14 262.538 37.3 264.318 37.3C266.098 37.3 267.378 36.14 267.378 34.5C267.378 32.84 266.098 31.7 264.318 31.7ZM272.598 29.48H274.258V39.18H272.598V29.48ZM262.678 40.08H264.338V42.36H272.618V40.08H274.258V47.32H262.678V40.08ZM264.338 43.68V45.98H272.618V43.68H264.338ZM291.642 32.14H297.162V33.5H291.642V32.14ZM291.642 36.18H297.162V37.56H291.642V36.18ZM286.222 41.14H298.282V47.56H296.622V42.48H286.222V41.14ZM296.622 29.48H298.282V40.14H296.622V29.48ZM288.342 30.48C291.002 30.48 293.002 32.28 293.002 34.84C293.002 37.4 291.002 39.18 288.342 39.18C285.662 39.18 283.682 37.4 283.682 34.84C283.682 32.28 285.662 30.48 288.342 30.48ZM288.342 31.9C286.582 31.9 285.282 33.12 285.282 34.84C285.282 36.56 286.582 37.76 288.342 37.76C290.102 37.76 291.422 36.56 291.422 34.84C291.422 33.12 290.102 31.9 288.342 31.9ZM315.34 32.3H318.52V33.68H315.34V32.3ZM315.34 36.1H318.52V37.48H315.34V36.1ZM314.18 29.48H315.84V40.42H314.18V29.48ZM302.6 38H304.02C307.3 38 309.64 37.9 312.46 37.4L312.6 38.78C309.74 39.26 307.36 39.38 304.02 39.38H302.6V38ZM302.56 30.6H310.7V35.52H304.22V38.88H302.6V34.22H309.06V31.96H302.56V30.6ZM310.06 40.96C313.76 40.96 316 42.16 316 44.24C316 46.34 313.76 47.54 310.06 47.54C306.38 47.54 304.12 46.34 304.12 44.24C304.12 42.16 306.38 40.96 310.06 40.96ZM310.06 42.26C307.36 42.26 305.74 42.98 305.74 44.24C305.74 45.52 307.36 46.24 310.06 46.24C312.76 46.24 314.4 45.52 314.4 44.24C314.4 42.98 312.76 42.26 310.06 42.26Z" fill="white"/>
<rect x="219" y="151" width="122.576" height="47" rx="23.5" fill="#173FB8"/>
<path d="M245.8 167.46H247.18V169.3C247.18 172.62 245.14 175.4 242.1 176.5L241.24 175.18C243.96 174.22 245.8 171.88 245.8 169.3V167.46ZM246.12 167.46H247.5V169.3C247.5 171.74 249.38 173.94 252.06 174.84L251.2 176.14C248.2 175.12 246.12 172.48 246.12 169.3V167.46ZM241.68 166.98H251.58V168.32H241.68V166.98ZM254.14 165.5H255.82V178.72H254.14V165.5ZM244.2 181.8H256.36V183.16H244.2V181.8ZM244.2 177.48H245.84V182.4H244.2V177.48ZM259.398 179.96H275.778V181.34H259.398V179.96ZM266.718 176.08H268.378V180.54H266.718V176.08ZM261.378 166.82H273.758V172.3H263.078V175.92H261.438V170.96H272.118V168.16H261.378V166.82ZM261.438 175.22H274.178V176.58H261.438V175.22ZM291.642 168.14H297.162V169.5H291.642V168.14ZM291.642 172.18H297.162V173.56H291.642V172.18ZM286.222 177.14H298.282V183.56H296.622V178.48H286.222V177.14ZM296.622 165.48H298.282V176.14H296.622V165.48ZM288.342 166.48C291.002 166.48 293.002 168.28 293.002 170.84C293.002 173.4 291.002 175.18 288.342 175.18C285.662 175.18 283.682 173.4 283.682 170.84C283.682 168.28 285.662 166.48 288.342 166.48ZM288.342 167.9C286.582 167.9 285.282 169.12 285.282 170.84C285.282 172.56 286.582 173.76 288.342 173.76C290.102 173.76 291.422 172.56 291.422 170.84C291.422 169.12 290.102 167.9 288.342 167.9ZM315.34 168.3H318.52V169.68H315.34V168.3ZM315.34 172.1H318.52V173.48H315.34V172.1ZM314.18 165.48H315.84V176.42H314.18V165.48ZM302.6 174H304.02C307.3 174 309.64 173.9 312.46 173.4L312.6 174.78C309.74 175.26 307.36 175.38 304.02 175.38H302.6V174ZM302.56 166.6H310.7V171.52H304.22V174.88H302.6V170.22H309.06V167.96H302.56V166.6ZM310.06 176.96C313.76 176.96 316 178.16 316 180.24C316 182.34 313.76 183.54 310.06 183.54C306.38 183.54 304.12 182.34 304.12 180.24C304.12 178.16 306.38 176.96 310.06 176.96ZM310.06 178.26C307.36 178.26 305.74 178.98 305.74 180.24C305.74 181.52 307.36 182.24 310.06 182.24C312.76 182.24 314.4 181.52 314.4 180.24C314.4 178.98 312.76 178.26 310.06 178.26Z" fill="white"/>
<rect x="222" y="291" width="122.576" height="47" rx="23.5" fill="#173FB8"/>
<path d="M243.1 316.88C246.94 316.88 249.4 318.14 249.4 320.22C249.4 322.28 246.94 323.52 243.1 323.52C239.24 323.52 236.8 322.28 236.8 320.22C236.8 318.14 239.24 316.88 243.1 316.88ZM243.1 318.18C240.26 318.18 238.44 318.96 238.44 320.22C238.44 321.46 240.26 322.24 243.1 322.24C245.94 322.24 247.74 321.46 247.74 320.22C247.74 318.96 245.94 318.18 243.1 318.18ZM236.94 306.38H248.58V307.74H236.94V306.38ZM235 313.9H251.32V315.24H235V313.9ZM241.7 310.42H243.34V314.28H241.7V310.42ZM247.62 306.38H249.24V307.92C249.24 309.38 249.24 310.84 248.76 312.72L247.12 312.52C247.62 310.66 247.62 309.34 247.62 307.92V306.38ZM253.398 314.38H269.738V315.74H253.398V314.38ZM260.738 311.48H262.378V314.94H260.738V311.48ZM255.458 310.96H267.838V312.32H255.458V310.96ZM255.458 306.3H267.698V307.64H257.098V311.76H255.458V306.3ZM261.538 317.04C265.398 317.04 267.738 318.22 267.738 320.28C267.738 322.38 265.398 323.54 261.538 323.54C257.678 323.54 255.338 322.38 255.338 320.28C255.338 318.22 257.678 317.04 261.538 317.04ZM261.538 318.32C258.718 318.32 257.018 319.04 257.018 320.28C257.018 321.54 258.718 322.24 261.538 322.24C264.378 322.24 266.058 321.54 266.058 320.28C266.058 319.04 264.378 318.32 261.538 318.32ZM279.157 312.62H282.577V313.98H279.157V312.62ZM275.477 310.1H276.757V311.04C276.757 314.64 275.257 318.28 272.617 319.86L271.637 318.6C274.077 317.18 275.477 314 275.477 311.04V310.1ZM275.777 310.1H277.057V311.04C277.057 313.92 278.497 316.9 280.937 318.22L279.997 319.46C277.337 317.98 275.777 314.56 275.777 311.04V310.1ZM272.137 308.8H280.397V310.18H272.137V308.8ZM275.477 306.12H277.077V309.86H275.477V306.12ZM285.537 305.48H287.137V323.56H285.537V305.48ZM281.917 305.9H283.477V322.64H281.917V305.9ZM304.04 308.14H309.56V309.5H304.04V308.14ZM304.04 312.18H309.56V313.56H304.04V312.18ZM298.62 317.14H310.68V323.56H309.02V318.48H298.62V317.14ZM309.02 305.48H310.68V316.14H309.02V305.48ZM300.74 306.48C303.4 306.48 305.4 308.28 305.4 310.84C305.4 313.4 303.4 315.18 300.74 315.18C298.06 315.18 296.08 313.4 296.08 310.84C296.08 308.28 298.06 306.48 300.74 306.48ZM300.74 307.9C298.98 307.9 297.68 309.12 297.68 310.84C297.68 312.56 298.98 313.76 300.74 313.76C302.5 313.76 303.82 312.56 303.82 310.84C303.82 309.12 302.5 307.9 300.74 307.9ZM327.739 308.3H330.919V309.68H327.739V308.3ZM327.739 312.1H330.919V313.48H327.739V312.1ZM326.579 305.48H328.239V316.42H326.579V305.48ZM314.999 314H316.419C319.699 314 322.039 313.9 324.859 313.4L324.999 314.78C322.139 315.26 319.759 315.38 316.419 315.38H314.999V314ZM314.959 306.6H323.099V311.52H316.619V314.88H314.999V310.22H321.459V307.96H314.959V306.6ZM322.459 316.96C326.159 316.96 328.399 318.16 328.399 320.24C328.399 322.34 326.159 323.54 322.459 323.54C318.779 323.54 316.519 322.34 316.519 320.24C316.519 318.16 318.779 316.96 322.459 316.96ZM322.459 318.26C319.759 318.26 318.139 318.98 318.139 320.24C318.139 321.52 319.759 322.24 322.459 322.24C325.159 322.24 326.799 321.52 326.799 320.24C326.799 318.98 325.159 318.26 322.459 318.26Z" fill="white"/>
<path d="M387 12.8636C386.542 12.8636 386.123 12.7519 385.744 12.5284C385.366 12.3011 385.063 11.9981 384.835 11.6193C384.612 11.2405 384.5 10.822 384.5 10.3636C384.5 9.90152 384.612 9.48295 384.835 9.10795C385.063 8.72917 385.366 8.42803 385.744 8.20455C386.123 7.97727 386.542 7.86364 387 7.86364C387.462 7.86364 387.881 7.97727 388.256 8.20455C388.634 8.42803 388.936 8.72917 389.159 9.10795C389.386 9.48295 389.5 9.90152 389.5 10.3636C389.5 10.822 389.386 11.2405 389.159 11.6193C388.936 11.9981 388.634 12.3011 388.256 12.5284C387.881 12.7519 387.462 12.8636 387 12.8636ZM399.832 3.304H408.376V4.392H399.832V3.304ZM404.104 5.128C406.152 5.128 407.56 6.152 407.56 7.752C407.56 9.336 406.152 10.344 404.104 10.344C402.024 10.344 400.632 9.336 400.632 7.752C400.632 6.152 402.024 5.128 404.104 5.128ZM404.104 6.168C402.776 6.168 401.896 6.776 401.896 7.752C401.896 8.696 402.776 9.32 404.104 9.32C405.4 9.32 406.296 8.696 406.296 7.752C406.296 6.776 405.4 6.168 404.104 6.168ZM409.688 1.784H411.016V10.824H409.688V1.784ZM410.648 5.768H413.16V6.872H410.648V5.768ZM401.624 11.608H411.016V16.248H409.688V12.696H401.624V11.608ZM403.432 1.704H404.76V3.912H403.432V1.704ZM421.783 5.224H425.671V6.328H421.783V5.224ZM418.455 2.44C420.615 2.44 422.183 3.816 422.183 5.8C422.183 7.784 420.615 9.144 418.455 9.144C416.295 9.144 414.727 7.784 414.727 5.8C414.727 3.816 416.295 2.44 418.455 2.44ZM418.455 3.56C417.031 3.56 416.007 4.472 416.007 5.8C416.007 7.112 417.031 8.04 418.455 8.04C419.879 8.04 420.903 7.112 420.903 5.8C420.903 4.472 419.879 3.56 418.455 3.56ZM425.079 1.784H426.407V9.544H425.079V1.784ZM417.143 10.264H418.471V12.088H425.095V10.264H426.407V16.056H417.143V10.264ZM418.471 13.144V14.984H425.095V13.144H418.471ZM432.87 2.6H433.974V4.088C433.974 6.888 432.39 9.176 429.91 10.104L429.222 9.016C431.43 8.232 432.87 6.296 432.87 4.088V2.6ZM433.11 2.6H434.198V4.04C434.198 6.088 435.606 7.896 437.718 8.632L436.998 9.672C434.662 8.792 433.11 6.664 433.11 4.04V2.6ZM439.798 1.784H441.126V10.344H439.798V1.784ZM436.374 10.76C439.35 10.76 441.19 11.768 441.19 13.496C441.19 15.224 439.35 16.216 436.374 16.216C433.382 16.216 431.542 15.224 431.542 13.496C431.542 11.768 433.382 10.76 436.374 10.76ZM436.374 11.816C434.198 11.816 432.87 12.44 432.87 13.496C432.87 14.552 434.198 15.176 436.374 15.176C438.55 15.176 439.878 14.552 439.878 13.496C439.878 12.44 438.55 11.816 436.374 11.816ZM436.661 4.84H440.086V5.944H436.661V4.84ZM448.068 4.312H449.156V4.504C449.156 6.632 447.588 8.296 445.14 8.904L444.596 7.848C446.66 7.384 448.068 6.04 448.068 4.504V4.312ZM448.308 4.312H449.396V4.504C449.396 5.96 450.788 7.192 452.836 7.656L452.292 8.696C449.876 8.12 448.308 6.536 448.308 4.504V4.312ZM444.9 3.416H452.564V4.472H444.9V3.416ZM448.052 1.816H449.396V4.12H448.052V1.816ZM448.084 10.056H449.412V15.832H448.084V10.056ZM454.484 1.784H455.796V16.264H454.484V1.784ZM444.1 11.032L443.924 9.912C446.66 9.912 450.292 9.896 453.46 9.448L453.556 10.424C450.308 10.984 446.788 11.032 444.1 11.032ZM460.323 8.536H470.259V9.624H460.323V8.536ZM458.675 13.32H471.779V14.44H458.675V13.32ZM464.531 9H465.859V13.768H464.531V9ZM460.323 2.936H470.115V4.024H461.651V9.016H460.323V2.936ZM387 41.8636C386.542 41.8636 386.123 41.7519 385.744 41.5284C385.366 41.3011 385.063 40.9981 384.835 40.6193C384.612 40.2405 384.5 39.822 384.5 39.3636C384.5 38.9015 384.612 38.483 384.835 38.108C385.063 37.7292 385.366 37.428 385.744 37.2045C386.123 36.9773 386.542 36.8636 387 36.8636C387.462 36.8636 387.881 36.9773 388.256 37.2045C388.634 37.428 388.936 37.7292 389.159 38.108C389.386 38.483 389.5 38.9015 389.5 39.3636C389.5 39.822 389.386 40.2405 389.159 40.6193C388.936 40.9981 388.634 41.3011 388.256 41.5284C387.881 41.7519 387.462 41.8636 387 41.8636ZM399.832 32.304H408.376V33.392H399.832V32.304ZM404.104 34.128C406.152 34.128 407.56 35.152 407.56 36.752C407.56 38.336 406.152 39.344 404.104 39.344C402.024 39.344 400.632 38.336 400.632 36.752C400.632 35.152 402.024 34.128 404.104 34.128ZM404.104 35.168C402.776 35.168 401.896 35.776 401.896 36.752C401.896 37.696 402.776 38.32 404.104 38.32C405.4 38.32 406.296 37.696 406.296 36.752C406.296 35.776 405.4 35.168 404.104 35.168ZM409.688 30.784H411.016V39.824H409.688V30.784ZM410.648 34.768H413.16V35.872H410.648V34.768ZM401.624 40.608H411.016V45.248H409.688V41.696H401.624V40.608ZM403.432 30.704H404.76V32.912H403.432V30.704ZM421.783 34.224H425.671V35.328H421.783V34.224ZM418.455 31.44C420.615 31.44 422.183 32.816 422.183 34.8C422.183 36.784 420.615 38.144 418.455 38.144C416.295 38.144 414.727 36.784 414.727 34.8C414.727 32.816 416.295 31.44 418.455 31.44ZM418.455 32.56C417.031 32.56 416.007 33.472 416.007 34.8C416.007 36.112 417.031 37.04 418.455 37.04C419.879 37.04 420.903 36.112 420.903 34.8C420.903 33.472 419.879 32.56 418.455 32.56ZM425.079 30.784H426.407V38.544H425.079V30.784ZM417.143 39.264H418.471V41.088H425.095V39.264H426.407V45.056H417.143V39.264ZM418.471 42.144V43.984H425.095V42.144H418.471ZM429.798 40.56H430.742C433.03 40.56 434.39 40.512 436.006 40.192L436.15 41.296C434.47 41.632 433.062 41.68 430.742 41.68H429.798V40.56ZM429.798 32.432H435.494V33.52H431.062V40.976H429.798V32.432ZM430.678 36.256H435.27V37.328H430.678V36.256ZM440.246 30.784H441.526V45.248H440.246V30.784ZM437.958 36.576H440.726V37.68H437.958V36.576ZM437.062 31.088H438.326V44.528H437.062V31.088ZM445.604 37.536H455.54V38.624H445.604V37.536ZM443.956 42.32H457.06V43.44H443.956V42.32ZM449.812 38H451.14V42.768H449.812V38ZM445.604 31.936H455.396V33.024H446.932V38.016H445.604V31.936ZM387 70.8636C386.542 70.8636 386.123 70.7519 385.744 70.5284C385.366 70.3011 385.063 69.9981 384.835 69.6193C384.612 69.2405 384.5 68.822 384.5 68.3636C384.5 67.9015 384.612 67.483 384.835 67.108C385.063 66.7292 385.366 66.428 385.744 66.2045C386.123 65.9773 386.542 65.8636 387 65.8636C387.462 65.8636 387.881 65.9773 388.256 66.2045C388.634 66.428 388.936 66.7292 389.159 67.108C389.386 67.483 389.5 67.9015 389.5 68.3636C389.5 68.822 389.386 69.2405 389.159 69.6193C388.936 69.9981 388.634 70.3011 388.256 70.5284C387.881 70.7519 387.462 70.8636 387 70.8636ZM400.456 66.504H401.56C404.456 66.504 406.072 66.456 408.008 66.104L408.152 67.176C406.168 67.528 404.504 67.592 401.56 67.592H400.456V66.504ZM400.456 60.68H407.064V61.752H401.768V67.016H400.456V60.68ZM401.352 63.544H406.792V64.616H401.352V63.544ZM401.928 69.064H411.016V74.056H401.928V69.064ZM409.72 70.12H403.224V72.984H409.72V70.12ZM409.688 59.784H411.016V68.296H409.688V59.784ZM410.648 63.368H413.16V64.488H410.648V63.368ZM416.151 60.728H425.191V61.8H416.151V60.728ZM414.519 66.936H427.591V68.024H414.519V66.936ZM420.359 67.656H421.687V74.264H420.359V67.656ZM424.567 60.728H425.863V61.976C425.863 63.48 425.863 65.176 425.319 67.624L424.007 67.448C424.567 65.112 424.567 63.432 424.567 61.976V60.728ZM429.83 66.952H430.87C433.718 66.952 435.126 66.904 436.854 66.6L436.998 67.672C435.206 67.992 433.766 68.04 430.87 68.04H429.83V66.952ZM429.798 60.648H436.038V64.76H431.142V67.608H429.83V63.72H434.726V61.736H429.798V60.648ZM439.798 59.8H441.126V68.68H439.798V59.8ZM436.998 61.928H440.102V63.016H436.998V61.928ZM436.998 64.92H440.102V66.008H436.998V64.92ZM431.446 69.464H441.126V74.28H439.798V70.552H431.446V69.464Z" fill="black"/>
<path d="M387 148.864C386.542 148.864 386.123 148.752 385.744 148.528C385.366 148.301 385.063 147.998 384.835 147.619C384.612 147.241 384.5 146.822 384.5 146.364C384.5 145.902 384.612 145.483 384.835 145.108C385.063 144.729 385.366 144.428 385.744 144.205C386.123 143.977 386.542 143.864 387 143.864C387.462 143.864 387.881 143.977 388.256 144.205C388.634 144.428 388.936 144.729 389.159 145.108C389.386 145.483 389.5 145.902 389.5 146.364C389.5 146.822 389.386 147.241 389.159 147.619C388.936 147.998 388.634 148.301 388.256 148.528C387.881 148.752 387.462 148.864 387 148.864ZM407.464 141.768H411.112V142.856H407.464V141.768ZM410.36 137.8H411.688V148.392H410.36V137.8ZM402.456 150.84H412.088V151.928H402.456V150.84ZM402.456 147.464H403.784V151.4H402.456V147.464ZM403.48 139.592H404.568V140.76C404.568 143.384 402.936 145.656 400.52 146.552L399.832 145.496C401.992 144.728 403.48 142.808 403.48 140.76V139.592ZM403.736 139.592H404.808V140.744C404.808 142.616 406.216 144.44 408.312 145.176L407.64 146.216C405.288 145.368 403.736 143.192 403.736 140.744V139.592ZM400.248 138.968H407.976V140.04H400.248V138.968ZM420.999 146.904C424.071 146.904 426.039 147.912 426.039 149.576C426.039 151.224 424.071 152.216 420.999 152.216C417.911 152.216 415.959 151.224 415.959 149.576C415.959 147.912 417.911 146.904 420.999 146.904ZM420.999 147.944C418.727 147.944 417.271 148.568 417.271 149.576C417.271 150.568 418.727 151.192 420.999 151.192C423.271 151.192 424.711 150.568 424.711 149.576C424.711 148.568 423.271 147.944 420.999 147.944ZM416.071 138.504H425.383V139.592H416.071V138.504ZM414.519 144.52H427.575V145.592H414.519V144.52ZM419.879 141.736H421.191V144.824H419.879V141.736ZM424.615 138.504H425.911V139.736C425.911 140.904 425.911 142.072 425.527 143.576L424.215 143.416C424.615 141.928 424.615 140.872 424.615 139.736V138.504ZM434.506 138.904H440.906V139.992H434.506V138.904ZM436.682 142.136H437.994V145.752H436.682V142.136ZM440.378 138.904H441.69V139.672C441.69 140.616 441.69 142.056 441.306 143.96L440.01 143.816C440.378 141.912 440.378 140.6 440.378 139.672V138.904ZM443.658 137.784H444.986V148.68H443.658V137.784ZM444.378 142.488H447.05V143.592H444.378V142.488ZM435.85 150.84H445.45V151.928H435.85V150.84ZM435.85 147.672H437.161V151.176H435.85V147.672ZM433.77 146.376L433.626 145.288C436.202 145.288 439.754 145.224 442.682 144.824L442.778 145.784C439.77 146.312 436.314 146.376 433.77 146.376ZM449.048 145.4H450.088C452.824 145.4 454.296 145.352 456.104 145.032L456.232 146.12C454.392 146.44 452.872 146.504 450.088 146.504H449.048V145.4ZM449.016 138.808H455.24V143.048H450.36V146.056H449.048V141.992H453.928V139.88H449.016V138.808ZM459.016 137.8H460.344V148.44H459.016V137.8ZM456.216 140.216H459.336V141.288H456.216V140.216ZM451 150.776H460.792V151.864H451V150.776ZM451 147.656H452.312V151.256H451V147.656ZM456.216 143.464H459.336V144.552H456.216V143.464ZM469.019 139.224H478.331V140.328H469.019V139.224ZM467.675 149.128H480.747V150.232H467.675V149.128ZM470.875 144.344H472.187V149.528H470.875V144.344ZM477.899 139.224H479.211V140.824C479.211 142.664 479.211 144.552 478.715 147.256L477.387 147.096C477.899 144.536 477.899 142.616 477.899 140.824V139.224ZM474.443 144.344H475.755V149.528H474.443V144.344ZM483.034 139.368H489.578V140.44H483.034V139.368ZM485.29 143.496H486.602V148.392H485.29V143.496ZM489.034 139.368H490.33V140.136C490.33 141.32 490.33 143.208 489.914 145.896L488.602 145.768C489.034 143.16 489.034 141.304 489.034 140.136V139.368ZM492.154 137.784H493.466V152.248H492.154V137.784ZM493.114 143.832H495.786V144.952H493.114V143.832ZM482.394 149.096L482.234 147.976C484.858 147.976 488.346 147.928 491.274 147.56L491.338 148.536C488.346 149.016 484.954 149.08 482.394 149.096ZM512.109 137.768H513.437V152.264H512.109V137.768ZM505.805 138.888C507.949 138.888 509.485 140.856 509.485 143.928C509.485 147.016 507.949 148.984 505.805 148.984C503.677 148.984 502.141 147.016 502.141 143.928C502.141 140.856 503.677 138.888 505.805 138.888ZM505.805 140.088C504.397 140.088 503.405 141.592 503.405 143.928C503.405 146.28 504.397 147.816 505.805 147.816C507.229 147.816 508.205 146.28 508.205 143.928C508.205 141.592 507.229 140.088 505.805 140.088ZM522.171 138.296H523.339V139.096C523.339 141.864 520.523 143.848 517.515 144.36L516.987 143.288C519.627 142.888 522.171 141.16 522.171 139.096V138.296ZM522.411 138.296H523.563V139.096C523.563 141.112 526.139 142.888 528.747 143.288L528.219 144.36C525.243 143.848 522.411 141.832 522.411 139.096V138.296ZM522.171 146.744H523.483V152.248H522.171V146.744ZM516.331 145.928H529.403V147.032H516.331V145.928ZM387 177.864C386.542 177.864 386.123 177.752 385.744 177.528C385.366 177.301 385.063 176.998 384.835 176.619C384.612 176.241 384.5 175.822 384.5 175.364C384.5 174.902 384.612 174.483 384.835 174.108C385.063 173.729 385.366 173.428 385.744 173.205C386.123 172.977 386.542 172.864 387 172.864C387.462 172.864 387.881 172.977 388.256 173.205C388.634 173.428 388.936 173.729 389.159 174.108C389.386 174.483 389.5 174.902 389.5 175.364C389.5 175.822 389.386 176.241 389.159 176.619C388.936 176.998 388.634 177.301 388.256 177.528C387.881 177.752 387.462 177.864 387 177.864ZM401.4 173.344H411.416V174.432H401.4V173.344ZM399.8 178.288H412.904V179.392H399.8V178.288ZM405.672 174.016H406.984V178.64H405.672V174.016ZM401.4 168H402.728V173.824H401.4V168ZM415.111 173.952H416.151C418.999 173.952 420.407 173.904 422.135 173.6L422.279 174.672C420.487 174.992 419.047 175.04 416.151 175.04H415.111V173.952ZM415.079 167.648H421.319V171.76H416.423V174.608H415.111V170.72H420.007V168.736H415.079V167.648ZM425.079 166.8H426.407V175.68H425.079V166.8ZM422.279 168.928H425.383V170.016H422.279V168.928ZM422.279 171.92H425.383V173.008H422.279V171.92ZM416.727 176.464H426.407V181.28H425.079V177.552H416.727V176.464ZM437.46 180.159C436.695 180.159 436.036 180.019 435.483 179.739C434.93 179.458 434.504 179.074 434.205 178.585C433.905 178.097 433.756 177.538 433.756 176.909C433.756 176.424 433.858 175.994 434.062 175.619C434.271 175.241 434.557 174.89 434.92 174.568C435.288 174.242 435.71 173.917 436.188 173.591L437.869 172.341C438.199 172.125 438.462 171.894 438.659 171.648C438.86 171.402 438.96 171.08 438.96 170.682C438.96 170.386 438.83 170.1 438.568 169.824C438.311 169.547 437.972 169.409 437.551 169.409C437.256 169.409 436.994 169.485 436.767 169.636C436.544 169.784 436.367 169.973 436.239 170.205C436.114 170.432 436.051 170.667 436.051 170.909C436.051 171.182 436.125 171.458 436.273 171.739C436.424 172.015 436.616 172.299 436.847 172.591C437.081 172.879 437.324 173.174 437.574 173.477L442.915 180H441.301L436.892 174.682C436.483 174.189 436.112 173.742 435.778 173.341C435.445 172.939 435.18 172.544 434.983 172.153C434.786 171.763 434.688 171.341 434.688 170.886C434.688 170.364 434.803 169.905 435.034 169.511C435.269 169.114 435.597 168.805 436.017 168.585C436.441 168.362 436.938 168.25 437.506 168.25C438.089 168.25 438.591 168.364 439.011 168.591C439.432 168.814 439.756 169.112 439.983 169.483C440.21 169.85 440.324 170.25 440.324 170.682C440.324 171.239 440.186 171.722 439.909 172.131C439.633 172.54 439.256 172.92 438.778 173.273L436.46 175C435.938 175.386 435.583 175.761 435.398 176.125C435.212 176.489 435.119 176.75 435.119 176.909C435.119 177.273 435.214 177.612 435.403 177.926C435.593 178.241 435.86 178.494 436.205 178.688C436.549 178.881 436.953 178.977 437.415 178.977C437.854 178.977 438.282 178.884 438.699 178.699C439.116 178.509 439.492 178.237 439.83 177.881C440.17 177.525 440.439 177.097 440.636 176.597C440.837 176.097 440.938 175.534 440.938 174.909H442.233C442.233 175.682 442.144 176.312 441.966 176.801C441.788 177.29 441.587 177.672 441.364 177.949C441.14 178.225 440.96 178.432 440.824 178.568C440.778 178.625 440.737 178.682 440.699 178.739C440.661 178.795 440.619 178.852 440.574 178.909C440.199 179.33 439.725 179.644 439.153 179.852C438.581 180.057 438.017 180.159 437.46 180.159ZM452.104 167.6H453.208V169.088C453.208 171.888 451.624 174.176 449.144 175.104L448.456 174.016C450.664 173.232 452.104 171.296 452.104 169.088V167.6ZM452.344 167.6H453.432V169.04C453.432 171.088 454.84 172.896 456.952 173.632L456.232 174.672C453.896 173.792 452.344 171.664 452.344 169.04V167.6ZM459.032 166.784H460.36V175.344H459.032V166.784ZM455.608 175.76C458.584 175.76 460.424 176.768 460.424 178.496C460.424 180.224 458.584 181.216 455.608 181.216C452.616 181.216 450.776 180.224 450.776 178.496C450.776 176.768 452.616 175.76 455.608 175.76ZM455.608 176.816C453.432 176.816 452.104 177.44 452.104 178.496C452.104 179.552 453.432 180.176 455.608 180.176C457.784 180.176 459.112 179.552 459.112 178.496C459.112 177.44 457.784 176.816 455.608 176.816ZM455.896 169.84H459.32V170.944H455.896V169.84ZM467.303 169.312H468.391V169.504C468.391 171.632 466.823 173.296 464.375 173.904L463.831 172.848C465.895 172.384 467.303 171.04 467.303 169.504V169.312ZM467.543 169.312H468.631V169.504C468.631 170.96 470.023 172.192 472.071 172.656L471.527 173.696C469.111 173.12 467.543 171.536 467.543 169.504V169.312ZM464.135 168.416H471.799V169.472H464.135V168.416ZM467.287 166.816H468.631V169.12H467.287V166.816ZM467.319 175.056H468.647V180.832H467.319V175.056ZM473.719 166.784H475.031V181.264H473.719V166.784ZM463.335 176.032L463.159 174.912C465.895 174.912 469.527 174.896 472.695 174.448L472.791 175.424C469.543 175.984 466.023 176.032 463.335 176.032ZM479.557 173.536H489.493V174.624H479.557V173.536ZM477.909 178.32H491.013V179.44H477.909V178.32ZM483.765 174H485.093V178.768H483.765V174ZM479.557 167.936H489.349V169.024H480.885V174.016H479.557V167.936ZM387 206.864C386.542 206.864 386.123 206.752 385.744 206.528C385.366 206.301 385.063 205.998 384.835 205.619C384.612 205.241 384.5 204.822 384.5 204.364C384.5 203.902 384.612 203.483 384.835 203.108C385.063 202.729 385.366 202.428 385.744 202.205C386.123 201.977 386.542 201.864 387 201.864C387.462 201.864 387.881 201.977 388.256 202.205C388.634 202.428 388.936 202.729 389.159 203.108C389.386 203.483 389.5 203.902 389.5 204.364C389.5 204.822 389.386 205.241 389.159 205.619C388.936 205.998 388.634 206.301 388.256 206.528C387.881 206.752 387.462 206.864 387 206.864ZM403.64 197.368H404.744V198.84C404.744 201.496 403.112 203.72 400.68 204.6L399.992 203.544C402.168 202.776 403.64 200.904 403.64 198.84V197.368ZM403.896 197.368H405V198.84C405 200.792 406.504 202.552 408.648 203.272L407.96 204.312C405.56 203.496 403.896 201.384 403.896 198.84V197.368ZM400.344 196.984H408.264V198.056H400.344V196.984ZM410.312 195.8H411.656V206.376H410.312V195.8ZM402.36 208.84H412.088V209.928H402.36V208.84ZM402.36 205.384H403.672V209.32H402.36V205.384ZM414.519 207.368H427.623V208.472H414.519V207.368ZM420.375 204.264H421.703V207.832H420.375V204.264ZM416.103 196.856H426.007V201.24H417.463V204.136H416.151V200.168H424.695V197.928H416.103V196.856ZM416.151 203.576H426.343V204.664H416.151V203.576ZM434.394 202.504H435.498C438.394 202.504 440.01 202.456 441.946 202.104L442.09 203.176C440.106 203.528 438.442 203.592 435.498 203.592H434.394V202.504ZM434.394 196.68H441.002V197.752H435.706V203.016H434.394V196.68ZM435.289 199.544H440.73V200.616H435.289V199.544ZM435.866 205.064H444.954V210.056H435.866V205.064ZM443.658 206.12H437.161V208.984H443.658V206.12ZM443.626 195.784H444.954V204.296H443.626V195.784ZM444.586 199.368H447.098V200.488H444.586V199.368ZM451.48 196.648H452.536V198.584C452.536 200.76 451.304 203.048 449.176 204.024L448.456 202.984C450.344 202.136 451.48 200.232 451.48 198.584V196.648ZM451.688 196.648H452.744V198.584C452.744 200.232 453.816 201.88 455.672 202.632L454.968 203.656C452.872 202.776 451.688 200.744 451.688 198.584V196.648ZM459.368 195.8H460.632V204.536H459.368V195.8ZM457.032 199.544H459.768V200.648H457.032V199.544ZM456.264 196.04H457.528V204.456H456.264V196.04ZM450.936 205.32H460.632V210.248H459.32V206.408H450.936V205.32ZM477.547 195.784H478.875V204.312H477.547V195.784ZM478.315 199.48H480.987V200.584H478.315V199.48ZM469.515 204.968H478.875V207.896H470.843V209.432H469.547V207.016H477.579V205.912H469.515V204.968ZM469.547 209.144H479.435V210.088H469.547V209.144ZM471.451 201.72H472.779V203.56H471.451V201.72ZM467.739 203.992L467.579 203.016C470.155 203.016 473.707 203 476.683 202.584L476.795 203.432C473.707 203.976 470.267 203.992 467.739 203.992ZM467.947 196.888H476.251V197.832H467.947V196.888ZM472.107 198.28C474.155 198.28 475.467 198.984 475.467 200.184C475.467 201.384 474.155 202.088 472.107 202.088C470.043 202.088 468.731 201.384 468.731 200.184C468.731 198.984 470.043 198.28 472.107 198.28ZM472.107 199.16C470.811 199.16 469.979 199.544 469.979 200.184C469.979 200.824 470.811 201.224 472.107 201.224C473.403 201.224 474.219 200.824 474.219 200.184C474.219 199.544 473.403 199.16 472.107 199.16ZM471.451 195.64H472.779V197.384H471.451V195.64ZM482.394 202.904H495.466V203.992H482.394V202.904ZM488.266 200.584H489.578V203.352H488.266V200.584ZM484.042 200.168H493.946V201.256H484.042V200.168ZM484.042 196.44H493.834V197.512H485.354V200.808H484.042V196.44ZM488.906 205.032C491.994 205.032 493.866 205.976 493.866 207.624C493.866 209.304 491.994 210.232 488.906 210.232C485.818 210.232 483.946 209.304 483.946 207.624C483.946 205.976 485.818 205.032 488.906 205.032ZM488.906 206.056C486.65 206.056 485.29 206.632 485.29 207.624C485.29 208.632 486.65 209.192 488.906 209.192C491.178 209.192 492.522 208.632 492.522 207.624C492.522 206.632 491.178 206.056 488.906 206.056ZM505.335 209.159C504.57 209.159 503.911 209.019 503.358 208.739C502.805 208.458 502.379 208.074 502.08 207.585C501.78 207.097 501.631 206.538 501.631 205.909C501.631 205.424 501.733 204.994 501.938 204.619C502.146 204.241 502.432 203.89 502.795 203.568C503.163 203.242 503.585 202.917 504.062 202.591L505.744 201.341C506.074 201.125 506.337 200.894 506.534 200.648C506.735 200.402 506.835 200.08 506.835 199.682C506.835 199.386 506.705 199.1 506.443 198.824C506.186 198.547 505.847 198.409 505.426 198.409C505.131 198.409 504.869 198.485 504.642 198.636C504.419 198.784 504.242 198.973 504.114 199.205C503.989 199.432 503.926 199.667 503.926 199.909C503.926 200.182 504 200.458 504.148 200.739C504.299 201.015 504.491 201.299 504.722 201.591C504.956 201.879 505.199 202.174 505.449 202.477L510.79 209H509.176L504.767 203.682C504.358 203.189 503.987 202.742 503.653 202.341C503.32 201.939 503.055 201.544 502.858 201.153C502.661 200.763 502.562 200.341 502.562 199.886C502.562 199.364 502.678 198.905 502.909 198.511C503.144 198.114 503.472 197.805 503.892 197.585C504.316 197.362 504.813 197.25 505.381 197.25C505.964 197.25 506.466 197.364 506.886 197.591C507.307 197.814 507.631 198.112 507.858 198.483C508.085 198.85 508.199 199.25 508.199 199.682C508.199 200.239 508.061 200.722 507.784 201.131C507.508 201.54 507.131 201.92 506.653 202.273L504.335 204C503.813 204.386 503.458 204.761 503.273 205.125C503.087 205.489 502.994 205.75 502.994 205.909C502.994 206.273 503.089 206.612 503.278 206.926C503.468 207.241 503.735 207.494 504.08 207.688C504.424 207.881 504.828 207.977 505.29 207.977C505.729 207.977 506.157 207.884 506.574 207.699C506.991 207.509 507.367 207.237 507.705 206.881C508.045 206.525 508.314 206.097 508.511 205.597C508.712 205.097 508.812 204.534 508.812 203.909H510.108C510.108 204.682 510.019 205.312 509.841 205.801C509.663 206.29 509.462 206.672 509.239 206.949C509.015 207.225 508.835 207.432 508.699 207.568C508.653 207.625 508.612 207.682 508.574 207.739C508.536 207.795 508.494 207.852 508.449 207.909C508.074 208.33 507.6 208.644 507.028 208.852C506.456 209.057 505.892 209.159 505.335 209.159ZM523.259 198.44H527.131V199.528H523.259V198.44ZM523.131 201.448H527.035V202.536H523.131V201.448ZM526.907 195.784H528.235V204.456H526.907V195.784ZM522.379 196.872H523.803C523.803 200.6 521.227 203.208 517.067 204.456L516.523 203.384C520.219 202.312 522.379 200.184 522.379 197.448V196.872ZM517.275 196.872H523.291V197.96H517.275V196.872ZM523.531 204.616C526.459 204.616 528.315 205.656 528.315 207.4C528.315 209.144 526.459 210.184 523.531 210.184C520.603 210.184 518.747 209.144 518.747 207.4C518.747 205.656 520.603 204.616 523.531 204.616ZM523.531 205.656C521.419 205.656 520.059 206.312 520.059 207.4C520.059 208.488 521.419 209.128 523.531 209.128C525.659 209.128 527.019 208.488 527.019 207.4C527.019 206.312 525.659 205.656 523.531 205.656ZM541.626 195.784H542.954V204.536H541.626V195.784ZM539.226 200.168H542.218V201.272H539.226V200.168ZM533.578 205.304H542.954V210.056H533.578V205.304ZM541.658 206.376H534.874V208.984H541.658V206.376ZM531.082 197.288H539.45V198.36H531.082V197.288ZM535.258 199.096C537.21 199.096 538.602 200.152 538.602 201.688C538.602 203.224 537.21 204.248 535.258 204.248C533.306 204.248 531.914 203.224 531.914 201.688C531.914 200.152 533.306 199.096 535.258 199.096ZM535.258 200.12C534.042 200.12 533.178 200.744 533.178 201.688C533.178 202.616 534.042 203.24 535.258 203.24C536.474 203.24 537.338 202.616 537.338 201.688C537.338 200.744 536.474 200.12 535.258 200.12ZM534.602 195.64H535.93V198.056H534.602V195.64Z" fill="black"/>
<path d="M387 290.864C386.542 290.864 386.123 290.752 385.744 290.528C385.366 290.301 385.063 289.998 384.835 289.619C384.612 289.241 384.5 288.822 384.5 288.364C384.5 287.902 384.612 287.483 384.835 287.108C385.063 286.729 385.366 286.428 385.744 286.205C386.123 285.977 386.542 285.864 387 285.864C387.462 285.864 387.881 285.977 388.256 286.205C388.634 286.428 388.936 286.729 389.159 287.108C389.386 287.483 389.5 287.902 389.5 288.364C389.5 288.822 389.386 289.241 389.159 289.619C388.936 289.998 388.634 290.301 388.256 290.528C387.881 290.752 387.462 290.864 387 290.864ZM407.928 283.16H410.872V284.248H407.928V283.16ZM407.912 285.976H410.856V287.048H407.912V285.976ZM399.816 281.224H407.912V282.312H399.816V281.224ZM403.912 283.016C405.848 283.016 407.176 284.056 407.176 285.624C407.176 287.192 405.848 288.216 403.912 288.216C401.976 288.216 400.632 287.192 400.632 285.624C400.632 284.056 401.976 283.016 403.912 283.016ZM403.912 284.024C402.696 284.024 401.88 284.664 401.88 285.624C401.88 286.584 402.696 287.208 403.912 287.208C405.112 287.208 405.944 286.584 405.944 285.624C405.944 284.664 405.112 284.024 403.912 284.024ZM403.256 279.64H404.584V281.88H403.256V279.64ZM410.36 279.784H411.688V288.328H410.36V279.784ZM402.344 288.952H403.64V290.44H410.376V288.952H411.688V294.056H402.344V288.952ZM403.64 291.48V293H410.376V291.48H403.64ZM421.783 283.224H425.671V284.328H421.783V283.224ZM418.455 280.44C420.615 280.44 422.183 281.816 422.183 283.8C422.183 285.784 420.615 287.144 418.455 287.144C416.295 287.144 414.727 285.784 414.727 283.8C414.727 281.816 416.295 280.44 418.455 280.44ZM418.455 281.56C417.031 281.56 416.007 282.472 416.007 283.8C416.007 285.112 417.031 286.04 418.455 286.04C419.879 286.04 420.903 285.112 420.903 283.8C420.903 282.472 419.879 281.56 418.455 281.56ZM425.079 279.784H426.407V287.544H425.079V279.784ZM417.143 288.264H418.471V290.088H425.095V288.264H426.407V294.056H417.143V288.264ZM418.471 291.144V292.984H425.095V291.144H418.471ZM437.46 293.159C436.695 293.159 436.036 293.019 435.483 292.739C434.93 292.458 434.504 292.074 434.205 291.585C433.905 291.097 433.756 290.538 433.756 289.909C433.756 289.424 433.858 288.994 434.062 288.619C434.271 288.241 434.557 287.89 434.92 287.568C435.288 287.242 435.71 286.917 436.188 286.591L437.869 285.341C438.199 285.125 438.462 284.894 438.659 284.648C438.86 284.402 438.96 284.08 438.96 283.682C438.96 283.386 438.83 283.1 438.568 282.824C438.311 282.547 437.972 282.409 437.551 282.409C437.256 282.409 436.994 282.485 436.767 282.636C436.544 282.784 436.367 282.973 436.239 283.205C436.114 283.432 436.051 283.667 436.051 283.909C436.051 284.182 436.125 284.458 436.273 284.739C436.424 285.015 436.616 285.299 436.847 285.591C437.081 285.879 437.324 286.174 437.574 286.477L442.915 293H441.301L436.892 287.682C436.483 287.189 436.112 286.742 435.778 286.341C435.445 285.939 435.18 285.544 434.983 285.153C434.786 284.763 434.688 284.341 434.688 283.886C434.688 283.364 434.803 282.905 435.034 282.511C435.269 282.114 435.597 281.805 436.017 281.585C436.441 281.362 436.938 281.25 437.506 281.25C438.089 281.25 438.591 281.364 439.011 281.591C439.432 281.814 439.756 282.112 439.983 282.483C440.21 282.85 440.324 283.25 440.324 283.682C440.324 284.239 440.186 284.722 439.909 285.131C439.633 285.54 439.256 285.92 438.778 286.273L436.46 288C435.938 288.386 435.583 288.761 435.398 289.125C435.212 289.489 435.119 289.75 435.119 289.909C435.119 290.273 435.214 290.612 435.403 290.926C435.593 291.241 435.86 291.494 436.205 291.688C436.549 291.881 436.953 291.977 437.415 291.977C437.854 291.977 438.282 291.884 438.699 291.699C439.116 291.509 439.492 291.237 439.83 290.881C440.17 290.525 440.439 290.097 440.636 289.597C440.837 289.097 440.938 288.534 440.938 287.909H442.233C442.233 288.682 442.144 289.312 441.966 289.801C441.788 290.29 441.587 290.672 441.364 290.949C441.14 291.225 440.96 291.432 440.824 291.568C440.778 291.625 440.737 291.682 440.699 291.739C440.661 291.795 440.619 291.852 440.574 291.909C440.199 292.33 439.725 292.644 439.153 292.852C438.581 293.057 438.017 293.159 437.46 293.159ZM448.472 291.272H461.576V292.376H448.472V291.272ZM454.296 287.768H455.608V291.64H454.296V287.768ZM454.264 280.744H455.416V281.864C455.416 284.952 452.456 287.336 449.544 287.944L448.984 286.84C451.528 286.376 454.264 284.248 454.264 281.864V280.744ZM454.504 280.744H455.656V281.864C455.656 284.264 458.408 286.376 460.952 286.84L460.376 287.944C457.464 287.336 454.504 284.952 454.504 281.864V280.744ZM463.175 287.448H476.247V288.52H463.175V287.448ZM469.047 285.576H470.359V287.896H469.047V285.576ZM464.903 284.984H474.711V286.024H464.903V284.984ZM464.903 280.2H474.647V281.24H466.215V285.544H464.903V280.2ZM465.831 282.568H474.263V283.592H465.831V282.568ZM469.703 289.592C472.855 289.592 474.663 290.392 474.663 291.912C474.663 293.416 472.855 294.216 469.703 294.216C466.551 294.216 464.743 293.416 464.743 291.912C464.743 290.392 466.551 289.592 469.703 289.592ZM469.703 290.6C467.383 290.6 466.087 291.064 466.087 291.912C466.087 292.776 467.383 293.224 469.703 293.224C472.023 293.224 473.319 292.776 473.319 291.912C473.319 291.064 472.023 290.6 469.703 290.6ZM479.685 283.8H489.493V284.888H479.685V283.8ZM479.685 280.072H480.997V284.28H479.685V280.072ZM477.909 286.568H490.981V287.64H477.909V286.568ZM484.421 288.936C487.509 288.936 489.381 289.88 489.381 291.576C489.381 293.24 487.509 294.2 484.421 294.2C481.333 294.2 479.461 293.24 479.461 291.576C479.461 289.88 481.333 288.936 484.421 288.936ZM484.421 289.976C482.165 289.976 480.805 290.552 480.805 291.576C480.805 292.568 482.165 293.144 484.421 293.144C486.693 293.144 488.037 292.568 488.037 291.576C488.037 290.552 486.693 289.976 484.421 289.976ZM493.22 286.952H494.26C497.108 286.952 498.516 286.904 500.244 286.6L500.388 287.672C498.596 287.992 497.156 288.04 494.26 288.04H493.22V286.952ZM493.188 280.648H499.428V284.76H494.532V287.608H493.22V283.72H498.116V281.736H493.188V280.648ZM503.188 279.8H504.516V288.68H503.188V279.8ZM500.388 281.928H503.492V283.016H500.388V281.928ZM500.388 284.92H503.492V286.008H500.388V284.92ZM494.836 289.464H504.516V294.28H503.188V290.552H494.836V289.464ZM387 319.864C386.542 319.864 386.123 319.752 385.744 319.528C385.366 319.301 385.063 318.998 384.835 318.619C384.612 318.241 384.5 317.822 384.5 317.364C384.5 316.902 384.612 316.483 384.835 316.108C385.063 315.729 385.366 315.428 385.744 315.205C386.123 314.977 386.542 314.864 387 314.864C387.462 314.864 387.881 314.977 388.256 315.205C388.634 315.428 388.936 315.729 389.159 316.108C389.386 316.483 389.5 316.902 389.5 317.364C389.5 317.822 389.386 318.241 389.159 318.619C388.936 318.998 388.634 319.301 388.256 319.528C387.881 319.752 387.462 319.864 387 319.864ZM410.552 314.544H413.224V315.664H410.552V314.544ZM409.576 308.768H410.92V323.248H409.576V308.768ZM400.36 310.192H401.688V319.152H400.36V310.192ZM400.36 318.464H401.512C403.656 318.464 405.848 318.32 408.232 317.824L408.392 318.928C405.928 319.44 403.704 319.584 401.512 319.584H400.36V318.464ZM420.375 315.856H421.671V318.768H420.375V315.856ZM416.295 312.72H426.103V313.808H416.295V312.72ZM416.295 309.04H417.607V313.248H416.295V309.04ZM414.519 315.312H427.591V316.4H414.519V315.312ZM416.199 318.16H425.943V323.056H416.199V318.16ZM424.647 319.232H417.495V321.968H424.647V319.232ZM437.46 322.159C436.695 322.159 436.036 322.019 435.483 321.739C434.93 321.458 434.504 321.074 434.205 320.585C433.905 320.097 433.756 319.538 433.756 318.909C433.756 318.424 433.858 317.994 434.062 317.619C434.271 317.241 434.557 316.89 434.92 316.568C435.288 316.242 435.71 315.917 436.188 315.591L437.869 314.341C438.199 314.125 438.462 313.894 438.659 313.648C438.86 313.402 438.96 313.08 438.96 312.682C438.96 312.386 438.83 312.1 438.568 311.824C438.311 311.547 437.972 311.409 437.551 311.409C437.256 311.409 436.994 311.485 436.767 311.636C436.544 311.784 436.367 311.973 436.239 312.205C436.114 312.432 436.051 312.667 436.051 312.909C436.051 313.182 436.125 313.458 436.273 313.739C436.424 314.015 436.616 314.299 436.847 314.591C437.081 314.879 437.324 315.174 437.574 315.477L442.915 322H441.301L436.892 316.682C436.483 316.189 436.112 315.742 435.778 315.341C435.445 314.939 435.18 314.544 434.983 314.153C434.786 313.763 434.688 313.341 434.688 312.886C434.688 312.364 434.803 311.905 435.034 311.511C435.269 311.114 435.597 310.805 436.017 310.585C436.441 310.362 436.938 310.25 437.506 310.25C438.089 310.25 438.591 310.364 439.011 310.591C439.432 310.814 439.756 311.112 439.983 311.483C440.21 311.85 440.324 312.25 440.324 312.682C440.324 313.239 440.186 313.722 439.909 314.131C439.633 314.54 439.256 314.92 438.778 315.273L436.46 317C435.938 317.386 435.583 317.761 435.398 318.125C435.212 318.489 435.119 318.75 435.119 318.909C435.119 319.273 435.214 319.612 435.403 319.926C435.593 320.241 435.86 320.494 436.205 320.688C436.549 320.881 436.953 320.977 437.415 320.977C437.854 320.977 438.282 320.884 438.699 320.699C439.116 320.509 439.492 320.237 439.83 319.881C440.17 319.525 440.439 319.097 440.636 318.597C440.837 318.097 440.938 317.534 440.938 316.909H442.233C442.233 317.682 442.144 318.312 441.966 318.801C441.788 319.29 441.587 319.672 441.364 319.949C441.14 320.225 440.96 320.432 440.824 320.568C440.778 320.625 440.737 320.682 440.699 320.739C440.661 320.795 440.619 320.852 440.574 320.909C440.199 321.33 439.725 321.644 439.153 321.852C438.581 322.057 438.017 322.159 437.46 322.159ZM448.984 310.144H450.248V313.68H453.272V310.144H454.504V319.632H448.984V310.144ZM450.248 314.752V318.544H453.272V314.752H450.248ZM459.48 308.784H460.76V323.248H459.48V308.784ZM457.16 314.512H459.944V315.6H457.16V314.512ZM456.28 309.088H457.544V322.528H456.28V309.088ZM473.751 308.768H475.079V323.264H473.751V308.768ZM470.903 312.08H474.103V313.168H470.903V312.08ZM463.719 318.784H464.791C467.031 318.784 468.871 318.72 471.079 318.368L471.207 319.472C468.935 319.824 467.079 319.904 464.791 319.904H463.719V318.784ZM463.687 310.08H470.007V315.264H465.031V319.04H463.719V314.176H468.695V311.184H463.687V310.08ZM470.807 316.032H474.007V317.12H470.807V316.032ZM387 348.864C386.542 348.864 386.123 348.752 385.744 348.528C385.366 348.301 385.063 347.998 384.835 347.619C384.612 347.241 384.5 346.822 384.5 346.364C384.5 345.902 384.612 345.483 384.835 345.108C385.063 344.729 385.366 344.428 385.744 344.205C386.123 343.977 386.542 343.864 387 343.864C387.462 343.864 387.881 343.977 388.256 344.205C388.634 344.428 388.936 344.729 389.159 345.108C389.386 345.483 389.5 345.902 389.5 346.364C389.5 346.822 389.386 347.241 389.159 347.619C388.936 347.998 388.634 348.301 388.256 348.528C387.881 348.752 387.462 348.864 387 348.864ZM403.432 338.6H404.536V340.088C404.536 342.888 402.952 345.176 400.472 346.104L399.784 345.016C401.992 344.232 403.432 342.296 403.432 340.088V338.6ZM403.672 338.6H404.76V340.04C404.76 342.088 406.168 343.896 408.28 344.632L407.56 345.672C405.224 344.792 403.672 342.664 403.672 340.04V338.6ZM410.36 337.784H411.688V346.344H410.36V337.784ZM406.936 346.76C409.912 346.76 411.752 347.768 411.752 349.496C411.752 351.224 409.912 352.216 406.936 352.216C403.944 352.216 402.104 351.224 402.104 349.496C402.104 347.768 403.944 346.76 406.936 346.76ZM406.936 347.816C404.76 347.816 403.432 348.44 403.432 349.496C403.432 350.552 404.76 351.176 406.936 351.176C409.112 351.176 410.44 350.552 410.44 349.496C410.44 348.44 409.112 347.816 406.936 347.816ZM407.224 340.84H410.648V341.944H407.224V340.84ZM425.031 337.784H426.359V345.272H425.031V337.784ZM417.015 346.008H426.375V349.48H418.343V351.464H417.047V348.488H425.063V347.048H417.015V346.008ZM417.047 351.032H426.855V352.088H417.047V351.032ZM418.279 338.2H419.383V339.304C419.383 341.976 417.719 344.248 415.271 345.144L414.615 344.088C416.791 343.32 418.279 341.4 418.279 339.304V338.2ZM418.519 338.2H419.607V339.304C419.607 341.304 421.127 343.112 423.271 343.816L422.615 344.856C420.183 344.024 418.519 341.896 418.519 339.304V338.2ZM432.87 338.6H433.974V340.088C433.974 342.888 432.39 345.176 429.91 346.104L429.222 345.016C431.43 344.232 432.87 342.296 432.87 340.088V338.6ZM433.11 338.6H434.198V340.04C434.198 342.088 435.606 343.896 437.718 344.632L436.998 345.672C434.662 344.792 433.11 342.664 433.11 340.04V338.6ZM439.798 337.784H441.126V346.344H439.798V337.784ZM436.374 346.76C439.35 346.76 441.19 347.768 441.19 349.496C441.19 351.224 439.35 352.216 436.374 352.216C433.382 352.216 431.542 351.224 431.542 349.496C431.542 347.768 433.382 346.76 436.374 346.76ZM436.374 347.816C434.198 347.816 432.87 348.44 432.87 349.496C432.87 350.552 434.198 351.176 436.374 351.176C438.55 351.176 439.878 350.552 439.878 349.496C439.878 348.44 438.55 347.816 436.374 347.816ZM436.661 340.84H440.086V341.944H436.661V340.84ZM452.179 351.159C451.414 351.159 450.755 351.019 450.202 350.739C449.649 350.458 449.223 350.074 448.923 349.585C448.624 349.097 448.474 348.538 448.474 347.909C448.474 347.424 448.577 346.994 448.781 346.619C448.99 346.241 449.276 345.89 449.639 345.568C450.007 345.242 450.429 344.917 450.906 344.591L452.588 343.341C452.918 343.125 453.181 342.894 453.378 342.648C453.579 342.402 453.679 342.08 453.679 341.682C453.679 341.386 453.548 341.1 453.287 340.824C453.029 340.547 452.69 340.409 452.27 340.409C451.974 340.409 451.713 340.485 451.486 340.636C451.262 340.784 451.086 340.973 450.957 341.205C450.832 341.432 450.77 341.667 450.77 341.909C450.77 342.182 450.844 342.458 450.991 342.739C451.143 343.015 451.334 343.299 451.565 343.591C451.8 343.879 452.043 344.174 452.293 344.477L457.634 351H456.02L451.611 345.682C451.202 345.189 450.83 344.742 450.497 344.341C450.164 343.939 449.899 343.544 449.702 343.153C449.505 342.763 449.406 342.341 449.406 341.886C449.406 341.364 449.522 340.905 449.753 340.511C449.988 340.114 450.315 339.805 450.736 339.585C451.16 339.362 451.656 339.25 452.224 339.25C452.808 339.25 453.31 339.364 453.73 339.591C454.151 339.814 454.474 340.112 454.702 340.483C454.929 340.85 455.043 341.25 455.043 341.682C455.043 342.239 454.904 342.722 454.628 343.131C454.351 343.54 453.974 343.92 453.497 344.273L451.179 346C450.656 346.386 450.302 346.761 450.116 347.125C449.931 347.489 449.838 347.75 449.838 347.909C449.838 348.273 449.933 348.612 450.122 348.926C450.312 349.241 450.579 349.494 450.923 349.688C451.268 349.881 451.671 349.977 452.134 349.977C452.573 349.977 453.001 349.884 453.418 349.699C453.834 349.509 454.211 349.237 454.548 348.881C454.889 348.525 455.158 348.097 455.355 347.597C455.556 347.097 455.656 346.534 455.656 345.909H456.952C456.952 346.682 456.863 347.312 456.685 347.801C456.507 348.29 456.306 348.672 456.082 348.949C455.859 349.225 455.679 349.432 455.543 349.568C455.497 349.625 455.455 349.682 455.418 349.739C455.38 349.795 455.338 349.852 455.293 349.909C454.918 350.33 454.444 350.644 453.872 350.852C453.3 351.057 452.736 351.159 452.179 351.159ZM464.839 338.712H473.879V339.8H464.839V338.712ZM463.191 345.016H476.263V346.104H463.191V345.016ZM466.551 345.688H467.879V352.248H466.551V345.688ZM473.159 338.712H474.471V339.784C474.471 341.144 474.471 342.888 473.975 345.368L472.663 345.24C473.159 342.84 473.159 341.112 473.159 339.784V338.712ZM471.495 345.688H472.823V352.248H471.495V345.688ZM481.829 340.344H482.917V340.952C482.917 343.512 481.269 345.624 478.837 346.44L478.181 345.4C480.341 344.696 481.829 342.936 481.829 340.952V340.344ZM482.053 340.344H483.141V340.952C483.141 342.808 484.661 344.472 486.805 345.128L486.181 346.168C483.733 345.4 482.053 343.4 482.053 340.952V340.344ZM478.533 339.528H486.405V340.6H478.533V339.528ZM481.829 337.72H483.141V340.088H481.829V337.72ZM488.421 337.784H489.765V346.696H488.421V337.784ZM480.101 347.432H489.765V352.248H488.421V348.504H480.101V347.432ZM498.292 339.144H499.476V339.576C499.476 342.024 496.868 343.736 493.908 344.184L493.412 343.112C495.972 342.776 498.292 341.336 498.292 339.576V339.144ZM498.852 339.144H500.02V339.576C500.02 341.336 502.356 342.776 504.916 343.112L504.404 344.184C501.46 343.736 498.852 342.024 498.852 339.576V339.144ZM493.812 338.504H504.516V339.576H493.812V338.504ZM492.612 345.224H505.716V346.312H492.612V345.224ZM498.596 345.896H499.924V349.224H498.596V345.896ZM494.276 350.84H504.26V351.928H494.276V350.84ZM494.276 347.832H495.588V351.256H494.276V347.832ZM513.187 338.296H514.355V339.096C514.355 341.864 511.539 343.848 508.531 344.36L508.003 343.288C510.643 342.888 513.187 341.16 513.187 339.096V338.296ZM513.427 338.296H514.579V339.096C514.579 341.112 517.155 342.888 519.763 343.288L519.235 344.36C516.259 343.848 513.427 341.832 513.427 339.096V338.296ZM513.187 346.744H514.499V352.248H513.187V346.744ZM507.347 345.928H520.419V347.032H507.347V345.928ZM387 377.864C386.542 377.864 386.123 377.752 385.744 377.528C385.366 377.301 385.063 376.998 384.835 376.619C384.612 376.241 384.5 375.822 384.5 375.364C384.5 374.902 384.612 374.483 384.835 374.108C385.063 373.729 385.366 373.428 385.744 373.205C386.123 372.977 386.542 372.864 387 372.864C387.462 372.864 387.881 372.977 388.256 373.205C388.634 373.428 388.936 373.729 389.159 374.108C389.386 374.483 389.5 374.902 389.5 375.364C389.5 375.822 389.386 376.241 389.159 376.619C388.936 376.998 388.634 377.301 388.256 377.528C387.881 377.752 387.462 377.864 387 377.864ZM410.328 366.768H411.656V381.264H410.328V366.768ZM400.632 376.672H401.832C404.248 376.672 406.408 376.576 408.968 376.16L409.112 377.248C406.488 377.68 404.312 377.776 401.832 377.776H400.632V376.672ZM400.6 368.128H407.288V373.296H401.96V377.088H400.632V372.208H405.944V369.216H400.6V368.128ZM415.239 376.576H416.343C419.031 376.576 420.759 376.512 422.775 376.128L422.919 377.216C420.839 377.6 419.095 377.696 416.343 377.696H415.239V376.576ZM415.239 368.16H421.815V369.248H416.551V376.992H415.239V368.16ZM425.111 366.784H426.439V381.28H425.111V366.784ZM420.967 372.016H425.655V373.12H420.967V372.016ZM432.998 367.264H434.102V368.608C434.102 371.28 432.438 373.552 429.99 374.416L429.318 373.36C431.494 372.592 432.998 370.688 432.998 368.608V367.264ZM433.238 367.264H434.326V368.608C434.326 370.608 435.846 372.4 437.99 373.088L437.334 374.144C434.902 373.312 433.238 371.184 433.238 368.608V367.264ZM439.75 366.784H441.094V374.544H439.75V366.784ZM431.766 375.264H433.078V377.024H439.782V375.264H441.094V381.056H431.766V375.264ZM433.078 378.08V379.984H439.782V378.08H433.078Z" fill="black"/>
</svg>
