<svg width="302" height="100" viewBox="0 0 302 100" fill="none" xmlns="http://www.w3.org/2000/svg">
<rect x="0.5" y="0.5" width="301" height="99" rx="4.5" stroke="#BFBFBF"/>
<path fill-rule="evenodd" clip-rule="evenodd" d="M80.8465 65.5075C84.0959 60.8223 86 55.1335 86 49C86 32.9837 73.0163 20 57 20C40.9837 20 28 32.9837 28 49C28 65.0163 40.9837 78 57 78C62.8896 78 68.3691 76.2443 72.9437 73.2278L85 77.5L80.8465 65.5075Z" fill="#8BC165"/>
<path d="M80.8465 65.5075L80.0248 64.9376L79.7354 65.3549L79.9016 65.8348L80.8465 65.5075ZM72.9437 73.2278L73.2777 72.2852L72.8087 72.119L72.3932 72.3929L72.9437 73.2278ZM85 77.5L84.666 78.4426L86.6252 79.1368L85.9449 77.1727L85 77.5ZM85 49C85 54.9234 83.1618 60.4144 80.0248 64.9376L81.6682 66.0774C85.0299 61.2302 87 55.3437 87 49H85ZM57 21C72.464 21 85 33.536 85 49H87C87 32.4315 73.5685 19 57 19V21ZM29 49C29 33.536 41.536 21 57 21V19C40.4315 19 27 32.4315 27 49H29ZM57 77C41.536 77 29 64.464 29 49H27C27 65.5685 40.4315 79 57 79V77ZM72.3932 72.3929C67.977 75.3051 62.6879 77 57 77V79C63.0912 79 68.7612 77.1836 73.4942 74.0626L72.3932 72.3929ZM72.6097 74.1703L84.666 78.4426L85.334 76.5574L73.2777 72.2852L72.6097 74.1703ZM85.9449 77.1727L81.7914 65.1802L79.9016 65.8348L84.0551 77.8273L85.9449 77.1727Z" fill="black"/>
<path d="M68.053 52.8771L73.3861 58.2102C74.1032 58.9273 74.1032 60.09 73.3861 60.8071C69.5089 64.6843 63.3708 65.1205 58.9843 61.8307L55.8116 59.4511C52.3003 56.8177 49.1811 53.6985 46.5477 50.1872L44.1681 47.0145C40.8782 42.628 41.3145 36.4899 45.1916 32.6127C45.9088 31.8956 47.0715 31.8956 47.7886 32.6127L53.1216 37.9457C53.9081 38.7322 53.9081 40.0073 53.1216 40.7938L51.0652 42.8503C50.7383 43.1771 50.6573 43.6764 50.864 44.0898C53.2538 48.8694 57.1294 52.745 61.909 55.1348C62.3224 55.3415 62.8217 55.2604 63.1485 54.9336L65.205 52.8771C65.9915 52.0907 67.2666 52.0907 68.053 52.8771Z" fill="white"/>
<path fill-rule="evenodd" clip-rule="evenodd" d="M71.4723 62.3375C72.1532 61.9078 72.7958 61.3973 73.3861 60.807C74.1033 60.0899 74.1033 58.9272 73.3861 58.21L68.0531 52.877C67.2666 52.0905 65.9915 52.0905 65.205 52.877L63.6084 54.4736L71.4723 62.3375ZM51.525 42.3903L53.1217 40.7937C53.9082 40.0072 53.9082 38.7321 53.1217 37.9456L47.7887 32.6126C47.078 31.9019 45.9299 31.8955 45.2113 32.5932L45.1442 32.6604C44.574 33.2375 44.0793 33.8638 43.6611 34.5264L51.525 42.3903Z" fill="white"/>
<path d="M115.816 24.608H117.96V32.576H115.816V24.608ZM108.104 33.216H110.2V34.592H115.848V33.216H117.96V39.264H108.104V33.216ZM110.2 36.224V37.568H115.848V36.224H110.2ZM109.896 25.216C112.2 25.216 113.912 26.672 113.912 28.72C113.912 30.768 112.2 32.224 109.896 32.224C107.592 32.224 105.864 30.768 105.864 28.72C105.864 26.672 107.592 25.216 109.896 25.216ZM109.896 26.976C108.76 26.976 107.944 27.632 107.944 28.72C107.944 29.824 108.76 30.464 109.896 30.464C111.016 30.464 111.832 29.824 111.832 28.72C111.832 27.632 111.016 26.976 109.896 26.976ZM123.975 25.744H125.703V27.904C125.703 31.712 124.391 35.152 121.447 36.512L120.183 34.752C122.759 33.632 123.975 30.784 123.975 27.904V25.744ZM124.391 25.744H126.119V27.904C126.119 30.64 127.287 33.36 129.815 34.448L128.567 36.16C125.703 34.848 124.391 31.552 124.391 27.904V25.744ZM130.519 24.592H132.663V39.456H130.519V24.592ZM136.39 25.856H145.766V27.568H136.39V25.856ZM135.094 35.92H148.486V37.648H135.094V35.92ZM137.894 31.248H140.006V36.464H137.894V31.248ZM145.142 25.856H147.286V27.312C147.286 29.104 147.286 31.152 146.758 34.16L144.646 33.952C145.142 31.136 145.142 29.056 145.142 27.312V25.856ZM141.558 31.248H143.654V36.464H141.558V31.248ZM152.948 32.352H155.076V35.264H152.948V32.352ZM157.892 32.336H160.004V35.248H157.892V32.336ZM149.796 31.52H163.188V33.2H149.796V31.52ZM151.284 34.56H161.572V39.424H159.444V36.224H151.284V34.56ZM156.5 24.896C159.748 24.896 161.86 26.016 161.86 27.808C161.86 29.616 159.748 30.736 156.5 30.736C153.236 30.736 151.14 29.616 151.14 27.808C151.14 26.016 153.236 24.896 156.5 24.896ZM156.5 26.544C154.468 26.544 153.332 26.96 153.332 27.808C153.332 28.672 154.468 29.088 156.5 29.088C158.516 29.088 159.668 28.672 159.668 27.808C159.668 26.96 158.516 26.544 156.5 26.544ZM171.388 25.408H173.132V26.72C173.132 29.664 171.852 32.256 169.036 33.232L167.9 31.552C170.38 30.72 171.388 28.736 171.388 26.72V25.408ZM171.82 25.408H173.548V26.928C173.548 28.704 174.54 30.432 176.86 31.152L175.756 32.8C173.084 31.904 171.82 29.6 171.82 26.928V25.408ZM177.676 24.608H179.804V33.36H177.676V24.608ZM179.212 28.032H181.772V29.792H179.212V28.032ZM174.972 33.696C178.044 33.696 179.98 34.768 179.98 36.56C179.98 38.368 178.044 39.424 174.972 39.424C171.884 39.424 169.948 38.368 169.948 36.56C169.948 34.768 171.884 33.696 174.972 33.696ZM174.972 35.344C173.084 35.344 172.06 35.744 172.06 36.56C172.06 37.392 173.084 37.776 174.972 37.776C176.86 37.776 177.868 37.392 177.868 36.56C177.868 35.744 176.86 35.344 174.972 35.344ZM192.395 24.608H194.523V32.912H192.395V24.608ZM193.931 27.936H196.491V29.664H193.931V27.936ZM183.419 30.688H184.651C187.867 30.688 189.467 30.608 191.243 30.24L191.451 31.92C189.643 32.32 187.947 32.4 184.651 32.4H183.419V30.688ZM183.419 25.52H189.995V27.216H185.531V31.68H183.419V25.52ZM184.891 33.552H194.523V39.264H184.891V33.552ZM192.443 35.232H186.987V37.584H192.443V35.232ZM201.274 38.224C198.81 38.224 197.418 36.704 197.418 34.864C197.418 31.104 202.922 30.912 202.922 28.544C202.922 27.952 202.634 27.504 202.026 27.504C201.338 27.504 200.842 28.08 200.842 28.944C200.842 30.912 203.37 33.584 205.753 35.104C206.714 35.728 207.658 36.16 208.442 36.32L207.866 38.224C206.746 38 205.53 37.424 204.33 36.624C201.466 34.624 198.89 31.36 198.89 28.944C198.89 27.296 200.106 25.952 201.978 25.952C203.674 25.952 204.73 26.976 204.73 28.528C204.73 31.648 199.658 32.448 199.658 34.72C199.658 35.744 200.442 36.416 201.562 36.416C202.442 36.416 203.322 35.936 204.106 35.168C205.034 34.208 205.786 32.944 206.202 31.392H208.346C207.818 33.184 206.97 34.8 205.706 36.224C204.634 37.424 203.162 38.224 201.274 38.224ZM209.421 31.92H222.829V33.616H209.421V31.92ZM215.229 32.992H217.373V36.112H215.229V32.992ZM211.069 25.232H221.133V30.736H211.069V25.232ZM219.037 26.896H213.149V29.072H219.037V26.896ZM210.973 37.472H221.357V39.168H210.973V37.472ZM210.973 34.864H213.085V38.032H210.973V34.864ZM228.908 25.584C231.244 25.584 232.988 27.104 232.988 29.232C232.988 31.376 231.244 32.896 228.908 32.896C226.588 32.896 224.812 31.376 224.812 29.232C224.812 27.104 226.588 25.584 228.908 25.584ZM228.908 27.408C227.772 27.408 226.908 28.08 226.908 29.232C226.908 30.4 227.772 31.072 228.908 31.072C230.044 31.072 230.908 30.4 230.908 29.232C230.908 28.08 230.044 27.408 228.908 27.408ZM234.38 24.592H236.508V39.456H234.38V24.592ZM224.46 36.448L224.204 34.736C226.812 34.736 230.444 34.704 233.564 34.24L233.724 35.776C230.508 36.416 227.02 36.448 224.46 36.448Z" fill="#FF0000"/>
<path d="M112.93 72.364C108.848 72.364 106.066 68.88 106.066 62.224C106.066 55.568 108.848 52.292 112.93 52.292C117.012 52.292 119.768 55.594 119.768 62.224C119.768 68.88 117.012 72.364 112.93 72.364ZM112.93 68.776C114.308 68.776 115.4 67.528 115.4 62.224C115.4 56.946 114.308 55.828 112.93 55.828C111.552 55.828 110.434 56.946 110.434 62.224C110.434 67.528 111.552 68.776 112.93 68.776ZM121.936 72V69.348C126.772 64.954 130.022 61.444 130.022 58.636C130.022 56.868 129.06 55.906 127.5 55.906C126.174 55.906 125.16 56.79 124.224 57.778L121.702 55.282C123.6 53.254 125.368 52.292 128.124 52.292C131.868 52.292 134.468 54.684 134.468 58.376C134.468 61.704 131.608 65.37 128.644 68.36C129.606 68.23 130.932 68.1 131.816 68.1H135.352V72H121.936ZM137.988 66.098V62.848H145.346V66.098H137.988ZM154.051 72.364C150.957 72.364 148.825 71.194 147.291 69.686L149.397 66.774C150.489 67.814 151.841 68.62 153.375 68.62C155.247 68.62 156.417 67.606 156.417 65.604C156.417 63.654 155.247 62.614 153.583 62.614C152.517 62.614 151.997 62.822 150.853 63.55L148.825 62.224L149.319 52.63H160.187V56.504H153.297L153.011 59.78C153.713 59.494 154.285 59.39 155.013 59.39C158.289 59.39 161.045 61.314 161.045 65.5C161.045 69.842 157.769 72.364 154.051 72.364ZM164.512 72V68.256H168.62V57.258H165.058V54.398C167.138 54.008 168.49 53.488 169.842 52.63H173.248V68.256H176.732V72H164.512ZM179.42 72V69.348C184.256 64.954 187.506 61.444 187.506 58.636C187.506 56.868 186.544 55.906 184.984 55.906C183.658 55.906 182.644 56.79 181.708 57.778L179.186 55.282C181.084 53.254 182.852 52.292 185.608 52.292C189.352 52.292 191.952 54.684 191.952 58.376C191.952 61.704 189.092 65.37 186.128 68.36C187.09 68.23 188.416 68.1 189.3 68.1H192.836V72H179.42ZM195.472 66.098V62.848H202.83V66.098H195.472ZM212.003 72.364C208.207 72.364 205.373 70.258 205.373 67.19C205.373 64.772 206.751 63.238 208.545 62.302V62.172C207.037 61.054 206.023 59.572 206.023 57.518C206.023 54.294 208.597 52.292 212.159 52.292C215.643 52.292 217.957 54.32 217.957 57.466C217.957 59.312 216.839 60.846 215.513 61.756V61.886C217.359 62.848 218.763 64.46 218.763 67.112C218.763 70.102 216.059 72.364 212.003 72.364ZM213.173 60.638C213.901 59.754 214.213 58.766 214.213 57.778C214.213 56.374 213.407 55.49 212.055 55.49C210.989 55.49 210.079 56.14 210.079 57.518C210.079 59.052 211.275 59.884 213.173 60.638ZM212.107 69.14C213.459 69.14 214.473 68.464 214.473 66.93C214.473 65.24 212.991 64.512 210.625 63.498C209.845 64.252 209.325 65.422 209.325 66.644C209.325 68.23 210.599 69.14 212.107 69.14ZM227.223 72.364C224.155 72.364 221.997 71.298 220.593 69.66L222.725 66.748C223.895 67.84 225.247 68.62 226.755 68.62C228.549 68.62 229.719 67.866 229.719 66.41C229.719 64.746 228.835 63.758 224.779 63.758V60.482C228.081 60.482 229.121 59.494 229.121 57.96C229.121 56.634 228.341 55.906 226.911 55.906C225.611 55.906 224.623 56.478 223.453 57.518L221.113 54.684C222.907 53.176 224.831 52.292 227.119 52.292C231.123 52.292 233.749 54.164 233.749 57.622C233.749 59.546 232.709 61.054 230.655 61.886V62.016C232.787 62.666 234.373 64.226 234.373 66.722C234.373 70.336 231.071 72.364 227.223 72.364ZM244.523 72V60.82C244.523 59.598 244.627 57.752 244.679 56.504H244.575C244.081 57.622 243.561 58.74 243.015 59.832L240.805 63.654H250.971V67.164H236.385V63.966L243.119 52.63H248.839V72H244.523ZM258.91 72.364C255.842 72.364 253.684 71.298 252.28 69.66L254.412 66.748C255.582 67.84 256.934 68.62 258.442 68.62C260.236 68.62 261.406 67.866 261.406 66.41C261.406 64.746 260.522 63.758 256.466 63.758V60.482C259.768 60.482 260.808 59.494 260.808 57.96C260.808 56.634 260.028 55.906 258.598 55.906C257.298 55.906 256.31 56.478 255.14 57.518L252.8 54.684C254.594 53.176 256.518 52.292 258.806 52.292C262.81 52.292 265.436 54.164 265.436 57.622C265.436 59.546 264.396 61.054 262.342 61.886V62.016C264.474 62.666 266.06 64.226 266.06 66.722C266.06 70.336 262.758 72.364 258.91 72.364Z" fill="black"/>
</svg>
