<svg width="531" height="41" viewBox="0 0 531 41" fill="none" xmlns="http://www.w3.org/2000/svg">
<path d="M13.5858 35.3283L0.585762 22.3283C-0.195254 21.5473 -0.195254 20.281 0.585762 19.4999L3.41412 16.6715C4.19514 15.8904 5.46154 15.8904 6.24256 16.6715L15 25.4288L33.7574 6.67146C34.5384 5.89044 35.8048 5.89044 36.5858 6.67146L39.4142 9.49989C40.1952 10.2809 40.1952 11.5472 39.4142 12.3283L16.4142 35.3284C15.6331 36.1094 14.3668 36.1094 13.5858 35.3283Z" fill="#F81111"/>
<path d="M60.1 12.168H62.872V18.244H67.352V12.168H70.04V29.052H60.1V12.168ZM62.872 20.568V26.672H67.352V20.568H62.872ZM78.328 9.732H81.128V35.324H78.328V9.732ZM69.564 19.28H74.184V21.688H69.564V19.28ZM73.176 10.236H75.948V34.12H73.176V10.236ZM103.218 9.704H106.158V35.352H103.218V9.704ZM86.4738 26.868H88.6578C93.0538 26.868 96.7778 26.7 101.09 25.972L101.398 28.352C96.9738 29.108 93.1658 29.276 88.6578 29.276H86.4738V26.868ZM86.4178 12H98.3458V21.492H89.4418V27.764H86.4738V19.14H95.3778V14.38H86.4178V12ZM111.84 26.924H113.912C118.448 26.924 121.724 26.84 125.56 26.196L125.84 28.548C121.92 29.22 118.532 29.332 113.912 29.332H111.84V26.924ZM111.84 11.972H123.796V14.38H114.78V27.736H111.84V11.972ZM114.052 19.112H123.32V21.436H114.052V19.112ZM127.688 9.732H130.628V35.324H127.688V9.732ZM129.956 19.756H134.604V22.192H129.956V19.756ZM146.473 11.356H149.021V13.288C149.021 18.832 144.373 23.424 138.605 24.656L137.317 22.22C142.385 21.296 146.473 17.32 146.473 13.288V11.356ZM147.033 11.356H149.581V13.288C149.581 17.376 153.669 21.296 158.737 22.22L157.449 24.656C151.681 23.424 147.033 18.888 147.033 13.288V11.356ZM136.561 29.612H159.745V32.02H136.561V29.612ZM168.451 22.668H171.391V28.744H168.451V22.668ZM169.907 11.328C173.827 11.328 176.739 13.848 176.739 17.46C176.739 21.072 173.827 23.592 169.907 23.592C165.931 23.592 163.047 21.072 163.047 17.46C163.047 13.848 165.931 11.328 169.907 11.328ZM169.907 13.82C167.583 13.82 165.903 15.248 165.903 17.46C165.903 19.672 167.583 21.1 169.907 21.1C172.203 21.1 173.883 19.672 173.883 17.46C173.883 15.248 172.203 13.82 169.907 13.82ZM179.259 9.732H182.199V35.324H179.259V9.732ZM181.331 20.036H185.951V22.472H181.331V20.036ZM162.403 29.976L162.011 27.596C166.547 27.568 172.623 27.568 177.775 26.868L177.999 29.024C172.651 29.976 166.799 30.004 162.403 29.976ZM211.39 9.732H214.33V25.132H211.39V9.732ZM213.518 16.312H217.942V18.748H213.518V16.312ZM198.006 26.448H214.33V35.016H198.006V26.448ZM211.446 28.772H200.89V32.664H211.446V28.772ZM194.394 12.252H209.458V14.604H194.394V12.252ZM201.926 15.64C205.594 15.64 208.114 17.488 208.114 20.232C208.114 23.004 205.594 24.796 201.926 24.796C198.23 24.796 195.71 23.004 195.71 20.232C195.71 17.488 198.23 15.64 201.926 15.64ZM201.926 17.852C199.91 17.852 198.538 18.748 198.538 20.232C198.538 21.716 199.91 22.612 201.926 22.612C203.942 22.612 205.314 21.716 205.314 20.232C205.314 18.748 203.942 17.852 201.926 17.852ZM200.47 9.536H203.382V13.484H200.47V9.536ZM223.876 12.728H226.368C226.368 18.664 225.668 24.544 222.224 29.556L219.956 28.296C223.232 23.676 223.876 18.748 223.876 12.952V12.728ZM220.628 12.728H225.388V15.108H220.628V12.728ZM229.532 12.728H232.024C232.024 18.692 231.688 25.524 227.908 31.04L225.64 29.752C229.28 24.656 229.532 18.664 229.532 12.98V12.728ZM227.152 12.728H231.156V15.108H227.152V12.728ZM239.304 9.732H242.104V35.324H239.304V9.732ZM230.82 19.588H234.992V21.94H230.82V19.588ZM234.46 10.348H237.232V34.092H234.46V10.348ZM262.906 9.76H265.846V28.912H262.906V9.76ZM264.978 17.88H269.458V20.316H264.978V17.88ZM245.91 12.672H260.974V14.996H245.91V12.672ZM253.442 16.172C257.082 16.172 259.63 18.132 259.63 21.016C259.63 23.928 257.082 25.86 253.442 25.86C249.774 25.86 247.226 23.928 247.226 21.016C247.226 18.132 249.774 16.172 253.442 16.172ZM253.442 18.44C251.426 18.44 250.054 19.42 250.054 21.016C250.054 22.64 251.426 23.592 253.442 23.592C255.458 23.592 256.83 22.64 256.83 21.016C256.83 19.42 255.458 18.44 253.442 18.44ZM251.986 9.732H254.898V13.82H251.986V9.732ZM249.662 32.44H266.882V34.82H249.662V32.44ZM249.662 27.428H252.602V33.448H249.662V27.428ZM277.957 12.224H293.021V14.576H277.957V12.224ZM285.489 15.668C289.157 15.668 291.677 17.516 291.677 20.344C291.677 23.144 289.157 24.964 285.489 24.964C281.821 24.964 279.273 23.144 279.273 20.344C279.273 17.516 281.821 15.668 285.489 15.668ZM285.489 17.908C283.473 17.908 282.101 18.804 282.101 20.344C282.101 21.828 283.473 22.752 285.489 22.752C287.505 22.752 288.877 21.828 288.877 20.344C288.877 18.804 287.505 17.908 285.489 17.908ZM294.953 9.732H297.893V25.748H294.953V9.732ZM297.081 16.592H301.505V19H297.081V16.592ZM281.065 27.008H297.893V35.324H294.953V29.36H281.065V27.008ZM284.033 9.592H286.945V13.568H284.033V9.592ZM308.698 11.3H310.994V14.52C310.994 18.58 309.006 22.724 305.058 24.432L303.518 22.164C306.962 20.652 308.698 17.404 308.698 14.52V11.3ZM309.202 11.3H311.526V14.52C311.526 17.32 313.206 20.148 316.51 21.436L314.942 23.676C311.134 22.164 309.202 18.468 309.202 14.52V11.3ZM322.558 9.76H325.33V25.468H322.558V9.76ZM318.918 16.312H323.398V18.692H318.918V16.312ZM317.098 10.236H319.842V24.656H317.098V10.236ZM316.818 25.944C322.11 25.944 325.47 27.68 325.47 30.62C325.47 33.56 322.11 35.296 316.818 35.296C311.47 35.296 308.166 33.56 308.166 30.62C308.166 27.68 311.47 25.944 316.818 25.944ZM316.818 28.184C313.206 28.184 311.05 29.052 311.05 30.62C311.05 32.188 313.206 33.056 316.818 33.056C320.402 33.056 322.53 32.188 322.53 30.62C322.53 29.052 320.402 28.184 316.818 28.184ZM329.444 20.064H352.572V22.416H329.444V20.064ZM332.412 15.976H349.828V18.328H332.412V15.976ZM332.412 10.404H349.576V12.756H335.324V17.936H332.412V10.404ZM332.16 24.292H349.66V30.648H335.1V33.42H332.188V28.52H346.776V26.56H332.16V24.292ZM332.188 32.776H350.388V35.072H332.188V32.776ZM363.462 11.524C367.466 11.524 370.378 14.044 370.378 17.656C370.378 21.296 367.466 23.816 363.462 23.816C359.458 23.816 356.49 21.296 356.49 17.656C356.49 14.044 359.458 11.524 363.462 11.524ZM363.462 14.044C361.11 14.044 359.374 15.444 359.374 17.656C359.374 19.868 361.11 21.296 363.462 21.296C365.786 21.296 367.522 19.868 367.522 17.656C367.522 15.444 365.786 14.044 363.462 14.044ZM373.318 9.704H376.258V35.352H373.318V9.704ZM355.678 29.948L355.314 27.54C359.906 27.54 366.262 27.484 371.778 26.672L372.002 28.8C366.346 29.892 360.186 29.948 355.678 29.948ZM392.261 11.3H394.557V14.52C394.557 18.58 392.569 22.724 388.621 24.432L387.081 22.164C390.525 20.652 392.261 17.404 392.261 14.52V11.3ZM392.765 11.3H395.089V14.52C395.089 17.32 396.769 20.148 400.073 21.436L398.505 23.676C394.697 22.164 392.765 18.468 392.765 14.52V11.3ZM406.121 9.76H408.893V25.468H406.121V9.76ZM402.481 16.312H406.961V18.692H402.481V16.312ZM400.661 10.236H403.405V24.656H400.661V10.236ZM400.381 25.944C405.673 25.944 409.033 27.68 409.033 30.62C409.033 33.56 405.673 35.296 400.381 35.296C395.033 35.296 391.729 33.56 391.729 30.62C391.729 27.68 395.033 25.944 400.381 25.944ZM400.381 28.184C396.769 28.184 394.613 29.052 394.613 30.62C394.613 32.188 396.769 33.056 400.381 33.056C403.965 33.056 406.093 32.188 406.093 30.62C406.093 29.052 403.965 28.184 400.381 28.184ZM418.019 11.3H420.315V14.52C420.315 18.58 418.327 22.724 414.379 24.432L412.839 22.164C416.283 20.652 418.019 17.404 418.019 14.52V11.3ZM418.523 11.3H420.847V14.52C420.847 17.32 422.527 20.148 425.831 21.436L424.263 23.676C420.455 22.164 418.523 18.468 418.523 14.52V11.3ZM431.879 9.76H434.651V25.468H431.879V9.76ZM428.239 16.312H432.719V18.692H428.239V16.312ZM426.419 10.236H429.163V24.656H426.419V10.236ZM426.139 25.944C431.431 25.944 434.791 27.68 434.791 30.62C434.791 33.56 431.431 35.296 426.139 35.296C420.791 35.296 417.487 33.56 417.487 30.62C417.487 27.68 420.791 25.944 426.139 25.944ZM426.139 28.184C422.527 28.184 420.371 29.052 420.371 30.62C420.371 32.188 422.527 33.056 426.139 33.056C429.723 33.056 431.851 32.188 431.851 30.62C431.851 29.052 429.723 28.184 426.139 28.184ZM455.789 9.76H458.729V28.912H455.789V9.76ZM457.861 17.88H462.341V20.316H457.861V17.88ZM438.793 12.672H453.857V14.996H438.793V12.672ZM446.325 16.172C449.965 16.172 452.513 18.132 452.513 21.016C452.513 23.928 449.965 25.86 446.325 25.86C442.657 25.86 440.109 23.928 440.109 21.016C440.109 18.132 442.657 16.172 446.325 16.172ZM446.325 18.44C444.309 18.44 442.937 19.42 442.937 21.016C442.937 22.64 444.309 23.592 446.325 23.592C448.341 23.592 449.713 22.64 449.713 21.016C449.713 19.42 448.341 18.44 446.325 18.44ZM444.869 9.732H447.781V13.82H444.869V9.732ZM442.545 32.44H459.765V34.82H442.545V32.44ZM442.545 27.428H445.485V33.448H442.545V27.428ZM471.959 12.532H492.651V14.856H471.959V12.532ZM470.811 26.308H493.995V28.688H470.811V26.308ZM480.891 28.324H483.803V35.352H480.891V28.324ZM482.347 16.144C487.695 16.144 490.859 17.684 490.859 20.456C490.859 23.228 487.695 24.796 482.347 24.796C476.999 24.796 473.835 23.228 473.835 20.456C473.835 17.684 476.999 16.144 482.347 16.144ZM482.347 18.328C478.791 18.328 476.887 19.056 476.887 20.456C476.887 21.856 478.791 22.584 482.347 22.584C485.931 22.584 487.835 21.856 487.835 20.456C487.835 19.056 485.931 18.328 482.347 18.328ZM480.891 9.648H483.803V14.1H480.891V9.648ZM514.741 9.732H517.681V35.324H514.741V9.732ZM507.237 12.448H510.121C510.121 20.036 507.097 26.476 498.305 30.76L496.765 28.408C504.129 24.852 507.237 19.784 507.237 12.952V12.448ZM498.025 12.448H508.553V14.8H498.025V12.448ZM524.763 26.448L524.287 15.248L524.203 11.888H527.451L527.367 15.248L526.919 26.448H524.763ZM525.827 33.392C524.623 33.392 523.671 32.44 523.671 31.124C523.671 29.78 524.623 28.856 525.827 28.856C527.059 28.856 527.983 29.78 527.983 31.124C527.983 32.44 527.059 33.392 525.827 33.392Z" fill="#252525"/>
</svg>
